<?xml version="1.0" standalone="yes"?>

<svg version="1.1" viewBox="0.0 0.0 910.8740157480315 436.20472440944883" fill="none" stroke="none" stroke-linecap="square" stroke-miterlimit="10" xmlns="http://www.w3.org/2000/svg" xmlns:xlink="http://www.w3.org/1999/xlink"><clipPath id="p.0"><path d="m0 0l910.874 0l0 436.2047l-910.874 0l0 -436.2047z" clip-rule="nonzero"></path></clipPath><g clip-path="url(#p.0)"><path fill="#ffffff" d="m0 0l910.874 0l0 436.2047l-910.874 0z" fill-rule="nonzero"></path><path fill="#cfe2f3" d="m390.05905 298.6063l312.7244 0l0 129.00787l-312.7244 0z" fill-rule="nonzero"></path><path stroke="#434343" stroke-width="1.0" stroke-linejoin="round" stroke-linecap="butt" d="m390.05905 298.6063l312.7244 0l0 129.00787l-312.7244 0z" fill-rule="nonzero"></path><path fill="#434343" d="m446.98105 353.84586l2.84375 0l3.359375 11.328125q0.578125 1.875 1.0 3.484375q0.4375 1.59375 1.046875 3.453125l0.140625 0q0.5625 -1.859375 1.015625 -3.453125q0.453125 -1.609375 1.0 -3.484375l3.359375 -11.328125l2.71875 0l-6.65625 20.984375l-3.109375 0l-6.71875 -20.984375zm20.448792 2.234375q-0.765625 0 -1.296875 -0.484375q-0.53125 -0.484375 -0.53125 -1.21875q0 -0.765625 0.53125 -1.21875q0.53125 -0.46875 1.296875 -0.46875q0.765625 0 1.296875 0.46875q0.53125 0.453125 0.53125 1.21875q0 0.734375 -0.53125 1.21875q-0.53125 0.484375 -1.296875 0.484375zm-1.34375 3.203125l2.625 0l0 15.546875l-2.625 0l0 -15.546875zm6.7157593 7.796875q0 -1.90625 0.59375 -3.421875q0.59375 -1.53125 1.5625 -2.578125q0.984375 -1.0625 2.234375 -1.625q1.25 -0.5625 2.59375 -0.5625q1.46875 0 2.625 0.515625q1.171875 0.515625 1.953125 1.484375q0.796875 0.953125 1.203125 2.296875q0.421875 1.34375 0.421875 3.0q0 0.859375 -0.09375 1.4375l-10.5 0q0.15625 2.53125 1.546875 4.0q1.40625 1.46875 3.640625 1.46875q1.125 0 2.0625 -0.328125q0.9375 -0.34375 1.8125 -0.875l0.921875 1.71875q-1.015625 0.640625 -2.265625 1.125q-1.25 0.484375 -2.859375 0.484375q-1.5625 0 -2.921875 -0.5625q-1.359375 -0.5625 -2.375 -1.59375q-1.0 -1.046875 -1.578125 -2.546875q-0.578125 -1.515625 -0.578125 -3.4375zm10.890625 -1.171875q0 -2.40625 -1.015625 -3.671875q-1.0 -1.265625 -2.828125 -1.265625q-0.828125 0 -1.59375 0.34375q-0.75 0.328125 -1.359375 0.953125q-0.609375 0.625 -1.015625 1.546875q-0.390625 0.90625 -0.515625 2.09375l8.328125 0zm4.27829 -6.625l2.6875 0l2.3125 8.984375q0.25 1.125 0.46875 2.1875q0.234375 1.046875 0.453125 2.140625l0.125 0q0.265625 -1.09375 0.515625 -2.15625q0.25 -1.078125 0.546875 -2.171875l2.390625 -8.984375l2.5625 0l2.4375 8.984375q0.28125 1.125 0.546875 2.1875q0.28125 1.046875 0.546875 2.140625l0.125 0q0.25 -1.09375 0.46875 -2.140625q0.234375 -1.0625 0.484375 -2.1875l2.28125 -8.984375l2.484375 0l-4.15625 15.546875l-3.203125 0l-2.234375 -8.359375q-0.296875 -1.109375 -0.53125 -2.1875q-0.234375 -1.09375 -0.53125 -2.28125l-0.125 0q-0.25 1.1875 -0.515625 2.296875q-0.25 1.09375 -0.5625 2.21875l-2.1875 8.3125l-3.0625 0l-4.328125 -15.546875zm23.866669 5.046875q0 -2.53125 0.7030945 -4.546875q0.71875 -2.015625 1.953125 -3.421875q1.25 -1.40625 2.953125 -2.15625q1.71875 -0.75 3.75 -0.75q1.90625 0 3.34375 0.78125q1.453125 0.78125 2.375 1.8125l-1.5 1.6875q-0.828125 -0.890625 -1.84375 -1.421875q-1.0 -0.53125 -2.34375 -0.53125q-1.515625 0 -2.734375 0.59375q-1.203125 0.59375 -2.078125 1.703125q-0.859375 1.109375 -1.34375 2.671875q-0.46875 1.5625 -0.46875 3.515625q0 1.984375 0.453125 3.578125q0.46875 1.578125 1.296875 2.703125q0.84375 1.109375 2.03125 1.71875q1.203125 0.609375 2.703125 0.609375q1.546875 0 2.671875 -0.609375q1.140625 -0.609375 2.171875 -1.71875l1.5 1.625q-1.25 1.4375 -2.828125 2.25q-1.5625 0.796875 -3.578125 0.796875q-1.984375 0 -3.671875 -0.734375q-1.671875 -0.75 -2.90625 -2.140625q-1.21875 -1.390625 -1.921875 -3.421875q-0.6874695 -2.03125 -0.6874695 -4.59375zm18.084503 2.75q0 -1.953125 0.59375 -3.46875q0.59375 -1.515625 1.578125 -2.5625q1.0 -1.0625 2.296875 -1.609375q1.296875 -0.546875 2.734375 -0.546875q1.4375 0 2.734375 0.546875q1.296875 0.546875 2.28125 1.609375q1.0 1.046875 1.59375 2.5625q0.59375 1.515625 0.59375 3.46875q0 1.921875 -0.59375 3.453125q-0.59375 1.515625 -1.59375 2.5625q-0.984375 1.03125 -2.28125 1.578125q-1.296875 0.546875 -2.734375 0.546875q-1.4375 0 -2.734375 -0.546875q-1.296875 -0.546875 -2.296875 -1.578125q-0.984375 -1.046875 -1.578125 -2.5625q-0.59375 -1.53125 -0.59375 -3.453125zm2.71875 0q0 1.34375 0.3125 2.4375q0.328125 1.09375 0.921875 1.875q0.59375 0.78125 1.421875 1.21875q0.84375 0.421875 1.828125 0.421875q0.984375 0 1.8125 -0.421875q0.84375 -0.4375 1.4375 -1.21875q0.59375 -0.78125 0.90625 -1.875q0.328125 -1.09375 0.328125 -2.4375q0 -1.34375 -0.328125 -2.4375q-0.3125 -1.109375 -0.90625 -1.90625q-0.59375 -0.796875 -1.4375 -1.234375q-0.828125 -0.4375 -1.8125 -0.4375q-0.984375 0 -1.828125 0.4375q-0.828125 0.4375 -1.421875 1.234375q-0.59375 0.796875 -0.921875 1.90625q-0.3125 1.09375 -0.3125 2.4375zm15.781555 -7.796875l2.171875 0l0.234375 2.234375l0.09375 0q1.109375 -1.125 2.34375 -1.875q1.234375 -0.75 2.875 -0.75q2.453125 0 3.59375 1.546875q1.140625 1.53125 1.140625 4.53125l0 9.859375l-2.625 0l0 -9.5q0 -2.21875 -0.703125 -3.1875q-0.703125 -0.96875 -2.25 -0.96875q-1.21875 0 -2.140625 0.609375q-0.921875 0.59375 -2.109375 1.78125l0 11.265625l-2.625 0l0 -15.546875zm17.957153 2.140625l-2.3125 0l0 -1.984375l2.4375 -0.15625l0.3125 -4.359375l2.21875 0l0 4.359375l4.1875 0l0 2.140625l-4.1875 0l0 8.640625q0 1.4375 0.515625 2.21875q0.53125 0.78125 1.875 0.78125q0.421875 0 0.890625 -0.125q0.484375 -0.125 0.875 -0.28125l0.515625 1.984375q-0.640625 0.21875 -1.40625 0.390625q-0.75 0.1875 -1.484375 0.1875q-1.25 0 -2.09375 -0.390625q-0.84375 -0.390625 -1.375 -1.0625q-0.53125 -0.671875 -0.75 -1.625q-0.21875 -0.953125 -0.21875 -2.109375l0 -8.609375zm10.362915 -2.140625l2.171875 0l0.234375 2.8125l0.09375 0q0.796875 -1.46875 1.921875 -2.328125q1.140625 -0.875 2.484375 -0.875q0.9375 0 1.671875 0.328125l-0.515625 2.296875q-0.390625 -0.125 -0.71875 -0.1875q-0.3125 -0.0625 -0.78125 -0.0625q-1.0 0 -2.078125 0.796875q-1.0625 0.796875 -1.859375 2.78125l0 9.984375l-2.625 0l0 -15.546875zm9.947754 7.796875q0 -1.953125 0.59375 -3.46875q0.59375 -1.515625 1.578125 -2.5625q1.0 -1.0625 2.296875 -1.609375q1.296875 -0.546875 2.734375 -0.546875q1.4375 0 2.734375 0.546875q1.296875 0.546875 2.28125 1.609375q1.0 1.046875 1.59375 2.5625q0.59375 1.515625 0.59375 3.46875q0 1.921875 -0.59375 3.453125q-0.59375 1.515625 -1.59375 2.5625q-0.984375 1.03125 -2.28125 1.578125q-1.296875 0.546875 -2.734375 0.546875q-1.4375 0 -2.734375 -0.546875q-1.296875 -0.546875 -2.296875 -1.578125q-0.984375 -1.046875 -1.578125 -2.5625q-0.59375 -1.53125 -0.59375 -3.453125zm2.71875 0q0 1.34375 0.3125 2.4375q0.328125 1.09375 0.921875 1.875q0.59375 0.78125 1.421875 1.21875q0.84375 0.421875 1.828125 0.421875q0.984375 0 1.8125 -0.421875q0.84375 -0.4375 1.4375 -1.21875q0.59375 -0.78125 0.90625 -1.875q0.328125 -1.09375 0.328125 -2.4375q0 -1.34375 -0.328125 -2.4375q-0.3125 -1.109375 -0.90625 -1.90625q-0.59375 -0.796875 -1.4375 -1.234375q-0.828125 -0.4375 -1.8125 -0.4375q-0.984375 0 -1.828125 0.4375q-0.828125 0.4375 -1.421875 1.234375q-0.59375 0.796875 -0.921875 1.90625q-0.3125 1.09375 -0.3125 2.4375zm15.781555 -15.03125l2.625 0l0 19.84375q0 0.640625 0.21875 0.890625q0.234375 0.25 0.515625 0.25q0.125 0 0.234375 0q0.125 0 0.34375 -0.0625l0.34375 1.984375q-0.25 0.125 -0.609375 0.1875q-0.34375 0.078125 -0.890625 0.078125q-1.5 0 -2.140625 -0.890625q-0.640625 -0.90625 -0.640625 -2.640625l0 -19.640625zm8.160034 0l2.625 0l0 19.84375q0 0.640625 0.21875 0.890625q0.234375 0.25 0.515625 0.25q0.125 0 0.234375 0q0.125 0 0.34375 -0.0625l0.34375 1.984375q-0.25 0.125 -0.609375 0.1875q-0.34375 0.078125 -0.890625 0.078125q-1.5 0 -2.140625 -0.890625q-0.640625 -0.90625 -0.640625 -2.640625l0 -19.640625zm7.003723 15.03125q0 -1.90625 0.59375 -3.421875q0.59375 -1.53125 1.5625 -2.578125q0.984375 -1.0625 2.234375 -1.625q1.25 -0.5625 2.59375 -0.5625q1.46875 0 2.625 0.515625q1.171875 0.515625 1.953125 1.484375q0.796875 0.953125 1.203125 2.296875q0.421875 1.34375 0.421875 3.0q0 0.859375 -0.09375 1.4375l-10.5 0q0.15625 2.53125 1.546875 4.0q1.40625 1.46875 3.640625 1.46875q1.125 0 2.0625 -0.328125q0.9375 -0.34375 1.8125 -0.875l0.921875 1.71875q-1.015625 0.640625 -2.265625 1.125q-1.25 0.484375 -2.859375 0.484375q-1.5625 0 -2.921875 -0.5625q-1.359375 -0.5625 -2.375 -1.59375q-1.0 -1.046875 -1.578125 -2.546875q-0.578125 -1.515625 -0.578125 -3.4375zm10.890625 -1.171875q0 -2.40625 -1.015625 -3.671875q-1.0 -1.265625 -2.828125 -1.265625q-0.828125 0 -1.59375 0.34375q-0.75 0.328125 -1.359375 0.953125q-0.609375 0.625 -1.015625 1.546875q-0.390625 0.90625 -0.515625 2.09375l8.328125 0zm6.1376953 -6.625l2.171875 0l0.234375 2.8125l0.09375 0q0.796875 -1.46875 1.921875 -2.328125q1.140625 -0.875 2.484375 -0.875q0.9375 0 1.671875 0.328125l-0.515625 2.296875q-0.390625 -0.125 -0.71875 -0.1875q-0.3125 -0.0625 -0.78125 -0.0625q-1.0 0 -2.078125 0.796875q-1.0625 0.796875 -1.859375 2.78125l0 9.984375l-2.625 0l0 -15.546875z" fill-rule="nonzero"></path><path fill="#d0e0e3" d="m390.05905 8.587927l312.7244 0l0 129.00787l-312.7244 0z" fill-rule="nonzero"></path><path stroke="#434343" stroke-width="1.0" stroke-linejoin="round" stroke-linecap="butt" d="m390.05905 8.587927l312.7244 0l0 129.00787l-312.7244 0z" fill-rule="nonzero"></path><path fill="#434343" d="m514.82117 63.827488l2.84375 0l3.359436 11.328129q0.578125 1.875 1.0 3.484375q0.4375 1.59375 1.046875 3.453125l0.140625 0q0.5625 -1.859375 1.015625 -3.453125q0.453125 -1.609375 1.0 -3.484375l3.359375 -11.328129l2.71875 0l-6.65625 20.984379l-3.109375 0l-6.718811 -20.984379zm20.448792 2.2343788q-0.765625 0 -1.296875 -0.484375q-0.53125 -0.484375 -0.53125 -1.21875q0 -0.7656288 0.53125 -1.2187538q0.53125 -0.46875 1.296875 -0.46875q0.765625 0 1.296875 0.46875q0.53125 0.453125 0.53125 1.2187538q0 0.734375 -0.53125 1.21875q-0.53125 0.484375 -1.296875 0.484375zm-1.34375 3.203125l2.625 0l0 15.546875l-2.625 0l0 -15.546875zm6.7157593 7.796875q0 -1.90625 0.59375 -3.421875q0.59375 -1.53125 1.5625 -2.578125q0.984375 -1.0625 2.234375 -1.625q1.25 -0.5625 2.59375 -0.5625q1.46875 0 2.625 0.515625q1.171875 0.515625 1.953125 1.484375q0.796875 0.953125 1.203125 2.296875q0.421875 1.34375 0.421875 3.0q0 0.859375 -0.09375 1.4375l-10.5 0q0.15625 2.53125 1.546875 4.0q1.40625 1.46875 3.640625 1.46875q1.125 0 2.0625 -0.328125q0.9375 -0.34375 1.8125 -0.875l0.921875 1.71875q-1.015625 0.640625 -2.265625 1.125q-1.25 0.484375 -2.859375 0.484375q-1.5625 0 -2.921875 -0.5625q-1.359375 -0.5625 -2.375 -1.59375q-1.0 -1.046875 -1.578125 -2.546875q-0.578125 -1.515625 -0.578125 -3.4375zm10.890625 -1.171875q0 -2.40625 -1.015625 -3.671875q-1.0 -1.265625 -2.828125 -1.265625q-0.828125 0 -1.59375 0.34375q-0.75 0.328125 -1.359375 0.953125q-0.609375 0.625 -1.015625 1.546875q-0.390625 0.90625 -0.515625 2.09375l8.328125 0zm4.2783203 -6.625l2.6875 0l2.3125 8.984375q0.25 1.125 0.46875 2.1875q0.234375 1.046875 0.453125 2.140625l0.125 0q0.265625 -1.09375 0.515625 -2.15625q0.25 -1.078125 0.546875 -2.171875l2.390625 -8.984375l2.5625 0l2.4375 8.984375q0.28125 1.125 0.546875 2.1875q0.28125 1.046875 0.546875 2.140625l0.125 0q0.25 -1.09375 0.46875 -2.140625q0.234375 -1.0625 0.484375 -2.1875l2.28125 -8.984375l2.484375 0l-4.15625 15.546875l-3.203125 0l-2.234375 -8.359375q-0.296875 -1.109375 -0.53125 -2.1875q-0.234375 -1.09375 -0.53125 -2.28125l-0.125 0q-0.25 1.1875 -0.515625 2.296875q-0.25 1.09375 -0.5625 2.21875l-2.1875 8.3125l-3.0625 0l-4.328125 -15.546875z" fill-rule="nonzero"></path><path fill="#cfe2f3" d="m390.05905 239.3307l312.7244 0l0 59.27559l-312.7244 0z" fill-rule="nonzero"></path><path stroke="#434343" stroke-width="1.0" stroke-linejoin="round" stroke-linecap="butt" d="m390.05905 239.3307l312.7244 0l0 59.27559l-312.7244 0z" fill-rule="nonzero"></path><path fill="#434343" d="m455.42905 259.70413l2.84375 0l3.359375 11.328125q0.578125 1.875 1.0 3.484375q0.4375 1.59375 1.046875 3.453125l0.140625 0q0.5625 -1.859375 1.015625 -3.453125q0.453125 -1.609375 1.0 -3.484375l3.359375 -11.328125l2.71875 0l-6.65625 20.984375l-3.109375 0l-6.71875 -20.984375zm20.448792 2.234375q-0.765625 0 -1.296875 -0.484375q-0.53125 -0.484375 -0.53125 -1.21875q0 -0.765625 0.53125 -1.21875q0.53125 -0.46875 1.296875 -0.46875q0.765625 0 1.296875 0.46875q0.53125 0.453125 0.53125 1.21875q0 0.734375 -0.53125 1.21875q-0.53125 0.484375 -1.296875 0.484375zm-1.34375 3.203125l2.625 0l0 15.546875l-2.625 0l0 -15.546875zm6.7157593 7.796875q0 -1.90625 0.59375 -3.421875q0.59375 -1.53125 1.5625 -2.578125q0.984375 -1.0625 2.234375 -1.625q1.25 -0.5625 2.59375 -0.5625q1.46875 0 2.625 0.515625q1.171875 0.515625 1.953125 1.484375q0.796875 0.953125 1.203125 2.296875q0.421875 1.34375 0.421875 3.0q0 0.859375 -0.09375 1.4375l-10.5 0q0.15625 2.53125 1.546875 4.0q1.40625 1.46875 3.640625 1.46875q1.125 0 2.0625 -0.328125q0.9375 -0.34375 1.8125 -0.875l0.921875 1.71875q-1.015625 0.640625 -2.265625 1.125q-1.25 0.484375 -2.859375 0.484375q-1.5625 0 -2.921875 -0.5625q-1.359375 -0.5625 -2.375 -1.59375q-1.0 -1.046875 -1.578125 -2.546875q-0.578125 -1.515625 -0.578125 -3.4375zm10.890625 -1.171875q0 -2.40625 -1.015625 -3.671875q-1.0 -1.265625 -2.828125 -1.265625q-0.828125 0 -1.59375 0.34375q-0.75 0.328125 -1.359375 0.953125q-0.609375 0.625 -1.015625 1.546875q-0.390625 0.90625 -0.515625 2.09375l8.328125 0zm4.27829 -6.625l2.6875 0l2.3125 8.984375q0.25 1.125 0.46875 2.1875q0.234375 1.046875 0.453125 2.140625l0.125 0q0.265625 -1.09375 0.515625 -2.15625q0.25 -1.078125 0.546875 -2.171875l2.390625 -8.984375l2.5625 0l2.4375 8.984375q0.28125 1.125 0.546875 2.1875q0.28125 1.046875 0.546875 2.140625l0.125 0q0.25 -1.09375 0.46875 -2.140625q0.234375 -1.0625 0.484375 -2.1875l2.28125 -8.984375l2.484375 0l-4.15625 15.546875l-3.203125 0l-2.234375 -8.359375q-0.296875 -1.109375 -0.53125 -2.1875q-0.234375 -1.09375 -0.53125 -2.28125l-0.125 0q-0.25 1.1875 -0.515625 2.296875q-0.25 1.09375 -0.5625 2.21875l-2.1875 8.3125l-3.0625 0l-4.328125 -15.546875zm25.08545 -5.4375l5.25 0q4.859375 0 7.390625 2.6875q2.53125 2.6875 2.53125 7.703125q0 2.5 -0.640625 4.46875q-0.640625 1.96875 -1.890625 3.328125q-1.25 1.359375 -3.078125 2.078125q-1.8125 0.71875 -4.1875 0.71875l-5.375 0l0 -20.984375zm5.0625 18.8125q3.671875 0 5.515625 -2.203125q1.84375 -2.21875 1.84375 -6.21875q0 -4.0 -1.84375 -6.109375q-1.84375 -2.109375 -5.515625 -2.109375l-2.40625 0l0 16.640625l2.40625 0zm13.211243 -5.578125q0 -1.90625 0.59375 -3.421875q0.59375 -1.53125 1.5625 -2.578125q0.984375 -1.0625 2.234375 -1.625q1.25 -0.5625 2.59375 -0.5625q1.46875 0 2.625 0.515625q1.171875 0.515625 1.953125 1.484375q0.796875 0.953125 1.203125 2.296875q0.421875 1.34375 0.421875 3.0q0 0.859375 -0.09375 1.4375l-10.5 0q0.15625 2.53125 1.546875 4.0q1.40625 1.46875 3.640625 1.46875q1.125 0 2.0625 -0.328125q0.9375 -0.34375 1.8125 -0.875l0.921875 1.71875q-1.015625 0.640625 -2.265625 1.125q-1.25 0.484375 -2.859375 0.484375q-1.5625 0 -2.921875 -0.5625q-1.359375 -0.5625 -2.375 -1.59375q-1.0 -1.046875 -1.578125 -2.546875q-0.578125 -1.515625 -0.578125 -3.4375zm10.890625 -1.171875q0 -2.40625 -1.015625 -3.671875q-1.0 -1.265625 -2.828125 -1.265625q-0.828125 0 -1.59375 0.34375q-0.75 0.328125 -1.359375 0.953125q-0.609375 0.625 -1.015625 1.546875q-0.390625 0.90625 -0.515625 2.09375l8.328125 0zm6.1376953 -13.859375l2.625 0l0 19.84375q0 0.640625 0.21875 0.890625q0.234375 0.25 0.515625 0.25q0.125 0 0.234375 0q0.125 0 0.34375 -0.0625l0.34375 1.984375q-0.25 0.125 -0.609375 0.1875q-0.34375 0.078125 -0.890625 0.078125q-1.5 0 -2.140625 -0.890625q-0.640625 -0.90625 -0.640625 -2.640625l0 -19.640625zm7.003784 15.03125q0 -1.90625 0.59375 -3.421875q0.59375 -1.53125 1.5625 -2.578125q0.984375 -1.0625 2.234375 -1.625q1.25 -0.5625 2.59375 -0.5625q1.46875 0 2.625 0.515625q1.171875 0.515625 1.953125 1.484375q0.796875 0.953125 1.203125 2.296875q0.421875 1.34375 0.421875 3.0q0 0.859375 -0.09375 1.4375l-10.5 0q0.15625 2.53125 1.546875 4.0q1.40625 1.46875 3.640625 1.46875q1.125 0 2.0625 -0.328125q0.9375 -0.34375 1.8125 -0.875l0.921875 1.71875q-1.015625 0.640625 -2.265625 1.125q-1.25 0.484375 -2.859375 0.484375q-1.5625 0 -2.921875 -0.5625q-1.359375 -0.5625 -2.375 -1.59375q-1.0 -1.046875 -1.578125 -2.546875q-0.578125 -1.515625 -0.578125 -3.4375zm10.890625 -1.171875q0 -2.40625 -1.015625 -3.671875q-1.0 -1.265625 -2.828125 -1.265625q-0.828125 0 -1.59375 0.34375q-0.75 0.328125 -1.359375 0.953125q-0.609375 0.625 -1.015625 1.546875q-0.390625 0.90625 -0.515625 2.09375l8.328125 0zm7.2626343 11.546875q0 1.25 1.1875 1.984375q1.203125 0.734375 3.3125 0.734375q1.125 0 2.03125 -0.28125q0.921875 -0.265625 1.5625 -0.703125q0.640625 -0.421875 0.984375 -1.0q0.359375 -0.578125 0.359375 -1.1875q0 -1.078125 -0.8125 -1.5q-0.796875 -0.421875 -2.328125 -0.421875l-2.6875 0q-0.453125 0 -0.984375 -0.046875q-0.515625 -0.046875 -1.03125 -0.203125q-0.828125 0.609375 -1.21875 1.28125q-0.375 0.671875 -0.375 1.34375zm-2.3125 0.34375q0 -0.984375 0.609375 -1.890625q0.609375 -0.890625 1.671875 -1.625l0 -0.125q-0.578125 -0.359375 -0.984375 -0.96875q-0.390625 -0.625 -0.390625 -1.5625q0 -0.984375 0.53125 -1.71875q0.546875 -0.734375 1.15625 -1.15625l0 -0.125q-0.765625 -0.640625 -1.390625 -1.703125q-0.625 -1.078125 -0.625 -2.5q0 -1.28125 0.453125 -2.296875q0.46875 -1.03125 1.265625 -1.75q0.8125 -0.71875 1.875 -1.09375q1.078125 -0.390625 2.265625 -0.390625q0.640625 0 1.1875 0.109375q0.5625 0.109375 1.015625 0.28125l5.40625 0l0 2.015625l-3.203125 0q0.546875 0.546875 0.90625 1.375q0.375 0.828125 0.375 1.8125q0 1.25 -0.453125 2.265625q-0.4375 1.0 -1.203125 1.6875q-0.765625 0.6875 -1.8125 1.078125q-1.03125 0.390625 -2.21875 0.390625q-0.578125 0 -1.1875 -0.140625q-0.609375 -0.15625 -1.15625 -0.40625q-0.40625 0.34375 -0.703125 0.78125q-0.28125 0.4375 -0.28125 1.078125q0 0.734375 0.578125 1.21875q0.578125 0.46875 2.171875 0.46875l3.0 0q2.734375 0 4.09375 0.890625q1.359375 0.875 1.359375 2.828125q0 1.078125 -0.546875 2.046875q-0.546875 0.984375 -1.578125 1.71875q-1.015625 0.734375 -2.46875 1.171875q-1.453125 0.4375 -3.28125 0.4375q-1.4375 0 -2.625 -0.28125q-1.1875 -0.265625 -2.03125 -0.8125q-0.84375 -0.546875 -1.3125 -1.3125q-0.46875 -0.765625 -0.46875 -1.796875zm6.4375 -9.65625q0.671875 0 1.265625 -0.25q0.59375 -0.265625 1.046875 -0.734375q0.46875 -0.484375 0.71875 -1.171875q0.265625 -0.6875 0.265625 -1.5625q0 -1.71875 -0.96875 -2.65625q-0.953125 -0.953125 -2.328125 -0.953125q-1.375 0 -2.34375 0.953125q-0.953125 0.9375 -0.953125 2.65625q0 0.875 0.25 1.5625q0.265625 0.6875 0.71875 1.171875q0.46875 0.46875 1.0625 0.734375q0.59375 0.25 1.265625 0.25zm10.112427 2.65625q0 -2.5625 2.28125 -3.921875q2.296875 -1.359375 7.28125 -1.90625q0 -0.734375 -0.140625 -1.4375q-0.140625 -0.703125 -0.515625 -1.25q-0.359375 -0.546875 -0.96875 -0.875q-0.609375 -0.34375 -1.578125 -0.34375q-1.375 0 -2.546875 0.515625q-1.15625 0.515625 -2.09375 1.15625l-1.046875 -1.828125q1.078125 -0.703125 2.640625 -1.359375q1.578125 -0.65625 3.46875 -0.65625q2.84375 0 4.125 1.75q1.28125 1.734375 1.28125 4.65625l0 9.53125l-2.171875 0l-0.234375 -1.859375l-0.0625 0q-1.109375 0.9375 -2.40625 1.59375q-1.296875 0.65625 -2.734375 0.65625q-1.984375 0 -3.28125 -1.15625q-1.296875 -1.15625 -1.296875 -3.265625zm2.59375 -0.1875q0 1.34375 0.78125 1.921875q0.78125 0.5625 1.9375 0.5625q1.109375 0 2.109375 -0.515625q1.015625 -0.53125 2.140625 -1.5625l0 -4.3125q-1.953125 0.25 -3.296875 0.609375q-1.34375 0.34375 -2.15625 0.828125q-0.8125 0.484375 -1.171875 1.109375q-0.34375 0.625 -0.34375 1.359375zm15.009033 -9.1875l-2.3125 0l0 -1.984375l2.4375 -0.15625l0.3125 -4.359375l2.21875 0l0 4.359375l4.1875 0l0 2.140625l-4.1875 0l0 8.640625q0 1.4375 0.515625 2.21875q0.53125 0.78125 1.875 0.78125q0.421875 0 0.890625 -0.125q0.484375 -0.125 0.875 -0.28125l0.515625 1.984375q-0.640625 0.21875 -1.40625 0.390625q-0.75 0.1875 -1.484375 0.1875q-1.25 0 -2.09375 -0.390625q-0.84375 -0.390625 -1.375 -1.0625q-0.53125 -0.671875 -0.75 -1.625q-0.21875 -0.953125 -0.21875 -2.109375l0 -8.609375zm9.206665 5.65625q0 -1.90625 0.59375 -3.421875q0.59375 -1.53125 1.5625 -2.578125q0.984375 -1.0625 2.234375 -1.625q1.25 -0.5625 2.59375 -0.5625q1.46875 0 2.625 0.515625q1.171875 0.515625 1.953125 1.484375q0.796875 0.953125 1.203125 2.296875q0.421875 1.34375 0.421875 3.0q0 0.859375 -0.09375 1.4375l-10.5 0q0.15625 2.53125 1.546875 4.0q1.40625 1.46875 3.640625 1.46875q1.125 0 2.0625 -0.328125q0.9375 -0.34375 1.8125 -0.875l0.921875 1.71875q-1.015625 0.640625 -2.265625 1.125q-1.25 0.484375 -2.859375 0.484375q-1.5625 0 -2.921875 -0.5625q-1.359375 -0.5625 -2.375 -1.59375q-1.0 -1.046875 -1.578125 -2.546875q-0.578125 -1.515625 -0.578125 -3.4375zm10.890625 -1.171875q0 -2.40625 -1.015625 -3.671875q-1.0 -1.265625 -2.828125 -1.265625q-0.828125 0 -1.59375 0.34375q-0.75 0.328125 -1.359375 0.953125q-0.609375 0.625 -1.015625 1.546875q-0.390625 0.90625 -0.515625 2.09375l8.328125 0z" fill-rule="nonzero"></path><path fill="#000000" fill-opacity="0.0" d="m390.05905 363.11023c-35.094482 0 -70.19684 -72.50394 -70.188965 -145.00787c0.007873535 -72.50394 35.125977 -145.00787 70.25195 -145.00787" fill-rule="nonzero"></path><path stroke="#434343" stroke-width="3.0" stroke-linejoin="round" stroke-linecap="butt" d="m390.05905 363.11023c-35.094482 0 -70.19684 -72.50394 -70.188965 -145.00787c0.0039367676 -36.25197 8.785431 -72.50394 21.956696 -99.69291c6.5856323 -13.594482 14.268677 -24.923225 22.500732 -32.853348c2.0579834 -1.9825287 4.1503296 -3.7526398 6.2683716 -5.2926407c0.5295105 -0.38500214 1.0606384 -0.75562286 1.5932617 -1.1115799c0.26626587 -0.17797852 0.532959 -0.35229492 0.7999878 -0.5229111l0.004058838 -0.0025634766" fill-rule="evenodd"></path><path fill="#434343" stroke="#434343" stroke-width="3.0" stroke-linecap="butt" d="m374.51605 83.34179l11.432556 -8.899445l-14.478302 -0.5313263z" fill-rule="evenodd"></path><path fill="#fff2cc" d="m147.13518 142.2126l160.12599 0l0 129.00786l-160.12599 0z" fill-rule="nonzero"></path><path stroke="#434343" stroke-width="1.0" stroke-linejoin="round" stroke-linecap="butt" d="m147.13518 142.2126l160.12599 0l0 129.00786l-160.12599 0z" fill-rule="nonzero"></path><path fill="#434343" d="m182.31253 156.66385l1.6875 0l2.0 6.734375q0.34375 1.125 0.59375 2.078125q0.265625 0.9375 0.625 2.046875l0.078125 0q0.328125 -1.109375 0.59375 -2.046875q0.28125 -0.953125 0.59375 -2.078125l2.0 -6.734375l1.609375 0l-3.953125 12.46875l-1.84375 0l-3.984375 -12.46875zm11.967346 1.328125q-0.453125 0 -0.78125 -0.28125q-0.3125 -0.28125 -0.3125 -0.71875q0 -0.453125 0.3125 -0.71875q0.328125 -0.28125 0.78125 -0.28125q0.453125 0 0.765625 0.28125q0.3125 0.265625 0.3125 0.71875q0 0.4375 -0.3125 0.71875q-0.3125 0.28125 -0.765625 0.28125zm-0.796875 1.90625l1.546875 0l0 9.234375l-1.546875 0l0 -9.234375zm3.9019318 4.640625q0 -1.140625 0.34375 -2.046875q0.359375 -0.90625 0.9375 -1.53125q0.578125 -0.625 1.3125 -0.953125q0.75 -0.34375 1.546875 -0.34375q0.875 0 1.5625 0.3125q0.703125 0.296875 1.15625 0.875q0.46875 0.5625 0.71875 1.359375q0.25 0.796875 0.25 1.796875q0 0.515625 -0.0625 0.84375l-6.234375 0q0.109375 1.5 0.921875 2.375q0.828125 0.875 2.15625 0.875q0.671875 0 1.234375 -0.1875q0.5625 -0.203125 1.078125 -0.53125l0.546875 1.03125q-0.609375 0.375 -1.359375 0.671875q-0.734375 0.28125 -1.6875 0.28125q-0.921875 0 -1.734375 -0.328125q-0.8125 -0.34375 -1.40625 -0.953125q-0.59375 -0.625 -0.9375 -1.515625q-0.34375 -0.890625 -0.34375 -2.03125zm6.453125 -0.703125q0 -1.421875 -0.59375 -2.171875q-0.59375 -0.765625 -1.6875 -0.765625q-0.484375 0 -0.9375 0.203125q-0.4375 0.203125 -0.8125 0.578125q-0.359375 0.359375 -0.59375 0.90625q-0.234375 0.546875 -0.3125 1.25l4.9375 0zm2.3785095 -3.9375l1.59375 0l1.375 5.34375q0.15625 0.65625 0.28125 1.296875q0.140625 0.625 0.265625 1.265625l0.078125 0q0.15625 -0.640625 0.296875 -1.28125q0.15625 -0.640625 0.328125 -1.28125l1.421875 -5.34375l1.53125 0l1.4375 5.34375q0.171875 0.65625 0.328125 1.296875q0.171875 0.625 0.3125 1.265625l0.078125 0q0.15625 -0.640625 0.28125 -1.265625q0.140625 -0.640625 0.296875 -1.296875l1.34375 -5.34375l1.484375 0l-2.46875 9.234375l-1.90625 0l-1.328125 -4.953125q-0.171875 -0.671875 -0.3125 -1.3125q-0.140625 -0.65625 -0.3125 -1.359375l-0.078125 0q-0.15625 0.703125 -0.3125 1.359375q-0.140625 0.65625 -0.328125 1.328125l-1.296875 4.9375l-1.828125 0l-2.5625 -9.234375zm13.926437 3.0q0 -1.5 0.421875 -2.6875q0.421875 -1.203125 1.15625 -2.03125q0.75 -0.84375 1.765625 -1.28125q1.015625 -0.453125 2.203125 -0.453125q1.140625 0 2.0 0.46875q0.859375 0.453125 1.40625 1.0625l-0.890625 1.015625q-0.5 -0.53125 -1.09375 -0.84375q-0.59375 -0.328125 -1.390625 -0.328125q-0.90625 0 -1.625 0.359375q-0.71875 0.34375 -1.234375 1.0q-0.515625 0.65625 -0.796875 1.59375q-0.28125 0.9375 -0.28125 2.09375q0 1.171875 0.265625 2.109375q0.28125 0.9375 0.765625 1.609375q0.5 0.671875 1.21875 1.03125q0.71875 0.359375 1.609375 0.359375q0.90625 0 1.578125 -0.359375q0.671875 -0.359375 1.28125 -1.03125l0.890625 0.96875q-0.734375 0.859375 -1.671875 1.34375q-0.921875 0.46875 -2.125 0.46875q-1.171875 0 -2.171875 -0.4375q-1.0 -0.4375 -1.734375 -1.265625q-0.71875 -0.828125 -1.140625 -2.03125q-0.40625 -1.21875 -0.40625 -2.734375zm10.54335 1.640625q0 -1.15625 0.34375 -2.0625q0.359375 -0.90625 0.9375 -1.53125q0.59375 -0.625 1.359375 -0.953125q0.78125 -0.328125 1.640625 -0.328125q0.84375 0 1.609375 0.328125q0.78125 0.328125 1.359375 0.953125q0.59375 0.625 0.9375 1.53125q0.359375 0.90625 0.359375 2.0625q0 1.140625 -0.359375 2.046875q-0.34375 0.890625 -0.9375 1.515625q-0.578125 0.609375 -1.359375 0.9375q-0.765625 0.328125 -1.609375 0.328125q-0.859375 0 -1.640625 -0.328125q-0.765625 -0.328125 -1.359375 -0.9375q-0.578125 -0.625 -0.9375 -1.515625q-0.34375 -0.90625 -0.34375 -2.046875zm1.609375 0q0 0.796875 0.1875 1.4375q0.203125 0.640625 0.546875 1.109375q0.359375 0.46875 0.84375 0.734375q0.5 0.25 1.09375 0.25q0.578125 0 1.0625 -0.25q0.5 -0.265625 0.84375 -0.734375q0.359375 -0.46875 0.546875 -1.109375q0.203125 -0.640625 0.203125 -1.4375q0 -0.796875 -0.203125 -1.453125q-0.1875 -0.65625 -0.546875 -1.125q-0.34375 -0.484375 -0.84375 -0.734375q-0.484375 -0.265625 -1.0625 -0.265625q-0.59375 0 -1.09375 0.265625q-0.484375 0.25 -0.84375 0.734375q-0.34375 0.46875 -0.546875 1.125q-0.1875 0.65625 -0.1875 1.453125zm9.189819 -4.640625l1.28125 0l0.140625 1.328125l0.0625 0q0.65625 -0.65625 1.390625 -1.109375q0.734375 -0.453125 1.703125 -0.453125q1.453125 0 2.125 0.921875q0.6875 0.90625 0.6875 2.6875l0 5.859375l-1.5625 0l0 -5.640625q0 -1.3125 -0.421875 -1.890625q-0.40625 -0.578125 -1.328125 -0.578125q-0.71875 0 -1.28125 0.359375q-0.546875 0.359375 -1.25 1.0625l0 6.6875l-1.546875 0l0 -9.234375zm10.470596 1.265625l-1.375 0l0 -1.171875l1.453125 -0.09375l0.1875 -2.578125l1.3125 0l0 2.578125l2.484375 0l0 1.265625l-2.484375 0l0 5.140625q0 0.859375 0.3125 1.328125q0.3125 0.453125 1.109375 0.453125q0.25 0 0.53125 -0.078125q0.28125 -0.078125 0.515625 -0.171875l0.296875 1.1875q-0.375 0.125 -0.828125 0.234375q-0.4375 0.109375 -0.875 0.109375q-0.75 0 -1.25 -0.234375q-0.5 -0.234375 -0.8125 -0.625q-0.3125 -0.40625 -0.453125 -0.96875q-0.125 -0.578125 -0.125 -1.25l0 -5.125zm6.0401917 -1.265625l1.28125 0l0.140625 1.671875l0.0625 0q0.46875 -0.875 1.140625 -1.390625q0.671875 -0.515625 1.46875 -0.515625q0.5625 0 1.0 0.203125l-0.3125 1.359375q-0.21875 -0.078125 -0.421875 -0.109375q-0.1875 -0.046875 -0.46875 -0.046875q-0.59375 0 -1.234375 0.484375q-0.625 0.46875 -1.109375 1.65625l0 5.921875l-1.546875 0l0 -9.234375zm5.7862244 4.640625q0 -1.15625 0.34375 -2.0625q0.359375 -0.90625 0.9375 -1.53125q0.59375 -0.625 1.359375 -0.953125q0.78125 -0.328125 1.640625 -0.328125q0.84375 0 1.609375 0.328125q0.78125 0.328125 1.359375 0.953125q0.59375 0.625 0.9375 1.53125q0.359375 0.90625 0.359375 2.0625q0 1.140625 -0.359375 2.046875q-0.34375 0.890625 -0.9375 1.515625q-0.578125 0.609375 -1.359375 0.9375q-0.765625 0.328125 -1.609375 0.328125q-0.859375 0 -1.640625 -0.328125q-0.765625 -0.328125 -1.359375 -0.9375q-0.578125 -0.625 -0.9375 -1.515625q-0.34375 -0.90625 -0.34375 -2.046875zm1.609375 0q0 0.796875 0.1875 1.4375q0.203125 0.640625 0.546875 1.109375q0.359375 0.46875 0.84375 0.734375q0.5 0.25 1.09375 0.25q0.578125 0 1.0625 -0.25q0.5 -0.265625 0.84375 -0.734375q0.359375 -0.46875 0.546875 -1.109375q0.203125 -0.640625 0.203125 -1.4375q0 -0.796875 -0.203125 -1.453125q-0.1875 -0.65625 -0.546875 -1.125q-0.34375 -0.484375 -0.84375 -0.734375q-0.484375 -0.265625 -1.0625 -0.265625q-0.59375 0 -1.09375 0.265625q-0.484375 0.25 -0.84375 0.734375q-0.34375 0.46875 -0.546875 1.125q-0.1875 0.65625 -0.1875 1.453125zm9.189819 -8.9375l1.546875 0l0 11.78125q0 0.375 0.125 0.53125q0.140625 0.15625 0.3125 0.15625q0.078125 0 0.140625 0q0.078125 0 0.203125 -0.046875l0.21875 1.1875q-0.15625 0.078125 -0.375 0.109375q-0.203125 0.046875 -0.515625 0.046875q-0.90625 0 -1.28125 -0.53125q-0.375 -0.546875 -0.375 -1.5625l0 -11.671875zm4.757324 0l1.546875 0l0 11.78125q0 0.375 0.125 0.53125q0.140625 0.15625 0.3125 0.15625q0.078125 0 0.140625 0q0.078125 0 0.203125 -0.046875l0.21875 1.1875q-0.15625 0.078125 -0.375 0.109375q-0.203125 0.046875 -0.515625 0.046875q-0.90625 0 -1.28125 -0.53125q-0.375 -0.546875 -0.375 -1.5625l0 -11.671875zm4.0698547 8.9375q0 -1.140625 0.34375 -2.046875q0.359375 -0.90625 0.9375 -1.53125q0.578125 -0.625 1.3125 -0.953125q0.75 -0.34375 1.546875 -0.34375q0.875 0 1.5625 0.3125q0.703125 0.296875 1.15625 0.875q0.46875 0.5625 0.71875 1.359375q0.25 0.796875 0.25 1.796875q0 0.515625 -0.0625 0.84375l-6.234375 0q0.109375 1.5 0.921875 2.375q0.828125 0.875 2.15625 0.875q0.671875 0 1.234375 -0.1875q0.5625 -0.203125 1.078125 -0.53125l0.546875 1.03125q-0.609375 0.375 -1.359375 0.671875q-0.734375 0.28125 -1.6875 0.28125q-0.921875 0 -1.734375 -0.328125q-0.8125 -0.34375 -1.40625 -0.953125q-0.59375 -0.625 -0.9375 -1.515625q-0.34375 -0.890625 -0.34375 -2.03125zm6.453125 -0.703125q0 -1.421875 -0.59375 -2.171875q-0.59375 -0.765625 -1.6875 -0.765625q-0.484375 0 -0.9375 0.203125q-0.4375 0.203125 -0.8125 0.578125q-0.359375 0.359375 -0.59375 0.90625q-0.234375 0.546875 -0.3125 1.25l4.9375 0zm3.4878845 -3.9375l1.28125 0l0.140625 1.671875l0.0625 0q0.46875 -0.875 1.140625 -1.390625q0.671875 -0.515625 1.46875 -0.515625q0.5625 0 1.0 0.203125l-0.3125 1.359375q-0.21875 -0.078125 -0.421875 -0.109375q-0.1875 -0.046875 -0.46875 -0.046875q-0.59375 0 -1.234375 0.484375q-0.625 0.46875 -1.109375 1.65625l0 5.921875l-1.546875 0l0 -9.234375z" fill-rule="nonzero"></path><path fill="#434343" d="m162.79623 186.53885q0 -1.15625 0.359375 -2.0625q0.359375 -0.90625 0.96875 -1.53125q0.609375 -0.625 1.40625 -0.953125q0.8125 -0.328125 1.703125 -0.328125q0.921875 0 1.578125 0.34375q0.65625 0.328125 1.125 0.765625l-0.78125 1.0q-0.40625 -0.359375 -0.859375 -0.578125q-0.453125 -0.234375 -1.0 -0.234375q-0.625 0 -1.15625 0.265625q-0.53125 0.25 -0.921875 0.734375q-0.375 0.46875 -0.59375 1.125q-0.21875 0.65625 -0.21875 1.453125q0 0.796875 0.203125 1.4375q0.21875 0.640625 0.578125 1.109375q0.375 0.46875 0.90625 0.734375q0.546875 0.25 1.171875 0.25q0.65625 0 1.203125 -0.265625q0.546875 -0.28125 0.953125 -0.671875l0.703125 1.03125q-0.625 0.546875 -1.390625 0.875q-0.765625 0.328125 -1.609375 0.328125q-0.90625 0 -1.703125 -0.328125q-0.796875 -0.328125 -1.390625 -0.9375q-0.578125 -0.625 -0.90625 -1.515625q-0.328125 -0.90625 -0.328125 -2.046875zm9.194748 -4.640625l1.28125 0l0.140625 1.671875l0.0625 0q0.46875 -0.875 1.140625 -1.390625q0.671875 -0.515625 1.46875 -0.515625q0.5625 0 1.0 0.203125l-0.3125 1.359375q-0.21875 -0.078125 -0.421875 -0.109375q-0.1875 -0.046875 -0.46875 -0.046875q-0.59375 0 -1.234375 0.484375q-0.625 0.46875 -1.109375 1.65625l0 5.921875l-1.546875 0l0 -9.234375zm5.7862244 4.640625q0 -1.140625 0.34375 -2.046875q0.359375 -0.90625 0.9375 -1.53125q0.578125 -0.625 1.3125 -0.953125q0.75 -0.34375 1.546875 -0.34375q0.875 0 1.5625 0.3125q0.703125 0.296875 1.15625 0.875q0.46875 0.5625 0.71875 1.359375q0.25 0.796875 0.25 1.796875q0 0.515625 -0.0625 0.84375l-6.234375 0q0.109375 1.5 0.921875 2.375q0.828125 0.875 2.15625 0.875q0.671875 0 1.234375 -0.1875q0.5625 -0.203125 1.078125 -0.53125l0.546875 1.03125q-0.609375 0.375 -1.359375 0.671875q-0.734375 0.28125 -1.6875 0.28125q-0.921875 0 -1.734375 -0.328125q-0.8125 -0.34375 -1.40625 -0.953125q-0.59375 -0.625 -0.9375 -1.515625q-0.34375 -0.890625 -0.34375 -2.03125zm6.453125 -0.703125q0 -1.421875 -0.59375 -2.171875q-0.59375 -0.765625 -1.6875 -0.765625q-0.484375 0 -0.9375 0.203125q-0.4375 0.203125 -0.8125 0.578125q-0.359375 0.359375 -0.59375 0.90625q-0.234375 0.546875 -0.3125 1.25l4.9375 0zm3.0347595 2.90625q0 -1.515625 1.34375 -2.328125q1.359375 -0.8125 4.328125 -1.140625q0 -0.421875 -0.09375 -0.84375q-0.078125 -0.421875 -0.296875 -0.734375q-0.21875 -0.328125 -0.578125 -0.53125q-0.359375 -0.203125 -0.921875 -0.203125q-0.828125 0 -1.53125 0.3125q-0.6875 0.296875 -1.234375 0.671875l-0.625 -1.078125q0.640625 -0.421875 1.578125 -0.8125q0.9375 -0.390625 2.046875 -0.390625q1.703125 0 2.453125 1.046875q0.765625 1.03125 0.765625 2.765625l0 5.65625l-1.296875 0l-0.125 -1.109375l-0.046875 0q-0.65625 0.5625 -1.4375 0.953125q-0.765625 0.390625 -1.625 0.390625q-1.171875 0 -1.9375 -0.6875q-0.765625 -0.6875 -0.765625 -1.9375zm1.53125 -0.125q0 0.8125 0.46875 1.15625q0.46875 0.328125 1.140625 0.328125q0.671875 0 1.265625 -0.3125q0.609375 -0.3125 1.265625 -0.921875l0 -2.5625q-1.15625 0.15625 -1.953125 0.375q-0.796875 0.203125 -1.28125 0.484375q-0.484375 0.28125 -0.703125 0.65625q-0.203125 0.375 -0.203125 0.796875zm8.739502 -5.453125l-1.375 0l0 -1.171875l1.453125 -0.09375l0.1875 -2.578125l1.3125 0l0 2.578125l2.484375 0l0 1.265625l-2.484375 0l0 5.140625q0 0.859375 0.3125 1.328125q0.3125 0.453125 1.109375 0.453125q0.25 0 0.53125 -0.078125q0.28125 -0.078125 0.515625 -0.171875l0.296875 1.1875q-0.375 0.125 -0.828125 0.234375q-0.4375 0.109375 -0.875 0.109375q-0.75 0 -1.25 -0.234375q-0.5 -0.234375 -0.8125 -0.625q-0.3125 -0.40625 -0.453125 -0.96875q-0.125 -0.578125 -0.125 -1.25l0 -5.125zm5.3526917 3.375q0 -1.140625 0.34375 -2.046875q0.359375 -0.90625 0.9375 -1.53125q0.578125 -0.625 1.3125 -0.953125q0.75 -0.34375 1.546875 -0.34375q0.875 0 1.5625 0.3125q0.703125 0.296875 1.15625 0.875q0.46875 0.5625 0.71875 1.359375q0.25 0.796875 0.25 1.796875q0 0.515625 -0.0625 0.84375l-6.234375 0q0.109375 1.5 0.921875 2.375q0.828125 0.875 2.15625 0.875q0.671875 0 1.234375 -0.1875q0.5625 -0.203125 1.078125 -0.53125l0.546875 1.03125q-0.609375 0.375 -1.359375 0.671875q-0.734375 0.28125 -1.6875 0.28125q-0.921875 0 -1.734375 -0.328125q-0.8125 -0.34375 -1.40625 -0.953125q-0.59375 -0.625 -0.9375 -1.515625q-0.34375 -0.890625 -0.34375 -2.03125zm6.453125 -0.703125q0 -1.421875 -0.59375 -2.171875q-0.59375 -0.765625 -1.6875 -0.765625q-0.484375 0 -0.9375 0.203125q-0.4375 0.203125 -0.8125 0.578125q-0.359375 0.359375 -0.59375 0.90625q-0.234375 0.546875 -0.3125 1.25l4.9375 0zm3.2378845 3.203125q0.609375 0.5 1.234375 0.8125q0.640625 0.296875 1.484375 0.296875q0.90625 0 1.359375 -0.421875q0.46875 -0.421875 0.46875 -1.03125q0 -0.359375 -0.203125 -0.625q-0.1875 -0.265625 -0.484375 -0.453125q-0.28125 -0.203125 -0.671875 -0.359375q-0.375 -0.15625 -0.75 -0.3125q-0.5 -0.15625 -1.0 -0.375q-0.484375 -0.21875 -0.875 -0.53125q-0.390625 -0.328125 -0.640625 -0.734375q-0.25 -0.421875 -0.25 -1.015625q0 -0.546875 0.21875 -1.03125q0.21875 -0.484375 0.625 -0.828125q0.40625 -0.359375 1.0 -0.5625q0.59375 -0.203125 1.328125 -0.203125q0.875 0 1.609375 0.3125q0.734375 0.296875 1.265625 0.734375l-0.75 1.0q-0.46875 -0.375 -0.984375 -0.59375q-0.515625 -0.234375 -1.109375 -0.234375q-0.875 0 -1.296875 0.40625q-0.40625 0.390625 -0.40625 0.921875q0 0.328125 0.171875 0.5625q0.171875 0.234375 0.453125 0.421875q0.296875 0.1875 0.65625 0.328125q0.375 0.140625 0.78125 0.296875q0.484375 0.1875 0.984375 0.390625q0.515625 0.203125 0.90625 0.53125q0.40625 0.3125 0.65625 0.765625q0.265625 0.453125 0.265625 1.09375q0 0.578125 -0.21875 1.078125q-0.21875 0.484375 -0.65625 0.875q-0.421875 0.375 -1.0625 0.59375q-0.640625 0.21875 -1.453125 0.21875q-0.984375 0 -1.875 -0.359375q-0.890625 -0.375 -1.5625 -0.921875l0.78125 -1.046875zm11.382416 -0.296875q0 -1.515625 1.34375 -2.328125q1.359375 -0.8125 4.328125 -1.140625q0 -0.421875 -0.09375 -0.84375q-0.078125 -0.421875 -0.296875 -0.734375q-0.21875 -0.328125 -0.578125 -0.53125q-0.359375 -0.203125 -0.921875 -0.203125q-0.828125 0 -1.53125 0.3125q-0.6875 0.296875 -1.234375 0.671875l-0.625 -1.078125q0.640625 -0.421875 1.578125 -0.8125q0.9375 -0.390625 2.046875 -0.390625q1.703125 0 2.453125 1.046875q0.765625 1.03125 0.765625 2.765625l0 5.65625l-1.296875 0l-0.125 -1.109375l-0.046875 0q-0.65625 0.5625 -1.4375 0.953125q-0.765625 0.390625 -1.625 0.390625q-1.171875 0 -1.9375 -0.6875q-0.765625 -0.6875 -0.765625 -1.9375zm1.53125 -0.125q0 0.8125 0.46875 1.15625q0.46875 0.328125 1.140625 0.328125q0.671875 0 1.265625 -0.3125q0.609375 -0.3125 1.265625 -0.921875l0 -2.5625q-1.15625 0.15625 -1.953125 0.375q-0.796875 0.203125 -1.28125 0.484375q-0.484375 0.28125 -0.703125 0.65625q-0.203125 0.375 -0.203125 0.796875zm8.473877 -6.71875l1.28125 0l0.140625 1.328125l0.0625 0q0.65625 -0.65625 1.390625 -1.109375q0.734375 -0.453125 1.703125 -0.453125q1.453125 0 2.125 0.921875q0.6875 0.90625 0.6875 2.6875l0 5.859375l-1.5625 0l0 -5.640625q0 -1.3125 -0.421875 -1.890625q-0.40625 -0.578125 -1.328125 -0.578125q-0.71875 0 -1.28125 0.359375q-0.546875 0.359375 -1.25 1.0625l0 6.6875l-1.546875 0l0 -9.234375zm9.533096 4.640625q0 -1.125 0.328125 -2.03125q0.34375 -0.90625 0.890625 -1.53125q0.546875 -0.625 1.265625 -0.96875q0.734375 -0.34375 1.53125 -0.34375q0.796875 0 1.375 0.296875q0.59375 0.28125 1.203125 0.78125l-0.078125 -1.578125l0 -3.5625l1.578125 0l0 13.53125l-1.296875 0l-0.125 -1.078125l-0.0625 0q-0.546875 0.53125 -1.265625 0.921875q-0.703125 0.390625 -1.515625 0.390625q-1.75 0 -2.796875 -1.25q-1.03125 -1.265625 -1.03125 -3.578125zm1.625 -0.015625q0 1.671875 0.65625 2.609375q0.671875 0.921875 1.875 0.921875q0.65625 0 1.21875 -0.3125q0.578125 -0.3125 1.140625 -0.96875l0 -4.828125q-0.578125 -0.53125 -1.125 -0.75q-0.546875 -0.21875 -1.109375 -0.21875q-0.5625 0 -1.046875 0.265625q-0.484375 0.25 -0.84375 0.71875q-0.359375 0.46875 -0.5625 1.109375q-0.203125 0.640625 -0.203125 1.453125zm12.482147 0.015625q0 -1.15625 0.34375 -2.0625q0.359375 -0.90625 0.9375 -1.53125q0.59375 -0.625 1.359375 -0.953125q0.78125 -0.328125 1.640625 -0.328125q0.84375 0 1.609375 0.328125q0.78125 0.328125 1.359375 0.953125q0.59375 0.625 0.9375 1.53125q0.359375 0.90625 0.359375 2.0625q0 1.140625 -0.359375 2.046875q-0.34375 0.890625 -0.9375 1.515625q-0.578125 0.609375 -1.359375 0.9375q-0.765625 0.328125 -1.609375 0.328125q-0.859375 0 -1.640625 -0.328125q-0.765625 -0.328125 -1.359375 -0.9375q-0.578125 -0.625 -0.9375 -1.515625q-0.34375 -0.90625 -0.34375 -2.046875zm1.609375 0q0 0.796875 0.1875 1.4375q0.203125 0.640625 0.546875 1.109375q0.359375 0.46875 0.84375 0.734375q0.5 0.25 1.09375 0.25q0.578125 0 1.0625 -0.25q0.5 -0.265625 0.84375 -0.734375q0.359375 -0.46875 0.546875 -1.109375q0.203125 -0.640625 0.203125 -1.4375q0 -0.796875 -0.203125 -1.453125q-0.1875 -0.65625 -0.546875 -1.125q-0.34375 -0.484375 -0.84375 -0.734375q-0.484375 -0.265625 -1.0625 -0.265625q-0.59375 0 -1.09375 0.265625q-0.484375 0.25 -0.84375 0.734375q-0.34375 0.46875 -0.546875 1.125q-0.1875 0.65625 -0.1875 1.453125zm8.080444 -4.640625l1.59375 0l1.375 5.34375q0.15625 0.65625 0.28125 1.296875q0.140625 0.625 0.265625 1.265625l0.078125 0q0.15625 -0.640625 0.296875 -1.28125q0.15625 -0.640625 0.328125 -1.28125l1.421875 -5.34375l1.53125 0l1.4375 5.34375q0.171875 0.65625 0.328125 1.296875q0.171875 0.625 0.3125 1.265625l0.078125 0q0.15625 -0.640625 0.28125 -1.265625q0.140625 -0.640625 0.296875 -1.296875l1.34375 -5.34375l1.484375 0l-2.46875 9.234375l-1.90625 0l-1.328125 -4.953125q-0.171875 -0.671875 -0.3125 -1.3125q-0.140625 -0.65625 -0.3125 -1.359375l-0.078125 0q-0.15625 0.703125 -0.3125 1.359375q-0.140625 0.65625 -0.328125 1.328125l-1.296875 4.9375l-1.828125 0l-2.5625 -9.234375zm14.504578 0l1.28125 0l0.140625 1.328125l0.0625 0q0.65625 -0.65625 1.390625 -1.109375q0.734375 -0.453125 1.703125 -0.453125q1.453125 0 2.125 0.921875q0.6875 0.90625 0.6875 2.6875l0 5.859375l-1.5625 0l0 -5.640625q0 -1.3125 -0.421875 -1.890625q-0.40625 -0.578125 -1.328125 -0.578125q-0.71875 0 -1.28125 0.359375q-0.546875 0.359375 -1.25 1.0625l0 6.6875l-1.546875 0l0 -9.234375zm9.954956 7.140625q0.609375 0.5 1.234375 0.8125q0.640625 0.296875 1.484375 0.296875q0.90625 0 1.359375 -0.421875q0.46875 -0.421875 0.46875 -1.03125q0 -0.359375 -0.203125 -0.625q-0.1875 -0.265625 -0.484375 -0.453125q-0.28125 -0.203125 -0.671875 -0.359375q-0.375 -0.15625 -0.75 -0.3125q-0.5 -0.15625 -1.0 -0.375q-0.484375 -0.21875 -0.875 -0.53125q-0.390625 -0.328125 -0.640625 -0.734375q-0.25 -0.421875 -0.25 -1.015625q0 -0.546875 0.21875 -1.03125q0.21875 -0.484375 0.625 -0.828125q0.40625 -0.359375 1.0 -0.5625q0.59375 -0.203125 1.328125 -0.203125q0.875 0 1.609375 0.3125q0.734375 0.296875 1.265625 0.734375l-0.75 1.0q-0.46875 -0.375 -0.984375 -0.59375q-0.515625 -0.234375 -1.109375 -0.234375q-0.875 0 -1.296875 0.40625q-0.40625 0.390625 -0.40625 0.921875q0 0.328125 0.171875 0.5625q0.171875 0.234375 0.453125 0.421875q0.296875 0.1875 0.65625 0.328125q0.375 0.140625 0.78125 0.296875q0.484375 0.1875 0.984375 0.390625q0.515625 0.203125 0.90625 0.53125q0.40625 0.3125 0.65625 0.765625q0.265625 0.453125 0.265625 1.09375q0 0.578125 -0.21875 1.078125q-0.21875 0.484375 -0.65625 0.875q-0.421875 0.375 -1.0625 0.59375q-0.640625 0.21875 -1.453125 0.21875q-0.984375 0 -1.875 -0.359375q-0.890625 -0.375 -1.5625 -0.921875l0.78125 -1.046875z" fill-rule="nonzero"></path><path fill="#434343" d="m186.23036 200.66385l1.6875 0l2.0 6.734375q0.34375 1.125 0.59375 2.078125q0.265625 0.9375 0.625 2.046875l0.078125 0q0.328125 -1.109375 0.59375 -2.046875q0.28125 -0.953125 0.59375 -2.078125l2.0 -6.734375l1.609375 0l-3.953125 12.46875l-1.84375 0l-3.984375 -12.46875zm11.967346 1.328125q-0.453125 0 -0.78125 -0.28125q-0.3125 -0.28125 -0.3125 -0.71875q0 -0.453125 0.3125 -0.71875q0.328125 -0.28125 0.78125 -0.28125q0.453125 0 0.765625 0.28125q0.3125 0.265625 0.3125 0.71875q0 0.4375 -0.3125 0.71875q-0.3125 0.28125 -0.765625 0.28125zm-0.796875 1.90625l1.546875 0l0 9.234375l-1.546875 0l0 -9.234375zm3.9019318 4.640625q0 -1.140625 0.34375 -2.046875q0.359375 -0.90625 0.9375 -1.53125q0.578125 -0.625 1.3125 -0.953125q0.75 -0.34375 1.546875 -0.34375q0.875 0 1.5625 0.3125q0.703125 0.296875 1.15625 0.875q0.46875 0.5625 0.71875 1.359375q0.25 0.796875 0.25 1.796875q0 0.515625 -0.0625 0.84375l-6.234375 0q0.109375 1.5 0.921875 2.375q0.828125 0.875 2.15625 0.875q0.671875 0 1.234375 -0.1875q0.5625 -0.203125 1.078125 -0.53125l0.546875 1.03125q-0.609375 0.375 -1.359375 0.671875q-0.734375 0.28125 -1.6875 0.28125q-0.921875 0 -1.734375 -0.328125q-0.8125 -0.34375 -1.40625 -0.953125q-0.59375 -0.625 -0.9375 -1.515625q-0.34375 -0.890625 -0.34375 -2.03125zm6.453125 -0.703125q0 -1.421875 -0.59375 -2.171875q-0.59375 -0.765625 -1.6875 -0.765625q-0.484375 0 -0.9375 0.203125q-0.4375 0.203125 -0.8125 0.578125q-0.359375 0.359375 -0.59375 0.90625q-0.234375 0.546875 -0.3125 1.25l4.9375 0zm2.3785095 -3.9375l1.59375 0l1.375 5.34375q0.15625 0.65625 0.28125 1.296875q0.140625 0.625 0.265625 1.265625l0.078125 0q0.15625 -0.640625 0.296875 -1.28125q0.15625 -0.640625 0.328125 -1.28125l1.421875 -5.34375l1.53125 0l1.4375 5.34375q0.171875 0.65625 0.328125 1.296875q0.171875 0.625 0.3125 1.265625l0.078125 0q0.15625 -0.640625 0.28125 -1.265625q0.140625 -0.640625 0.296875 -1.296875l1.34375 -5.34375l1.484375 0l-2.46875 9.234375l-1.90625 0l-1.328125 -4.953125q-0.171875 -0.671875 -0.3125 -1.3125q-0.140625 -0.65625 -0.3125 -1.359375l-0.078125 0q-0.15625 0.703125 -0.3125 1.359375q-0.140625 0.65625 -0.328125 1.328125l-1.296875 4.9375l-1.828125 0l-2.5625 -9.234375zm13.832687 11.546875q0.796875 -0.359375 1.25 -0.953125q0.46875 -0.578125 0.46875 -1.359375q-0.0625 0.015625 -0.203125 0.015625q-0.453125 0 -0.78125 -0.265625q-0.328125 -0.28125 -0.328125 -0.8125q0 -0.515625 0.328125 -0.8125q0.34375 -0.296875 0.828125 -0.296875q0.609375 0 0.953125 0.5q0.359375 0.5 0.359375 1.34375q0 1.234375 -0.671875 2.140625q-0.65625 0.921875 -1.828125 1.421875l-0.375 -0.921875zm8.632721 -4.703125q0 -1.515625 1.34375 -2.328125q1.359375 -0.8125 4.328125 -1.140625q0 -0.421875 -0.09375 -0.84375q-0.078125 -0.421875 -0.296875 -0.734375q-0.21875 -0.328125 -0.578125 -0.53125q-0.359375 -0.203125 -0.921875 -0.203125q-0.828125 0 -1.53125 0.3125q-0.6875 0.296875 -1.234375 0.671875l-0.625 -1.078125q0.640625 -0.421875 1.578125 -0.8125q0.9375 -0.390625 2.046875 -0.390625q1.703125 0 2.453125 1.046875q0.765625 1.03125 0.765625 2.765625l0 5.65625l-1.296875 0l-0.125 -1.109375l-0.046875 0q-0.65625 0.5625 -1.4375 0.953125q-0.765625 0.390625 -1.625 0.390625q-1.171875 0 -1.9375 -0.6875q-0.765625 -0.6875 -0.765625 -1.9375zm1.53125 -0.125q0 0.8125 0.46875 1.15625q0.46875 0.328125 1.140625 0.328125q0.671875 0 1.265625 -0.3125q0.609375 -0.3125 1.265625 -0.921875l0 -2.5625q-1.15625 0.15625 -1.953125 0.375q-0.796875 0.203125 -1.28125 0.484375q-0.484375 0.28125 -0.703125 0.65625q-0.203125 0.375 -0.203125 0.796875zm8.473877 -6.71875l1.28125 0l0.140625 1.328125l0.0625 0q0.65625 -0.65625 1.390625 -1.109375q0.734375 -0.453125 1.703125 -0.453125q1.453125 0 2.125 0.921875q0.6875 0.90625 0.6875 2.6875l0 5.859375l-1.5625 0l0 -5.640625q0 -1.3125 -0.421875 -1.890625q-0.40625 -0.578125 -1.328125 -0.578125q-0.71875 0 -1.28125 0.359375q-0.546875 0.359375 -1.25 1.0625l0 6.6875l-1.546875 0l0 -9.234375zm9.533096 4.640625q0 -1.125 0.328125 -2.03125q0.34375 -0.90625 0.890625 -1.53125q0.546875 -0.625 1.265625 -0.96875q0.734375 -0.34375 1.53125 -0.34375q0.796875 0 1.375 0.296875q0.59375 0.28125 1.203125 0.78125l-0.078125 -1.578125l0 -3.5625l1.578125 0l0 13.53125l-1.296875 0l-0.125 -1.078125l-0.0625 0q-0.546875 0.53125 -1.265625 0.921875q-0.703125 0.390625 -1.515625 0.390625q-1.75 0 -2.796875 -1.25q-1.03125 -1.265625 -1.03125 -3.578125zm1.625 -0.015625q0 1.671875 0.65625 2.609375q0.671875 0.921875 1.875 0.921875q0.65625 0 1.21875 -0.3125q0.578125 -0.3125 1.140625 -0.96875l0 -4.828125q-0.578125 -0.53125 -1.125 -0.75q-0.546875 -0.21875 -1.109375 -0.21875q-0.5625 0 -1.046875 0.265625q-0.484375 0.25 -0.84375 0.71875q-0.359375 0.46875 -0.5625 1.109375q-0.203125 0.640625 -0.203125 1.453125zm13.435272 -3.359375l-1.375 0l0 -1.171875l1.453125 -0.09375l0.1875 -2.578125l1.3125 0l0 2.578125l2.484375 0l0 1.265625l-2.484375 0l0 5.140625q0 0.859375 0.3125 1.328125q0.3125 0.453125 1.109375 0.453125q0.25 0 0.53125 -0.078125q0.28125 -0.078125 0.515625 -0.171875l0.296875 1.1875q-0.375 0.125 -0.828125 0.234375q-0.4375 0.109375 -0.875 0.109375q-0.75 0 -1.25 -0.234375q-0.5 -0.234375 -0.8125 -0.625q-0.3125 -0.40625 -0.453125 -0.96875q-0.125 -0.578125 -0.125 -1.25l0 -5.125zm5.3526917 3.375q0 -1.140625 0.34375 -2.046875q0.359375 -0.90625 0.9375 -1.53125q0.578125 -0.625 1.3125 -0.953125q0.75 -0.34375 1.546875 -0.34375q0.875 0 1.5625 0.3125q0.703125 0.296875 1.15625 0.875q0.46875 0.5625 0.71875 1.359375q0.25 0.796875 0.25 1.796875q0 0.515625 -0.0625 0.84375l-6.234375 0q0.109375 1.5 0.921875 2.375q0.828125 0.875 2.15625 0.875q0.671875 0 1.234375 -0.1875q0.5625 -0.203125 1.078125 -0.53125l0.546875 1.03125q-0.609375 0.375 -1.359375 0.671875q-0.734375 0.28125 -1.6875 0.28125q-0.921875 0 -1.734375 -0.328125q-0.8125 -0.34375 -1.40625 -0.953125q-0.59375 -0.625 -0.9375 -1.515625q-0.34375 -0.890625 -0.34375 -2.03125zm6.453125 -0.703125q0 -1.421875 -0.59375 -2.171875q-0.59375 -0.765625 -1.6875 -0.765625q-0.484375 0 -0.9375 0.203125q-0.4375 0.203125 -0.8125 0.578125q-0.359375 0.359375 -0.59375 0.90625q-0.234375 0.546875 -0.3125 1.25l4.9375 0zm3.4878845 -8.234375l1.546875 0l0 11.78125q0 0.375 0.125 0.53125q0.140625 0.15625 0.3125 0.15625q0.078125 0 0.140625 0q0.078125 0 0.203125 -0.046875l0.21875 1.1875q-0.15625 0.078125 -0.375 0.109375q-0.203125 0.046875 -0.515625 0.046875q-0.90625 0 -1.28125 -0.53125q-0.375 -0.546875 -0.375 -1.5625l0 -11.671875zm4.7573547 0l1.546875 0l0 11.78125q0 0.375 0.125 0.53125q0.140625 0.15625 0.3125 0.15625q0.078125 0 0.140625 0q0.078125 0 0.203125 -0.046875l0.21875 1.1875q-0.15625 0.078125 -0.375 0.109375q-0.203125 0.046875 -0.515625 0.046875q-0.90625 0 -1.28125 -0.53125q-0.375 -0.546875 -0.375 -1.5625l0 -11.671875zm4.507324 11.4375q0.609375 0.5 1.234375 0.8125q0.640625 0.296875 1.484375 0.296875q0.90625 0 1.359375 -0.421875q0.46875 -0.421875 0.46875 -1.03125q0 -0.359375 -0.203125 -0.625q-0.1875 -0.265625 -0.484375 -0.453125q-0.28125 -0.203125 -0.671875 -0.359375q-0.375 -0.15625 -0.75 -0.3125q-0.5 -0.15625 -1.0 -0.375q-0.484375 -0.21875 -0.875 -0.53125q-0.390625 -0.328125 -0.640625 -0.734375q-0.25 -0.421875 -0.25 -1.015625q0 -0.546875 0.21875 -1.03125q0.21875 -0.484375 0.625 -0.828125q0.40625 -0.359375 1.0 -0.5625q0.59375 -0.203125 1.328125 -0.203125q0.875 0 1.609375 0.3125q0.734375 0.296875 1.265625 0.734375l-0.75 1.0q-0.46875 -0.375 -0.984375 -0.59375q-0.515625 -0.234375 -1.109375 -0.234375q-0.875 0 -1.296875 0.40625q-0.40625 0.390625 -0.40625 0.921875q0 0.328125 0.171875 0.5625q0.171875 0.234375 0.453125 0.421875q0.296875 0.1875 0.65625 0.328125q0.375 0.140625 0.78125 0.296875q0.484375 0.1875 0.984375 0.390625q0.515625 0.203125 0.90625 0.53125q0.40625 0.3125 0.65625 0.765625q0.265625 0.453125 0.265625 1.09375q0 0.578125 -0.21875 1.078125q-0.21875 0.484375 -0.65625 0.875q-0.421875 0.375 -1.0625 0.59375q-0.640625 0.21875 -1.453125 0.21875q-0.984375 0 -1.875 -0.359375q-0.890625 -0.375 -1.5625 -0.921875l0.78125 -1.046875z" fill-rule="nonzero"></path><path fill="#434343" d="m173.82393 222.66385l1.6875 0l2.0 6.734375q0.34375 1.125 0.59375 2.078125q0.265625 0.9375 0.625 2.046875l0.078125 0q0.328125 -1.109375 0.59375 -2.046875q0.28125 -0.953125 0.59375 -2.078125l2.0 -6.734375l1.609375 0l-3.953125 12.46875l-1.84375 0l-3.984375 -12.46875zm11.967346 1.328125q-0.453125 0 -0.78125 -0.28125q-0.3125 -0.28125 -0.3125 -0.71875q0 -0.453125 0.3125 -0.71875q0.328125 -0.28125 0.78125 -0.28125q0.453125 0 0.765625 0.28125q0.3125 0.265625 0.3125 0.71875q0 0.4375 -0.3125 0.71875q-0.3125 0.28125 -0.765625 0.28125zm-0.796875 1.90625l1.546875 0l0 9.234375l-1.546875 0l0 -9.234375zm3.9019318 4.640625q0 -1.140625 0.34375 -2.046875q0.359375 -0.90625 0.9375 -1.53125q0.578125 -0.625 1.3125 -0.953125q0.75 -0.34375 1.546875 -0.34375q0.875 0 1.5625 0.3125q0.703125 0.296875 1.15625 0.875q0.46875 0.5625 0.71875 1.359375q0.25 0.796875 0.25 1.796875q0 0.515625 -0.0625 0.84375l-6.234375 0q0.109375 1.5 0.921875 2.375q0.828125 0.875 2.15625 0.875q0.671875 0 1.234375 -0.1875q0.5625 -0.203125 1.078125 -0.53125l0.546875 1.03125q-0.609375 0.375 -1.359375 0.671875q-0.734375 0.28125 -1.6875 0.28125q-0.921875 0 -1.734375 -0.328125q-0.8125 -0.34375 -1.40625 -0.953125q-0.59375 -0.625 -0.9375 -1.515625q-0.34375 -0.890625 -0.34375 -2.03125zm6.453125 -0.703125q0 -1.421875 -0.59375 -2.171875q-0.59375 -0.765625 -1.6875 -0.765625q-0.484375 0 -0.9375 0.203125q-0.4375 0.203125 -0.8125 0.578125q-0.359375 0.359375 -0.59375 0.90625q-0.234375 0.546875 -0.3125 1.25l4.9375 0zm2.3785095 -3.9375l1.59375 0l1.375 5.34375q0.15625 0.65625 0.28125 1.296875q0.140625 0.625 0.265625 1.265625l0.078125 0q0.15625 -0.640625 0.296875 -1.28125q0.15625 -0.640625 0.328125 -1.28125l1.421875 -5.34375l1.53125 0l1.4375 5.34375q0.171875 0.65625 0.328125 1.296875q0.171875 0.625 0.3125 1.265625l0.078125 0q0.15625 -0.640625 0.28125 -1.265625q0.140625 -0.640625 0.296875 -1.296875l1.34375 -5.34375l1.484375 0l-2.46875 9.234375l-1.90625 0l-1.328125 -4.953125q-0.171875 -0.671875 -0.3125 -1.3125q-0.140625 -0.65625 -0.3125 -1.359375l-0.078125 0q-0.15625 0.703125 -0.3125 1.359375q-0.140625 0.65625 -0.328125 1.328125l-1.296875 4.9375l-1.828125 0l-2.5625 -9.234375zm19.070007 -1.90625q-0.453125 0 -0.78125 -0.28125q-0.3125 -0.28125 -0.3125 -0.71875q0 -0.453125 0.3125 -0.71875q0.328125 -0.28125 0.78125 -0.28125q0.453125 0 0.765625 0.28125q0.3125 0.265625 0.3125 0.71875q0 0.4375 -0.3125 0.71875q-0.3125 0.28125 -0.765625 0.28125zm-0.796875 1.90625l1.546875 0l0 9.234375l-1.546875 0l0 -9.234375zm4.855057 1.265625l-1.375 0l0 -1.171875l1.453125 -0.09375l0.1875 -2.578125l1.3125 0l0 2.578125l2.484375 0l0 1.265625l-2.484375 0l0 5.140625q0 0.859375 0.3125 1.328125q0.3125 0.453125 1.109375 0.453125q0.25 0 0.53125 -0.078125q0.28125 -0.078125 0.515625 -0.171875l0.296875 1.1875q-0.375 0.125 -0.828125 0.234375q-0.4375 0.109375 -0.875 0.109375q-0.75 0 -1.25 -0.234375q-0.5 -0.234375 -0.8125 -0.625q-0.3125 -0.40625 -0.453125 -0.96875q-0.125 -0.578125 -0.125 -1.25l0 -5.125zm5.7901917 5.875q0.609375 0.5 1.234375 0.8125q0.640625 0.296875 1.484375 0.296875q0.90625 0 1.359375 -0.421875q0.46875 -0.421875 0.46875 -1.03125q0 -0.359375 -0.203125 -0.625q-0.1875 -0.265625 -0.484375 -0.453125q-0.28125 -0.203125 -0.671875 -0.359375q-0.375 -0.15625 -0.75 -0.3125q-0.5 -0.15625 -1.0 -0.375q-0.484375 -0.21875 -0.875 -0.53125q-0.390625 -0.328125 -0.640625 -0.734375q-0.25 -0.421875 -0.25 -1.015625q0 -0.546875 0.21875 -1.03125q0.21875 -0.484375 0.625 -0.828125q0.40625 -0.359375 1.0 -0.5625q0.59375 -0.203125 1.328125 -0.203125q0.875 0 1.609375 0.3125q0.734375 0.296875 1.265625 0.734375l-0.75 1.0q-0.46875 -0.375 -0.984375 -0.59375q-0.515625 -0.234375 -1.109375 -0.234375q-0.875 0 -1.296875 0.40625q-0.40625 0.390625 -0.40625 0.921875q0 0.328125 0.171875 0.5625q0.171875 0.234375 0.453125 0.421875q0.296875 0.1875 0.65625 0.328125q0.375 0.140625 0.78125 0.296875q0.484375 0.1875 0.984375 0.390625q0.515625 0.203125 0.90625 0.53125q0.40625 0.3125 0.65625 0.765625q0.265625 0.453125 0.265625 1.09375q0 0.578125 -0.21875 1.078125q-0.21875 0.484375 -0.65625 0.875q-0.421875 0.375 -1.0625 0.59375q-0.640625 0.21875 -1.453125 0.21875q-0.984375 0 -1.875 -0.359375q-0.890625 -0.375 -1.5625 -0.921875l0.78125 -1.046875zm7.379471 -2.5q0 -1.140625 0.34375 -2.046875q0.359375 -0.90625 0.9375 -1.53125q0.578125 -0.625 1.3125 -0.953125q0.75 -0.34375 1.546875 -0.34375q0.875 0 1.5625 0.3125q0.703125 0.296875 1.15625 0.875q0.46875 0.5625 0.71875 1.359375q0.25 0.796875 0.25 1.796875q0 0.515625 -0.0625 0.84375l-6.234375 0q0.109375 1.5 0.921875 2.375q0.828125 0.875 2.15625 0.875q0.671875 0 1.234375 -0.1875q0.5625 -0.203125 1.078125 -0.53125l0.546875 1.03125q-0.609375 0.375 -1.359375 0.671875q-0.734375 0.28125 -1.6875 0.28125q-0.921875 0 -1.734375 -0.328125q-0.8125 -0.34375 -1.40625 -0.953125q-0.59375 -0.625 -0.9375 -1.515625q-0.34375 -0.890625 -0.34375 -2.03125zm6.453125 -0.703125q0 -1.421875 -0.59375 -2.171875q-0.59375 -0.765625 -1.6875 -0.765625q-0.484375 0 -0.9375 0.203125q-0.4375 0.203125 -0.8125 0.578125q-0.359375 0.359375 -0.59375 0.90625q-0.234375 0.546875 -0.3125 1.25l4.9375 0zm3.4878845 -8.234375l1.546875 0l0 11.78125q0 0.375 0.125 0.53125q0.140625 0.15625 0.3125 0.15625q0.078125 0 0.140625 0q0.078125 0 0.203125 -0.046875l0.21875 1.1875q-0.15625 0.078125 -0.375 0.109375q-0.203125 0.046875 -0.515625 0.046875q-0.90625 0 -1.28125 -0.53125q-0.375 -0.546875 -0.375 -1.5625l0 -11.671875zm8.9135895 1.28125q-0.515625 -0.234375 -1.046875 -0.234375q-1.296875 0 -1.296875 1.78125l0 1.46875l1.96875 0l0 1.265625l-1.96875 0l0 7.96875l-1.546875 0l0 -7.96875l-1.265625 0l0 -1.171875l1.265625 -0.09375l0 -1.46875q0 -1.421875 0.65625 -2.234375q0.65625 -0.8125 2.03125 -0.8125q0.4375 0 0.828125 0.09375q0.390625 0.078125 0.71875 0.203125l-0.34375 1.203125zm5.856827 1.109375q-0.453125 0 -0.78125 -0.28125q-0.3125 -0.28125 -0.3125 -0.71875q0 -0.453125 0.3125 -0.71875q0.328125 -0.28125 0.78125 -0.28125q0.453125 0 0.765625 0.28125q0.3125 0.265625 0.3125 0.71875q0 0.4375 -0.3125 0.71875q-0.3125 0.28125 -0.765625 0.28125zm-0.796875 1.90625l1.546875 0l0 9.234375l-1.546875 0l0 -9.234375zm4.3394165 7.140625q0.609375 0.5 1.234375 0.8125q0.640625 0.296875 1.484375 0.296875q0.90625 0 1.359375 -0.421875q0.46875 -0.421875 0.46875 -1.03125q0 -0.359375 -0.203125 -0.625q-0.1875 -0.265625 -0.484375 -0.453125q-0.28125 -0.203125 -0.671875 -0.359375q-0.375 -0.15625 -0.75 -0.3125q-0.5 -0.15625 -1.0 -0.375q-0.484375 -0.21875 -0.875 -0.53125q-0.390625 -0.328125 -0.640625 -0.734375q-0.25 -0.421875 -0.25 -1.015625q0 -0.546875 0.21875 -1.03125q0.21875 -0.484375 0.625 -0.828125q0.40625 -0.359375 1.0 -0.5625q0.59375 -0.203125 1.328125 -0.203125q0.875 0 1.609375 0.3125q0.734375 0.296875 1.265625 0.734375l-0.75 1.0q-0.46875 -0.375 -0.984375 -0.59375q-0.515625 -0.234375 -1.109375 -0.234375q-0.875 0 -1.296875 0.40625q-0.40625 0.390625 -0.40625 0.921875q0 0.328125 0.171875 0.5625q0.171875 0.234375 0.453125 0.421875q0.296875 0.1875 0.65625 0.328125q0.375 0.140625 0.78125 0.296875q0.484375 0.1875 0.984375 0.390625q0.515625 0.203125 0.90625 0.53125q0.40625 0.3125 0.65625 0.765625q0.265625 0.453125 0.265625 1.09375q0 0.578125 -0.21875 1.078125q-0.21875 0.484375 -0.65625 0.875q-0.421875 0.375 -1.0625 0.59375q-0.640625 0.21875 -1.453125 0.21875q-0.984375 0 -1.875 -0.359375q-0.890625 -0.375 -1.5625 -0.921875l0.78125 -1.046875zm12.101166 -5.875l-1.375 0l0 -1.171875l1.453125 -0.09375l0.1875 -2.578125l1.3125 0l0 2.578125l2.484375 0l0 1.265625l-2.484375 0l0 5.140625q0 0.859375 0.3125 1.328125q0.3125 0.453125 1.109375 0.453125q0.25 0 0.53125 -0.078125q0.28125 -0.078125 0.515625 -0.171875l0.296875 1.1875q-0.375 0.125 -0.828125 0.234375q-0.4375 0.109375 -0.875 0.109375q-0.75 0 -1.25 -0.234375q-0.5 -0.234375 -0.8125 -0.625q-0.3125 -0.40625 -0.453125 -0.96875q-0.125 -0.578125 -0.125 -1.25l0 -5.125zm6.0401917 -5.5625l1.546875 0l0 3.6875l-0.046875 1.90625q0.65625 -0.625 1.375 -1.078125q0.734375 -0.453125 1.703125 -0.453125q1.453125 0 2.125 0.921875q0.6875 0.90625 0.6875 2.6875l0 5.859375l-1.5625 0l0 -5.640625q0 -1.3125 -0.421875 -1.890625q-0.40625 -0.578125 -1.328125 -0.578125q-0.71875 0 -1.28125 0.359375q-0.546875 0.359375 -1.25 1.0625l0 6.6875l-1.546875 0l0 -13.53125zm9.461517 8.9375q0 -1.140625 0.34375 -2.046875q0.359375 -0.90625 0.9375 -1.53125q0.578125 -0.625 1.3125 -0.953125q0.75 -0.34375 1.546875 -0.34375q0.875 0 1.5625 0.3125q0.703125 0.296875 1.15625 0.875q0.46875 0.5625 0.71875 1.359375q0.25 0.796875 0.25 1.796875q0 0.515625 -0.0625 0.84375l-6.234375 0q0.109375 1.5 0.921875 2.375q0.828125 0.875 2.15625 0.875q0.671875 0 1.234375 -0.1875q0.5625 -0.203125 1.078125 -0.53125l0.546875 1.03125q-0.609375 0.375 -1.359375 0.671875q-0.734375 0.28125 -1.6875 0.28125q-0.921875 0 -1.734375 -0.328125q-0.8125 -0.34375 -1.40625 -0.953125q-0.59375 -0.625 -0.9375 -1.515625q-0.34375 -0.890625 -0.34375 -2.03125zm6.453125 -0.703125q0 -1.421875 -0.59375 -2.171875q-0.59375 -0.765625 -1.6875 -0.765625q-0.484375 0 -0.9375 0.203125q-0.4375 0.203125 -0.8125 0.578125q-0.359375 0.359375 -0.59375 0.90625q-0.234375 0.546875 -0.3125 1.25l4.9375 0z" fill-rule="nonzero"></path><path fill="#434343" d="m192.16302 244.66385l1.6875 0l2.0 6.734375q0.34375 1.125 0.59375 2.078125q0.265625 0.9375 0.625 2.046875l0.078125 0q0.328125 -1.109375 0.59375 -2.046875q0.28125 -0.953125 0.59375 -2.078125l2.0 -6.734375l1.609375 0l-3.953125 12.46875l-1.84375 0l-3.984375 -12.46875zm11.967346 1.328125q-0.453125 0 -0.78125 -0.28125q-0.3125 -0.28125 -0.3125 -0.71875q0 -0.453125 0.3125 -0.71875q0.328125 -0.28125 0.78125 -0.28125q0.453125 0 0.765625 0.28125q0.3125 0.265625 0.3125 0.71875q0 0.4375 -0.3125 0.71875q-0.3125 0.28125 -0.765625 0.28125zm-0.796875 1.90625l1.546875 0l0 9.234375l-1.546875 0l0 -9.234375zm3.9019318 4.640625q0 -1.140625 0.34375 -2.046875q0.359375 -0.90625 0.9375 -1.53125q0.578125 -0.625 1.3125 -0.953125q0.75 -0.34375 1.546875 -0.34375q0.875 0 1.5625 0.3125q0.703125 0.296875 1.15625 0.875q0.46875 0.5625 0.71875 1.359375q0.25 0.796875 0.25 1.796875q0 0.515625 -0.0625 0.84375l-6.234375 0q0.109375 1.5 0.921875 2.375q0.828125 0.875 2.15625 0.875q0.671875 0 1.234375 -0.1875q0.5625 -0.203125 1.078125 -0.53125l0.546875 1.03125q-0.609375 0.375 -1.359375 0.671875q-0.734375 0.28125 -1.6875 0.28125q-0.921875 0 -1.734375 -0.328125q-0.8125 -0.34375 -1.40625 -0.953125q-0.59375 -0.625 -0.9375 -1.515625q-0.34375 -0.890625 -0.34375 -2.03125zm6.453125 -0.703125q0 -1.421875 -0.59375 -2.171875q-0.59375 -0.765625 -1.6875 -0.765625q-0.484375 0 -0.9375 0.203125q-0.4375 0.203125 -0.8125 0.578125q-0.359375 0.359375 -0.59375 0.90625q-0.234375 0.546875 -0.3125 1.25l4.9375 0zm2.3785095 -3.9375l1.59375 0l1.375 5.34375q0.15625 0.65625 0.28125 1.296875q0.140625 0.625 0.265625 1.265625l0.078125 0q0.15625 -0.640625 0.296875 -1.28125q0.15625 -0.640625 0.328125 -1.28125l1.421875 -5.34375l1.53125 0l1.4375 5.34375q0.171875 0.65625 0.328125 1.296875q0.171875 0.625 0.3125 1.265625l0.078125 0q0.15625 -0.640625 0.28125 -1.265625q0.140625 -0.640625 0.296875 -1.296875l1.34375 -5.34375l1.484375 0l-2.46875 9.234375l-1.90625 0l-1.328125 -4.953125q-0.171875 -0.671875 -0.3125 -1.3125q-0.140625 -0.65625 -0.3125 -1.359375l-0.078125 0q-0.15625 0.703125 -0.3125 1.359375q-0.140625 0.65625 -0.328125 1.328125l-1.296875 4.9375l-1.828125 0l-2.5625 -9.234375zm14.645187 -3.234375l3.125 0q2.890625 0 4.390625 1.609375q1.5 1.59375 1.5 4.578125q0 1.46875 -0.390625 2.640625q-0.375 1.171875 -1.125 1.984375q-0.734375 0.796875 -1.8125 1.234375q-1.078125 0.421875 -2.484375 0.421875l-3.203125 0l0 -12.46875zm3.015625 11.171875q2.171875 0 3.265625 -1.296875q1.09375 -1.3125 1.09375 -3.6875q0 -2.375 -1.09375 -3.625q-1.09375 -1.265625 -3.265625 -1.265625l-1.4375 0l0 9.875l1.4375 0zm7.6298523 -3.296875q0 -1.140625 0.34375 -2.046875q0.359375 -0.90625 0.9375 -1.53125q0.578125 -0.625 1.3125 -0.953125q0.75 -0.34375 1.546875 -0.34375q0.875 0 1.5625 0.3125q0.703125 0.296875 1.15625 0.875q0.46875 0.5625 0.71875 1.359375q0.25 0.796875 0.25 1.796875q0 0.515625 -0.0625 0.84375l-6.234375 0q0.109375 1.5 0.921875 2.375q0.828125 0.875 2.15625 0.875q0.671875 0 1.234375 -0.1875q0.5625 -0.203125 1.078125 -0.53125l0.546875 1.03125q-0.609375 0.375 -1.359375 0.671875q-0.734375 0.28125 -1.6875 0.28125q-0.921875 0 -1.734375 -0.328125q-0.8125 -0.34375 -1.40625 -0.953125q-0.59375 -0.625 -0.9375 -1.515625q-0.34375 -0.890625 -0.34375 -2.03125zm6.453125 -0.703125q0 -1.421875 -0.59375 -2.171875q-0.59375 -0.765625 -1.6875 -0.765625q-0.484375 0 -0.9375 0.203125q-0.4375 0.203125 -0.8125 0.578125q-0.359375 0.359375 -0.59375 0.90625q-0.234375 0.546875 -0.3125 1.25l4.9375 0zm3.4878845 -8.234375l1.546875 0l0 11.78125q0 0.375 0.125 0.53125q0.140625 0.15625 0.3125 0.15625q0.078125 0 0.140625 0q0.078125 0 0.203125 -0.046875l0.21875 1.1875q-0.15625 0.078125 -0.375 0.109375q-0.203125 0.046875 -0.515625 0.046875q-0.90625 0 -1.28125 -0.53125q-0.375 -0.546875 -0.375 -1.5625l0 -11.671875zm4.0698395 8.9375q0 -1.140625 0.34375 -2.046875q0.35935974 -0.90625 0.93748474 -1.53125q0.578125 -0.625 1.3125 -0.953125q0.75 -0.34375 1.546875 -0.34375q0.875 0 1.5625 0.3125q0.703125 0.296875 1.15625 0.875q0.46875 0.5625 0.71875 1.359375q0.25 0.796875 0.25 1.796875q0 0.515625 -0.0625 0.84375l-6.234375 0q0.109375 1.5 0.921875 2.375q0.828125 0.875 2.15625 0.875q0.671875 0 1.234375 -0.1875q0.5625 -0.203125 1.078125 -0.53125l0.546875 1.03125q-0.609375 0.375 -1.359375 0.671875q-0.734375 0.28125 -1.6875 0.28125q-0.921875 0 -1.734375 -0.328125q-0.8125 -0.34375 -1.40625 -0.953125q-0.59375 -0.625 -0.93748474 -1.515625q-0.34375 -0.890625 -0.34375 -2.03125zm6.4531097 -0.703125q0 -1.421875 -0.59375 -2.171875q-0.59375 -0.765625 -1.6875 -0.765625q-0.484375 0 -0.9375 0.203125q-0.4375 0.203125 -0.8125 0.578125q-0.359375 0.359375 -0.59375 0.90625q-0.234375 0.546875 -0.3125 1.25l4.9375 0zm4.1441345 6.859375q0 0.734375 0.703125 1.171875q0.71875 0.4375 1.984375 0.4375q0.65625 0 1.203125 -0.171875q0.546875 -0.15625 0.921875 -0.40625q0.375 -0.25 0.578125 -0.59375q0.21875 -0.34375 0.21875 -0.703125q0 -0.65625 -0.484375 -0.90625q-0.46875 -0.234375 -1.375 -0.234375l-1.59375 0q-0.265625 0 -0.578125 -0.03125q-0.3125 -0.03125 -0.625 -0.125q-0.5 0.359375 -0.734375 0.75q-0.21875 0.40625 -0.21875 0.8125zm-1.359375 0.203125q0 -0.59375 0.359375 -1.125q0.359375 -0.53125 0.984375 -0.96875l0 -0.078125q-0.34375 -0.203125 -0.578125 -0.5625q-0.234375 -0.375 -0.234375 -0.9375q0 -0.578125 0.3125 -1.015625q0.328125 -0.4375 0.6875 -0.6875l0 -0.078125q-0.453125 -0.375 -0.828125 -1.015625q-0.359375 -0.640625 -0.359375 -1.46875q0 -0.765625 0.265625 -1.375q0.28125 -0.609375 0.75 -1.03125q0.484375 -0.421875 1.109375 -0.65625q0.640625 -0.234375 1.34375 -0.234375q0.375 0 0.703125 0.078125q0.34375 0.0625 0.609375 0.15625l3.21875 0l0 1.203125l-1.90625 0q0.328125 0.3125 0.546875 0.8125q0.21875 0.5 0.21875 1.078125q0 0.75 -0.265625 1.34375q-0.265625 0.59375 -0.734375 1.015625q-0.453125 0.40625 -1.078125 0.640625q-0.609375 0.21875 -1.3125 0.21875q-0.34375 0 -0.703125 -0.078125q-0.359375 -0.09375 -0.6875 -0.25q-0.234375 0.203125 -0.40625 0.46875q-0.171875 0.25 -0.171875 0.640625q0 0.4375 0.328125 0.71875q0.34375 0.28125 1.296875 0.28125l1.796875 0q1.609375 0 2.40625 0.53125q0.8125 0.515625 0.8125 1.671875q0 0.640625 -0.328125 1.21875q-0.3125 0.59375 -0.921875 1.03125q-0.609375 0.4375 -1.484375 0.6875q-0.859375 0.25 -1.9375 0.25q-0.859375 0 -1.5625 -0.15625q-0.703125 -0.15625 -1.203125 -0.484375q-0.5 -0.328125 -0.78125 -0.78125q-0.265625 -0.453125 -0.265625 -1.0625zm3.8125 -5.734375q0.40625 0 0.75 -0.15625q0.359375 -0.15625 0.625 -0.4375q0.28125 -0.28125 0.421875 -0.6875q0.15625 -0.40625 0.15625 -0.921875q0 -1.03125 -0.578125 -1.59375q-0.5625 -0.5625 -1.375 -0.5625q-0.8125 0 -1.390625 0.5625q-0.5625 0.5625 -0.5625 1.59375q0 0.515625 0.140625 0.921875q0.15625 0.40625 0.4375 0.6875q0.28125 0.28125 0.625 0.4375q0.359375 0.15625 0.75 0.15625zm5.840271 1.578125q0 -1.515625 1.34375 -2.328125q1.359375 -0.8125 4.328125 -1.140625q0 -0.421875 -0.09375 -0.84375q-0.078125 -0.421875 -0.296875 -0.734375q-0.21875 -0.328125 -0.578125 -0.53125q-0.359375 -0.203125 -0.921875 -0.203125q-0.828125 0 -1.53125 0.3125q-0.6875 0.296875 -1.234375 0.671875l-0.625 -1.078125q0.640625 -0.421875 1.578125 -0.8125q0.9375 -0.390625 2.046875 -0.390625q1.703125 0 2.453125 1.046875q0.765625 1.03125 0.765625 2.765625l0 5.65625l-1.296875 0l-0.125 -1.109375l-0.046875 0q-0.65625 0.5625 -1.4375 0.953125q-0.765625 0.390625 -1.625 0.390625q-1.171875 0 -1.9375 -0.6875q-0.765625 -0.6875 -0.765625 -1.9375zm1.53125 -0.125q0 0.8125 0.46875 1.15625q0.46875 0.328125 1.140625 0.328125q0.671875 0 1.265625 -0.3125q0.609375 -0.3125 1.265625 -0.921875l0 -2.5625q-1.15625 0.15625 -1.953125 0.375q-0.796875 0.203125 -1.28125 0.484375q-0.484375 0.28125 -0.703125 0.65625q-0.203125 0.375 -0.203125 0.796875zm8.739502 -5.453125l-1.375 0l0 -1.171875l1.453125 -0.09375l0.1875 -2.578125l1.3125 0l0 2.578125l2.484375 0l0 1.265625l-2.484375 0l0 5.140625q0 0.859375 0.3125 1.328125q0.3125 0.453125 1.109375 0.453125q0.25 0 0.53125 -0.078125q0.28125 -0.078125 0.515625 -0.171875l0.296875 1.1875q-0.375 0.125 -0.828125 0.234375q-0.4375 0.109375 -0.875 0.109375q-0.75 0 -1.25 -0.234375q-0.5 -0.234375 -0.8125 -0.625q-0.3125 -0.40625 -0.453125 -0.96875q-0.125 -0.578125 -0.125 -1.25l0 -5.125zm5.3526917 3.375q0 -1.140625 0.34375 -2.046875q0.359375 -0.90625 0.9375 -1.53125q0.578125 -0.625 1.3125 -0.953125q0.75 -0.34375 1.546875 -0.34375q0.875 0 1.5625 0.3125q0.703125 0.296875 1.15625 0.875q0.46875 0.5625 0.71875 1.359375q0.25 0.796875 0.25 1.796875q0 0.515625 -0.0625 0.84375l-6.234375 0q0.109375 1.5 0.921875 2.375q0.828125 0.875 2.15625 0.875q0.671875 0 1.234375 -0.1875q0.5625 -0.203125 1.078125 -0.53125l0.546875 1.03125q-0.609375 0.375 -1.359375 0.671875q-0.734375 0.28125 -1.6875 0.28125q-0.921875 0 -1.734375 -0.328125q-0.8125 -0.34375 -1.40625 -0.953125q-0.59375 -0.625 -0.9375 -1.515625q-0.34375 -0.890625 -0.34375 -2.03125zm6.453125 -0.703125q0 -1.421875 -0.59375 -2.171875q-0.59375 -0.765625 -1.6875 -0.765625q-0.484375 0 -0.9375 0.203125q-0.4375 0.203125 -0.8125 0.578125q-0.359375 0.359375 -0.59375 0.90625q-0.234375 0.546875 -0.3125 1.25l4.9375 0z" fill-rule="nonzero"></path><path fill="#000000" fill-opacity="0.0" d="m546.42126 137.5958l0 101.732285" fill-rule="nonzero"></path><path stroke="#434343" stroke-width="3.0" stroke-linejoin="round" stroke-linecap="butt" d="m546.42126 137.5958l0 83.732285" fill-rule="evenodd"></path><path fill="#434343" stroke="#434343" stroke-width="3.0" stroke-linecap="butt" d="m541.46606 221.32808l4.9552 13.614304l4.9552 -13.614304z" fill-rule="evenodd"></path><path fill="#fff2cc" d="m562.8543 142.2126l200.8819 0l0 92.50394l-200.8819 0z" fill-rule="nonzero"></path><path stroke="#434343" stroke-width="1.0" stroke-linejoin="round" stroke-linecap="butt" d="m562.8543 142.2126l200.8819 0l0 92.50394l-200.8819 0z" fill-rule="nonzero"></path><path fill="#434343" d="m571.8543 156.66385l1.6875 0l2.0 6.734375q0.34375 1.125 0.59375 2.078125q0.265625 0.9375 0.625 2.046875l0.078125 0q0.328125 -1.109375 0.59375 -2.046875q0.28125 -0.953125 0.59375 -2.078125l2.0 -6.734375l1.609375 0l-3.953125 12.46875l-1.84375 0l-3.984375 -12.46875zm11.967346 1.328125q-0.453125 0 -0.78125 -0.28125q-0.3125 -0.28125 -0.3125 -0.71875q0 -0.453125 0.3125 -0.71875q0.328125 -0.28125 0.78125 -0.28125q0.453125 0 0.765625 0.28125q0.3125 0.265625 0.3125 0.71875q0 0.4375 -0.3125 0.71875q-0.3125 0.28125 -0.765625 0.28125zm-0.796875 1.90625l1.546875 0l0 9.234375l-1.546875 0l0 -9.234375zm3.9019775 4.640625q0 -1.140625 0.34375 -2.046875q0.359375 -0.90625 0.9375 -1.53125q0.578125 -0.625 1.3125 -0.953125q0.75 -0.34375 1.546875 -0.34375q0.875 0 1.5625 0.3125q0.703125 0.296875 1.15625 0.875q0.46875 0.5625 0.71875 1.359375q0.25 0.796875 0.25 1.796875q0 0.515625 -0.0625 0.84375l-6.234375 0q0.109375 1.5 0.921875 2.375q0.828125 0.875 2.15625 0.875q0.671875 0 1.234375 -0.1875q0.5625 -0.203125 1.078125 -0.53125l0.546875 1.03125q-0.609375 0.375 -1.359375 0.671875q-0.734375 0.28125 -1.6875 0.28125q-0.921875 0 -1.734375 -0.328125q-0.8125 -0.34375 -1.40625 -0.953125q-0.59375 -0.625 -0.9375 -1.515625q-0.34375 -0.890625 -0.34375 -2.03125zm6.453125 -0.703125q0 -1.421875 -0.59375 -2.171875q-0.59375 -0.765625 -1.6875 -0.765625q-0.484375 0 -0.9375 0.203125q-0.4375 0.203125 -0.8125 0.578125q-0.359375 0.359375 -0.59375 0.90625q-0.234375 0.546875 -0.3125 1.25l4.9375 0zm2.378479 -3.9375l1.59375 0l1.375 5.34375q0.15625 0.65625 0.28125 1.296875q0.140625 0.625 0.265625 1.265625l0.078125 0q0.15625 -0.640625 0.296875 -1.28125q0.15625 -0.640625 0.328125 -1.28125l1.421875 -5.34375l1.53125 0l1.4375 5.34375q0.171875 0.65625 0.328125 1.296875q0.171875 0.625 0.3125 1.265625l0.078125 0q0.15625 -0.640625 0.28125 -1.265625q0.140625 -0.640625 0.296875 -1.296875l1.34375 -5.34375l1.484375 0l-2.46875 9.234375l-1.90625 0l-1.328125 -4.953125q-0.171875 -0.671875 -0.3125 -1.3125q-0.140625 -0.65625 -0.3125 -1.359375l-0.078125 0q-0.15625 0.703125 -0.3125 1.359375q-0.140625 0.65625 -0.328125 1.328125l-1.296875 4.9375l-1.828125 0l-2.5625 -9.234375zm17.585632 4.640625q0 -1.15625 0.359375 -2.0625q0.359375 -0.90625 0.96875 -1.53125q0.609375 -0.625 1.40625 -0.953125q0.8125 -0.328125 1.703125 -0.328125q0.921875 0 1.578125 0.34375q0.65625 0.328125 1.125 0.765625l-0.78125 1.0q-0.40625 -0.359375 -0.859375 -0.578125q-0.453125 -0.234375 -1.0 -0.234375q-0.625 0 -1.15625 0.265625q-0.53125 0.25 -0.921875 0.734375q-0.375 0.46875 -0.59375 1.125q-0.21875 0.65625 -0.21875 1.453125q0 0.796875 0.203125 1.4375q0.21875 0.640625 0.578125 1.109375q0.375 0.46875 0.90625 0.734375q0.546875 0.25 1.171875 0.25q0.65625 0 1.203125 -0.265625q0.546875 -0.28125 0.953125 -0.671875l0.703125 1.03125q-0.625 0.546875 -1.390625 0.875q-0.765625 0.328125 -1.609375 0.328125q-0.90625 0 -1.703125 -0.328125q-0.796875 -0.328125 -1.390625 -0.9375q-0.578125 -0.625 -0.90625 -1.515625q-0.328125 -0.90625 -0.328125 -2.046875zm8.741638 2.203125q0 -1.515625 1.34375 -2.328125q1.359375 -0.8125 4.328125 -1.140625q0 -0.421875 -0.09375 -0.84375q-0.078125 -0.421875 -0.296875 -0.734375q-0.21875 -0.328125 -0.578125 -0.53125q-0.359375 -0.203125 -0.921875 -0.203125q-0.828125 0 -1.53125 0.3125q-0.6875 0.296875 -1.234375 0.671875l-0.625 -1.078125q0.640625 -0.421875 1.578125 -0.8125q0.9375 -0.390625 2.046875 -0.390625q1.703125 0 2.453125 1.046875q0.765625 1.03125 0.765625 2.765625l0 5.65625l-1.296875 0l-0.125 -1.109375l-0.046875 0q-0.65625 0.5625 -1.4375 0.953125q-0.765625 0.390625 -1.625 0.390625q-1.171875 0 -1.9375 -0.6875q-0.765625 -0.6875 -0.765625 -1.9375zm1.53125 -0.125q0 0.8125 0.46875 1.15625q0.46875 0.328125 1.140625 0.328125q0.671875 0 1.265625 -0.3125q0.609375 -0.3125 1.265625 -0.921875l0 -2.5625q-1.15625 0.15625 -1.953125 0.375q-0.796875 0.203125 -1.28125 0.484375q-0.484375 0.28125 -0.703125 0.65625q-0.203125 0.375 -0.203125 0.796875zm8.473877 -11.015625l1.546875 0l0 11.78125q0 0.375 0.125 0.53125q0.140625 0.15625 0.3125 0.15625q0.078125 0 0.140625 0q0.078125 0 0.203125 -0.046875l0.21875 1.1875q-0.15625 0.078125 -0.375 0.109375q-0.203125 0.046875 -0.515625 0.046875q-0.90625 0 -1.28125 -0.53125q-0.375 -0.546875 -0.375 -1.5625l0 -11.671875zm4.757324 0l1.546875 0l0 11.78125q0 0.375 0.125 0.53125q0.140625 0.15625 0.3125 0.15625q0.078125 0 0.140625 0q0.078125 0 0.203125 -0.046875l0.21875 1.1875q-0.15625 0.078125 -0.375 0.109375q-0.203125 0.046875 -0.515625 0.046875q-0.90625 0 -1.28125 -0.53125q-0.375 -0.546875 -0.375 -1.5625l0 -11.671875zm4.507324 11.4375q0.609375 0.5 1.234375 0.8125q0.640625 0.296875 1.484375 0.296875q0.90625 0 1.359375 -0.421875q0.46875 -0.421875 0.46875 -1.03125q0 -0.359375 -0.203125 -0.625q-0.1875 -0.265625 -0.484375 -0.453125q-0.28125 -0.203125 -0.671875 -0.359375q-0.375 -0.15625 -0.75 -0.3125q-0.5 -0.15625 -1.0 -0.375q-0.484375 -0.21875 -0.875 -0.53125q-0.390625 -0.328125 -0.640625 -0.734375q-0.25 -0.421875 -0.25 -1.015625q0 -0.546875 0.21875 -1.03125q0.21875 -0.484375 0.625 -0.828125q0.40625 -0.359375 1.0 -0.5625q0.59375 -0.203125 1.328125 -0.203125q0.875 0 1.609375 0.3125q0.734375 0.296875 1.265625 0.734375l-0.75 1.0q-0.46875 -0.375 -0.984375 -0.59375q-0.515625 -0.234375 -1.109375 -0.234375q-0.875 0 -1.296875 0.40625q-0.40625 0.390625 -0.40625 0.921875q0 0.328125 0.171875 0.5625q0.171875 0.234375 0.453125 0.421875q0.296875 0.1875 0.65625 0.328125q0.375 0.140625 0.78125 0.296875q0.484375 0.1875 0.984375 0.390625q0.515625 0.203125 0.90625 0.53125q0.40625 0.3125 0.65625 0.765625q0.265625 0.453125 0.265625 1.09375q0 0.578125 -0.21875 1.078125q-0.21875 0.484375 -0.65625 0.875q-0.421875 0.375 -1.0625 0.59375q-0.640625 0.21875 -1.453125 0.21875q-0.984375 0 -1.875 -0.359375q-0.890625 -0.375 -1.5625 -0.921875l0.78125 -1.046875zm11.835571 -11.4375l1.546875 0l0 3.6875l-0.03125 1.671875q0.625 -0.546875 1.359375 -0.921875q0.75 -0.375 1.53125 -0.375q0.890625 0 1.578125 0.34375q0.6875 0.328125 1.140625 0.953125q0.46875 0.609375 0.703125 1.484375q0.25 0.859375 0.25 1.921875q0 1.171875 -0.328125 2.109375q-0.328125 0.921875 -0.875 1.578125q-0.546875 0.640625 -1.28125 0.984375q-0.71875 0.328125 -1.515625 0.328125q-0.640625 0 -1.34375 -0.296875q-0.6875 -0.296875 -1.296875 -0.84375l-0.0625 0l-0.125 0.90625l-1.25 0l0 -13.53125zm1.546875 11.484375q0.609375 0.53125 1.203125 0.75q0.609375 0.21875 1.0625 0.21875q0.578125 0 1.0625 -0.25q0.484375 -0.265625 0.828125 -0.734375q0.359375 -0.46875 0.546875 -1.140625q0.203125 -0.6875 0.203125 -1.546875q0 -0.765625 -0.140625 -1.390625q-0.125 -0.625 -0.421875 -1.0625q-0.296875 -0.453125 -0.765625 -0.703125q-0.453125 -0.25 -1.09375 -0.25q-1.125 0 -2.484375 1.265625l0 4.84375zm8.354187 -0.34375q0 -1.515625 1.34375 -2.328125q1.359375 -0.8125 4.328125 -1.140625q0 -0.421875 -0.09375 -0.84375q-0.078125 -0.421875 -0.296875 -0.734375q-0.21875 -0.328125 -0.578125 -0.53125q-0.359375 -0.203125 -0.921875 -0.203125q-0.828125 0 -1.53125 0.3125q-0.6875 0.296875 -1.234375 0.671875l-0.625 -1.078125q0.640625 -0.421875 1.578125 -0.8125q0.9375 -0.390625 2.046875 -0.390625q1.703125 0 2.453125 1.046875q0.765625 1.03125 0.765625 2.765625l0 5.65625l-1.296875 0l-0.125 -1.109375l-0.046875 0q-0.65625 0.5625 -1.4375 0.953125q-0.765625 0.390625 -1.625 0.390625q-1.171875 0 -1.9375 -0.6875q-0.765625 -0.6875 -0.765625 -1.9375zm1.53125 -0.125q0 0.8125 0.46875 1.15625q0.46875 0.328125 1.140625 0.328125q0.671875 0 1.265625 -0.3125q0.609375 -0.3125 1.265625 -0.921875l0 -2.5625q-1.15625 0.15625 -1.953125 0.375q-0.796875 0.203125 -1.28125 0.484375q-0.484375 0.28125 -0.703125 0.65625q-0.203125 0.375 -0.203125 0.796875zm7.786377 -2.078125q0 -1.15625 0.359375 -2.0625q0.359375 -0.90625 0.96875 -1.53125q0.609375 -0.625 1.40625 -0.953125q0.8125 -0.328125 1.703125 -0.328125q0.921875 0 1.578125 0.34375q0.65625 0.328125 1.125 0.765625l-0.78125 1.0q-0.40625 -0.359375 -0.859375 -0.578125q-0.453125 -0.234375 -1.0 -0.234375q-0.625 0 -1.15625 0.265625q-0.53125 0.25 -0.921875 0.734375q-0.375 0.46875 -0.59375 1.125q-0.21875 0.65625 -0.21875 1.453125q0 0.796875 0.203125 1.4375q0.21875 0.640625 0.578125 1.109375q0.375 0.46875 0.90625 0.734375q0.546875 0.25 1.171875 0.25q0.65625 0 1.203125 -0.265625q0.546875 -0.28125 0.953125 -0.671875l0.703125 1.03125q-0.625 0.546875 -1.390625 0.875q-0.765625 0.328125 -1.609375 0.328125q-0.90625 0 -1.703125 -0.328125q-0.796875 -0.328125 -1.390625 -0.9375q-0.578125 -0.625 -0.90625 -1.515625q-0.328125 -0.90625 -0.328125 -2.046875zm9.194763 -8.9375l1.53125 0l0 9.15625l0.0625 0l3.9375 -4.859375l1.71875 0l-3.09375 3.703125l3.515625 5.53125l-1.703125 0l-2.703125 -4.453125l-1.734375 2.015625l0 2.4375l-1.53125 0l0 -13.53125zm13.269043 5.5625l-1.375 0l0 -1.171875l1.453125 -0.09375l0.1875 -2.578125l1.3125 0l0 2.578125l2.484375 0l0 1.265625l-2.484375 0l0 5.140625q0 0.859375 0.3125 1.328125q0.3125 0.453125 1.109375 0.453125q0.25 0 0.53125 -0.078125q0.28125 -0.078125 0.515625 -0.171875l0.296875 1.1875q-0.375 0.125 -0.828125 0.234375q-0.4375 0.109375 -0.875 0.109375q-0.75 0 -1.25 -0.234375q-0.5 -0.234375 -0.8125 -0.625q-0.3125 -0.40625 -0.453125 -0.96875q-0.125 -0.578125 -0.125 -1.25l0 -5.125zm5.352722 3.375q0 -1.15625 0.34375 -2.0625q0.359375 -0.90625 0.9375 -1.53125q0.59375 -0.625 1.359375 -0.953125q0.78125 -0.328125 1.640625 -0.328125q0.84375 0 1.609375 0.328125q0.78125 0.328125 1.359375 0.953125q0.59375 0.625 0.9375 1.53125q0.359375 0.90625 0.359375 2.0625q0 1.140625 -0.359375 2.046875q-0.34375 0.890625 -0.9375 1.515625q-0.578125 0.609375 -1.359375 0.9375q-0.765625 0.328125 -1.609375 0.328125q-0.859375 0 -1.640625 -0.328125q-0.765625 -0.328125 -1.359375 -0.9375q-0.578125 -0.625 -0.9375 -1.515625q-0.34375 -0.90625 -0.34375 -2.046875zm1.609375 0q0 0.796875 0.1875 1.4375q0.203125 0.640625 0.546875 1.109375q0.359375 0.46875 0.84375 0.734375q0.5 0.25 1.09375 0.25q0.578125 0 1.0625 -0.25q0.5 -0.265625 0.84375 -0.734375q0.359375 -0.46875 0.546875 -1.109375q0.203125 -0.640625 0.203125 -1.4375q0 -0.796875 -0.203125 -1.453125q-0.1875 -0.65625 -0.546875 -1.125q-0.34375 -0.484375 -0.84375 -0.734375q-0.484375 -0.265625 -1.0625 -0.265625q-0.59375 0 -1.09375 0.265625q-0.484375 0.25 -0.84375 0.734375q-0.34375 0.46875 -0.546875 1.125q-0.1875 0.65625 -0.1875 1.453125zm11.395874 -7.875l1.6875 0l2.0 6.734375q0.34375 1.125 0.59375 2.078125q0.265625 0.9375 0.625 2.046875l0.078125 0q0.328125 -1.109375 0.59375 -2.046875q0.28125 -0.953125 0.59375 -2.078125l2.0 -6.734375l1.609375 0l-3.953125 12.46875l-1.84375 0l-3.984375 -12.46875zm11.967346 1.328125q-0.453125 0 -0.78125 -0.28125q-0.3125 -0.28125 -0.3125 -0.71875q0 -0.453125 0.3125 -0.71875q0.328125 -0.28125 0.78125 -0.28125q0.453125 0 0.765625 0.28125q0.3125 0.265625 0.3125 0.71875q0 0.4375 -0.3125 0.71875q-0.3125 0.28125 -0.765625 0.28125zm-0.796875 1.90625l1.546875 0l0 9.234375l-1.546875 0l0 -9.234375zm3.9019165 4.640625q0 -1.140625 0.34375 -2.046875q0.359375 -0.90625 0.9375 -1.53125q0.578125 -0.625 1.3125 -0.953125q0.75 -0.34375 1.546875 -0.34375q0.875 0 1.5625 0.3125q0.703125 0.296875 1.15625 0.875q0.46875 0.5625 0.71875 1.359375q0.25 0.796875 0.25 1.796875q0 0.515625 -0.0625 0.84375l-6.234375 0q0.109375 1.5 0.921875 2.375q0.828125 0.875 2.15625 0.875q0.671875 0 1.234375 -0.1875q0.5625 -0.203125 1.078125 -0.53125l0.546875 1.03125q-0.609375 0.375 -1.359375 0.671875q-0.734375 0.28125 -1.6875 0.28125q-0.921875 0 -1.734375 -0.328125q-0.8125 -0.34375 -1.40625 -0.953125q-0.59375 -0.625 -0.9375 -1.515625q-0.34375 -0.890625 -0.34375 -2.03125zm6.453125 -0.703125q0 -1.421875 -0.59375 -2.171875q-0.59375 -0.765625 -1.6875 -0.765625q-0.484375 0 -0.9375 0.203125q-0.4375 0.203125 -0.8125 0.578125q-0.359375 0.359375 -0.59375 0.90625q-0.234375 0.546875 -0.3125 1.25l4.9375 0zm2.37854 -3.9375l1.59375 0l1.375 5.34375q0.15625 0.65625 0.28125 1.296875q0.140625 0.625 0.265625 1.265625l0.078125 0q0.15625 -0.640625 0.296875 -1.28125q0.15625 -0.640625 0.328125 -1.28125l1.421875 -5.34375l1.53125 0l1.4375 5.34375q0.171875 0.65625 0.328125 1.296875q0.171875 0.625 0.3125 1.265625l0.078125 0q0.15625 -0.640625 0.28125 -1.265625q0.140625 -0.640625 0.296875 -1.296875l1.34375 -5.34375l1.484375 0l-2.46875 9.234375l-1.90625 0l-1.328125 -4.953125q-0.171875 -0.671875 -0.3125 -1.3125q-0.140625 -0.65625 -0.3125 -1.359375l-0.078125 0q-0.15625 0.703125 -0.3125 1.359375q-0.140625 0.65625 -0.328125 1.328125l-1.296875 4.9375l-1.828125 0l-2.5625 -9.234375z" fill-rule="nonzero"></path><path fill="#434343" d="m572.0887 181.89822l1.609375 0l1.75 5.25q0.203125 0.671875 0.421875 1.359375q0.21875 0.6875 0.4375 1.359375l0.0625 0q0.21875 -0.671875 0.421875 -1.359375q0.21875 -0.6875 0.421875 -1.359375l1.75 -5.25l1.53125 0l-3.265625 9.234375l-1.828125 0l-3.3125 -9.234375zm10.837463 -1.90625q-0.453125 0 -0.78125 -0.28125q-0.3125 -0.28125 -0.3125 -0.71875q0 -0.453125 0.3125 -0.71875q0.328125 -0.28125 0.78125 -0.28125q0.453125 0 0.765625 0.28125q0.3125 0.265625 0.3125 0.71875q0 0.4375 -0.3125 0.71875q-0.3125 0.28125 -0.765625 0.28125zm-0.796875 1.90625l1.546875 0l0 9.234375l-1.546875 0l0 -9.234375zm4.1363525 6.84375q0 -1.515625 1.34375 -2.328125q1.359375 -0.8125 4.328125 -1.140625q0 -0.421875 -0.09375 -0.84375q-0.078125 -0.421875 -0.296875 -0.734375q-0.21875 -0.328125 -0.578125 -0.53125q-0.359375 -0.203125 -0.921875 -0.203125q-0.828125 0 -1.53125 0.3125q-0.6875 0.296875 -1.234375 0.671875l-0.625 -1.078125q0.640625 -0.421875 1.578125 -0.8125q0.9375 -0.390625 2.046875 -0.390625q1.703125 0 2.453125 1.046875q0.765625 1.03125 0.765625 2.765625l0 5.65625l-1.296875 0l-0.125 -1.109375l-0.046875 0q-0.65625 0.5625 -1.4375 0.953125q-0.765625 0.390625 -1.625 0.390625q-1.171875 0 -1.9375 -0.6875q-0.765625 -0.6875 -0.765625 -1.9375zm1.53125 -0.125q0 0.8125 0.46875 1.15625q0.46875 0.328125 1.140625 0.328125q0.671875 0 1.265625 -0.3125q0.609375 -0.3125 1.265625 -0.921875l0 -2.5625q-1.15625 0.15625 -1.953125 0.375q-0.796875 0.203125 -1.28125 0.484375q-0.484375 0.28125 -0.703125 0.65625q-0.203125 0.375 -0.203125 0.796875zm10.679932 -9.953125l1.6875 0l2.0 6.734375q0.34375 1.125 0.59375 2.078125q0.265625 0.9375 0.625 2.046875l0.078125 0q0.328125 -1.109375 0.59375 -2.046875q0.28125 -0.953125 0.59375 -2.078125l2.0 -6.734375l1.609375 0l-3.953125 12.46875l-1.84375 0l-3.984375 -12.46875zm11.967346 1.328125q-0.453125 0 -0.78125 -0.28125q-0.3125 -0.28125 -0.3125 -0.71875q0 -0.453125 0.3125 -0.71875q0.328125 -0.28125 0.78125 -0.28125q0.453125 0 0.765625 0.28125q0.3125 0.265625 0.3125 0.71875q0 0.4375 -0.3125 0.71875q-0.3125 0.28125 -0.765625 0.28125zm-0.796875 1.90625l1.546875 0l0 9.234375l-1.546875 0l0 -9.234375zm3.9019165 4.640625q0 -1.140625 0.34375 -2.046875q0.359375 -0.90625 0.9375 -1.53125q0.578125 -0.625 1.3125 -0.953125q0.75 -0.34375 1.546875 -0.34375q0.875 0 1.5625 0.3125q0.703125 0.296875 1.15625 0.875q0.46875 0.5625 0.71875 1.359375q0.25 0.796875 0.25 1.796875q0 0.515625 -0.0625 0.84375l-6.234375 0q0.109375 1.5 0.921875 2.375q0.828125 0.875 2.15625 0.875q0.671875 0 1.234375 -0.1875q0.5625 -0.203125 1.078125 -0.53125l0.546875 1.03125q-0.609375 0.375 -1.359375 0.671875q-0.734375 0.28125 -1.6875 0.28125q-0.921875 0 -1.734375 -0.328125q-0.8125 -0.34375 -1.40625 -0.953125q-0.59375 -0.625 -0.9375 -1.515625q-0.34375 -0.890625 -0.34375 -2.03125zm6.453125 -0.703125q0 -1.421875 -0.59375 -2.171875q-0.59375 -0.765625 -1.6875 -0.765625q-0.484375 0 -0.9375 0.203125q-0.4375 0.203125 -0.8125 0.578125q-0.359375 0.359375 -0.59375 0.90625q-0.234375 0.546875 -0.3125 1.25l4.9375 0zm2.37854 -3.9375l1.59375 0l1.375 5.34375q0.15625 0.65625 0.28125 1.296875q0.140625 0.625 0.265625 1.265625l0.078125 0q0.15625 -0.640625 0.296875 -1.28125q0.15625 -0.640625 0.328125 -1.28125l1.421875 -5.34375l1.53125 0l1.4375 5.34375q0.171875 0.65625 0.328125 1.296875q0.171875 0.625 0.3125 1.265625l0.078125 0q0.15625 -0.640625 0.28125 -1.265625q0.140625 -0.640625 0.296875 -1.296875l1.34375 -5.34375l1.484375 0l-2.46875 9.234375l-1.90625 0l-1.328125 -4.953125q-0.171875 -0.671875 -0.3125 -1.3125q-0.140625 -0.65625 -0.3125 -1.359375l-0.078125 0q-0.15625 0.703125 -0.3125 1.359375q-0.140625 0.65625 -0.328125 1.328125l-1.296875 4.9375l-1.828125 0l-2.5625 -9.234375zm14.645142 -3.234375l3.125 0q2.890625 0 4.390625 1.609375q1.5 1.59375 1.5 4.578125q0 1.46875 -0.390625 2.640625q-0.375 1.171875 -1.125 1.984375q-0.734375 0.796875 -1.8125 1.234375q-1.078125 0.421875 -2.484375 0.421875l-3.203125 0l0 -12.46875zm3.015625 11.171875q2.171875 0 3.265625 -1.296875q1.09375 -1.3125 1.09375 -3.6875q0 -2.375 -1.09375 -3.625q-1.09375 -1.265625 -3.265625 -1.265625l-1.4375 0l0 9.875l1.4375 0zm7.629883 -3.296875q0 -1.140625 0.34375 -2.046875q0.359375 -0.90625 0.9375 -1.53125q0.578125 -0.625 1.3125 -0.953125q0.75 -0.34375 1.546875 -0.34375q0.875 0 1.5625 0.3125q0.703125 0.296875 1.15625 0.875q0.46875 0.5625 0.71875 1.359375q0.25 0.796875 0.25 1.796875q0 0.515625 -0.0625 0.84375l-6.234375 0q0.109375 1.5 0.921875 2.375q0.828125 0.875 2.15625 0.875q0.671875 0 1.234375 -0.1875q0.5625 -0.203125 1.078125 -0.53125l0.546875 1.03125q-0.609375 0.375 -1.359375 0.671875q-0.734375 0.28125 -1.6875 0.28125q-0.921875 0 -1.734375 -0.328125q-0.8125 -0.34375 -1.40625 -0.953125q-0.59375 -0.625 -0.9375 -1.515625q-0.34375 -0.890625 -0.34375 -2.03125zm6.453125 -0.703125q0 -1.421875 -0.59375 -2.171875q-0.59375 -0.765625 -1.6875 -0.765625q-0.484375 0 -0.9375 0.203125q-0.4375 0.203125 -0.8125 0.578125q-0.359375 0.359375 -0.59375 0.90625q-0.234375 0.546875 -0.3125 1.25l4.9375 0zm3.487854 -8.234375l1.546875 0l0 11.78125q0 0.375 0.125 0.53125q0.140625 0.15625 0.3125 0.15625q0.078125 0 0.140625 0q0.078125 0 0.203125 -0.046875l0.21875 1.1875q-0.15625 0.078125 -0.375 0.109375q-0.203125 0.046875 -0.515625 0.046875q-0.90625 0 -1.28125 -0.53125q-0.375 -0.546875 -0.375 -1.5625l0 -11.671875zm4.0698853 8.9375q0 -1.140625 0.34375 -2.046875q0.359375 -0.90625 0.9375 -1.53125q0.578125 -0.625 1.3125 -0.953125q0.75 -0.34375 1.546875 -0.34375q0.875 0 1.5625 0.3125q0.703125 0.296875 1.15625 0.875q0.46875 0.5625 0.71875 1.359375q0.25 0.796875 0.25 1.796875q0 0.515625 -0.0625 0.84375l-6.234375 0q0.109375 1.5 0.921875 2.375q0.828125 0.875 2.15625 0.875q0.671875 0 1.234375 -0.1875q0.5625 -0.203125 1.078125 -0.53125l0.546875 1.03125q-0.609375 0.375 -1.359375 0.671875q-0.734375 0.28125 -1.6875 0.28125q-0.921875 0 -1.734375 -0.328125q-0.8125 -0.34375 -1.40625 -0.953125q-0.59375 -0.625 -0.9375 -1.515625q-0.34375 -0.890625 -0.34375 -2.03125zm6.453125 -0.703125q0 -1.421875 -0.59375 -2.171875q-0.59375 -0.765625 -1.6875 -0.765625q-0.484375 0 -0.9375 0.203125q-0.4375 0.203125 -0.8125 0.578125q-0.359375 0.359375 -0.59375 0.90625q-0.234375 0.546875 -0.3125 1.25l4.9375 0zm4.144104 6.859375q0 0.734375 0.703125 1.171875q0.71875 0.4375 1.984375 0.4375q0.65625 0 1.203125 -0.171875q0.546875 -0.15625 0.921875 -0.40625q0.375 -0.25 0.578125 -0.59375q0.21875 -0.34375 0.21875 -0.703125q0 -0.65625 -0.484375 -0.90625q-0.46875 -0.234375 -1.375 -0.234375l-1.59375 0q-0.265625 0 -0.578125 -0.03125q-0.3125 -0.03125 -0.625 -0.125q-0.5 0.359375 -0.734375 0.75q-0.21875 0.40625 -0.21875 0.8125zm-1.359375 0.203125q0 -0.59375 0.359375 -1.125q0.359375 -0.53125 0.984375 -0.96875l0 -0.078125q-0.34375 -0.203125 -0.578125 -0.5625q-0.234375 -0.375 -0.234375 -0.9375q0 -0.578125 0.3125 -1.015625q0.328125 -0.4375 0.6875 -0.6875l0 -0.078125q-0.453125 -0.375 -0.828125 -1.015625q-0.359375 -0.640625 -0.359375 -1.46875q0 -0.765625 0.265625 -1.375q0.28125 -0.609375 0.75 -1.03125q0.484375 -0.421875 1.109375 -0.65625q0.640625 -0.234375 1.34375 -0.234375q0.375 0 0.703125 0.078125q0.34375 0.0625 0.609375 0.15625l3.21875 0l0 1.203125l-1.90625 0q0.328125 0.3125 0.546875 0.8125q0.21875 0.5 0.21875 1.078125q0 0.75 -0.265625 1.34375q-0.265625 0.59375 -0.734375 1.015625q-0.453125 0.40625 -1.078125 0.640625q-0.609375 0.21875 -1.3125 0.21875q-0.34375 0 -0.703125 -0.078125q-0.359375 -0.09375 -0.6875 -0.25q-0.234375 0.203125 -0.40625 0.46875q-0.171875 0.25 -0.171875 0.640625q0 0.4375 0.328125 0.71875q0.34375 0.28125 1.296875 0.28125l1.796875 0q1.609375 0 2.40625 0.53125q0.8125 0.515625 0.8125 1.671875q0 0.640625 -0.328125 1.21875q-0.3125 0.59375 -0.921875 1.03125q-0.609375 0.4375 -1.484375 0.6875q-0.859375 0.25 -1.9375 0.25q-0.859375 0 -1.5625 -0.15625q-0.703125 -0.15625 -1.203125 -0.484375q-0.5 -0.328125 -0.78125 -0.78125q-0.265625 -0.453125 -0.265625 -1.0625zm3.8125 -5.734375q0.40625 0 0.75 -0.15625q0.359375 -0.15625 0.625 -0.4375q0.28125 -0.28125 0.421875 -0.6875q0.15625 -0.40625 0.15625 -0.921875q0 -1.03125 -0.578125 -1.59375q-0.5625 -0.5625 -1.375 -0.5625q-0.8125 0 -1.390625 0.5625q-0.5625 0.5625 -0.5625 1.59375q0 0.515625 0.140625 0.921875q0.15625 0.40625 0.4375 0.6875q0.28125 0.28125 0.625 0.4375q0.359375 0.15625 0.75 0.15625zm5.840271 1.578125q0 -1.515625 1.34375 -2.328125q1.359375 -0.8125 4.328125 -1.140625q0 -0.421875 -0.09375 -0.84375q-0.078125 -0.421875 -0.296875 -0.734375q-0.21875 -0.328125 -0.578125 -0.53125q-0.359375 -0.203125 -0.921875 -0.203125q-0.828125 0 -1.53125 0.3125q-0.6875 0.296875 -1.234375 0.671875l-0.625 -1.078125q0.640625 -0.421875 1.578125 -0.8125q0.9375 -0.390625 2.046875 -0.390625q1.703125 0 2.453125 1.046875q0.765625 1.03125 0.765625 2.765625l0 5.65625l-1.296875 0l-0.125 -1.109375l-0.046875 0q-0.65625 0.5625 -1.4375 0.953125q-0.765625 0.390625 -1.625 0.390625q-1.171875 0 -1.9375 -0.6875q-0.765625 -0.6875 -0.765625 -1.9375zm1.53125 -0.125q0 0.8125 0.46875 1.15625q0.46875 0.328125 1.140625 0.328125q0.671875 0 1.265625 -0.3125q0.609375 -0.3125 1.265625 -0.921875l0 -2.5625q-1.15625 0.15625 -1.953125 0.375q-0.796875 0.203125 -1.28125 0.484375q-0.484375 0.28125 -0.703125 0.65625q-0.203125 0.375 -0.203125 0.796875zm8.739502 -5.453125l-1.375 0l0 -1.171875l1.453125 -0.09375l0.1875 -2.578125l1.3125 0l0 2.578125l2.484375 0l0 1.265625l-2.484375 0l0 5.140625q0 0.859375 0.3125 1.328125q0.3125 0.453125 1.109375 0.453125q0.25 0 0.53125 -0.078125q0.28125 -0.078125 0.515625 -0.171875l0.296875 1.1875q-0.375 0.125 -0.828125 0.234375q-0.4375 0.109375 -0.875 0.109375q-0.75 0 -1.25 -0.234375q-0.5 -0.234375 -0.8125 -0.625q-0.3125 -0.40625 -0.453125 -0.96875q-0.125 -0.578125 -0.125 -1.25l0 -5.125zm5.352661 3.375q0 -1.140625 0.34375 -2.046875q0.359375 -0.90625 0.9375 -1.53125q0.578125 -0.625 1.3125 -0.953125q0.75 -0.34375 1.546875 -0.34375q0.875 0 1.5625 0.3125q0.703125 0.296875 1.15625 0.875q0.46875 0.5625 0.71875 1.359375q0.25 0.796875 0.25 1.796875q0 0.515625 -0.0625 0.84375l-6.234375 0q0.109375 1.5 0.921875 2.375q0.828125 0.875 2.15625 0.875q0.671875 0 1.234375 -0.1875q0.5625 -0.203125 1.078125 -0.53125l0.546875 1.03125q-0.609375 0.375 -1.359375 0.671875q-0.734375 0.28125 -1.6875 0.28125q-0.921875 0 -1.734375 -0.328125q-0.8125 -0.34375 -1.40625 -0.953125q-0.59375 -0.625 -0.9375 -1.515625q-0.34375 -0.890625 -0.34375 -2.03125zm6.453125 -0.703125q0 -1.421875 -0.59375 -2.171875q-0.59375 -0.765625 -1.6875 -0.765625q-0.484375 0 -0.9375 0.203125q-0.4375 0.203125 -0.8125 0.578125q-0.359375 0.359375 -0.59375 0.90625q-0.234375 0.546875 -0.3125 1.25l4.9375 0z" fill-rule="nonzero"></path><path fill="#434343" d="m574.9637 213.91385l0 3.109375l-1.546875 0l0 -13.125l1.28125 0l0.140625 1.0625l0.0625 0q0.625 -0.53125 1.375 -0.90625q0.75 -0.390625 1.5625 -0.390625q0.890625 0 1.578125 0.34375q0.6875 0.328125 1.140625 0.953125q0.453125 0.609375 0.6875 1.484375q0.25 0.859375 0.25 1.9375q0 1.171875 -0.328125 2.09375q-0.328125 0.921875 -0.875 1.578125q-0.546875 0.640625 -1.28125 0.984375q-0.71875 0.328125 -1.515625 0.328125q-0.640625 0 -1.28125 -0.28125q-0.640625 -0.296875 -1.28125 -0.796875l0.03125 1.625zm0 -2.828125q0.640625 0.53125 1.21875 0.75q0.59375 0.21875 1.046875 0.21875q0.578125 0 1.0625 -0.25q0.484375 -0.265625 0.828125 -0.734375q0.359375 -0.46875 0.546875 -1.140625q0.203125 -0.6875 0.203125 -1.546875q0 -0.765625 -0.140625 -1.390625q-0.125 -0.625 -0.421875 -1.0625q-0.296875 -0.453125 -0.765625 -0.703125q-0.453125 -0.25 -1.09375 -0.25q-0.59375 0 -1.203125 0.328125q-0.59375 0.328125 -1.28125 0.9375l0 4.84375zm8.807373 -7.1875l1.28125 0l0.140625 1.671875l0.0625 0q0.46875 -0.875 1.140625 -1.390625q0.671875 -0.515625 1.46875 -0.515625q0.5625 0 1.0 0.203125l-0.3125 1.359375q-0.21875 -0.078125 -0.421875 -0.109375q-0.1875 -0.046875 -0.46875 -0.046875q-0.59375 0 -1.234375 0.484375q-0.625 0.46875 -1.109375 1.65625l0 5.921875l-1.546875 0l0 -9.234375zm5.786194 4.640625q0 -1.15625 0.34375 -2.0625q0.359375 -0.90625 0.9375 -1.53125q0.59375 -0.625 1.359375 -0.953125q0.78125 -0.328125 1.640625 -0.328125q0.84375 0 1.609375 0.328125q0.78125 0.328125 1.359375 0.953125q0.59375 0.625 0.9375 1.53125q0.359375 0.90625 0.359375 2.0625q0 1.140625 -0.359375 2.046875q-0.34375 0.890625 -0.9375 1.515625q-0.578125 0.609375 -1.359375 0.9375q-0.765625 0.328125 -1.609375 0.328125q-0.859375 0 -1.640625 -0.328125q-0.765625 -0.328125 -1.359375 -0.9375q-0.578125 -0.625 -0.9375 -1.515625q-0.34375 -0.90625 -0.34375 -2.046875zm1.609375 0q0 0.796875 0.1875 1.4375q0.203125 0.640625 0.546875 1.109375q0.359375 0.46875 0.84375 0.734375q0.5 0.25 1.09375 0.25q0.578125 0 1.0625 -0.25q0.5 -0.265625 0.84375 -0.734375q0.359375 -0.46875 0.546875 -1.109375q0.203125 -0.640625 0.203125 -1.4375q0 -0.796875 -0.203125 -1.453125q-0.1875 -0.65625 -0.546875 -1.125q-0.34375 -0.484375 -0.84375 -0.734375q-0.484375 -0.265625 -1.0625 -0.265625q-0.59375 0 -1.09375 0.265625q-0.484375 0.25 -0.84375 0.734375q-0.34375 0.46875 -0.546875 1.125q-0.1875 0.65625 -0.1875 1.453125zm9.455444 -3.375l-1.375 0l0 -1.171875l1.453125 -0.09375l0.1875 -2.578125l1.3125 0l0 2.578125l2.484375 0l0 1.265625l-2.484375 0l0 5.140625q0 0.859375 0.3125 1.328125q0.3125 0.453125 1.109375 0.453125q0.25 0 0.53125 -0.078125q0.28125 -0.078125 0.515625 -0.171875l0.296875 1.1875q-0.375 0.125 -0.828125 0.234375q-0.4375 0.109375 -0.875 0.109375q-0.75 0 -1.25 -0.234375q-0.5 -0.234375 -0.8125 -0.625q-0.3125 -0.40625 -0.453125 -0.96875q-0.125 -0.578125 -0.125 -1.25l0 -5.125zm5.352722 3.375q0 -1.15625 0.34375 -2.0625q0.359375 -0.90625 0.9375 -1.53125q0.59375 -0.625 1.359375 -0.953125q0.78125 -0.328125 1.640625 -0.328125q0.84375 0 1.609375 0.328125q0.78125 0.328125 1.359375 0.953125q0.59375 0.625 0.9375 1.53125q0.359375 0.90625 0.359375 2.0625q0 1.140625 -0.359375 2.046875q-0.34375 0.890625 -0.9375 1.515625q-0.578125 0.609375 -1.359375 0.9375q-0.765625 0.328125 -1.609375 0.328125q-0.859375 0 -1.640625 -0.328125q-0.765625 -0.328125 -1.359375 -0.9375q-0.578125 -0.625 -0.9375 -1.515625q-0.34375 -0.90625 -0.34375 -2.046875zm1.609375 0q0 0.796875 0.1875 1.4375q0.203125 0.640625 0.546875 1.109375q0.359375 0.46875 0.84375 0.734375q0.5 0.25 1.09375 0.25q0.578125 0 1.0625 -0.25q0.5 -0.265625 0.84375 -0.734375q0.359375 -0.46875 0.546875 -1.109375q0.203125 -0.640625 0.203125 -1.4375q0 -0.796875 -0.203125 -1.453125q-0.1875 -0.65625 -0.546875 -1.125q-0.34375 -0.484375 -0.84375 -0.734375q-0.484375 -0.265625 -1.0625 -0.265625q-0.59375 0 -1.09375 0.265625q-0.484375 0.25 -0.84375 0.734375q-0.34375 0.46875 -0.546875 1.125q-0.1875 0.65625 -0.1875 1.453125zm8.502319 0q0 -1.15625 0.359375 -2.0625q0.359375 -0.90625 0.96875 -1.53125q0.609375 -0.625 1.40625 -0.953125q0.8125 -0.328125 1.703125 -0.328125q0.921875 0 1.578125 0.34375q0.65625 0.328125 1.125 0.765625l-0.78125 1.0q-0.40625 -0.359375 -0.859375 -0.578125q-0.453125 -0.234375 -1.0 -0.234375q-0.625 0 -1.15625 0.265625q-0.53125 0.25 -0.921875 0.734375q-0.375 0.46875 -0.59375 1.125q-0.21875 0.65625 -0.21875 1.453125q0 0.796875 0.203125 1.4375q0.21875 0.640625 0.578125 1.109375q0.375 0.46875 0.90625 0.734375q0.546875 0.25 1.171875 0.25q0.65625 0 1.203125 -0.265625q0.546875 -0.28125 0.953125 -0.671875l0.703125 1.03125q-0.625 0.546875 -1.390625 0.875q-0.765625 0.328125 -1.609375 0.328125q-0.90625 0 -1.703125 -0.328125q-0.796875 -0.328125 -1.390625 -0.9375q-0.578125 -0.625 -0.90625 -1.515625q-0.328125 -0.90625 -0.328125 -2.046875zm8.507263 0q0 -1.15625 0.34375 -2.0625q0.359375 -0.90625 0.9375 -1.53125q0.59375 -0.625 1.359375 -0.953125q0.78125 -0.328125 1.640625 -0.328125q0.84375 0 1.609375 0.328125q0.78125 0.328125 1.359375 0.953125q0.59375 0.625 0.9375 1.53125q0.359375 0.90625 0.359375 2.0625q0 1.140625 -0.359375 2.046875q-0.34375 0.890625 -0.9375 1.515625q-0.578125 0.609375 -1.359375 0.9375q-0.765625 0.328125 -1.609375 0.328125q-0.859375 0 -1.640625 -0.328125q-0.765625 -0.328125 -1.359375 -0.9375q-0.578125 -0.625 -0.9375 -1.515625q-0.34375 -0.90625 -0.34375 -2.046875zm1.609375 0q0 0.796875 0.1875 1.4375q0.203125 0.640625 0.546875 1.109375q0.359375 0.46875 0.84375 0.734375q0.5 0.25 1.09375 0.25q0.578125 0 1.0625 -0.25q0.5 -0.265625 0.84375 -0.734375q0.359375 -0.46875 0.546875 -1.109375q0.203125 -0.640625 0.203125 -1.4375q0 -0.796875 -0.203125 -1.453125q-0.1875 -0.65625 -0.546875 -1.125q-0.34375 -0.484375 -0.84375 -0.734375q-0.484375 -0.265625 -1.0625 -0.265625q-0.59375 0 -1.09375 0.265625q-0.484375 0.25 -0.84375 0.734375q-0.34375 0.46875 -0.546875 1.125q-0.1875 0.65625 -0.1875 1.453125zm9.189819 -8.9375l1.546875 0l0 11.78125q0 0.375 0.125 0.53125q0.140625 0.15625 0.3125 0.15625q0.078125 0 0.140625 0q0.078125 0 0.203125 -0.046875l0.21875 1.1875q-0.15625 0.078125 -0.375 0.109375q-0.203125 0.046875 -0.515625 0.046875q-0.90625 0 -1.28125 -0.53125q-0.375 -0.546875 -0.375 -1.5625l0 -11.671875z" fill-rule="nonzero"></path></g></svg>

