<?xml version="1.0" standalone="yes"?>

<svg version="1.1" viewBox="0.0 0.0 1187.0787401574803 706.3700787401575" fill="none" stroke="none" stroke-linecap="square" stroke-miterlimit="10" xmlns="http://www.w3.org/2000/svg" xmlns:xlink="http://www.w3.org/1999/xlink"><clipPath id="p.0"><path d="m0 0l1187.0787 0l0 706.37006l-1187.0787 0l0 -706.37006z" clip-rule="nonzero"></path></clipPath><g clip-path="url(#p.0)"><path fill="#ffffff" d="m0 0l1187.0787 0l0 706.37006l-1187.0787 0z" fill-rule="nonzero"></path><path fill="#cfe2f3" d="m655.5276 71.63386l254.70862 0l0 119.77953l-254.70862 0z" fill-rule="nonzero"></path><path stroke="#434343" stroke-width="1.0" stroke-linejoin="round" stroke-linecap="butt" d="m655.5276 71.63386l254.70862 0l0 119.77953l-254.70862 0z" fill-rule="nonzero"></path><path fill="#434343" d="m747.528 124.423l3.546875 0l0 8.750008q0 2.3125 0.703125 3.21875q0.703125 0.90625 2.015625 0.90625q1.328125 0 2.046875 -0.90625q0.71875 -0.90625 0.71875 -3.21875l0 -8.750008l3.40625 0l0 8.390633q0 3.9375 -1.578125 5.734375q-1.5625 1.796875 -4.59375 1.796875q-3.046875 0 -4.65625 -1.796875q-1.609375 -1.796875 -1.609375 -5.734375l0 -8.390633zm16.05371 0l3.53125 0l0 15.640633l-3.53125 0l0 -15.640633zm5.208313 0l3.75 0l1.875 7.2812576q0.359375 1.296875 0.625 2.515625q0.28125 1.21875 0.640625 2.5l0.09375 0q0.34375 -1.28125 0.625 -2.5q0.296875 -1.21875 0.625 -2.515625l1.84375 -7.2812576l3.609375 0l-4.703125 15.640633l-4.25 0l-4.734375 -15.640633zm16.82837 1.984375q-0.890625 0 -1.46875 -0.515625q-0.578125 -0.515625 -0.578125 -1.328125q0 -0.8125 0.578125 -1.3125q0.578125 -0.515625 1.46875 -0.515625q0.90625 0 1.46875 0.515625q0.578125 0.5 0.578125 1.3125q0 0.8125 -0.578125 1.328125q-0.5625 0.515625 -1.46875 0.515625zm-1.75 1.7500076l3.53125 0l0 11.90625l-3.53125 0l0 -11.90625zm5.9208374 5.953125q0 -1.4375 0.484375 -2.59375q0.484375 -1.171875 1.265625 -1.96875q0.78125 -0.8125 1.78125 -1.234375q1.015625 -0.43750763 2.09375 -0.43750763q1.265625 0 2.203125 0.43750763q0.953125 0.421875 1.59375 1.1875q0.640625 0.765625 0.953125 1.8125q0.3125 1.046875 0.3125 2.265625q0 0.484375 -0.046875 0.890625q-0.046875 0.390625 -0.09375 0.609375l-7.140625 0q0.25 1.359375 1.078125 1.96875q0.828125 0.609375 2.03125 0.609375q1.265625 0 2.5625 -0.78125l1.171875 2.125q-0.90625 0.625 -2.03125 0.984375q-1.109375 0.359375 -2.1875 0.359375q-1.28125 0 -2.390625 -0.40625q-1.09375 -0.421875 -1.90625 -1.21875q-0.8125 -0.8125 -1.28125 -1.96875q-0.453125 -1.15625 -0.453125 -2.640625zm7.6875 -1.21875q0 -1.03125 -0.46875 -1.671875q-0.453125 -0.65625 -1.53125 -0.65625q-0.828125 0 -1.46875 0.5625q-0.640625 0.5625 -0.828125 1.765625l4.296875 0zm4.463196 -4.734375l3.5 0l1.15625 5.515625q0.140625 0.890625 0.25 1.765625q0.125 0.859375 0.28125 1.765625l0.09375 0q0.171875 -0.90625 0.328125 -1.796875q0.15625 -0.890625 0.359375 -1.734375l1.328125 -5.515625l3.046875 0l1.34375 5.515625q0.21875 0.890625 0.375 1.765625q0.171875 0.859375 0.375 1.765625l0.09375 0q0.15625 -0.90625 0.265625 -1.765625q0.109375 -0.875 0.28125 -1.765625l1.125 -5.515625l3.265625 0l-2.859375 11.90625l-4.125 0l-1.078125 -4.75q-0.1875 -0.84375 -0.34375 -1.671875q-0.140625 -0.84375 -0.296875 -1.8125l-0.109375 0q-0.15625 0.96875 -0.296875 1.8125q-0.125 0.828125 -0.296875 1.671875l-1.0625 4.75l-4.03125 0l-2.96875 -11.90625z" fill-rule="nonzero"></path><path fill="#cfe2f3" d="m535.73755 247.77559l197.98425 0l0 119.779526l-197.98425 0z" fill-rule="nonzero"></path><path stroke="#434343" stroke-width="1.0" stroke-linejoin="round" stroke-linecap="butt" d="m535.73755 247.77559l197.98425 0l0 119.779526l-197.98425 0z" fill-rule="nonzero"></path><path fill="#434343" d="m599.3758 300.56473l3.546875 0l0 8.75q0 2.3125 0.703125 3.21875q0.703125 0.90625 2.015625 0.90625q1.328125 0 2.046875 -0.90625q0.71875 -0.90625 0.71875 -3.21875l0 -8.75l3.40625 0l0 8.390625q0 3.9375 -1.578125 5.734375q-1.5625 1.796875 -4.59375 1.796875q-3.046875 0 -4.65625 -1.796875q-1.609375 -1.796875 -1.609375 -5.734375l0 -8.390625zm16.05365 0l3.53125 0l0 15.640625l-3.53125 0l0 -15.640625zm5.208374 0l3.75 0l1.875 7.28125q0.359375 1.296875 0.625 2.515625q0.28125 1.21875 0.640625 2.5l0.09375 0q0.34375 -1.28125 0.625 -2.5q0.296875 -1.21875 0.625 -2.515625l1.84375 -7.28125l3.609375 0l-4.703125 15.640625l-4.25 0l-4.734375 -15.640625zm16.82837 1.984375q-0.890625 0 -1.46875 -0.515625q-0.578125 -0.515625 -0.578125 -1.328125q0 -0.8125 0.578125 -1.3125q0.578125 -0.515625 1.46875 -0.515625q0.90625 0 1.46875 0.515625q0.578125 0.5 0.578125 1.3125q0 0.8125 -0.578125 1.328125q-0.5625 0.515625 -1.46875 0.515625zm-1.75 1.75l3.53125 0l0 11.90625l-3.53125 0l0 -11.90625zm5.9208374 5.953125q0 -1.4375 0.484375 -2.59375q0.484375 -1.171875 1.265625 -1.96875q0.78125 -0.8125 1.78125 -1.234375q1.015625 -0.4375 2.09375 -0.4375q1.265625 0 2.203125 0.4375q0.953125 0.421875 1.59375 1.1875q0.640625 0.765625 0.953125 1.8125q0.3125 1.046875 0.3125 2.265625q0 0.484375 -0.046875 0.890625q-0.046875 0.390625 -0.09375 0.609375l-7.140625 0q0.25 1.359375 1.078125 1.96875q0.828125 0.609375 2.03125 0.609375q1.265625 0 2.5625 -0.78125l1.171875 2.125q-0.90625 0.625 -2.03125 0.984375q-1.109375 0.359375 -2.1875 0.359375q-1.28125 0 -2.390625 -0.40625q-1.09375 -0.421875 -1.90625 -1.21875q-0.8125 -0.8125 -1.28125 -1.96875q-0.453125 -1.15625 -0.453125 -2.640625zm7.6875 -1.21875q0 -1.03125 -0.46875 -1.671875q-0.453125 -0.65625 -1.53125 -0.65625q-0.828125 0 -1.46875 0.5625q-0.640625 0.5625 -0.828125 1.765625l4.296875 0zm4.463196 -4.734375l3.5 0l1.15625 5.515625q0.140625 0.890625 0.25 1.765625q0.125 0.859375 0.28125 1.765625l0.09375 0q0.171875 -0.90625 0.328125 -1.796875q0.15625 -0.890625 0.359375 -1.734375l1.328125 -5.515625l3.046875 0l1.34375 5.515625q0.21875 0.890625 0.375 1.765625q0.171875 0.859375 0.375 1.765625l0.09375 0q0.15625 -0.90625 0.265625 -1.765625q0.109375 -0.875 0.28125 -1.765625l1.125 -5.515625l3.265625 0l-2.859375 11.90625l-4.125 0l-1.078125 -4.75q-0.1875 -0.84375 -0.34375 -1.671875q-0.140625 -0.84375 -0.296875 -1.8125l-0.109375 0q-0.15625 0.96875 -0.296875 1.8125q-0.125 0.828125 -0.296875 1.671875l-1.0625 4.75l-4.03125 0l-2.96875 -11.90625z" fill-rule="nonzero"></path><path fill="#cfe2f3" d="m481.51706 423.91733l145.0079 0l0 119.77951l-145.0079 0z" fill-rule="nonzero"></path><path stroke="#434343" stroke-width="1.0" stroke-linejoin="round" stroke-linecap="butt" d="m481.51706 423.91733l145.0079 0l0 119.77951l-145.0079 0z" fill-rule="nonzero"></path><path fill="#434343" d="m518.6671 476.70645l3.546875 0l0 8.75q0 2.3125 0.703125 3.21875q0.703125 0.90625 2.015625 0.90625q1.328125 0 2.046875 -0.90625q0.71875 -0.90625 0.71875 -3.21875l0 -8.75l3.40625 0l0 8.390625q0 3.9375 -1.578125 5.734375q-1.5625 1.796875 -4.59375 1.796875q-3.046875 0 -4.65625 -1.796875q-1.609375 -1.796875 -1.609375 -5.734375l0 -8.390625zm16.05371 0l3.53125 0l0 15.640625l-3.53125 0l0 -15.640625zm5.208313 0l3.75 0l1.875 7.28125q0.359375 1.296875 0.625 2.515625q0.28125 1.21875 0.640625 2.5l0.09375 0q0.34375 -1.28125 0.625 -2.5q0.296875 -1.21875 0.625 -2.515625l1.84375 -7.28125l3.609375 0l-4.703125 15.640625l-4.25 0l-4.734375 -15.640625zm16.82837 1.984375q-0.890625 0 -1.46875 -0.515625q-0.578125 -0.515625 -0.578125 -1.328125q0 -0.8125 0.578125 -1.3125q0.578125 -0.515625 1.46875 -0.515625q0.90625 0 1.46875 0.515625q0.578125 0.5 0.578125 1.3125q0 0.8125 -0.578125 1.328125q-0.5625 0.515625 -1.46875 0.515625zm-1.75 1.75l3.53125 0l0 11.90625l-3.53125 0l0 -11.90625zm5.9208374 5.953125q0 -1.4375 0.484375 -2.59375q0.484375 -1.171875 1.265625 -1.96875q0.78125 -0.8125 1.78125 -1.234375q1.015625 -0.4375 2.09375 -0.4375q1.265625 0 2.203125 0.4375q0.953125 0.421875 1.59375 1.1875q0.640625 0.765625 0.953125 1.8125q0.3125 1.046875 0.3125 2.265625q0 0.484375 -0.046875 0.890625q-0.046875 0.390625 -0.09375 0.609375l-7.140625 0q0.25 1.359375 1.078125 1.96875q0.828125 0.609375 2.03125 0.609375q1.265625 0 2.5625 -0.78125l1.171875 2.125q-0.90625 0.625 -2.03125 0.984375q-1.109375 0.359375 -2.1875 0.359375q-1.28125 0 -2.390625 -0.40625q-1.09375 -0.421875 -1.90625 -1.21875q-0.8125 -0.8125 -1.28125 -1.96875q-0.453125 -1.15625 -0.453125 -2.640625zm7.6875 -1.21875q0 -1.03125 -0.46875 -1.671875q-0.453125 -0.65625 -1.53125 -0.65625q-0.828125 0 -1.46875 0.5625q-0.640625 0.5625 -0.828125 1.765625l4.296875 0zm4.463196 -4.734375l3.5 0l1.15625 5.515625q0.140625 0.890625 0.25 1.765625q0.125 0.859375 0.28125 1.765625l0.09375 0q0.171875 -0.90625 0.328125 -1.796875q0.15625 -0.890625 0.359375 -1.734375l1.328125 -5.515625l3.046875 0l1.34375 5.515625q0.21875 0.890625 0.375 1.765625q0.171875 0.859375 0.375 1.765625l0.09375 0q0.15625 -0.90625 0.265625 -1.765625q0.109375 -0.875 0.28125 -1.765625l1.125 -5.515625l3.265625 0l-2.859375 11.90625l-4.125 0l-1.078125 -4.75q-0.1875 -0.84375 -0.34375 -1.671875q-0.140625 -0.84375 -0.296875 -1.8125l-0.109375 0q-0.15625 0.96875 -0.296875 1.8125q-0.125 0.828125 -0.296875 1.671875l-1.0625 4.75l-4.03125 0l-2.96875 -11.90625z" fill-rule="nonzero"></path><path fill="#cfe2f3" d="m655.5276 423.91733l145.00787 0l0 119.77951l-145.00787 0z" fill-rule="nonzero"></path><path stroke="#434343" stroke-width="1.0" stroke-linejoin="round" stroke-linecap="butt" d="m655.5276 423.91733l145.00787 0l0 119.77951l-145.00787 0z" fill-rule="nonzero"></path><path fill="#434343" d="m692.6776 476.70645l3.546875 0l0 8.75q0 2.3125 0.703125 3.21875q0.703125 0.90625 2.015625 0.90625q1.328125 0 2.046875 -0.90625q0.71875 -0.90625 0.71875 -3.21875l0 -8.75l3.40625 0l0 8.390625q0 3.9375 -1.578125 5.734375q-1.5625 1.796875 -4.59375 1.796875q-3.046875 0 -4.65625 -1.796875q-1.609375 -1.796875 -1.609375 -5.734375l0 -8.390625zm16.05371 0l3.53125 0l0 15.640625l-3.53125 0l0 -15.640625zm5.208313 0l3.75 0l1.875 7.28125q0.359375 1.296875 0.625 2.515625q0.28125 1.21875 0.640625 2.5l0.09375 0q0.34375 -1.28125 0.625 -2.5q0.296875 -1.21875 0.625 -2.515625l1.84375 -7.28125l3.609375 0l-4.703125 15.640625l-4.25 0l-4.734375 -15.640625zm16.82837 1.984375q-0.890625 0 -1.46875 -0.515625q-0.578125 -0.515625 -0.578125 -1.328125q0 -0.8125 0.578125 -1.3125q0.578125 -0.515625 1.46875 -0.515625q0.90625 0 1.46875 0.515625q0.578125 0.5 0.578125 1.3125q0 0.8125 -0.578125 1.328125q-0.5625 0.515625 -1.46875 0.515625zm-1.75 1.75l3.53125 0l0 11.90625l-3.53125 0l0 -11.90625zm5.9208374 5.953125q0 -1.4375 0.484375 -2.59375q0.484375 -1.171875 1.265625 -1.96875q0.78125 -0.8125 1.78125 -1.234375q1.015625 -0.4375 2.09375 -0.4375q1.265625 0 2.203125 0.4375q0.953125 0.421875 1.59375 1.1875q0.640625 0.765625 0.953125 1.8125q0.3125 1.046875 0.3125 2.265625q0 0.484375 -0.046875 0.890625q-0.046875 0.390625 -0.09375 0.609375l-7.140625 0q0.25 1.359375 1.078125 1.96875q0.828125 0.609375 2.03125 0.609375q1.265625 0 2.5625 -0.78125l1.171875 2.125q-0.90625 0.625 -2.03125 0.984375q-1.109375 0.359375 -2.1875 0.359375q-1.28125 0 -2.390625 -0.40625q-1.09375 -0.421875 -1.90625 -1.21875q-0.8125 -0.8125 -1.28125 -1.96875q-0.453125 -1.15625 -0.453125 -2.640625zm7.6875 -1.21875q0 -1.03125 -0.46875 -1.671875q-0.453125 -0.65625 -1.53125 -0.65625q-0.828125 0 -1.46875 0.5625q-0.640625 0.5625 -0.828125 1.765625l4.296875 0zm4.463196 -4.734375l3.5 0l1.15625 5.515625q0.140625 0.890625 0.25 1.765625q0.125 0.859375 0.28125 1.765625l0.09375 0q0.171875 -0.90625 0.328125 -1.796875q0.15625 -0.890625 0.359375 -1.734375l1.328125 -5.515625l3.046875 0l1.34375 5.515625q0.21875 0.890625 0.375 1.765625q0.171875 0.859375 0.375 1.765625l0.09375 0q0.15625 -0.90625 0.265625 -1.765625q0.109375 -0.875 0.28125 -1.765625l1.125 -5.515625l3.265625 0l-2.859375 11.90625l-4.125 0l-1.078125 -4.75q-0.1875 -0.84375 -0.34375 -1.671875q-0.140625 -0.84375 -0.296875 -1.8125l-0.109375 0q-0.15625 0.96875 -0.296875 1.8125q-0.125 0.828125 -0.296875 1.671875l-1.0625 4.75l-4.03125 0l-2.96875 -11.90625z" fill-rule="nonzero"></path><path fill="#cfe2f3" d="m917.83466 423.91733l114.70868 0l0 119.77951l-114.70868 0z" fill-rule="nonzero"></path><path stroke="#434343" stroke-width="1.0" stroke-linejoin="round" stroke-linecap="butt" d="m917.83466 423.91733l114.70868 0l0 119.77951l-114.70868 0z" fill-rule="nonzero"></path><path fill="#434343" d="m939.8351 476.70645l3.546875 0l0 8.75q0 2.3125 0.703125 3.21875q0.703125 0.90625 2.015625 0.90625q1.328125 0 2.046875 -0.90625q0.71875 -0.90625 0.71875 -3.21875l0 -8.75l3.40625 0l0 8.390625q0 3.9375 -1.578125 5.734375q-1.5625 1.796875 -4.59375 1.796875q-3.046875 0 -4.65625 -1.796875q-1.609375 -1.796875 -1.609375 -5.734375l0 -8.390625zm16.05371 0l3.53125 0l0 15.640625l-3.53125 0l0 -15.640625zm5.208374 0l3.75 0l1.875 7.28125q0.359375 1.296875 0.625 2.515625q0.28125 1.21875 0.640625 2.5l0.09375 0q0.34375 -1.28125 0.625 -2.5q0.296875 -1.21875 0.625 -2.515625l1.84375 -7.28125l3.609375 0l-4.703125 15.640625l-4.25 0l-4.734375 -15.640625zm16.828308 1.984375q-0.890625 0 -1.46875 -0.515625q-0.578125 -0.515625 -0.578125 -1.328125q0 -0.8125 0.578125 -1.3125q0.578125 -0.515625 1.46875 -0.515625q0.90625 0 1.46875 0.515625q0.578125 0.5 0.578125 1.3125q0 0.8125 -0.578125 1.328125q-0.5625 0.515625 -1.46875 0.515625zm-1.75 1.75l3.53125 0l0 11.90625l-3.53125 0l0 -11.90625zm5.9208374 5.953125q0 -1.4375 0.484375 -2.59375q0.484375 -1.171875 1.265625 -1.96875q0.78125 -0.8125 1.78125 -1.234375q1.015625 -0.4375 2.09375 -0.4375q1.265625 0 2.203125 0.4375q0.953125 0.421875 1.59375 1.1875q0.640625 0.765625 0.953125 1.8125q0.3125 1.046875 0.3125 2.265625q0 0.484375 -0.046875 0.890625q-0.046875 0.390625 -0.09375 0.609375l-7.140625 0q0.25 1.359375 1.078125 1.96875q0.828125 0.609375 2.03125 0.609375q1.265625 0 2.5625 -0.78125l1.171875 2.125q-0.90625 0.625 -2.03125 0.984375q-1.109375 0.359375 -2.1875 0.359375q-1.28125 0 -2.390625 -0.40625q-1.09375 -0.421875 -1.90625 -1.21875q-0.8125 -0.8125 -1.28125 -1.96875q-0.453125 -1.15625 -0.453125 -2.640625zm7.6875 -1.21875q0 -1.03125 -0.46875 -1.671875q-0.453125 -0.65625 -1.53125 -0.65625q-0.828125 0 -1.46875 0.5625q-0.640625 0.5625 -0.828125 1.765625l4.296875 0zm4.463257 -4.734375l3.5 0l1.15625 5.515625q0.140625 0.890625 0.25 1.765625q0.125 0.859375 0.28125 1.765625l0.09375 0q0.171875 -0.90625 0.328125 -1.796875q0.15625 -0.890625 0.359375 -1.734375l1.328125 -5.515625l3.046875 0l1.34375 5.515625q0.21875 0.890625 0.375 1.765625q0.171875 0.859375 0.375 1.765625l0.09375 0q0.15625 -0.90625 0.265625 -1.765625q0.109375 -0.875 0.28125 -1.765625l1.125 -5.515625l3.265625 0l-2.859375 11.90625l-4.125 0l-1.078125 -4.75q-0.1875 -0.84375 -0.34375 -1.671875q-0.140625 -0.84375 -0.296875 -1.8125l-0.109375 0q-0.15625 0.96875 -0.296875 1.8125q-0.125 0.828125 -0.296875 1.671875l-1.0625 4.75l-4.03125 0l-2.96875 -11.90625z" fill-rule="nonzero"></path><path fill="#cfe2f3" d="m670.6772 574.84644l114.70862 0l0 119.77954l-114.70862 0z" fill-rule="nonzero"></path><path stroke="#434343" stroke-width="1.0" stroke-linejoin="round" stroke-linecap="butt" d="m670.6772 574.84644l114.70862 0l0 119.77954l-114.70862 0z" fill-rule="nonzero"></path><path fill="#434343" d="m692.6776 627.6356l3.546875 0l0 8.75q0 2.3125 0.703125 3.21875q0.703125 0.90625 2.015625 0.90625q1.328125 0 2.046875 -0.90625q0.71875 -0.90625 0.71875 -3.21875l0 -8.75l3.40625 0l0 8.390625q0 3.9375 -1.578125 5.734375q-1.5625 1.796875 -4.59375 1.796875q-3.046875 0 -4.65625 -1.796875q-1.609375 -1.796875 -1.609375 -5.734375l0 -8.390625zm16.05371 0l3.53125 0l0 15.640625l-3.53125 0l0 -15.640625zm5.208313 0l3.75 0l1.875 7.28125q0.359375 1.296875 0.625 2.515625q0.28125 1.21875 0.640625 2.5l0.09375 0q0.34375 -1.28125 0.625 -2.5q0.296875 -1.21875 0.625 -2.515625l1.84375 -7.28125l3.609375 0l-4.703125 15.640625l-4.25 0l-4.734375 -15.640625zm16.82837 1.984375q-0.890625 0 -1.46875 -0.515625q-0.578125 -0.515625 -0.578125 -1.328125q0 -0.8125 0.578125 -1.3125q0.578125 -0.515625 1.46875 -0.515625q0.90625 0 1.46875 0.515625q0.578125 0.5 0.578125 1.3125q0 0.8125 -0.578125 1.328125q-0.5625 0.515625 -1.46875 0.515625zm-1.75 1.75l3.53125 0l0 11.90625l-3.53125 0l0 -11.90625zm5.9208374 5.953125q0 -1.4375 0.484375 -2.59375q0.484375 -1.171875 1.265625 -1.96875q0.78125 -0.8125 1.78125 -1.234375q1.015625 -0.4375 2.09375 -0.4375q1.265625 0 2.203125 0.4375q0.953125 0.421875 1.59375 1.1875q0.640625 0.765625 0.953125 1.8125q0.3125 1.046875 0.3125 2.265625q0 0.484375 -0.046875 0.890625q-0.046875 0.390625 -0.09375 0.609375l-7.140625 0q0.25 1.359375 1.078125 1.96875q0.828125 0.609375 2.03125 0.609375q1.265625 0 2.5625 -0.78125l1.171875 2.125q-0.90625 0.625 -2.03125 0.984375q-1.109375 0.359375 -2.1875 0.359375q-1.28125 0 -2.390625 -0.40625q-1.09375 -0.421875 -1.90625 -1.21875q-0.8125 -0.8125 -1.28125 -1.96875q-0.453125 -1.15625 -0.453125 -2.640625zm7.6875 -1.21875q0 -1.03125 -0.46875 -1.671875q-0.453125 -0.65625 -1.53125 -0.65625q-0.828125 0 -1.46875 0.5625q-0.640625 0.5625 -0.828125 1.765625l4.296875 0zm4.463196 -4.734375l3.5 0l1.15625 5.515625q0.140625 0.890625 0.25 1.765625q0.125 0.859375 0.28125 1.765625l0.09375 0q0.171875 -0.90625 0.328125 -1.796875q0.15625 -0.890625 0.359375 -1.734375l1.328125 -5.515625l3.046875 0l1.34375 5.515625q0.21875 0.890625 0.375 1.765625q0.171875 0.859375 0.375 1.765625l0.09375 0q0.15625 -0.90625 0.265625 -1.765625q0.109375 -0.875 0.28125 -1.765625l1.125 -5.515625l3.265625 0l-2.859375 11.90625l-4.125 0l-1.078125 -4.75q-0.1875 -0.84375 -0.34375 -1.671875q-0.140625 -0.84375 -0.296875 -1.8125l-0.109375 0q-0.15625 0.96875 -0.296875 1.8125q-0.125 0.828125 -0.296875 1.671875l-1.0625 4.75l-4.03125 0l-2.96875 -11.90625z" fill-rule="nonzero"></path><path fill="#cfe2f3" d="m857.2808 247.77559l132.40948 0l0 119.779526l-132.40948 0z" fill-rule="nonzero"></path><path stroke="#434343" stroke-width="1.0" stroke-linejoin="round" stroke-linecap="butt" d="m857.2808 247.77559l132.40948 0l0 119.779526l-132.40948 0z" fill-rule="nonzero"></path><path fill="#434343" d="m888.13165 300.56473l3.546875 0l0 8.75q0 2.3125 0.703125 3.21875q0.703125 0.90625 2.015625 0.90625q1.328125 0 2.046875 -0.90625q0.71875 -0.90625 0.71875 -3.21875l0 -8.75l3.40625 0l0 8.390625q0 3.9375 -1.578125 5.734375q-1.5625 1.796875 -4.59375 1.796875q-3.046875 0 -4.65625 -1.796875q-1.609375 -1.796875 -1.609375 -5.734375l0 -8.390625zm16.05371 0l3.53125 0l0 15.640625l-3.53125 0l0 -15.640625zm5.208374 0l3.75 0l1.875 7.28125q0.359375 1.296875 0.625 2.515625q0.28125 1.21875 0.640625 2.5l0.09375 0q0.34375 -1.28125 0.625 -2.5q0.296875 -1.21875 0.625 -2.515625l1.84375 -7.28125l3.609375 0l-4.703125 15.640625l-4.25 0l-4.734375 -15.640625zm16.828308 1.984375q-0.890625 0 -1.46875 -0.515625q-0.578125 -0.515625 -0.578125 -1.328125q0 -0.8125 0.578125 -1.3125q0.578125 -0.515625 1.46875 -0.515625q0.90625 0 1.46875 0.515625q0.578125 0.5 0.578125 1.3125q0 0.8125 -0.578125 1.328125q-0.5625 0.515625 -1.46875 0.515625zm-1.75 1.75l3.53125 0l0 11.90625l-3.53125 0l0 -11.90625zm5.9208984 5.953125q0 -1.4375 0.484375 -2.59375q0.484375 -1.171875 1.265625 -1.96875q0.78125 -0.8125 1.78125 -1.234375q1.015625 -0.4375 2.09375 -0.4375q1.265625 0 2.203125 0.4375q0.953125 0.421875 1.59375 1.1875q0.640625 0.765625 0.953125 1.8125q0.3125 1.046875 0.3125 2.265625q0 0.484375 -0.046875 0.890625q-0.046875 0.390625 -0.09375 0.609375l-7.140625 0q0.25 1.359375 1.078125 1.96875q0.828125 0.609375 2.03125 0.609375q1.265625 0 2.5625 -0.78125l1.171875 2.125q-0.90625 0.625 -2.03125 0.984375q-1.109375 0.359375 -2.1875 0.359375q-1.28125 0 -2.390625 -0.40625q-1.09375 -0.421875 -1.90625 -1.21875q-0.8125 -0.8125 -1.28125 -1.96875q-0.453125 -1.15625 -0.453125 -2.640625zm7.6875 -1.21875q0 -1.03125 -0.46875 -1.671875q-0.453125 -0.65625 -1.53125 -0.65625q-0.828125 0 -1.46875 0.5625q-0.640625 0.5625 -0.828125 1.765625l4.296875 0zm4.463196 -4.734375l3.5 0l1.15625 5.515625q0.140625 0.890625 0.25 1.765625q0.125 0.859375 0.28125 1.765625l0.09375 0q0.171875 -0.90625 0.328125 -1.796875q0.15625 -0.890625 0.359375 -1.734375l1.328125 -5.515625l3.046875 0l1.34375 5.515625q0.21875 0.890625 0.375 1.765625q0.171875 0.859375 0.375 1.765625l0.09375 0q0.15625 -0.90625 0.265625 -1.765625q0.109375 -0.875 0.28125 -1.765625l1.125 -5.515625l3.265625 0l-2.859375 11.90625l-4.125 0l-1.078125 -4.75q-0.1875 -0.84375 -0.34375 -1.671875q-0.140625 -0.84375 -0.296875 -1.8125l-0.109375 0q-0.15625 0.96875 -0.296875 1.8125q-0.125 0.828125 -0.296875 1.671875l-1.0625 4.75l-4.03125 0l-2.96875 -11.90625z" fill-rule="nonzero"></path><path fill="#000000" fill-opacity="0.0" d="m782.8819 191.41339l-148.15747 56.377945" fill-rule="nonzero"></path><path stroke="#434343" stroke-width="3.0" stroke-linejoin="round" stroke-linecap="butt" d="m782.8819 191.41339l-131.33435 49.976273" fill-rule="evenodd"></path><path fill="#434343" stroke="#434343" stroke-width="3.0" stroke-linecap="butt" d="m649.7853 236.75844l-10.961914 9.473129l14.486511 -0.2106781z" fill-rule="evenodd"></path><path fill="#000000" fill-opacity="0.0" d="m782.8819 191.41339l140.59839 56.377945" fill-rule="nonzero"></path><path stroke="#434343" stroke-width="3.0" stroke-linejoin="round" stroke-linecap="butt" d="m782.8819 191.41339l123.89154 49.67871" fill-rule="evenodd"></path><path fill="#434343" stroke="#434343" stroke-width="3.0" stroke-linecap="butt" d="m904.9292 245.69133l14.480469 0.46774292l-10.792053 -9.666183z" fill-rule="evenodd"></path><path fill="#000000" fill-opacity="0.0" d="m634.7297 367.5551l-80.72443 56.37796" fill-rule="nonzero"></path><path stroke="#434343" stroke-width="3.0" stroke-linejoin="round" stroke-linecap="butt" d="m634.7297 367.5551l-65.96716 46.071472" fill-rule="evenodd"></path><path fill="#434343" stroke="#434343" stroke-width="3.0" stroke-linecap="butt" d="m565.92523 409.5641l-8.324402 11.857819l13.998901 -3.732788z" fill-rule="evenodd"></path><path fill="#000000" fill-opacity="0.0" d="m634.7297 367.5551l93.29132 56.37796" fill-rule="nonzero"></path><path stroke="#434343" stroke-width="3.0" stroke-linejoin="round" stroke-linecap="butt" d="m634.7297 367.5551l77.885864 47.068115" fill-rule="evenodd"></path><path fill="#434343" stroke="#434343" stroke-width="3.0" stroke-linecap="butt" d="m710.0527 418.8642l14.214783 2.800537l-9.088989 -11.28244z" fill-rule="evenodd"></path><path fill="#000000" fill-opacity="0.0" d="m923.48553 367.5551l51.716553 56.37796" fill-rule="nonzero"></path><path stroke="#434343" stroke-width="3.0" stroke-linejoin="round" stroke-linecap="butt" d="m923.48553 367.5551l39.54883 43.113464" fill-rule="evenodd"></path><path fill="#434343" stroke="#434343" stroke-width="3.0" stroke-linecap="butt" d="m959.3828 414.01825l12.854614 6.6829224l-5.5515137 -13.382202z" fill-rule="evenodd"></path><path fill="#000000" fill-opacity="0.0" d="m728.0315 543.69684l0 31.149597" fill-rule="nonzero"></path><path stroke="#434343" stroke-width="3.0" stroke-linejoin="round" stroke-linecap="butt" d="m728.0315 543.69684l0 13.149597" fill-rule="evenodd"></path><path fill="#434343" stroke="#434343" stroke-width="3.0" stroke-linecap="butt" d="m723.0763 556.84644l4.9552 13.614319l4.9552 -13.614319z" fill-rule="evenodd"></path><path fill="#fff2cc" d="m154.53543 187.88583l232.40945 0l0 119.77951l-232.40945 0z" fill-rule="nonzero"></path><path stroke="#434343" stroke-width="1.0" stroke-linejoin="round" stroke-linecap="butt" d="m154.53543 187.88583l232.40945 0l0 119.77951l-232.40945 0z" fill-rule="nonzero"></path><path fill="#434343" d="m180.99043 240.67497l3.546875 0l0 8.75q0 2.3125 0.703125 3.21875q0.703125 0.90625 2.015625 0.90625q1.328125 0 2.046875 -0.90625q0.71875 -0.90625 0.71875 -3.21875l0 -8.75l3.40625 0l0 8.390625q0 3.9375 -1.578125 5.734375q-1.5625 1.7968597 -4.59375 1.7968597q-3.046875 0 -4.65625 -1.7968597q-1.609375 -1.796875 -1.609375 -5.734375l0 -8.390625zm16.053696 0l3.53125 0l0 15.64061l-3.53125 0l0 -15.64061zm5.208359 0l3.75 0l1.875 7.28125q0.359375 1.296875 0.625 2.515625q0.28125 1.21875 0.640625 2.5l0.09375 0q0.34375 -1.28125 0.625 -2.5q0.296875 -1.21875 0.625 -2.515625l1.84375 -7.28125l3.609375 0l-4.703125 15.64061l-4.25 0l-4.734375 -15.64061zm16.828339 1.984375q-0.890625 0 -1.46875 -0.515625q-0.578125 -0.515625 -0.578125 -1.328125q0 -0.8125 0.578125 -1.3125q0.578125 -0.515625 1.46875 -0.515625q0.90625 0 1.46875 0.515625q0.578125 0.5 0.578125 1.3125q0 0.8125 -0.578125 1.328125q-0.5625 0.515625 -1.46875 0.515625zm-1.75 1.75l3.53125 0l0 11.906235l-3.53125 0l0 -11.906235zm5.9208527 5.953125q0 -1.4375 0.484375 -2.59375q0.484375 -1.171875 1.265625 -1.96875q0.78125 -0.8125 1.78125 -1.234375q1.015625 -0.4375 2.09375 -0.4375q1.265625 0 2.203125 0.4375q0.953125 0.421875 1.59375 1.1875q0.640625 0.765625 0.953125 1.8125q0.3125 1.046875 0.3125 2.265625q0 0.484375 -0.046875 0.890625q-0.046875 0.390625 -0.09375 0.609375l-7.140625 0q0.25 1.359375 1.078125 1.96875q0.828125 0.609375 2.03125 0.609375q1.265625 0 2.5625 -0.78125l1.171875 2.125q-0.90625 0.625 -2.03125 0.98435974q-1.109375 0.359375 -2.1875 0.359375q-1.28125 0 -2.390625 -0.40625q-1.09375 -0.42185974 -1.90625 -1.2187347q-0.8125 -0.8125 -1.28125 -1.96875q-0.453125 -1.15625 -0.453125 -2.640625zm7.6875 -1.21875q0 -1.03125 -0.46875 -1.671875q-0.453125 -0.65625 -1.53125 -0.65625q-0.828125 0 -1.46875 0.5625q-0.640625 0.5625 -0.828125 1.765625l4.296875 0zm4.463211 -4.734375l3.5 0l1.15625 5.515625q0.140625 0.890625 0.25 1.765625q0.125 0.859375 0.28125 1.765625l0.09375 0q0.171875 -0.90625 0.328125 -1.796875q0.15625 -0.890625 0.359375 -1.734375l1.328125 -5.515625l3.046875 0l1.34375 5.515625q0.21875 0.890625 0.375 1.765625q0.171875 0.859375 0.375 1.765625l0.09375 0q0.15625 -0.90625 0.265625 -1.765625q0.109375 -0.875 0.28125 -1.765625l1.125 -5.515625l3.265625 0l-2.859375 11.906235l-4.125 0l-1.078125 -4.7499847q-0.1875 -0.84375 -0.34375 -1.671875q-0.140625 -0.84375 -0.296875 -1.8125l-0.109375 0q-0.15625 0.96875 -0.296875 1.8125q-0.125 0.828125 -0.296875 1.671875l-1.0625 4.7499847l-4.03125 0l-2.96875 -11.906235zm19.155197 4.171875q0 -1.9375 0.59375 -3.453125q0.59375 -1.53125 1.609375 -2.578125q1.03125 -1.0625 2.390625 -1.609375q1.359375 -0.5625 2.859375 -0.5625q1.46875 0 2.65625 0.609375q1.1875 0.609375 1.984375 1.4375l-1.953125 2.171875q-0.59375 -0.546875 -1.203125 -0.859375q-0.609375 -0.3125 -1.4375 -0.3125q-0.8125 0 -1.515625 0.359375q-0.703125 0.34375 -1.234375 1.0q-0.53125 0.640625 -0.828125 1.578125q-0.296875 0.921875 -0.296875 2.109375q0 2.421875 1.03125 3.75q1.03125 1.328125 2.75 1.328125q0.96875 0 1.6875 -0.375q0.71875 -0.390625 1.296875 -1.015625l1.9375 2.140625q-0.984375 1.15625 -2.25 1.7343597q-1.25 0.5625 -2.71875 0.5625q-1.515625 0 -2.859375 -0.515625q-1.34375 -0.51560974 -2.359375 -1.5156097q-1.0 -1.015625 -1.578125 -2.515625q-0.5625 -1.5 -0.5625 -3.46875zm13.717957 1.78125q0 -1.484375 0.484375 -2.640625q0.484375 -1.171875 1.28125 -1.96875q0.8125 -0.796875 1.859375 -1.203125q1.0625 -0.421875 2.1875 -0.421875q1.125 0 2.171875 0.421875q1.046875 0.40625 1.84375 1.203125q0.8125 0.796875 1.28125 1.96875q0.484375 1.15625 0.484375 2.640625q0 1.484375 -0.484375 2.65625q-0.46875 1.15625 -1.28125 1.953125q-0.796875 0.796875 -1.84375 1.2187347q-1.046875 0.40625 -2.171875 0.40625q-1.125 0 -2.1875 -0.40625q-1.046875 -0.42185974 -1.859375 -1.2187347q-0.796875 -0.796875 -1.28125 -1.953125q-0.484375 -1.171875 -0.484375 -2.65625zm3.625 0q0 1.5625 0.53125 2.484375q0.546875 0.90625 1.65625 0.90625q1.078125 0 1.625 -0.90625q0.5625 -0.921875 0.5625 -2.484375q0 -1.5625 -0.5625 -2.46875q-0.546875 -0.921875 -1.625 -0.921875q-1.109375 0 -1.65625 0.921875q-0.53125 0.90625 -0.53125 2.46875zm10.398071 -5.953125l2.875 0l0.25 1.515625l0.09375 0q0.765625 -0.71875 1.671875 -1.25q0.921875 -0.546875 2.140625 -0.546875q1.9375 0 2.8125 1.28125q0.875 1.265625 0.875 3.515625l0 7.3906097l-3.515625 0l0 -6.9374847q0 -1.296875 -0.359375 -1.765625q-0.34375 -0.484375 -1.109375 -0.484375q-0.671875 0 -1.15625 0.296875q-0.484375 0.296875 -1.046875 0.84375l0 8.04686l-3.53125 0l0 -11.906235zm14.212341 2.765625l-1.640625 0l0 -2.625l1.828125 -0.140625l0.40625 -3.171875l2.921875 0l0 3.171875l2.859375 0l0 2.765625l-2.859375 0l0 4.765625q0 1.015625 0.421875 1.46875q0.421875 0.4375 1.125 0.4375q0.28125 0 0.578125 -0.0625q0.296875 -0.078125 0.546875 -0.1875l0.546875 2.5781097q-0.484375 0.140625 -1.125 0.28125q-0.640625 0.140625 -1.515625 0.140625q-1.09375 0 -1.875 -0.328125q-0.78125 -0.34373474 -1.28125 -0.93748474q-0.484375 -0.59375 -0.71875 -1.4375q-0.21875 -0.859375 -0.21875 -1.890625l0 -4.828125zm8.707611 -2.765625l2.875 0l0.25 2.09375l0.09375 0q0.640625 -1.234375 1.546875 -1.796875q0.921875 -0.578125 1.828125 -0.578125q0.5 0 0.828125 0.0625q0.328125 0.046875 0.59375 0.171875l-0.578125 3.046875q-0.34375 -0.09375 -0.625 -0.140625q-0.28125 -0.046875 -0.671875 -0.046875q-0.671875 0 -1.40625 0.484375q-0.734375 0.46875 -1.203125 1.703125l0 6.9062347l-3.53125 0l0 -11.906235zm8.848846 5.953125q0 -1.484375 0.484375 -2.640625q0.484375 -1.171875 1.28125 -1.96875q0.8125 -0.796875 1.859375 -1.203125q1.0625 -0.421875 2.1875 -0.421875q1.125 0 2.171875 0.421875q1.046875 0.40625 1.84375 1.203125q0.8125 0.796875 1.28125 1.96875q0.484375 1.15625 0.484375 2.640625q0 1.484375 -0.484375 2.65625q-0.46875 1.15625 -1.28125 1.953125q-0.796875 0.796875 -1.84375 1.2187347q-1.046875 0.40625 -2.171875 0.40625q-1.125 0 -2.1875 -0.40625q-1.046875 -0.42185974 -1.859375 -1.2187347q-0.796875 -0.796875 -1.28125 -1.953125q-0.484375 -1.171875 -0.484375 -2.65625zm3.625 0q0 1.5625 0.53125 2.484375q0.546875 0.90625 1.65625 0.90625q1.078125 0 1.625 -0.90625q0.5625 -0.921875 0.5625 -2.484375q0 -1.5625 -0.5625 -2.46875q-0.546875 -0.921875 -1.625 -0.921875q-1.109375 0 -1.65625 0.921875q-0.53125 0.90625 -0.53125 2.46875zm10.398071 -10.875l3.53125 0l0 13.28125q0 0.546875 0.203125 0.765625q0.203125 0.21875 0.421875 0.21875q0.109375 0 0.1875 0q0.09375 0 0.234375 -0.046875l0.4375 2.6093597q-0.296875 0.125 -0.734375 0.203125q-0.4375 0.078125 -1.046875 0.078125q-0.90625 0 -1.53125 -0.28125q-0.625 -0.28125 -1.0 -0.79685974q-0.375 -0.515625 -0.546875 -1.25q-0.15625 -0.734375 -0.15625 -1.65625l0 -13.125zm6.863983 0l3.53125 0l0 13.28125q0 0.546875 0.203125 0.765625q0.203125 0.21875 0.421875 0.21875q0.109375 0 0.1875 0q0.09375 0 0.234375 -0.046875l0.4375 2.6093597q-0.296875 0.125 -0.734375 0.203125q-0.4375 0.078125 -1.046875 0.078125q-0.90625 0 -1.53125 -0.28125q-0.625 -0.28125 -1.0 -0.79685974q-0.375 -0.515625 -0.546875 -1.25q-0.15625 -0.734375 -0.15625 -1.65625l0 -13.125zm6.160858 10.875q0 -1.4375 0.484375 -2.59375q0.484375 -1.171875 1.265625 -1.96875q0.78125 -0.8125 1.78125 -1.234375q1.015625 -0.4375 2.09375 -0.4375q1.265625 0 2.203125 0.4375q0.953125 0.421875 1.59375 1.1875q0.640625 0.765625 0.953125 1.8125q0.3125 1.046875 0.3125 2.265625q0 0.484375 -0.046875 0.890625q-0.046875 0.390625 -0.09375 0.609375l-7.140625 0q0.25 1.359375 1.078125 1.96875q0.828125 0.609375 2.03125 0.609375q1.265625 0 2.5625 -0.78125l1.171875 2.125q-0.90625 0.625 -2.03125 0.98435974q-1.109375 0.359375 -2.1875 0.359375q-1.28125 0 -2.390625 -0.40625q-1.09375 -0.42185974 -1.90625 -1.2187347q-0.8125 -0.8125 -1.28125 -1.96875q-0.453125 -1.15625 -0.453125 -2.640625zm7.6875 -1.21875q0 -1.03125 -0.46875 -1.671875q-0.453125 -0.65625 -1.53125 -0.65625q-0.828125 0 -1.46875 0.5625q-0.640625 0.5625 -0.828125 1.765625l4.296875 0zm5.4476013 -4.734375l2.875 0l0.25 2.09375l0.09375 0q0.640625 -1.234375 1.546875 -1.796875q0.921875 -0.578125 1.828125 -0.578125q0.5 0 0.828125 0.0625q0.328125 0.046875 0.59375 0.171875l-0.578125 3.046875q-0.34375 -0.09375 -0.625 -0.140625q-0.28125 -0.046875 -0.671875 -0.046875q-0.671875 0 -1.40625 0.484375q-0.734375 0.46875 -1.203125 1.703125l0 6.9062347l-3.53125 0l0 -11.906235z" fill-rule="nonzero"></path><path fill="#000000" fill-opacity="0.0" d="m386.9449 247.77559l148.78741 59.905502" fill-rule="nonzero"></path><path stroke="#434343" stroke-width="3.0" stroke-linejoin="round" stroke-linecap="butt" d="m386.9449 247.77559l132.08997 53.182724" fill-rule="evenodd"></path><path fill="#434343" stroke="#434343" stroke-width="3.0" stroke-linecap="butt" d="m517.18414 305.55493l14.479797 0.48815918l-10.778381 -9.6813965z" fill-rule="evenodd"></path><path fill="#fff2cc" d="m288.19684 11.744095l232.40948 0l0 119.779526l-232.40948 0z" fill-rule="nonzero"></path><path stroke="#434343" stroke-width="1.0" stroke-linejoin="round" stroke-linecap="butt" d="m288.19684 11.744095l232.40948 0l0 119.779526l-232.40948 0z" fill-rule="nonzero"></path><path fill="#434343" d="m314.65186 64.53323l3.546875 0l0 8.75q0 2.3125 0.703125 3.21875q0.703125 0.90625 2.015625 0.90625q1.328125 0 2.046875 -0.90625q0.71875 -0.90625 0.71875 -3.21875l0 -8.75l3.40625 0l0 8.390625q0 3.9375 -1.578125 5.734375q-1.5625 1.796875 -4.59375 1.796875q-3.046875 0 -4.65625 -1.796875q-1.609375 -1.796875 -1.609375 -5.734375l0 -8.390625zm16.05368 0l3.53125 0l0 15.640625l-3.53125 0l0 -15.640625zm5.208374 0l3.75 0l1.875 7.28125q0.359375 1.296875 0.625 2.515625q0.28125 1.21875 0.640625 2.5l0.09375 0q0.34375 -1.28125 0.625 -2.5q0.296875 -1.21875 0.625 -2.515625l1.84375 -7.28125l3.609375 0l-4.703125 15.640625l-4.25 0l-4.734375 -15.640625zm16.828339 1.984375q-0.890625 0 -1.46875 -0.515625q-0.578125 -0.515625 -0.578125 -1.328125q0 -0.8125 0.578125 -1.3125q0.578125 -0.515625 1.46875 -0.515625q0.90625 0 1.46875 0.515625q0.578125 0.5 0.578125 1.3125q0 0.8125 -0.578125 1.328125q-0.5625 0.515625 -1.46875 0.515625zm-1.75 1.75l3.53125 0l0 11.90625l-3.53125 0l0 -11.90625zm5.9208374 5.953125q0 -1.4375 0.484375 -2.59375q0.484375 -1.171875 1.265625 -1.96875q0.78125 -0.8125 1.78125 -1.234375q1.015625 -0.4375 2.09375 -0.4375q1.265625 0 2.203125 0.4375q0.953125 0.421875 1.59375 1.1875q0.640625 0.765625 0.953125 1.8125q0.3125 1.046875 0.3125 2.265625q0 0.484375 -0.046875 0.890625q-0.046875 0.390625 -0.09375 0.609375l-7.140625 0q0.25 1.359375 1.078125 1.96875q0.828125 0.609375 2.03125 0.609375q1.265625 0 2.5625 -0.78125l1.171875 2.125q-0.90625 0.625 -2.03125 0.984375q-1.109375 0.359375 -2.1875 0.359375q-1.28125 0 -2.390625 -0.40625q-1.09375 -0.421875 -1.90625 -1.21875q-0.8125 -0.8125 -1.28125 -1.96875q-0.453125 -1.15625 -0.453125 -2.640625zm7.6875 -1.21875q0 -1.03125 -0.46875 -1.671875q-0.453125 -0.65625 -1.53125 -0.65625q-0.828125 0 -1.46875 0.5625q-0.640625 0.5625 -0.828125 1.765625l4.296875 0zm4.4632263 -4.734375l3.5 0l1.15625 5.515625q0.140625 0.890625 0.25 1.765625q0.125 0.859375 0.28125 1.765625l0.09375 0q0.171875 -0.90625 0.328125 -1.796875q0.15625 -0.890625 0.359375 -1.734375l1.328125 -5.515625l3.046875 0l1.34375 5.515625q0.21875 0.890625 0.375 1.765625q0.171875 0.859375 0.375 1.765625l0.09375 0q0.15625 -0.90625 0.265625 -1.765625q0.109375 -0.875 0.28125 -1.765625l1.125 -5.515625l3.265625 0l-2.859375 11.90625l-4.125 0l-1.078125 -4.75q-0.1875 -0.84375 -0.34375 -1.671875q-0.140625 -0.84375 -0.296875 -1.8125l-0.109375 0q-0.15625 0.96875 -0.296875 1.8125q-0.125 0.828125 -0.296875 1.671875l-1.0625 4.75l-4.03125 0l-2.96875 -11.90625zm19.155182 4.171875q0 -1.9375 0.59375 -3.453125q0.59375 -1.53125 1.609375 -2.578125q1.03125 -1.0625 2.390625 -1.609375q1.359375 -0.5625 2.859375 -0.5625q1.46875 0 2.65625 0.609375q1.1875 0.609375 1.984375 1.4375l-1.953125 2.171875q-0.59375 -0.546875 -1.203125 -0.859375q-0.609375 -0.3125 -1.4375 -0.3125q-0.8125 0 -1.515625 0.359375q-0.703125 0.34375 -1.234375 1.0q-0.53125 0.640625 -0.828125 1.578125q-0.296875 0.921875 -0.296875 2.109375q0 2.421875 1.03125 3.75q1.03125 1.328125 2.75 1.328125q0.96875 0 1.6875 -0.375q0.71875 -0.390625 1.296875 -1.015625l1.9375 2.140625q-0.984375 1.15625 -2.25 1.734375q-1.25 0.5625 -2.71875 0.5625q-1.515625 0 -2.859375 -0.515625q-1.34375 -0.515625 -2.359375 -1.515625q-1.0 -1.015625 -1.578125 -2.515625q-0.5625 -1.5 -0.5625 -3.46875zm13.717957 1.78125q0 -1.484375 0.484375 -2.640625q0.484375 -1.171875 1.28125 -1.96875q0.8125 -0.796875 1.859375 -1.203125q1.0625 -0.421875 2.1875 -0.421875q1.125 0 2.171875 0.421875q1.046875 0.40625 1.84375 1.203125q0.8125 0.796875 1.28125 1.96875q0.484375 1.15625 0.484375 2.640625q0 1.484375 -0.484375 2.65625q-0.46875 1.15625 -1.28125 1.953125q-0.796875 0.796875 -1.84375 1.21875q-1.046875 0.40625 -2.171875 0.40625q-1.125 0 -2.1875 -0.40625q-1.046875 -0.421875 -1.859375 -1.21875q-0.796875 -0.796875 -1.28125 -1.953125q-0.484375 -1.171875 -0.484375 -2.65625zm3.625 0q0 1.5625 0.53125 2.484375q0.546875 0.90625 1.65625 0.90625q1.078125 0 1.625 -0.90625q0.5625 -0.921875 0.5625 -2.484375q0 -1.5625 -0.5625 -2.46875q-0.546875 -0.921875 -1.625 -0.921875q-1.109375 0 -1.65625 0.921875q-0.53125 0.90625 -0.53125 2.46875zm10.398102 -5.953125l2.8749695 0l0.25 1.515625l0.09375 0q0.765625 -0.71875 1.671875 -1.25q0.921875 -0.546875 2.140625 -0.546875q1.9375 0 2.8125 1.28125q0.875 1.265625 0.875 3.515625l0 7.390625l-3.515625 0l0 -6.9375q0 -1.296875 -0.359375 -1.765625q-0.34375 -0.484375 -1.109375 -0.484375q-0.671875 0 -1.15625 0.296875q-0.484375 0.296875 -1.046875 0.84375l0 8.046875l-3.5312195 0l0 -11.90625zm14.212311 2.765625l-1.640625 0l0 -2.625l1.828125 -0.140625l0.40625 -3.171875l2.921875 0l0 3.171875l2.859375 0l0 2.765625l-2.859375 0l0 4.765625q0 1.015625 0.421875 1.46875q0.421875 0.4375 1.125 0.4375q0.28125 0 0.578125 -0.0625q0.296875 -0.078125 0.546875 -0.1875l0.546875 2.578125q-0.484375 0.140625 -1.125 0.28125q-0.640625 0.140625 -1.515625 0.140625q-1.09375 0 -1.875 -0.328125q-0.78125 -0.34375 -1.28125 -0.9375q-0.484375 -0.59375 -0.71875 -1.4375q-0.21875 -0.859375 -0.21875 -1.890625l0 -4.828125zm8.707611 -2.765625l2.875 0l0.25 2.09375l0.09375 0q0.640625 -1.234375 1.546875 -1.796875q0.921875 -0.578125 1.828125 -0.578125q0.5 0 0.828125 0.0625q0.328125 0.046875 0.59375 0.171875l-0.578125 3.046875q-0.34375 -0.09375 -0.625 -0.140625q-0.28125 -0.046875 -0.671875 -0.046875q-0.671875 0 -1.40625 0.484375q-0.734375 0.46875 -1.203125 1.703125l0 6.90625l-3.53125 0l0 -11.90625zm8.848846 5.953125q0 -1.484375 0.484375 -2.640625q0.484375 -1.171875 1.28125 -1.96875q0.8125 -0.796875 1.859375 -1.203125q1.0625 -0.421875 2.1875 -0.421875q1.125 0 2.171875 0.421875q1.046875 0.40625 1.84375 1.203125q0.8125 0.796875 1.28125 1.96875q0.484375 1.15625 0.484375 2.640625q0 1.484375 -0.484375 2.65625q-0.46875 1.15625 -1.28125 1.953125q-0.796875 0.796875 -1.84375 1.21875q-1.046875 0.40625 -2.171875 0.40625q-1.125 0 -2.1875 -0.40625q-1.046875 -0.421875 -1.859375 -1.21875q-0.796875 -0.796875 -1.28125 -1.953125q-0.484375 -1.171875 -0.484375 -2.65625zm3.625 0q0 1.5625 0.53125 2.484375q0.546875 0.90625 1.65625 0.90625q1.078125 0 1.625 -0.90625q0.5625 -0.921875 0.5625 -2.484375q0 -1.5625 -0.5625 -2.46875q-0.546875 -0.921875 -1.625 -0.921875q-1.109375 0 -1.65625 0.921875q-0.53125 0.90625 -0.53125 2.46875zm10.398071 -10.875l3.53125 0l0 13.28125q0 0.546875 0.203125 0.765625q0.203125 0.21875 0.421875 0.21875q0.109375 0 0.1875 0q0.09375 0 0.234375 -0.046875l0.4375 2.609375q-0.296875 0.125 -0.734375 0.203125q-0.4375 0.078125 -1.046875 0.078125q-0.90625 0 -1.53125 -0.28125q-0.625 -0.28125 -1.0 -0.796875q-0.375 -0.515625 -0.546875 -1.25q-0.15625 -0.734375 -0.15625 -1.65625l0 -13.125zm6.863983 0l3.53125 0l0 13.28125q0 0.546875 0.203125 0.765625q0.203125 0.21875 0.421875 0.21875q0.109375 0 0.1875 0q0.09375 0 0.234375 -0.046875l0.4375 2.609375q-0.296875 0.125 -0.734375 0.203125q-0.4375 0.078125 -1.046875 0.078125q-0.90625 0 -1.53125 -0.28125q-0.625 -0.28125 -1.0 -0.796875q-0.375 -0.515625 -0.546875 -1.25q-0.15625 -0.734375 -0.15625 -1.65625l0 -13.125zm6.160858 10.875q0 -1.4375 0.484375 -2.59375q0.484375 -1.171875 1.265625 -1.96875q0.78125 -0.8125 1.78125 -1.234375q1.015625 -0.4375 2.09375 -0.4375q1.265625 0 2.203125 0.4375q0.953125 0.421875 1.59375 1.1875q0.640625 0.765625 0.953125 1.8125q0.3125 1.046875 0.3125 2.265625q0 0.484375 -0.046875 0.890625q-0.046875 0.390625 -0.09375 0.609375l-7.140625 0q0.25 1.359375 1.078125 1.96875q0.828125 0.609375 2.03125 0.609375q1.265625 0 2.5625 -0.78125l1.171875 2.125q-0.90625 0.625 -2.03125 0.984375q-1.109375 0.359375 -2.1875 0.359375q-1.28125 0 -2.390625 -0.40625q-1.09375 -0.421875 -1.90625 -1.21875q-0.8125 -0.8125 -1.28125 -1.96875q-0.453125 -1.15625 -0.453125 -2.640625zm7.6875 -1.21875q0 -1.03125 -0.46875 -1.671875q-0.453125 -0.65625 -1.53125 -0.65625q-0.828125 0 -1.46875 0.5625q-0.640625 0.5625 -0.828125 1.765625l4.296875 0zm5.4476013 -4.734375l2.875 0l0.25 2.09375l0.09375 0q0.640625 -1.234375 1.546875 -1.796875q0.921875 -0.578125 1.828125 -0.578125q0.5 0 0.828125 0.0625q0.328125 0.046875 0.59375 0.171875l-0.578125 3.046875q-0.34375 -0.09375 -0.625 -0.140625q-0.28125 -0.046875 -0.671875 -0.046875q-0.671875 0 -1.40625 0.484375q-0.734375 0.46875 -1.203125 1.703125l0 6.90625l-3.53125 0l0 -11.90625z" fill-rule="nonzero"></path><path fill="#000000" fill-opacity="0.0" d="m520.6063 71.63386l134.92914 59.90551" fill-rule="nonzero"></path><path stroke="#434343" stroke-width="3.0" stroke-linejoin="round" stroke-linecap="butt" d="m520.6063 71.63386l118.47766 52.601433" fill-rule="evenodd"></path><path fill="#434343" stroke="#434343" stroke-width="3.0" stroke-linecap="butt" d="m637.07324 128.76419l14.453796 0.99554443l-10.432312 -10.053345z" fill-rule="evenodd"></path></g></svg>

