<?xml version="1.0" standalone="yes"?>

<svg version="1.1" viewBox="0.0 0.0 1112.98687664042 644.2965879265092" fill="none" stroke="none" stroke-linecap="square" stroke-miterlimit="10" xmlns="http://www.w3.org/2000/svg" xmlns:xlink="http://www.w3.org/1999/xlink"><clipPath id="p.0"><path d="m0 0l1112.9868 0l0 644.2966l-1112.9868 0l0 -644.2966z" clip-rule="nonzero"></path></clipPath><g clip-path="url(#p.0)"><path fill="#000000" fill-opacity="0.0" d="m0 0l1112.9868 0l0 644.2966l-1112.9868 0z" fill-rule="nonzero"></path><path fill="#cfe2f3" d="m121.03412 16.010498l876.59845 0l0 196.7874l-876.59845 0z" fill-rule="nonzero"></path><path stroke="#434343" stroke-width="1.0" stroke-linejoin="round" stroke-linecap="butt" d="m121.03412 16.010498l876.59845 0l0 196.7874l-876.59845 0z" fill-rule="nonzero"></path><path fill="#fff2cc" d="m121.03412 409.5092l876.59845 0l0 211.55905l-876.59845 0z" fill-rule="nonzero"></path><path stroke="#434343" stroke-width="1.0" stroke-linejoin="round" stroke-linecap="butt" d="m121.03412 409.5092l876.59845 0l0 211.55905l-876.59845 0z" fill-rule="nonzero"></path><path fill="#d0e0e3" d="m121.03412 212.11417l876.59845 0l0 196.78741l-876.59845 0z" fill-rule="nonzero"></path><path stroke="#434343" stroke-width="1.0" stroke-linejoin="round" stroke-linecap="butt" d="m121.03412 212.11417l876.59845 0l0 196.78741l-876.59845 0z" fill-rule="nonzero"></path><path fill="#f4cccc" d="m381.85428 276.7116l28.897766 -39.953033l-2.8493958 36.681l32.80307 -5.9791565l-13.028076 19.687195l34.122986 5.6622925l-27.096527 16.105194l31.001831 19.390991l-36.980133 -2.3971558l10.155365 35.496185l-32.026672 -25.06018l-6.0016174 36.371002l-21.079346 -33.07834l-15.893005 45.91153l-5.978302 -41.144714l-22.927216 13.708008l7.0264587 -25.349487l-42.950684 4.477478l27.84961 -19.37033l-28.897766 -21.767487l35.924225 -6.874695l-33.051544 -36.660324l53.89798 27.726028l8.0746155 -27.726028z" fill-rule="nonzero"></path><path stroke="#434343" stroke-width="4.0" stroke-linejoin="round" stroke-linecap="butt" d="m381.85428 276.7116l28.897766 -39.953033l-2.8493958 36.681l32.80307 -5.9791565l-13.028076 19.687195l34.122986 5.6622925l-27.096527 16.105194l31.001831 19.390991l-36.980133 -2.3971558l10.155365 35.496185l-32.026672 -25.06018l-6.0016174 36.371002l-21.079346 -33.07834l-15.893005 45.91153l-5.978302 -41.144714l-22.927216 13.708008l7.0264587 -25.349487l-42.950684 4.477478l27.84961 -19.37033l-28.897766 -21.767487l35.924225 -6.874695l-33.051544 -36.660324l53.89798 27.726028l8.0746155 -27.726028z" fill-rule="nonzero"></path><path fill="#434343" d="m358.09573 307.32327q0 -1.53125 0.46875 -2.734375q0.484375 -1.203125 1.28125 -2.03125q0.8125 -0.84375 1.890625 -1.28125q1.078125 -0.4375 2.265625 -0.4375q1.15625 0 2.09375 0.484375q0.953125 0.484375 1.578125 1.125l-1.546875 1.734375q-0.46875 -0.4375 -0.953125 -0.6875q-0.484375 -0.25 -1.125 -0.25q-0.65625 0 -1.21875 0.28125q-0.5625 0.265625 -0.984375 0.78125q-0.40625 0.515625 -0.640625 1.265625q-0.234375 0.734375 -0.234375 1.65625q0 1.921875 0.8125 2.984375q0.8125 1.046875 2.1875 1.046875q0.75 0 1.3125 -0.296875q0.578125 -0.3125 1.03125 -0.796875l1.546875 1.6875q-0.78125 0.90625 -1.78125 1.375q-1.0 0.453125 -2.15625 0.453125q-1.1875 0 -2.265625 -0.40625q-1.0625 -0.421875 -1.859375 -1.21875q-0.796875 -0.796875 -1.25 -1.984375q-0.453125 -1.1875 -0.453125 -2.75zm11.217316 -3.296875l2.28125 0l0.1875 1.65625l0.078125 0q0.515625 -0.96875 1.234375 -1.421875q0.71875 -0.46875 1.4375 -0.46875q0.40625 0 0.65625 0.046875q0.265625 0.046875 0.46875 0.140625l-0.453125 2.421875q-0.265625 -0.078125 -0.5 -0.109375q-0.21875 -0.046875 -0.53125 -0.046875q-0.53125 0 -1.109375 0.390625q-0.578125 0.375 -0.953125 1.34375l0 5.46875l-2.796875 0l0 -9.421875zm7.0814514 6.796875q0 -1.484375 1.25 -2.3125q1.265625 -0.84375 4.046875 -1.125q-0.03125 -0.625 -0.375 -0.984375q-0.34375 -0.375 -1.09375 -0.375q-0.609375 0 -1.21875 0.234375q-0.609375 0.21875 -1.296875 0.609375l-0.984375 -1.84375q0.90625 -0.546875 1.90625 -0.890625q1.0 -0.34375 2.125 -0.34375q1.8125 0 2.765625 1.046875q0.96875 1.03125 0.96875 3.21875l0 5.390625l-2.28125 0l-0.203125 -0.96875l-0.0625 0q-0.609375 0.53125 -1.28125 0.875q-0.671875 0.328125 -1.46875 0.328125q-0.640625 0 -1.15625 -0.21875q-0.515625 -0.21875 -0.875 -0.609375q-0.359375 -0.390625 -0.5625 -0.90625q-0.203125 -0.515625 -0.203125 -1.125zm2.65625 -0.203125q0 0.453125 0.296875 0.671875q0.296875 0.21875 0.796875 0.21875q0.484375 0 0.828125 -0.203125q0.34375 -0.21875 0.71875 -0.59375l0 -1.65625q-1.5 0.203125 -2.078125 0.609375q-0.5625 0.40625 -0.5625 0.953125zm8.071808 0q0.640625 0.484375 1.234375 0.734375q0.59375 0.25 1.1875 0.25q0.640625 0 0.921875 -0.203125q0.28125 -0.21875 0.28125 -0.59375q0 -0.234375 -0.171875 -0.40625q-0.15625 -0.1875 -0.4375 -0.328125q-0.265625 -0.15625 -0.609375 -0.28125q-0.34375 -0.125 -0.703125 -0.28125q-0.4375 -0.171875 -0.875 -0.390625q-0.4375 -0.234375 -0.796875 -0.5625q-0.359375 -0.328125 -0.59375 -0.78125q-0.21875 -0.453125 -0.21875 -1.03125q0 -0.65625 0.25 -1.203125q0.265625 -0.546875 0.734375 -0.921875q0.484375 -0.390625 1.140625 -0.609375q0.671875 -0.21875 1.484375 -0.21875q1.078125 0 1.890625 0.375q0.828125 0.375 1.4375 0.828125l-1.25 1.671875q-0.515625 -0.375 -1.015625 -0.578125q-0.5 -0.21875 -0.984375 -0.21875q-1.0625 0 -1.0625 0.734375q0 0.234375 0.140625 0.40625q0.15625 0.15625 0.40625 0.296875q0.265625 0.125 0.59375 0.25q0.34375 0.109375 0.703125 0.25q0.453125 0.171875 0.890625 0.390625q0.453125 0.21875 0.8125 0.546875q0.375 0.3125 0.609375 0.78125q0.234375 0.46875 0.234375 1.109375q0 0.640625 -0.25 1.203125q-0.25 0.546875 -0.75 0.953125q-0.484375 0.40625 -1.21875 0.65625q-0.71875 0.234375 -1.65625 0.234375q-0.9375 0 -1.921875 -0.359375q-0.96875 -0.375 -1.6875 -0.953125l1.25 -1.75zm7.8428345 -10.484375l2.796875 0l0 3.265625l-0.140625 1.6875q0.53125 -0.46875 1.234375 -0.875q0.703125 -0.421875 1.671875 -0.421875q1.546875 0 2.234375 1.015625q0.703125 1.0 0.703125 2.78125l0 5.859375l-2.796875 0l0 -5.484375q0 -1.03125 -0.28125 -1.40625q-0.265625 -0.390625 -0.875 -0.390625q-0.53125 0 -0.921875 0.25q-0.375 0.234375 -0.828125 0.671875l0 6.359375l-2.796875 0l0 -13.3125z" fill-rule="nonzero"></path><path fill="#000000" fill-opacity="0.0" d="m363.88052 385.54913l-1.1653442 68.6929" fill-rule="nonzero"></path><path stroke="#434343" stroke-width="2.0" stroke-linejoin="round" stroke-linecap="butt" stroke-dasharray="2.0,6.0" d="m363.88052 385.54913l-0.961792 56.69464" fill-rule="evenodd"></path><path fill="#434343" stroke="#434343" stroke-width="2.0" stroke-linecap="butt" d="m359.61575 442.18774l3.1490173 9.13092l3.4569397 -9.01886z" fill-rule="evenodd"></path><path fill="#fce5cd" d="m264.75067 528.6221l97.95273 -74.39374l97.95276 74.39374l-97.95276 74.39368z" fill-rule="nonzero"></path><path stroke="#434343" stroke-width="1.0" stroke-linejoin="round" stroke-linecap="butt" d="m264.75067 528.6221l97.95273 -74.39374l97.95276 74.39374l-97.95276 74.39368z" fill-rule="nonzero"></path><path fill="#434343" d="m352.7785 496.87268q-0.59375 0 -0.984375 -0.34375q-0.375 -0.34375 -0.375 -0.890625q0 -0.53125 0.375 -0.859375q0.390625 -0.34375 0.984375 -0.34375q0.609375 0 0.984375 0.34375q0.375 0.328125 0.375 0.859375q0 0.546875 -0.375 0.890625q-0.375 0.34375 -0.984375 0.34375zm-1.15625 1.171875l2.34375 0l0 7.9375l-2.34375 0l0 -7.9375zm8.837891 8.125q-1.046875 0 -1.921875 -0.375q-0.875 -0.375 -1.5 -1.078125q-0.625 -0.703125 -0.96875 -1.703125q-0.34375 -1.015625 -0.34375 -2.296875q0 -1.28125 0.34375 -2.28125q0.34375 -1.0 0.96875 -1.671875q0.625 -0.6875 1.5 -1.046875q0.875 -0.359375 1.921875 -0.359375q1.0625 0 1.921875 0.359375q0.875 0.359375 1.5 1.046875q0.625 0.6875 0.96875 1.6875q0.34375 1.0 0.34375 2.265625q0 1.28125 -0.34375 2.296875q-0.34375 1.0 -0.96875 1.703125q-0.625 0.703125 -1.5 1.078125q-0.859375 0.375 -1.921875 0.375zm0 -2.03125q1.078125 0 1.703125 -0.921875q0.625 -0.921875 0.625 -2.5q0 -1.5625 -0.625 -2.4375q-0.625 -0.890625 -1.703125 -0.890625q-1.0625 0 -1.6875 0.890625q-0.625 0.875 -0.625 2.4375q0 1.578125 0.625 2.5q0.625 0.921875 1.6875 0.921875zm7.381531 -1.078125q0.5625 0.46875 1.234375 0.78125q0.6875 0.296875 1.34375 0.296875q0.734375 0 1.09375 -0.265625q0.359375 -0.28125 0.359375 -0.734375q0 -0.25 -0.109375 -0.421875q-0.09375 -0.171875 -0.296875 -0.3125q-0.203125 -0.140625 -0.484375 -0.25q-0.28125 -0.125 -0.609375 -0.265625l-1.359375 -0.578125q-0.40625 -0.15625 -0.78125 -0.40625q-0.375 -0.265625 -0.671875 -0.609375q-0.296875 -0.34375 -0.484375 -0.796875q-0.171875 -0.453125 -0.171875 -1.03125q0 -0.640625 0.265625 -1.203125q0.28125 -0.578125 0.78125 -1.0q0.5 -0.421875 1.171875 -0.65625q0.6875 -0.25 1.5 -0.25q0.90625 0 1.796875 0.359375q0.890625 0.34375 1.5625 1.015625l-1.203125 1.484375q-0.5 -0.390625 -1.015625 -0.609375q-0.515625 -0.21875 -1.140625 -0.21875q-0.609375 0 -0.96875 0.25q-0.359375 0.25 -0.359375 0.703125q0 0.234375 0.109375 0.40625q0.125 0.15625 0.34375 0.296875q0.21875 0.140625 0.5 0.265625q0.296875 0.109375 0.625 0.25l1.34375 0.546875q0.96875 0.390625 1.515625 1.0625q0.5625 0.671875 0.5625 1.765625q0 0.65625 -0.265625 1.25q-0.265625 0.578125 -0.78125 1.015625q-0.5 0.4375 -1.234375 0.703125q-0.734375 0.265625 -1.65625 0.265625q-1.03125 0 -2.046875 -0.375q-1.015625 -0.375 -1.8125 -1.125l1.34375 -1.609375z" fill-rule="nonzero"></path><path fill="#434343" d="m329.84372 525.96643q0 0.453125 0.46875 0.6875q0.484375 0.234375 1.28125 0.234375q0.8125 0 1.3125 -0.28125q0.515625 -0.28125 0.515625 -0.703125q0 -0.359375 -0.3125 -0.5q-0.3125 -0.125 -0.90625 -0.125l-0.8125 0q-0.421875 0 -0.671875 -0.03125q-0.25 -0.015625 -0.453125 -0.0625q-0.421875 0.390625 -0.421875 0.78125zm-1.9375 0.375q0 -0.953125 1.140625 -1.59375l0 -0.0625q-0.328125 -0.21875 -0.546875 -0.53125q-0.203125 -0.328125 -0.203125 -0.8125q0 -0.4375 0.25 -0.828125q0.265625 -0.390625 0.65625 -0.671875l0 -0.0625q-0.421875 -0.28125 -0.75 -0.8125q-0.328125 -0.546875 -0.328125 -1.25q0 -0.71875 0.265625 -1.25q0.28125 -0.546875 0.734375 -0.90625q0.453125 -0.359375 1.046875 -0.53125q0.59375 -0.171875 1.234375 -0.171875q0.703125 0 1.234375 0.1875l2.890625 0l0 1.71875l-1.265625 0q0.125 0.171875 0.1875 0.453125q0.078125 0.265625 0.078125 0.578125q0 0.6875 -0.25 1.203125q-0.234375 0.5 -0.65625 0.828125q-0.421875 0.328125 -1.0 0.484375q-0.5625 0.15625 -1.21875 0.15625q-0.46875 0 -0.953125 -0.15625q-0.171875 0.125 -0.234375 0.265625q-0.0625 0.125 -0.0625 0.328125q0 0.296875 0.265625 0.453125q0.265625 0.140625 0.9375 0.140625l1.28125 0q1.46875 0 2.234375 0.46875q0.78125 0.46875 0.78125 1.546875q0 0.625 -0.3125 1.140625q-0.296875 0.515625 -0.875 0.890625q-0.578125 0.375 -1.40625 0.59375q-0.8125 0.21875 -1.828125 0.21875q-0.703125 0 -1.3125 -0.125q-0.59375 -0.109375 -1.046875 -0.359375q-0.453125 -0.234375 -0.71875 -0.625q-0.25 -0.375 -0.25 -0.90625zm3.5 -5.296875q0.46875 0 0.78125 -0.328125q0.3125 -0.328125 0.3125 -1.0q0 -0.625 -0.3125 -0.953125q-0.3125 -0.328125 -0.78125 -0.328125q-0.46875 0 -0.78125 0.328125q-0.3125 0.3125 -0.3125 0.953125q0 0.671875 0.3125 1.0q0.3125 0.328125 0.78125 0.328125zm5.075287 -0.03125q0 -0.953125 0.3125 -1.734375q0.328125 -0.78125 0.84375 -1.3125q0.515625 -0.53125 1.1875 -0.8125q0.671875 -0.296875 1.390625 -0.296875q0.859375 0 1.484375 0.296875q0.640625 0.28125 1.0625 0.796875q0.421875 0.5 0.625 1.203125q0.21875 0.6875 0.21875 1.515625q0 0.3125 -0.046875 0.578125q-0.03125 0.265625 -0.0625 0.40625l-4.75 0q0.171875 0.90625 0.71875 1.328125q0.546875 0.40625 1.34375 0.40625q0.859375 0 1.71875 -0.53125l0.78125 1.421875q-0.609375 0.421875 -1.359375 0.65625q-0.734375 0.234375 -1.453125 0.234375q-0.84375 0 -1.59375 -0.28125q-0.734375 -0.28125 -1.28125 -0.8125q-0.53125 -0.53125 -0.84375 -1.296875q-0.296875 -0.765625 -0.296875 -1.765625zm5.125 -0.8125q0 -0.6875 -0.3125 -1.125q-0.296875 -0.4375 -1.015625 -0.4375q-0.5625 0 -1.0 0.390625q-0.421875 0.375 -0.546875 1.171875l2.875 0zm3.6317444 -3.15625l1.90625 0l0.171875 1.015625l0.0625 0q0.515625 -0.484375 1.109375 -0.84375q0.609375 -0.359375 1.4375 -0.359375q1.296875 0 1.875 0.84375q0.578125 0.84375 0.578125 2.359375l0 4.921875l-2.34375 0l0 -4.625q0 -0.859375 -0.234375 -1.171875q-0.234375 -0.328125 -0.75 -0.328125q-0.4375 0 -0.765625 0.203125q-0.3125 0.1875 -0.703125 0.5625l0 5.359375l-2.34375 0l0 -7.9375zm8.683289 3.96875q0 -0.953125 0.3125 -1.734375q0.328125 -0.78125 0.84375 -1.3125q0.515625 -0.53125 1.1875 -0.8125q0.671875 -0.296875 1.390625 -0.296875q0.859375 0 1.484375 0.296875q0.640625 0.28125 1.0625 0.796875q0.421875 0.5 0.625 1.203125q0.21875 0.6875 0.21875 1.515625q0 0.3125 -0.046875 0.578125q-0.03125 0.265625 -0.0625 0.40625l-4.75 0q0.171875 0.90625 0.71875 1.328125q0.546875 0.40625 1.34375 0.40625q0.859375 0 1.71875 -0.53125l0.78125 1.421875q-0.609375 0.421875 -1.359375 0.65625q-0.734375 0.234375 -1.453125 0.234375q-0.84375 0 -1.59375 -0.28125q-0.734375 -0.28125 -1.28125 -0.8125q-0.53125 -0.53125 -0.84375 -1.296875q-0.296875 -0.765625 -0.296875 -1.765625zm5.125 -0.8125q0 -0.6875 -0.3125 -1.125q-0.296875 -0.4375 -1.015625 -0.4375q-0.5625 0 -1.0 0.390625q-0.421875 0.375 -0.546875 1.171875l2.875 0zm3.6317444 -3.15625l1.90625 0l0.171875 1.390625l0.0625 0q0.421875 -0.8125 1.03125 -1.1875q0.609375 -0.390625 1.21875 -0.390625q0.34375 0 0.546875 0.046875q0.21875 0.03125 0.40625 0.109375l-0.390625 2.03125q-0.21875 -0.0625 -0.421875 -0.09375q-0.1875 -0.03125 -0.4375 -0.03125q-0.453125 0 -0.9375 0.328125q-0.484375 0.3125 -0.8125 1.125l0 4.609375l-2.34375 0l0 -7.9375zm6.0711365 5.734375q0 -1.25 1.046875 -1.953125q1.0625 -0.703125 3.421875 -0.953125q-0.03125 -0.515625 -0.328125 -0.828125q-0.28125 -0.3125 -0.921875 -0.3125q-0.515625 0 -1.03125 0.1875q-0.5 0.1875 -1.078125 0.53125l-0.828125 -1.5625q0.765625 -0.453125 1.59375 -0.734375q0.84375 -0.296875 1.796875 -0.296875q1.53125 0 2.328125 0.875q0.8125 0.859375 0.8125 2.703125l0 4.546875l-1.921875 0l-0.171875 -0.8125l-0.046875 0q-0.515625 0.4375 -1.078125 0.71875q-0.5625 0.28125 -1.234375 0.28125q-0.546875 0 -0.984375 -0.1875q-0.421875 -0.171875 -0.734375 -0.5q-0.296875 -0.328125 -0.46875 -0.765625q-0.171875 -0.4375 -0.171875 -0.9375zm2.234375 -0.1875q0 0.390625 0.25 0.578125q0.25 0.1875 0.671875 0.1875q0.40625 0 0.6875 -0.171875q0.296875 -0.1875 0.625 -0.5l0 -1.40625q-1.265625 0.1875 -1.75 0.53125q-0.484375 0.328125 -0.484375 0.78125zm6.919037 -3.703125l-1.09375 0l0 -1.75l1.21875 -0.09375l0.28125 -2.109375l1.953125 0l0 2.109375l1.890625 0l0 1.84375l-1.890625 0l0 3.1875q0 0.671875 0.265625 0.96875q0.28125 0.296875 0.75 0.296875q0.1875 0 0.390625 -0.046875q0.203125 -0.0625 0.359375 -0.125l0.375 1.71875q-0.328125 0.09375 -0.765625 0.1875q-0.421875 0.09375 -1.0 0.09375q-0.734375 0 -1.265625 -0.21875q-0.515625 -0.21875 -0.84375 -0.625q-0.328125 -0.40625 -0.484375 -0.96875q-0.140625 -0.5625 -0.140625 -1.25l0 -3.21875zm5.3467407 2.125q0 -0.953125 0.3125 -1.734375q0.328125 -0.78125 0.84375 -1.3125q0.515625 -0.53125 1.1875 -0.8125q0.671875 -0.296875 1.390625 -0.296875q0.859375 0 1.484375 0.296875q0.640625 0.28125 1.0625 0.796875q0.421875 0.5 0.625 1.203125q0.21875 0.6875 0.21875 1.515625q0 0.3125 -0.046875 0.578125q-0.03125 0.265625 -0.0625 0.40625l-4.75 0q0.171875 0.90625 0.71875 1.328125q0.546875 0.40625 1.34375 0.40625q0.859375 0 1.71875 -0.53125l0.78125 1.421875q-0.609375 0.421875 -1.359375 0.65625q-0.734375 0.234375 -1.453125 0.234375q-0.84375 0 -1.59375 -0.28125q-0.734375 -0.28125 -1.28125 -0.8125q-0.53125 -0.53125 -0.84375 -1.296875q-0.296875 -0.765625 -0.296875 -1.765625zm5.125 -0.8125q0 -0.6875 -0.3125 -1.125q-0.296875 -0.4375 -1.015625 -0.4375q-0.5625 0 -1.0 0.390625q-0.421875 0.375 -0.546875 1.171875l2.875 0zm3.975525 2.390625q0.546875 0.421875 1.03125 0.640625q0.5 0.203125 1.015625 0.203125q0.53125 0 0.765625 -0.171875q0.25 -0.1875 0.25 -0.5q0 -0.203125 -0.140625 -0.34375q-0.140625 -0.15625 -0.375 -0.28125q-0.21875 -0.125 -0.515625 -0.234375q-0.28125 -0.109375 -0.59375 -0.234375q-0.359375 -0.140625 -0.734375 -0.328125q-0.359375 -0.203125 -0.671875 -0.484375q-0.296875 -0.28125 -0.5 -0.65625q-0.1875 -0.375 -0.1875 -0.859375q0 -0.546875 0.21875 -1.015625q0.21875 -0.46875 0.609375 -0.78125q0.40625 -0.328125 0.96875 -0.5q0.5625 -0.1875 1.25 -0.1875q0.90625 0 1.59375 0.3125q0.6875 0.3125 1.203125 0.6875l-1.0625 1.40625q-0.421875 -0.3125 -0.84375 -0.484375q-0.421875 -0.1875 -0.828125 -0.1875q-0.90625 0 -0.90625 0.625q0 0.203125 0.125 0.34375q0.140625 0.125 0.34375 0.234375q0.21875 0.109375 0.5 0.21875q0.28125 0.109375 0.59375 0.21875q0.375 0.140625 0.75 0.328125q0.375 0.1875 0.6875 0.453125q0.3125 0.265625 0.5 0.671875q0.203125 0.390625 0.203125 0.921875q0 0.546875 -0.21875 1.015625q-0.203125 0.46875 -0.625 0.8125q-0.40625 0.34375 -1.015625 0.546875q-0.609375 0.1875 -1.40625 0.1875q-0.78125 0 -1.609375 -0.296875q-0.828125 -0.3125 -1.421875 -0.796875l1.046875 -1.484375z" fill-rule="nonzero"></path><path fill="#434343" d="m343.9775 540.0133q0 -0.984375 0.328125 -1.765625q0.34375 -0.78125 0.90625 -1.296875q0.578125 -0.53125 1.328125 -0.8125q0.75 -0.28125 1.5625 -0.28125q0.734375 0 1.328125 0.25q0.59375 0.25 1.0 0.65625l-1.078125 1.453125q-0.5625 -0.453125 -1.109375 -0.453125q-0.859375 0 -1.359375 0.609375q-0.5 0.59375 -0.5 1.640625q0 1.046875 0.5 1.65625q0.515625 0.59375 1.28125 0.59375q0.4375 0 0.78125 -0.171875q0.359375 -0.171875 0.640625 -0.390625l0.953125 1.484375q-0.578125 0.515625 -1.28125 0.75q-0.703125 0.234375 -1.359375 0.234375q-0.84375 0 -1.5625 -0.28125q-0.703125 -0.28125 -1.234375 -0.796875q-0.515625 -0.53125 -0.828125 -1.296875q-0.296875 -0.78125 -0.296875 -1.78125zm7.9407654 -3.96875l1.90625 0l0.171875 1.390625l0.0625 0q0.421875 -0.8125 1.03125 -1.1875q0.609375 -0.390625 1.21875 -0.390625q0.34375 0 0.546875 0.046875q0.21875 0.03125 0.40625 0.109375l-0.390625 2.03125q-0.21875 -0.0625 -0.421875 -0.09375q-0.1875 -0.03125 -0.4375 -0.03125q-0.453125 0 -0.9375 0.328125q-0.484375 0.3125 -0.8125 1.125l0 4.609375l-2.34375 0l0 -7.9375zm6.0711365 5.734375q0 -1.25 1.046875 -1.953125q1.0625 -0.703125 3.421875 -0.953125q-0.03125 -0.515625 -0.328125 -0.828125q-0.28125 -0.3125 -0.921875 -0.3125q-0.515625 0 -1.03125 0.1875q-0.5 0.1875 -1.078125 0.53125l-0.828125 -1.5625q0.765625 -0.453125 1.59375 -0.734375q0.84375 -0.296875 1.796875 -0.296875q1.53125 0 2.328125 0.875q0.8125 0.859375 0.8125 2.703125l0 4.546875l-1.921875 0l-0.171875 -0.8125l-0.046875 0q-0.515625 0.4375 -1.078125 0.71875q-0.5625 0.28125 -1.234375 0.28125q-0.546875 0 -0.984375 -0.1875q-0.421875 -0.171875 -0.734375 -0.5q-0.296875 -0.328125 -0.46875 -0.765625q-0.171875 -0.4375 -0.171875 -0.9375zm2.234375 -0.1875q0 0.390625 0.25 0.578125q0.25 0.1875 0.671875 0.1875q0.40625 0 0.6875 -0.171875q0.296875 -0.1875 0.625 -0.5l0 -1.40625q-1.265625 0.1875 -1.75 0.53125q-0.484375 0.328125 -0.484375 0.78125zm6.9502563 0q0.546875 0.421875 1.03125 0.640625q0.5 0.203125 1.015625 0.203125q0.53125 0 0.765625 -0.171875q0.25 -0.1875 0.25 -0.5q0 -0.203125 -0.140625 -0.34375q-0.140625 -0.15625 -0.375 -0.28125q-0.21875 -0.125 -0.515625 -0.234375q-0.28125 -0.109375 -0.59375 -0.234375q-0.359375 -0.140625 -0.734375 -0.328125q-0.359375 -0.203125 -0.671875 -0.484375q-0.296875 -0.28125 -0.5 -0.65625q-0.1875 -0.375 -0.1875 -0.859375q0 -0.546875 0.21875 -1.015625q0.21875 -0.46875 0.609375 -0.78125q0.40625 -0.328125 0.96875 -0.5q0.5625 -0.1875 1.25 -0.1875q0.90625 0 1.59375 0.3125q0.6875 0.3125 1.203125 0.6875l-1.0625 1.40625q-0.421875 -0.3125 -0.84375 -0.484375q-0.421875 -0.1875 -0.828125 -0.1875q-0.90625 0 -0.90625 0.625q0 0.203125 0.125 0.34375q0.140625 0.125 0.34375 0.234375q0.21875 0.109375 0.5 0.21875q0.28125 0.109375 0.59375 0.21875q0.375 0.140625 0.75 0.328125q0.375 0.1875 0.6875 0.453125q0.3125 0.265625 0.5 0.671875q0.203125 0.390625 0.203125 0.921875q0 0.546875 -0.21875 1.015625q-0.203125 0.46875 -0.625 0.8125q-0.40625 0.34375 -1.015625 0.546875q-0.609375 0.1875 -1.40625 0.1875q-0.78125 0 -1.609375 -0.296875q-0.828125 -0.3125 -1.421875 -0.796875l1.046875 -1.484375zm6.7442627 -8.828125l2.34375 0l0 2.75l-0.109375 1.421875q0.453125 -0.390625 1.03125 -0.734375q0.59375 -0.34375 1.421875 -0.34375q1.296875 0 1.875 0.84375q0.578125 0.84375 0.578125 2.359375l0 4.921875l-2.34375 0l0 -4.625q0 -0.859375 -0.234375 -1.171875q-0.234375 -0.328125 -0.75 -0.328125q-0.4375 0 -0.765625 0.203125q-0.3125 0.1875 -0.703125 0.5625l0 5.359375l-2.34375 0l0 -11.21875z" fill-rule="nonzero"></path><path fill="#434343" d="m341.15024 555.04456l1.90625 0l0.171875 1.390625l0.0625 0q0.421875 -0.8125 1.03125 -1.1875q0.609375 -0.390625 1.21875 -0.390625q0.34375 0 0.546875 0.046875q0.21875 0.03125 0.40625 0.109375l-0.390625 2.03125q-0.21875 -0.0625 -0.421875 -0.09375q-0.1875 -0.03125 -0.4375 -0.03125q-0.453125 0 -0.9375 0.328125q-0.484375 0.3125 -0.8125 1.125l0 4.609375l-2.34375 0l0 -7.9375zm5.8992615 3.96875q0 -0.953125 0.3125 -1.734375q0.328125 -0.78125 0.84375 -1.3125q0.515625 -0.53125 1.1875 -0.8125q0.671875 -0.296875 1.390625 -0.296875q0.859375 0 1.484375 0.296875q0.640625 0.28125 1.0625 0.796875q0.421875 0.5 0.625 1.203125q0.21875 0.6875 0.21875 1.515625q0 0.3125 -0.046875 0.578125q-0.03125 0.265625 -0.0625 0.40625l-4.75 0q0.171875 0.90625 0.71875 1.328125q0.546875 0.40625 1.34375 0.40625q0.859375 0 1.71875 -0.53125l0.78125 1.421875q-0.609375 0.421875 -1.359375 0.65625q-0.734375 0.234375 -1.453125 0.234375q-0.84375 0 -1.59375 -0.28125q-0.734375 -0.28125 -1.28125 -0.8125q-0.53125 -0.53125 -0.84375 -1.296875q-0.296875 -0.765625 -0.296875 -1.765625zm5.125 -0.8125q0 -0.6875 -0.3125 -1.125q-0.296875 -0.4375 -1.015625 -0.4375q-0.5625 0 -1.0 0.390625q-0.421875 0.375 -0.546875 1.171875l2.875 0zm5.975525 5.40625l0 2.3125l-2.34375 0l0 -10.875l1.90625 0l0.171875 0.78125l0.0625 0q0.453125 -0.40625 1.03125 -0.6875q0.59375 -0.28125 1.21875 -0.28125q0.71875 0 1.296875 0.296875q0.578125 0.28125 0.96875 0.8125q0.40625 0.515625 0.625 1.265625q0.21875 0.734375 0.21875 1.65625q0 1.015625 -0.28125 1.8125q-0.28125 0.796875 -0.75 1.34375q-0.46875 0.546875 -1.078125 0.84375q-0.59375 0.28125 -1.234375 0.28125q-0.515625 0 -1.0 -0.203125q-0.46875 -0.21875 -0.890625 -0.625l0.078125 1.265625zm0 -2.859375q0.328125 0.28125 0.640625 0.390625q0.328125 0.109375 0.625 0.109375q0.609375 0 1.03125 -0.546875q0.4375 -0.546875 0.4375 -1.78125q0 -2.140625 -1.375 -2.140625q-0.6875 0 -1.359375 0.71875l0 3.25zm6.3554993 -1.734375q0 -0.984375 0.3125 -1.765625q0.328125 -0.78125 0.859375 -1.296875q0.53125 -0.53125 1.234375 -0.8125q0.71875 -0.28125 1.46875 -0.28125q0.75 0 1.4375 0.28125q0.703125 0.28125 1.234375 0.8125q0.53125 0.515625 0.84375 1.296875q0.328125 0.78125 0.328125 1.765625q0 1.0 -0.328125 1.78125q-0.3125 0.765625 -0.84375 1.296875q-0.53125 0.515625 -1.234375 0.796875q-0.6875 0.28125 -1.4375 0.28125q-0.75 0 -1.46875 -0.28125q-0.703125 -0.28125 -1.234375 -0.796875q-0.53125 -0.53125 -0.859375 -1.296875q-0.3125 -0.78125 -0.3125 -1.78125zm2.40625 0q0 1.046875 0.359375 1.65625q0.375 0.59375 1.109375 0.59375q0.71875 0 1.078125 -0.59375q0.375 -0.609375 0.375 -1.65625q0 -1.046875 -0.375 -1.640625q-0.359375 -0.609375 -1.078125 -0.609375q-0.734375 0 -1.109375 0.609375q-0.359375 0.59375 -0.359375 1.640625zm6.9425354 -3.96875l1.90625 0l0.171875 1.390625l0.0625 0q0.421875 -0.8125 1.03125 -1.1875q0.609375 -0.390625 1.21875 -0.390625q0.34375 0 0.546875 0.046875q0.21875 0.03125 0.40625 0.109375l-0.390625 2.03125q-0.21875 -0.0625 -0.421875 -0.09375q-0.1875 -0.03125 -0.4375 -0.03125q-0.453125 0 -0.9375 0.328125q-0.484375 0.3125 -0.8125 1.125l0 4.609375l-2.34375 0l0 -7.9375zm6.6805115 1.84375l-1.09375 0l0 -1.75l1.21875 -0.09375l0.28125 -2.109375l1.953125 0l0 2.109375l1.890625 0l0 1.84375l-1.890625 0l0 3.1875q0 0.671875 0.265625 0.96875q0.28125 0.296875 0.75 0.296875q0.1875 0 0.390625 -0.046875q0.203125 -0.0625 0.359375 -0.125l0.375 1.71875q-0.328125 0.09375 -0.765625 0.1875q-0.421875 0.09375 -1.0 0.09375q-0.734375 0 -1.265625 -0.21875q-0.515625 -0.21875 -0.84375 -0.625q-0.328125 -0.40625 -0.484375 -0.96875q-0.140625 -0.5625 -0.140625 -1.25l0 -3.21875z" fill-rule="nonzero"></path><path fill="#000000" fill-opacity="0.0" d="m122.25722 409.5092l875.3386 0" fill-rule="nonzero"></path><path stroke="#434343" stroke-width="4.0" stroke-linejoin="round" stroke-linecap="butt" stroke-dasharray="16.0,12.0" d="m122.25722 409.5092l875.3386 0" fill-rule="nonzero"></path><path fill="#000000" fill-opacity="0.0" d="m122.25722 407.7047l0 -194.39369l42.803146 0l0 194.39369z" fill-rule="nonzero"></path><path fill="#434343" d="m145.4538 385.00607l-1.140625 0.28125q-0.9375 0.265625 -1.984375 0.515625q-1.046875 0.25 -2.015625 0.484375l0 0.078125q1.0 0.234375 2.03125 0.46875q1.03125 0.234375 1.96875 0.5l1.140625 0.3125l0 -2.640625zm2.1875 -0.578125l0 3.78125l2.9375 0.765625l0 2.84375l-12.390625 -3.875l0 -3.359375l12.390625 -3.875l0 2.96875l-2.9375 0.75zm3.671875 -7.440033l2.765625 0l0 2.796875l-12.921875 0l0 -2.28125l0.921875 -0.1875l0 -0.078125q-0.484375 -0.546875 -0.8125 -1.234375q-0.34375 -0.703125 -0.34375 -1.4375q0 -0.859375 0.34375 -1.546875q0.34375 -0.6875 0.96875 -1.15625q0.625 -0.484375 1.515625 -0.734375q0.875 -0.25 1.96875 -0.25q1.21875 0 2.15625 0.328125q0.9375 0.328125 1.59375 0.890625q0.65625 0.5625 1.0 1.28125q0.34375 0.703125 0.34375 1.46875q0 0.609375 -0.25 1.1875q-0.265625 0.5625 -0.75 1.046875l1.5 -0.09375zm-3.390625 0q0.34375 -0.375 0.484375 -0.75q0.125 -0.390625 0.125 -0.75q0 -0.71875 -0.65625 -1.234375q-0.65625 -0.515625 -2.125 -0.515625q-2.546875 0 -2.546875 1.640625q0 0.8125 0.859375 1.609375l3.859375 0zm3.390625 -10.690033l2.765625 0l0 2.796875l-12.921875 0l0 -2.28125l0.921875 -0.1875l0 -0.078125q-0.484375 -0.546875 -0.8125 -1.234375q-0.34375 -0.703125 -0.34375 -1.4375q0 -0.859375 0.34375 -1.546875q0.34375 -0.6875 0.96875 -1.15625q0.625 -0.484375 1.515625 -0.734375q0.875 -0.25 1.96875 -0.25q1.21875 0 2.15625 0.328125q0.9375 0.328125 1.59375 0.890625q0.65625 0.5625 1.0 1.28125q0.34375 0.703125 0.34375 1.46875q0 0.609375 -0.25 1.1875q-0.265625 0.5625 -0.75 1.046875l1.5 -0.09375zm-3.390625 0q0.34375 -0.375 0.484375 -0.75q0.125 -0.390625 0.125 -0.75q0 -0.71875 -0.65625 -1.234375q-0.65625 -0.515625 -2.125 -0.515625q-2.546875 0 -2.546875 1.640625q0 0.8125 0.859375 1.609375l3.859375 0zm-10.65625 -7.893158l0 -2.796875l10.5 0q0.4375 0 0.609375 -0.15625q0.171875 -0.15625 0.171875 -0.328125q0 -0.09375 0 -0.15625q0 -0.078125 -0.046875 -0.1875l2.078125 -0.34375q0.09375 0.21875 0.15625 0.578125q0.078125 0.34375 0.078125 0.828125q0 0.71875 -0.234375 1.21875q-0.234375 0.484375 -0.640625 0.78125q-0.40625 0.296875 -0.984375 0.4375q-0.578125 0.125 -1.296875 0.125l-10.390625 0zm2.5 -6.7263184q0 0.703125 -0.40625 1.171875q-0.40625 0.453125 -1.0625 0.453125q-0.640625 0 -1.03125 -0.453125q-0.40625 -0.46875 -0.40625 -1.171875q0 -0.71875 0.40625 -1.15625q0.390625 -0.453125 1.03125 -0.453125q0.65625 0 1.0625 0.453125q0.40625 0.4375 0.40625 1.15625zm1.390625 1.390625l0 -2.796875l9.421875 0l0 2.796875l-9.421875 0zm4.703125 -4.6022644q-1.171875 0 -2.09375 -0.390625q-0.921875 -0.40625 -1.546875 -1.078125q-0.625 -0.671875 -0.953125 -1.5625q-0.34375 -0.890625 -0.34375 -1.875q0 -0.859375 0.296875 -1.5625q0.296875 -0.703125 0.796875 -1.1875l1.71875 1.28125q-0.546875 0.65625 -0.546875 1.3125q0 1.015625 0.71875 1.609375q0.71875 0.59375 1.953125 0.59375q1.234375 0 1.96875 -0.59375q0.71875 -0.609375 0.71875 -1.515625q0 -0.515625 -0.203125 -0.9375q-0.21875 -0.421875 -0.484375 -0.765625l1.765625 -1.109375q0.609375 0.671875 0.90625 1.515625q0.28125 0.828125 0.28125 1.609375q0 1.0 -0.328125 1.84375q-0.34375 0.84375 -0.96875 1.46875q-0.625 0.625 -1.546875 0.984375q-0.921875 0.359375 -2.109375 0.359375zm2.09375 -8.915588q-1.484375 0 -2.3125 -1.25q-0.84375 -1.265625 -1.125 -4.046875q-0.625 0.03125 -0.984375 0.375q-0.375 0.34375 -0.375 1.09375q0 0.609375 0.234375 1.21875q0.21875 0.609375 0.609375 1.296875l-1.84375 0.984375q-0.546875 -0.90625 -0.890625 -1.90625q-0.34375 -1.0 -0.34375 -2.125q0 -1.8125 1.046875 -2.765625q1.03125 -0.96875 3.21875 -0.96875l5.390625 0l0 2.28125l-0.96875 0.203125l0 0.0625q0.53125 0.609375 0.875 1.28125q0.328125 0.671875 0.328125 1.46875q0 0.640625 -0.21875 1.15625q-0.21875 0.515625 -0.609375 0.875q-0.390625 0.359375 -0.90625 0.5625q-0.515625 0.203125 -1.125 0.203125zm-0.203125 -2.65625q0.453125 0 0.671875 -0.296875q0.21875 -0.296875 0.21875 -0.796875q0 -0.484375 -0.203125 -0.828125q-0.21875 -0.34375 -0.59375 -0.71875l-1.65625 0q0.203125 1.5 0.609375 2.078125q0.40625 0.5625 0.953125 0.5625zm-4.40625 -8.024933l0 1.28125l-2.078125 0l-0.109375 -1.4375l-2.515625 -0.328125l0 -2.3125l2.515625 0l0 -2.265625l2.1875 0l0 2.265625l3.78125 0q0.796875 0 1.15625 -0.328125q0.34375 -0.34375 0.34375 -0.890625q0 -0.234375 -0.0625 -0.46875q-0.0625 -0.234375 -0.125 -0.421875l2.03125 -0.4375q0.109375 0.375 0.21875 0.890625q0.125 0.515625 0.125 1.203125q0 0.875 -0.265625 1.5q-0.265625 0.609375 -0.734375 1.0q-0.484375 0.390625 -1.15625 0.578125q-0.6875 0.171875 -1.5 0.171875l-3.8125 0zm-3.578125 -8.16095q0 0.703125 -0.40625 1.171875q-0.40625 0.453125 -1.0625 0.453125q-0.640625 0 -1.03125 -0.453125q-0.40625 -0.46875 -0.40625 -1.171875q0 -0.71875 0.40625 -1.15625q0.390625 -0.453125 1.03125 -0.453125q0.65625 0 1.0625 0.453125q0.40625 0.4375 0.40625 1.15625zm1.390625 1.390625l0 -2.796875l9.421875 0l0 2.796875l-9.421875 0zm4.703125 -4.6022644q-1.171875 0 -2.09375 -0.375q-0.921875 -0.375 -1.546875 -1.015625q-0.625 -0.640625 -0.953125 -1.46875q-0.34375 -0.84375 -0.34375 -1.734375q0 -0.890625 0.34375 -1.71875q0.328125 -0.828125 0.953125 -1.453125q0.625 -0.640625 1.546875 -1.015625q0.921875 -0.390625 2.09375 -0.390625q1.1875 0 2.109375 0.390625q0.921875 0.375 1.546875 1.015625q0.625 0.625 0.96875 1.453125q0.328125 0.828125 0.328125 1.71875q0 0.890625 -0.328125 1.734375q-0.34375 0.828125 -0.96875 1.46875q-0.625 0.640625 -1.546875 1.015625q-0.921875 0.375 -2.109375 0.375zm0 -2.859375q1.234375 0 1.96875 -0.421875q0.71875 -0.4375 0.71875 -1.3125q0 -0.859375 -0.71875 -1.296875q-0.734375 -0.4375 -1.96875 -0.4375q-1.234375 0 -1.953125 0.4375q-0.71875 0.4375 -0.71875 1.296875q0 0.875 0.71875 1.3125q0.71875 0.421875 1.953125 0.421875zm-4.703125 -8.041718l0 -2.28125l1.1875 -0.1875l0 -0.078125q-0.5625 -0.609375 -0.984375 -1.328125q-0.4375 -0.71875 -0.4375 -1.6875q0 -1.546875 1.015625 -2.234375q1.0 -0.703125 2.78125 -0.703125l5.859375 0l0 2.796875l-5.484375 0q-1.03125 0 -1.40625 0.28125q-0.390625 0.265625 -0.390625 0.875q0 0.53125 0.25 0.921875q0.234375 0.375 0.671875 0.828125l6.359375 0l0 2.796875l-9.421875 0zm-2.96875 -14.786255l0 -3.484375q0 -1.4375 0.359375 -2.5625q0.359375 -1.140625 1.109375 -1.953125q0.75 -0.828125 1.921875 -1.265625q1.15625 -0.4375 2.75 -0.4375q1.59375 0 2.78125 0.4375q1.171875 0.4375 1.9375 1.234375q0.765625 0.796875 1.15625 1.90625q0.375 1.109375 0.375 2.484375l0 3.640625l-12.390625 0zm10.125 -3.3125q0 -0.8125 -0.203125 -1.453125q-0.203125 -0.640625 -0.671875 -1.09375q-0.46875 -0.46875 -1.21875 -0.71875q-0.765625 -0.25 -1.890625 -0.25q-1.109375 0 -1.859375 0.25q-0.75 0.25 -1.1875 0.71875q-0.453125 0.453125 -0.640625 1.09375q-0.1875 0.640625 -0.1875 1.453125l0 0.53125l7.859375 0l0 -0.53125zm-2.453125 -7.75296q-1.171875 0 -2.09375 -0.375q-0.921875 -0.375 -1.546875 -1.015625q-0.625 -0.640625 -0.953125 -1.46875q-0.34375 -0.84375 -0.34375 -1.734375q0 -0.890625 0.34375 -1.71875q0.328125 -0.828125 0.953125 -1.453125q0.625 -0.640625 1.546875 -1.015625q0.921875 -0.390625 2.09375 -0.390625q1.1875 0 2.109375 0.390625q0.921875 0.375 1.546875 1.015625q0.625 0.625 0.96875 1.453125q0.328125 0.828125 0.328125 1.71875q0 0.890625 -0.328125 1.734375q-0.34375 0.828125 -0.96875 1.46875q-0.625 0.640625 -1.546875 1.015625q-0.921875 0.375 -2.109375 0.375zm0 -2.859375q1.234375 0 1.96875 -0.421875q0.71875 -0.4375 0.71875 -1.3125q0 -0.859375 -0.71875 -1.296875q-0.734375 -0.4375 -1.96875 -0.4375q-1.234375 0 -1.953125 0.4375q-0.71875 0.4375 -0.71875 1.296875q0 0.875 0.71875 1.3125q0.71875 0.421875 1.953125 0.421875zm-4.703125 -8.041718l0 -2.28125l1.21875 -0.1875l0 -0.078125q-0.59375 -0.59375 -1.015625 -1.25q-0.4375 -0.671875 -0.4375 -1.59375q0 -1.015625 0.421875 -1.625q0.40625 -0.625 1.15625 -0.984375q-0.640625 -0.625 -1.109375 -1.3125q-0.46875 -0.703125 -0.46875 -1.65625q0 -1.515625 1.015625 -2.21875q1.015625 -0.71875 2.78125 -0.71875l5.859375 0l0 2.796875l-5.484375 0q-1.03125 0 -1.40625 0.28125q-0.390625 0.265625 -0.390625 0.875q0 0.703125 0.921875 1.609375l6.359375 0l0 2.796875l-5.484375 0q-1.03125 0 -1.40625 0.28125q-0.390625 0.265625 -0.390625 0.875q0 0.71875 0.921875 1.59375l6.359375 0l0 2.796875l-9.421875 0zm6.796875 -15.644653q-1.484375 0 -2.3125 -1.25q-0.84375 -1.265625 -1.125 -4.046875q-0.625 0.03125 -0.984375 0.375q-0.375 0.34375 -0.375 1.09375q0 0.609375 0.234375 1.21875q0.21875 0.609375 0.609375 1.296875l-1.84375 0.984375q-0.546875 -0.90625 -0.890625 -1.90625q-0.34375 -1.0 -0.34375 -2.125q0 -1.8125 1.046875 -2.765625q1.03125 -0.96875 3.21875 -0.96875l5.390625 0l0 2.28125l-0.96875 0.203125l0 0.0625q0.53125 0.609375 0.875 1.28125q0.328125 0.671875 0.328125 1.46875q0 0.640625 -0.21875 1.15625q-0.21875 0.515625 -0.609375 0.875q-0.390625 0.359375 -0.90625 0.5625q-0.515625 0.203125 -1.125 0.203125zm-0.203125 -2.65625q0.453125 0 0.671875 -0.296875q0.21875 -0.296875 0.21875 -0.796875q0 -0.484375 -0.203125 -0.828125q-0.21875 -0.34375 -0.59375 -0.71875l-1.65625 0q0.203125 1.5 0.609375 2.078125q0.40625 0.5625 0.953125 0.5625zm-7.984375 -9.040558q0 0.703125 -0.40625 1.171875q-0.40625 0.453125 -1.0625 0.453125q-0.640625 0 -1.03125 -0.453125q-0.40625 -0.46875 -0.40625 -1.171875q0 -0.71875 0.40625 -1.15625q0.390625 -0.453125 1.03125 -0.453125q0.65625 0 1.0625 0.453125q0.40625 0.4375 0.40625 1.15625zm1.390625 1.390625l0 -2.796875l9.421875 0l0 2.796875l-9.421875 0zm0 -5.149124l0 -2.28125l1.1875 -0.1875l0 -0.078125q-0.5625 -0.609375 -0.984375 -1.328125q-0.4375 -0.71875 -0.4375 -1.6875q0 -1.546875 1.015625 -2.234375q1.0 -0.703125 2.78125 -0.703125l5.859375 0l0 2.796875l-5.484375 0q-1.03125 0 -1.40625 0.28125q-0.390625 0.265625 -0.390625 0.875q0 0.53125 0.25 0.921875q0.234375 0.375 0.671875 0.828125l6.359375 0l0 2.796875l-9.421875 0z" fill-rule="nonzero"></path><path fill="#000000" fill-opacity="0.0" d="m122.25722 597.8084l0 -165.03937l42.803146 0l0 165.03937z" fill-rule="nonzero"></path><path fill="#434343" d="m139.7663 560.73157q0 0.703125 -0.40625 1.171875q-0.40625 0.453125 -1.0625 0.453125q-0.640625 0 -1.03125 -0.453125q-0.40625 -0.46875 -0.40625 -1.171875q0 -0.71875 0.40625 -1.15625q0.390625 -0.453125 1.03125 -0.453125q0.65625 0 1.0625 0.453125q0.40625 0.4375 0.40625 1.15625zm1.390625 1.390625l0 -2.796875l9.421875 0l0 2.796875l-9.421875 0zm9.65625 -10.414795q0 1.25 -0.453125 2.296875q-0.453125 1.03125 -1.28125 1.78125q-0.84375 0.734375 -2.03125 1.140625q-1.203125 0.40625 -2.71875 0.40625q-1.515625 0 -2.703125 -0.40625q-1.1875 -0.40625 -2.0 -1.140625q-0.8125 -0.75 -1.234375 -1.78125q-0.421875 -1.046875 -0.421875 -2.296875q0 -1.25 0.421875 -2.28125q0.421875 -1.046875 1.25 -1.78125q0.8125 -0.75 2.0 -1.15625q1.1875 -0.40625 2.6875 -0.40625q1.515625 0 2.71875 0.40625q1.1875 0.40625 2.03125 1.15625q0.828125 0.734375 1.28125 1.78125q0.453125 1.03125 0.453125 2.28125zm-2.421875 0q0 -1.265625 -1.09375 -2.0q-1.09375 -0.75 -2.96875 -0.75q-1.859375 0 -2.90625 0.75q-1.046875 0.734375 -1.046875 2.0q0 1.28125 1.046875 2.015625q1.046875 0.734375 2.90625 0.734375q1.875 0 2.96875 -0.734375q1.09375 -0.734375 1.09375 -2.015625zm-1.296875 -8.526489q0.578125 -0.65625 0.9375 -1.46875q0.359375 -0.8125 0.359375 -1.578125q0 -0.875 -0.3125 -1.296875q-0.328125 -0.4375 -0.875 -0.4375q-0.296875 0 -0.5 0.125q-0.203125 0.125 -0.359375 0.359375q-0.171875 0.234375 -0.3125 0.578125q-0.140625 0.328125 -0.3125 0.71875l-0.6875 1.625q-0.1875 0.46875 -0.484375 0.921875q-0.3125 0.4375 -0.71875 0.796875q-0.40625 0.34375 -0.953125 0.5625q-0.546875 0.203125 -1.234375 0.203125q-0.75 0 -1.421875 -0.328125q-0.671875 -0.328125 -1.171875 -0.90625q-0.515625 -0.59375 -0.796875 -1.390625q-0.28125 -0.8125 -0.28125 -1.78125q0 -1.09375 0.421875 -2.140625q0.40625 -1.0625 1.203125 -1.859375l1.765625 1.4375q-0.46875 0.59375 -0.71875 1.203125q-0.265625 0.609375 -0.265625 1.359375q0 0.71875 0.296875 1.15625q0.296875 0.421875 0.828125 0.421875q0.28125 0 0.484375 -0.140625q0.203125 -0.15625 0.359375 -0.40625q0.15625 -0.25 0.296875 -0.59375q0.140625 -0.34375 0.3125 -0.75l0.65625 -1.59375q0.453125 -1.140625 1.25 -1.796875q0.796875 -0.65625 2.109375 -0.65625q0.78125 0 1.484375 0.3125q0.6875 0.3125 1.203125 0.921875q0.515625 0.59375 0.84375 1.46875q0.3125 0.875 0.3125 1.96875q0 1.21875 -0.453125 2.4375q-0.453125 1.203125 -1.34375 2.140625l-1.921875 -1.59375zm-8.90625 -13.456482l0 -3.484375q0 -1.4375 0.359375 -2.5625q0.359375 -1.140625 1.109375 -1.953125q0.75 -0.828125 1.921875 -1.265625q1.15625 -0.4375 2.75 -0.4375q1.59375 0 2.78125 0.4375q1.171875 0.4375 1.9375 1.234375q0.765625 0.796875 1.15625 1.90625q0.375 1.109375 0.375 2.484375l0 3.640625l-12.390625 0zm10.125 -3.3125q0 -0.8125 -0.203125 -1.453125q-0.203125 -0.640625 -0.671875 -1.09375q-0.46875 -0.46875 -1.21875 -0.71875q-0.765625 -0.25 -1.890625 -0.25q-1.109375 0 -1.859375 0.25q-0.75 0.25 -1.1875 0.71875q-0.453125 0.453125 -0.640625 1.09375q-0.1875 0.640625 -0.1875 1.453125l0 0.53125l7.859375 0l0 -0.53125zm-2.453125 -7.7529907q-1.171875 0 -2.09375 -0.375q-0.921875 -0.375 -1.546875 -1.015625q-0.625 -0.640625 -0.953125 -1.46875q-0.34375 -0.84375 -0.34375 -1.734375q0 -0.890625 0.34375 -1.71875q0.328125 -0.828125 0.953125 -1.453125q0.625 -0.640625 1.546875 -1.015625q0.921875 -0.390625 2.09375 -0.390625q1.1875 0 2.109375 0.390625q0.921875 0.375 1.546875 1.015625q0.625 0.625 0.96875 1.453125q0.328125 0.828125 0.328125 1.71875q0 0.890625 -0.328125 1.734375q-0.34375 0.828125 -0.96875 1.46875q-0.625 0.640625 -1.546875 1.015625q-0.921875 0.375 -2.109375 0.375zm0 -2.859375q1.234375 0 1.96875 -0.421875q0.71875 -0.4375 0.71875 -1.3125q0 -0.859375 -0.71875 -1.296875q-0.734375 -0.4375 -1.96875 -0.4375q-1.234375 0 -1.953125 0.4375q-0.71875 0.4375 -0.71875 1.296875q0 0.875 0.71875 1.3125q0.71875 0.421875 1.953125 0.421875zm-4.703125 -8.041718l0 -2.28125l1.21875 -0.1875l0 -0.078125q-0.59375 -0.59375 -1.015625 -1.25q-0.4375 -0.671875 -0.4375 -1.59375q0 -1.015625 0.421875 -1.625q0.40625 -0.625 1.15625 -0.984375q-0.640625 -0.625 -1.109375 -1.3125q-0.46875 -0.703125 -0.46875 -1.65625q0 -1.515625 1.015625 -2.21875q1.015625 -0.71875 2.78125 -0.71875l5.859375 0l0 2.796875l-5.484375 0q-1.03125 0 -1.40625 0.28125q-0.390625 0.265625 -0.390625 0.875q0 0.703125 0.921875 1.609375l6.359375 0l0 2.796875l-5.484375 0q-1.03125 0 -1.40625 0.28125q-0.390625 0.265625 -0.390625 0.875q0 0.71875 0.921875 1.59375l6.359375 0l0 2.796875l-9.421875 0zm6.796875 -15.644653q-1.484375 0 -2.3125 -1.25q-0.84375 -1.265625 -1.125 -4.046875q-0.625 0.03125 -0.984375 0.375q-0.375 0.34375 -0.375 1.09375q0 0.609375 0.234375 1.21875q0.21875 0.609375 0.609375 1.296875l-1.84375 0.984375q-0.546875 -0.90625 -0.890625 -1.90625q-0.34375 -1.0 -0.34375 -2.125q0 -1.8125 1.046875 -2.765625q1.03125 -0.96875 3.21875 -0.96875l5.390625 0l0 2.28125l-0.96875 0.203125l0 0.0625q0.53125 0.609375 0.875 1.28125q0.328125 0.671875 0.328125 1.46875q0 0.640625 -0.21875 1.15625q-0.21875 0.515625 -0.609375 0.875q-0.390625 0.359375 -0.90625 0.5625q-0.515625 0.203125 -1.125 0.203125zm-0.203125 -2.65625q0.453125 0 0.671875 -0.296875q0.21875 -0.296875 0.21875 -0.796875q0 -0.484375 -0.203125 -0.828125q-0.21875 -0.34375 -0.59375 -0.71875l-1.65625 0q0.203125 1.5 0.609375 2.078125q0.40625 0.5625 0.953125 0.5625zm-7.984375 -9.040558q0 0.703125 -0.40625 1.171875q-0.40625 0.453125 -1.0625 0.453125q-0.640625 0 -1.03125 -0.453125q-0.40625 -0.46875 -0.40625 -1.171875q0 -0.71875 0.40625 -1.15625q0.390625 -0.453125 1.03125 -0.453125q0.65625 0 1.0625 0.453125q0.40625 0.4375 0.40625 1.15625zm1.390625 1.390625l0 -2.796875l9.421875 0l0 2.796875l-9.421875 0zm0 -5.1491394l0 -2.28125l1.1875 -0.1875l0 -0.078125q-0.5625 -0.609375 -0.984375 -1.328125q-0.4375 -0.71875 -0.4375 -1.6875q0 -1.5468445 1.015625 -2.2343445q1.0 -0.703125 2.78125 -0.703125l5.859375 0l0 2.7968445l-5.484375 0q-1.03125 0 -1.40625 0.28125q-0.390625 0.265625 -0.390625 0.875q0 0.53125 0.25 0.921875q0.234375 0.375 0.671875 0.828125l6.359375 0l0 2.796875l-9.421875 0z" fill-rule="nonzero"></path><path fill="#d9ead3" d="m645.0945 303.8084l107.18109 -65.35434l107.18109 65.35434l-107.18109 65.35431z" fill-rule="nonzero"></path><path stroke="#434343" stroke-width="1.0" stroke-linejoin="round" stroke-linecap="butt" d="m645.0945 303.8084l107.18109 -65.35434l107.18109 65.35434l-107.18109 65.35431z" fill-rule="nonzero"></path><path fill="#434343" d="m717.37213 276.8559l-0.234375 -0.96875q-0.21875 -0.78125 -0.4375 -1.65625q-0.203125 -0.890625 -0.40625 -1.703125l-0.0625 0q-0.203125 0.828125 -0.40625 1.703125q-0.1875 0.875 -0.40625 1.65625l-0.265625 0.96875l2.21875 0zm0.484375 1.828125l-3.1875 0l-0.640625 2.484375l-2.390625 0l3.265625 -10.4375l2.828125 0l3.265625 10.4375l-2.5 0l-0.640625 -2.484375zm6.433655 3.109375l0 2.3125l-2.34375 0l0 -10.875l1.90625 0l0.171875 0.78125l0.0625 0q0.453125 -0.40625 1.03125 -0.6875q0.59375 -0.28125 1.21875 -0.28125q0.71875 0 1.296875 0.296875q0.578125 0.28125 0.96875 0.8125q0.40625 0.515625 0.625 1.265625q0.21875 0.734375 0.21875 1.65625q0 1.015625 -0.28125 1.8125q-0.28125 0.796875 -0.75 1.34375q-0.46875 0.546875 -1.078125 0.84375q-0.59375 0.28125 -1.234375 0.28125q-0.515625 0 -1.0 -0.203125q-0.46875 -0.21875 -0.890625 -0.625l0.078125 1.265625zm0 -2.859375q0.328125 0.28125 0.640625 0.390625q0.328125 0.109375 0.625 0.109375q0.609375 0 1.03125 -0.546875q0.4375 -0.546875 0.4375 -1.78125q0 -2.140625 -1.375 -2.140625q-0.6875 0 -1.359375 0.71875l0 3.25zm9.167969 2.859375l0 2.3125l-2.34375 0l0 -10.875l1.90625 0l0.171875 0.78125l0.0625 0q0.453125 -0.40625 1.03125 -0.6875q0.59375 -0.28125 1.21875 -0.28125q0.71875 0 1.296875 0.296875q0.578125 0.28125 0.96875 0.8125q0.40625 0.515625 0.625 1.265625q0.21875 0.734375 0.21875 1.65625q0 1.015625 -0.28125 1.8125q-0.28125 0.796875 -0.75 1.34375q-0.46875 0.546875 -1.078125 0.84375q-0.59375 0.28125 -1.234375 0.28125q-0.515625 0 -1.0 -0.203125q-0.46875 -0.21875 -0.890625 -0.625l0.078125 1.265625zm0 -2.859375q0.328125 0.28125 0.640625 0.390625q0.328125 0.109375 0.625 0.109375q0.609375 0 1.03125 -0.546875q0.4375 -0.546875 0.4375 -1.78125q0 -2.140625 -1.375 -2.140625q-0.6875 0 -1.359375 0.71875l0 3.25zm6.82428 -8.984375l2.34375 0l0 8.84375q0 0.375 0.125 0.515625q0.140625 0.140625 0.296875 0.140625q0.078125 0 0.125 0q0.0625 0 0.15625 -0.03125l0.296875 1.75q-0.203125 0.078125 -0.5 0.125q-0.296875 0.0625 -0.6875 0.0625q-0.609375 0 -1.03125 -0.1875q-0.40625 -0.1875 -0.65625 -0.53125q-0.25 -0.34375 -0.359375 -0.828125q-0.109375 -0.5 -0.109375 -1.109375l0 -8.75zm5.732239 2.109375q-0.59375 0 -0.984375 -0.34375q-0.375 -0.34375 -0.375 -0.890625q0 -0.53125 0.375 -0.859375q0.390625 -0.34375 0.984375 -0.34375q0.609375 0 0.984375 0.34375q0.375 0.328125 0.375 0.859375q0 0.546875 -0.375 0.890625q-0.375 0.34375 -0.984375 0.34375zm-1.15625 1.171875l2.34375 0l0 7.9375l-2.34375 0l0 -7.9375zm3.9472656 3.96875q0 -0.984375 0.328125 -1.765625q0.34375 -0.78125 0.90625 -1.296875q0.578125 -0.53125 1.328125 -0.8125q0.75 -0.28125 1.5625 -0.28125q0.734375 0 1.328125 0.25q0.59375 0.25 1.0 0.65625l-1.078125 1.453125q-0.5625 -0.453125 -1.109375 -0.453125q-0.859375 0 -1.359375 0.609375q-0.5 0.59375 -0.5 1.640625q0 1.046875 0.5 1.65625q0.515625 0.59375 1.28125 0.59375q0.4375 0 0.78125 -0.171875q0.359375 -0.171875 0.640625 -0.390625l0.953125 1.484375q-0.578125 0.515625 -1.28125 0.75q-0.703125 0.234375 -1.359375 0.234375q-0.84375 0 -1.5625 -0.28125q-0.703125 -0.28125 -1.234375 -0.796875q-0.515625 -0.53125 -0.828125 -1.296875q-0.296875 -0.78125 -0.296875 -1.78125zm7.643921 1.765625q0 -1.25 1.046875 -1.953125q1.0625 -0.703125 3.421875 -0.953125q-0.03125 -0.515625 -0.328125 -0.828125q-0.28125 -0.3125 -0.921875 -0.3125q-0.515625 0 -1.03125 0.1875q-0.5 0.1875 -1.078125 0.53125l-0.828125 -1.5625q0.765625 -0.453125 1.59375 -0.734375q0.84375 -0.296875 1.796875 -0.296875q1.53125 0 2.328125 0.875q0.8125 0.859375 0.8125 2.703125l0 4.546875l-1.921875 0l-0.171875 -0.8125l-0.046875 0q-0.515625 0.4375 -1.078125 0.71875q-0.5625 0.28125 -1.234375 0.28125q-0.546875 0 -0.984375 -0.1875q-0.421875 -0.171875 -0.734375 -0.5q-0.296875 -0.328125 -0.46875 -0.765625q-0.171875 -0.4375 -0.171875 -0.9375zm2.234375 -0.1875q0 0.390625 0.25 0.578125q0.25 0.1875 0.671875 0.1875q0.40625 0 0.6875 -0.171875q0.296875 -0.1875 0.625 -0.5l0 -1.40625q-1.265625 0.1875 -1.75 0.53125q-0.484375 0.328125 -0.484375 0.78125zm6.9190063 -3.703125l-1.09375 0l0 -1.75l1.21875 -0.09375l0.28125 -2.109375l1.953125 0l0 2.109375l1.890625 0l0 1.84375l-1.890625 0l0 3.1875q0 0.671875 0.265625 0.96875q0.28125 0.296875 0.75 0.296875q0.1875 0 0.390625 -0.046875q0.203125 -0.0625 0.359375 -0.125l0.375 1.71875q-0.328125 0.09375 -0.765625 0.1875q-0.421875 0.09375 -1.0 0.09375q-0.734375 0 -1.265625 -0.21875q-0.515625 -0.21875 -0.84375 -0.625q-0.328125 -0.40625 -0.484375 -0.96875q-0.140625 -0.5625 -0.140625 -1.25l0 -3.21875zm6.9717407 -3.015625q-0.59375 0 -0.984375 -0.34375q-0.375 -0.34375 -0.375 -0.890625q0 -0.53125 0.375 -0.859375q0.390625 -0.34375 0.984375 -0.34375q0.609375 0 0.984375 0.34375q0.375 0.328125 0.375 0.859375q0 0.546875 -0.375 0.890625q-0.375 0.34375 -0.984375 0.34375zm-1.15625 1.171875l2.34375 0l0 7.9375l-2.34375 0l0 -7.9375zm3.9472656 3.96875q0 -0.984375 0.3125 -1.765625q0.328125 -0.78125 0.859375 -1.296875q0.53125 -0.53125 1.234375 -0.8125q0.71875 -0.28125 1.46875 -0.28125q0.75 0 1.4375 0.28125q0.703125 0.28125 1.234375 0.8125q0.53125 0.515625 0.84375 1.296875q0.328125 0.78125 0.328125 1.765625q0 1.0 -0.328125 1.78125q-0.3125 0.765625 -0.84375 1.296875q-0.53125 0.515625 -1.234375 0.796875q-0.6875 0.28125 -1.4375 0.28125q-0.75 0 -1.46875 -0.28125q-0.703125 -0.28125 -1.234375 -0.796875q-0.53125 -0.53125 -0.859375 -1.296875q-0.3125 -0.78125 -0.3125 -1.78125zm2.40625 0q0 1.046875 0.359375 1.65625q0.375 0.59375 1.109375 0.59375q0.71875 0 1.078125 -0.59375q0.375 -0.609375 0.375 -1.65625q0 -1.046875 -0.375 -1.640625q-0.359375 -0.609375 -1.078125 -0.609375q-0.734375 0 -1.109375 0.609375q-0.359375 0.59375 -0.359375 1.640625zm6.942566 -3.96875l1.90625 0l0.171875 1.015625l0.0625 0q0.515625 -0.484375 1.109375 -0.84375q0.609375 -0.359375 1.4375 -0.359375q1.296875 0 1.875 0.84375q0.578125 0.84375 0.578125 2.359375l0 4.921875l-2.34375 0l0 -4.625q0 -0.859375 -0.234375 -1.171875q-0.234375 -0.328125 -0.75 -0.328125q-0.4375 0 -0.765625 0.203125q-0.3125 0.1875 -0.703125 0.5625l0 5.359375l-2.34375 0l0 -7.9375z" fill-rule="nonzero"></path><path fill="#434343" d="m721.5224 292.2309l1.90625 0l0.171875 1.390625l0.0625 0q0.421875 -0.8125 1.03125 -1.1875q0.609375 -0.390625 1.21875 -0.390625q0.34375 0 0.546875 0.046875q0.21875 0.03125 0.40625 0.109375l-0.390625 2.03125q-0.21875 -0.0625 -0.421875 -0.09375q-0.1875 -0.03125 -0.4375 -0.03125q-0.453125 0 -0.9375 0.328125q-0.484375 0.3125 -0.8125 1.125l0 4.609375l-2.34375 0l0 -7.9375zm5.899292 3.96875q0 -0.953125 0.3125 -1.734375q0.328125 -0.78125 0.84375 -1.3125q0.515625 -0.53125 1.1875 -0.8125q0.671875 -0.296875 1.390625 -0.296875q0.859375 0 1.484375 0.296875q0.640625 0.28125 1.0625 0.796875q0.421875 0.5 0.625 1.203125q0.21875 0.6875 0.21875 1.515625q0 0.3125 -0.046875 0.578125q-0.03125 0.265625 -0.0625 0.40625l-4.75 0q0.171875 0.90625 0.71875 1.328125q0.546875 0.40625 1.34375 0.40625q0.859375 0 1.71875 -0.53125l0.78125 1.421875q-0.609375 0.421875 -1.359375 0.65625q-0.734375 0.234375 -1.453125 0.234375q-0.84375 0 -1.59375 -0.28125q-0.734375 -0.28125 -1.28125 -0.8125q-0.53125 -0.53125 -0.84375 -1.296875q-0.296875 -0.765625 -0.296875 -1.765625zm5.125 -0.8125q0 -0.6875 -0.3125 -1.125q-0.296875 -0.4375 -1.015625 -0.4375q-0.5625 0 -1.0 0.390625q-0.421875 0.375 -0.546875 1.171875l2.875 0zm3.9442139 -1.3125l-1.09375 0l0 -1.75l1.21875 -0.09375l0.28125 -2.109375l1.953125 0l0 2.109375l1.890625 0l0 1.84375l-1.890625 0l0 3.1875q0 0.671875 0.265625 0.96875q0.28125 0.296875 0.75 0.296875q0.1875 0 0.390625 -0.046875q0.203125 -0.0625 0.359375 -0.125l0.375 1.71875q-0.328125 0.09375 -0.765625 0.1875q-0.421875 0.09375 -1.0 0.09375q-0.734375 0 -1.265625 -0.21875q-0.515625 -0.21875 -0.84375 -0.625q-0.328125 -0.40625 -0.484375 -0.96875q-0.140625 -0.5625 -0.140625 -1.25l0 -3.21875zm5.8155518 -1.84375l1.90625 0l0.171875 1.390625l0.0625 0q0.421875 -0.8125 1.03125 -1.1875q0.609375 -0.390625 1.21875 -0.390625q0.34375 0 0.546875 0.046875q0.21875 0.03125 0.40625 0.109375l-0.390625 2.03125q-0.21875 -0.0625 -0.421875 -0.09375q-0.1875 -0.03125 -0.4375 -0.03125q-0.453125 0 -0.9375 0.328125q-0.484375 0.3125 -0.8125 1.125l0 4.609375l-2.34375 0l0 -7.9375zm7.524231 -1.171875q-0.59375 0 -0.984375 -0.34375q-0.375 -0.34375 -0.375 -0.890625q0 -0.53125 0.375 -0.859375q0.390625 -0.34375 0.984375 -0.34375q0.609375 0 0.984375 0.34375q0.375 0.328125 0.375 0.859375q0 0.546875 -0.375 0.890625q-0.375 0.34375 -0.984375 0.34375zm-1.15625 1.171875l2.34375 0l0 7.9375l-2.34375 0l0 -7.9375zm3.9472656 3.96875q0 -0.953125 0.3125 -1.734375q0.328125 -0.78125 0.84375 -1.3125q0.515625 -0.53125 1.1875 -0.8125q0.671875 -0.296875 1.390625 -0.296875q0.859375 0 1.484375 0.296875q0.640625 0.28125 1.0625 0.796875q0.421875 0.5 0.625 1.203125q0.21875 0.6875 0.21875 1.515625q0 0.3125 -0.046875 0.578125q-0.03125 0.265625 -0.0625 0.40625l-4.75 0q0.171875 0.90625 0.71875 1.328125q0.546875 0.40625 1.34375 0.40625q0.859375 0 1.71875 -0.53125l0.78125 1.421875q-0.609375 0.421875 -1.359375 0.65625q-0.734375 0.234375 -1.453125 0.234375q-0.84375 0 -1.59375 -0.28125q-0.734375 -0.28125 -1.28125 -0.8125q-0.53125 -0.53125 -0.84375 -1.296875q-0.296875 -0.765625 -0.296875 -1.765625zm5.125 -0.8125q0 -0.6875 -0.3125 -1.125q-0.296875 -0.4375 -1.015625 -0.4375q-0.5625 0 -1.0 0.390625q-0.421875 0.375 -0.546875 1.171875l2.875 0zm2.7724 -3.15625l2.375 0l1.015625 3.75q0.171875 0.59375 0.3125 1.203125q0.15625 0.609375 0.3125 1.234375l0.0625 0q0.15625 -0.625 0.296875 -1.234375q0.15625 -0.609375 0.3125 -1.203125l1.046875 -3.75l2.25 0l-2.59375 7.9375l-2.71875 0l-2.671875 -7.9375zm8.758606 3.96875q0 -0.953125 0.3125 -1.734375q0.328125 -0.78125 0.84375 -1.3125q0.515625 -0.53125 1.1875 -0.8125q0.671875 -0.296875 1.390625 -0.296875q0.859375 0 1.484375 0.296875q0.640625 0.28125 1.0625 0.796875q0.421875 0.5 0.625 1.203125q0.21875 0.6875 0.21875 1.515625q0 0.3125 -0.046875 0.578125q-0.03125 0.265625 -0.0625 0.40625l-4.75 0q0.171875 0.90625 0.71875 1.328125q0.546875 0.40625 1.34375 0.40625q0.859375 0 1.71875 -0.53125l0.78125 1.421875q-0.609375 0.421875 -1.359375 0.65625q-0.734375 0.234375 -1.453125 0.234375q-0.84375 0 -1.59375 -0.28125q-0.734375 -0.28125 -1.28125 -0.8125q-0.53125 -0.53125 -0.84375 -1.296875q-0.296875 -0.765625 -0.296875 -1.765625zm5.125 -0.8125q0 -0.6875 -0.3125 -1.125q-0.296875 -0.4375 -1.015625 -0.4375q-0.5625 0 -1.0 0.390625q-0.421875 0.375 -0.546875 1.171875l2.875 0zm3.975525 2.390625q0.546875 0.421875 1.03125 0.640625q0.5 0.203125 1.015625 0.203125q0.53125 0 0.765625 -0.171875q0.25 -0.1875 0.25 -0.5q0 -0.203125 -0.140625 -0.34375q-0.140625 -0.15625 -0.375 -0.28125q-0.21875 -0.125 -0.515625 -0.234375q-0.28125 -0.109375 -0.59375 -0.234375q-0.359375 -0.140625 -0.734375 -0.328125q-0.359375 -0.203125 -0.671875 -0.484375q-0.296875 -0.28125 -0.5 -0.65625q-0.1875 -0.375 -0.1875 -0.859375q0 -0.546875 0.21875 -1.015625q0.21875 -0.46875 0.609375 -0.78125q0.40625 -0.328125 0.96875 -0.5q0.5625 -0.1875 1.25 -0.1875q0.90625 0 1.59375 0.3125q0.6875 0.3125 1.203125 0.6875l-1.0625 1.40625q-0.421875 -0.3125 -0.84375 -0.484375q-0.421875 -0.1875 -0.828125 -0.1875q-0.90625 0 -0.90625 0.625q0 0.203125 0.125 0.34375q0.140625 0.125 0.34375 0.234375q0.21875 0.109375 0.5 0.21875q0.28125 0.109375 0.59375 0.21875q0.375 0.140625 0.75 0.328125q0.375 0.1875 0.6875 0.453125q0.3125 0.265625 0.5 0.671875q0.203125 0.390625 0.203125 0.921875q0 0.546875 -0.21875 1.015625q-0.203125 0.46875 -0.625 0.8125q-0.40625 0.34375 -1.015625 0.546875q-0.609375 0.1875 -1.40625 0.1875q-0.78125 0 -1.609375 -0.296875q-0.828125 -0.3125 -1.421875 -0.796875l1.046875 -1.484375z" fill-rule="nonzero"></path><path fill="#434343" d="m715.6264 311.2309l1.90625 0l0.171875 1.390625l0.0625 0q0.421875 -0.8125 1.03125 -1.1875q0.609375 -0.390625 1.21875 -0.390625q0.34375 0 0.546875 0.046875q0.21875 0.03125 0.40625 0.109375l-0.390625 2.03125q-0.21875 -0.0625 -0.421875 -0.09375q-0.1875 -0.03125 -0.4375 -0.03125q-0.453125 0 -0.9375 0.328125q-0.484375 0.3125 -0.8125 1.125l0 4.609375l-2.34375 0l0 -7.9375zm5.899231 3.96875q0 -0.953125 0.3125 -1.734375q0.328125 -0.78125 0.84375 -1.3125q0.515625 -0.53125 1.1875 -0.8125q0.671875 -0.296875 1.390625 -0.296875q0.859375 0 1.484375 0.296875q0.640625 0.28125 1.0625 0.796875q0.421875 0.5 0.625 1.203125q0.21875 0.6875 0.21875 1.515625q0 0.3125 -0.046875 0.578125q-0.03125 0.265625 -0.0625 0.40625l-4.75 0q0.171875 0.90625 0.71875 1.328125q0.546875 0.40625 1.34375 0.40625q0.859375 0 1.71875 -0.53125l0.78125 1.421875q-0.609375 0.421875 -1.359375 0.65625q-0.734375 0.234375 -1.453125 0.234375q-0.84375 0 -1.59375 -0.28125q-0.734375 -0.28125 -1.28125 -0.8125q-0.53125 -0.53125 -0.84375 -1.296875q-0.296875 -0.765625 -0.296875 -1.765625zm5.125 -0.8125q0 -0.6875 -0.3125 -1.125q-0.296875 -0.4375 -1.015625 -0.4375q-0.5625 0 -1.0 0.390625q-0.421875 0.375 -0.546875 1.171875l2.875 0zm5.975525 5.40625l0 2.3125l-2.34375 0l0 -10.875l1.90625 0l0.171875 0.78125l0.0625 0q0.453125 -0.40625 1.03125 -0.6875q0.59375 -0.28125 1.21875 -0.28125q0.71875 0 1.296875 0.296875q0.578125 0.28125 0.96875 0.8125q0.40625 0.515625 0.625 1.265625q0.21875 0.734375 0.21875 1.65625q0 1.015625 -0.28125 1.8125q-0.28125 0.796875 -0.75 1.34375q-0.46875 0.546875 -1.078125 0.84375q-0.59375 0.28125 -1.234375 0.28125q-0.515625 0 -1.0 -0.203125q-0.46875 -0.21875 -0.890625 -0.625l0.078125 1.265625zm0 -2.859375q0.328125 0.28125 0.640625 0.390625q0.328125 0.109375 0.625 0.109375q0.609375 0 1.03125 -0.546875q0.4375 -0.546875 0.4375 -1.78125q0 -2.140625 -1.375 -2.140625q-0.6875 0 -1.359375 0.71875l0 3.25zm6.35553 -1.734375q0 -0.984375 0.3125 -1.765625q0.328125 -0.78125 0.859375 -1.296875q0.53125 -0.53125 1.234375 -0.8125q0.71875 -0.28125 1.46875 -0.28125q0.75 0 1.4375 0.28125q0.703125 0.28125 1.234375 0.8125q0.53125 0.515625 0.84375 1.296875q0.328125 0.78125 0.328125 1.765625q0 1.0 -0.328125 1.78125q-0.3125 0.765625 -0.84375 1.296875q-0.53125 0.515625 -1.234375 0.796875q-0.6875 0.28125 -1.4375 0.28125q-0.75 0 -1.46875 -0.28125q-0.703125 -0.28125 -1.234375 -0.796875q-0.53125 -0.53125 -0.859375 -1.296875q-0.3125 -0.78125 -0.3125 -1.78125zm2.40625 0q0 1.046875 0.359375 1.65625q0.375 0.59375 1.109375 0.59375q0.71875 0 1.078125 -0.59375q0.375 -0.609375 0.375 -1.65625q0 -1.046875 -0.375 -1.640625q-0.359375 -0.609375 -1.078125 -0.609375q-0.734375 0 -1.109375 0.609375q-0.359375 0.59375 -0.359375 1.640625zm6.942505 -3.96875l1.90625 0l0.171875 1.390625l0.0625 0q0.421875 -0.8125 1.03125 -1.1875q0.609375 -0.390625 1.21875 -0.390625q0.34375 0 0.546875 0.046875q0.21875 0.03125 0.40625 0.109375l-0.390625 2.03125q-0.21875 -0.0625 -0.421875 -0.09375q-0.1875 -0.03125 -0.4375 -0.03125q-0.453125 0 -0.9375 0.328125q-0.484375 0.3125 -0.8125 1.125l0 4.609375l-2.34375 0l0 -7.9375zm6.680542 1.84375l-1.09375 0l0 -1.75l1.21875 -0.09375l0.28125 -2.109375l1.953125 0l0 2.109375l1.890625 0l0 1.84375l-1.890625 0l0 3.1875q0 0.671875 0.265625 0.96875q0.28125 0.296875 0.75 0.296875q0.1875 0 0.390625 -0.046875q0.203125 -0.0625 0.359375 -0.125l0.375 1.71875q-0.328125 0.09375 -0.765625 0.1875q-0.421875 0.09375 -1.0 0.09375q-0.734375 0 -1.265625 -0.21875q-0.515625 -0.21875 -0.84375 -0.625q-0.328125 -0.40625 -0.484375 -0.96875q-0.140625 -0.5625 -0.140625 -1.25l0 -3.21875zm8.846619 3.890625q0 -1.25 1.046875 -1.953125q1.0625 -0.703125 3.421875 -0.953125q-0.03125 -0.515625 -0.328125 -0.828125q-0.28125 -0.3125 -0.921875 -0.3125q-0.515625 0 -1.03125 0.1875q-0.5 0.1875 -1.078125 0.53125l-0.828125 -1.5625q0.765625 -0.453125 1.59375 -0.734375q0.84375 -0.296875 1.796875 -0.296875q1.53125 0 2.328125 0.875q0.8125 0.859375 0.8125 2.703125l0 4.546875l-1.921875 0l-0.171875 -0.8125l-0.046875 0q-0.515625 0.4375 -1.078125 0.71875q-0.5625 0.28125 -1.234375 0.28125q-0.546875 0 -0.984375 -0.1875q-0.421875 -0.171875 -0.734375 -0.5q-0.296875 -0.328125 -0.46875 -0.765625q-0.171875 -0.4375 -0.171875 -0.9375zm2.234375 -0.1875q0 0.390625 0.25 0.578125q0.25 0.1875 0.671875 0.1875q0.40625 0 0.6875 -0.171875q0.296875 -0.1875 0.625 -0.5l0 -1.40625q-1.265625 0.1875 -1.75 0.53125q-0.484375 0.328125 -0.484375 0.78125zm6.6065063 -5.546875l1.90625 0l0.171875 1.015625l0.0625 0q0.515625 -0.484375 1.109375 -0.84375q0.609375 -0.359375 1.4375 -0.359375q1.296875 0 1.875 0.84375q0.578125 0.84375 0.578125 2.359375l0 4.921875l-2.34375 0l0 -4.625q0 -0.859375 -0.234375 -1.171875q-0.234375 -0.328125 -0.75 -0.328125q-0.4375 0 -0.765625 0.203125q-0.3125 0.1875 -0.703125 0.5625l0 5.359375l-2.34375 0l0 -7.9375zm8.730164 3.96875q0 -0.96875 0.28125 -1.734375q0.28125 -0.78125 0.734375 -1.3125q0.453125 -0.53125 1.046875 -0.8125q0.609375 -0.296875 1.234375 -0.296875q0.671875 0 1.09375 0.21875q0.4375 0.21875 0.859375 0.609375l-0.09375 -1.21875l0 -2.703125l2.34375 0l0 11.21875l-1.921875 0l-0.15625 -0.78125l-0.0625 0q-0.421875 0.40625 -0.984375 0.6875q-0.546875 0.28125 -1.125 0.28125q-0.734375 0 -1.34375 -0.28125q-0.59375 -0.296875 -1.015625 -0.828125q-0.421875 -0.53125 -0.65625 -1.296875q-0.234375 -0.765625 -0.234375 -1.75zm2.421875 -0.03125q0 1.1875 0.375 1.734375q0.375 0.53125 1.0625 0.53125q0.375 0 0.6875 -0.15625q0.3125 -0.15625 0.609375 -0.5625l0 -3.25q-0.328125 -0.28125 -0.671875 -0.390625q-0.328125 -0.109375 -0.640625 -0.109375q-0.5625 0 -1.0 0.53125q-0.421875 0.53125 -0.421875 1.671875z" fill-rule="nonzero"></path><path fill="#434343" d="m724.97266 330.2309l2.359375 0l0 4.625q0 0.859375 0.234375 1.1875q0.25 0.3125 0.75 0.3125q0.453125 0 0.75 -0.203125q0.3125 -0.203125 0.671875 -0.671875l0 -5.25l2.34375 0l0 7.9375l-1.921875 0l-0.171875 -1.109375l-0.046875 0q-0.515625 0.609375 -1.109375 0.953125q-0.578125 0.34375 -1.390625 0.34375q-1.296875 0 -1.890625 -0.84375q-0.578125 -0.84375 -0.578125 -2.359375l0 -4.921875zm11.525513 8.5625l0 2.3125l-2.34375 0l0 -10.875l1.90625 0l0.171875 0.78125l0.0625 0q0.453125 -0.40625 1.03125 -0.6875q0.59375 -0.28125 1.21875 -0.28125q0.71875 0 1.296875 0.296875q0.578125 0.28125 0.96875 0.8125q0.40625 0.515625 0.625 1.265625q0.21875 0.734375 0.21875 1.65625q0 1.015625 -0.28125 1.8125q-0.28125 0.796875 -0.75 1.34375q-0.46875 0.546875 -1.078125 0.84375q-0.59375 0.28125 -1.234375 0.28125q-0.515625 0 -1.0 -0.203125q-0.46875 -0.21875 -0.890625 -0.625l0.078125 1.265625zm0 -2.859375q0.328125 0.28125 0.640625 0.390625q0.328125 0.109375 0.625 0.109375q0.609375 0 1.03125 -0.546875q0.4375 -0.546875 0.4375 -1.78125q0 -2.140625 -1.375 -2.140625q-0.6875 0 -1.359375 0.71875l0 3.25zm6.82428 -8.984375l2.34375 0l0 8.84375q0 0.375 0.125 0.515625q0.140625 0.140625 0.296875 0.140625q0.078125 0 0.125 0q0.0625 0 0.15625 -0.03125l0.296875 1.75q-0.203125 0.078125 -0.5 0.125q-0.296875 0.0625 -0.6875 0.0625q-0.609375 0 -1.03125 -0.1875q-0.40625 -0.1875 -0.65625 -0.53125q-0.25 -0.34375 -0.359375 -0.828125q-0.109375 -0.5 -0.109375 -1.109375l0 -8.75zm4.107239 7.25q0 -0.984375 0.3125 -1.765625q0.328125 -0.78125 0.859375 -1.296875q0.53125 -0.53125 1.234375 -0.8125q0.71875 -0.28125 1.46875 -0.28125q0.75 0 1.4375 0.28125q0.703125 0.28125 1.234375 0.8125q0.53125 0.515625 0.84375 1.296875q0.328125 0.78125 0.328125 1.765625q0 1.0 -0.328125 1.78125q-0.3125 0.765625 -0.84375 1.296875q-0.53125 0.515625 -1.234375 0.796875q-0.6875 0.28125 -1.4375 0.28125q-0.75 0 -1.46875 -0.28125q-0.703125 -0.28125 -1.234375 -0.796875q-0.53125 -0.53125 -0.859375 -1.296875q-0.3125 -0.78125 -0.3125 -1.78125zm2.40625 0q0 1.046875 0.359375 1.65625q0.375 0.59375 1.109375 0.59375q0.71875 0 1.078125 -0.59375q0.375 -0.609375 0.375 -1.65625q0 -1.046875 -0.375 -1.640625q-0.359375 -0.609375 -1.078125 -0.609375q-0.734375 0 -1.109375 0.609375q-0.359375 0.59375 -0.359375 1.640625zm6.64563 1.765625q0 -1.25 1.046875 -1.953125q1.0625 -0.703125 3.421875 -0.953125q-0.03125 -0.515625 -0.328125 -0.828125q-0.28125 -0.3125 -0.921875 -0.3125q-0.515625 0 -1.03125 0.1875q-0.5 0.1875 -1.078125 0.53125l-0.828125 -1.5625q0.765625 -0.453125 1.59375 -0.734375q0.84375 -0.296875 1.796875 -0.296875q1.53125 0 2.328125 0.875q0.8125 0.859375 0.8125 2.703125l0 4.546875l-1.921875 0l-0.171875 -0.8125l-0.046875 0q-0.515625 0.4375 -1.078125 0.71875q-0.5625 0.28125 -1.234375 0.28125q-0.546875 0 -0.984375 -0.1875q-0.421875 -0.171875 -0.734375 -0.5q-0.296875 -0.328125 -0.46875 -0.765625q-0.171875 -0.4375 -0.171875 -0.9375zm2.234375 -0.1875q0 0.390625 0.25 0.578125q0.25 0.1875 0.671875 0.1875q0.40625 0 0.6875 -0.171875q0.296875 -0.1875 0.625 -0.5l0 -1.40625q-1.265625 0.1875 -1.75 0.53125q-0.484375 0.328125 -0.484375 0.78125zm6.1846924 -1.578125q0 -0.96875 0.28125 -1.734375q0.28125 -0.78125 0.734375 -1.3125q0.453125 -0.53125 1.046875 -0.8125q0.609375 -0.296875 1.234375 -0.296875q0.671875 0 1.09375 0.21875q0.4375 0.21875 0.859375 0.609375l-0.09375 -1.21875l0 -2.703125l2.34375 0l0 11.21875l-1.921875 0l-0.15625 -0.78125l-0.0625 0q-0.421875 0.40625 -0.984375 0.6875q-0.546875 0.28125 -1.125 0.28125q-0.734375 0 -1.34375 -0.28125q-0.59375 -0.296875 -1.015625 -0.828125q-0.421875 -0.53125 -0.65625 -1.296875q-0.234375 -0.765625 -0.234375 -1.75zm2.421875 -0.03125q0 1.1875 0.375 1.734375q0.375 0.53125 1.0625 0.53125q0.375 0 0.6875 -0.15625q0.3125 -0.15625 0.609375 -0.5625l0 -3.25q-0.328125 -0.28125 -0.671875 -0.390625q-0.328125 -0.109375 -0.640625 -0.109375q-0.5625 0 -1.0 0.53125q-0.421875 0.53125 -0.421875 1.671875zm7.5117188 1.609375q0.546875 0.421875 1.03125 0.640625q0.5 0.203125 1.015625 0.203125q0.53125 0 0.765625 -0.171875q0.25 -0.1875 0.25 -0.5q0 -0.203125 -0.140625 -0.34375q-0.140625 -0.15625 -0.375 -0.28125q-0.21875 -0.125 -0.515625 -0.234375q-0.28125 -0.109375 -0.59375 -0.234375q-0.359375 -0.140625 -0.734375 -0.328125q-0.359375 -0.203125 -0.671875 -0.484375q-0.296875 -0.28125 -0.5 -0.65625q-0.1875 -0.375 -0.1875 -0.859375q0 -0.546875 0.21875 -1.015625q0.21875 -0.46875 0.609375 -0.78125q0.40625 -0.328125 0.96875 -0.5q0.5625 -0.1875 1.25 -0.1875q0.90625 0 1.59375 0.3125q0.6875 0.3125 1.203125 0.6875l-1.0625 1.40625q-0.421875 -0.3125 -0.84375 -0.484375q-0.421875 -0.1875 -0.828125 -0.1875q-0.90625 0 -0.90625 0.625q0 0.203125 0.125 0.34375q0.140625 0.125 0.34375 0.234375q0.21875 0.109375 0.5 0.21875q0.28125 0.109375 0.59375 0.21875q0.375 0.140625 0.75 0.328125q0.375 0.1875 0.6875 0.453125q0.3125 0.265625 0.5 0.671875q0.203125 0.390625 0.203125 0.921875q0 0.546875 -0.21875 1.015625q-0.203125 0.46875 -0.625 0.8125q-0.40625 0.34375 -1.015625 0.546875q-0.609375 0.1875 -1.40625 0.1875q-0.78125 0 -1.609375 -0.296875q-0.828125 -0.3125 -1.421875 -0.796875l1.046875 -1.484375z" fill-rule="nonzero"></path><path fill="#000000" fill-opacity="0.0" d="m460.65616 528.6221l291.62204 0l0 -159.4646" fill-rule="nonzero"></path><path stroke="#434343" stroke-width="2.0" stroke-linejoin="round" stroke-linecap="butt" stroke-dasharray="2.0,6.0" d="m460.65616 528.6221l291.62204 0l0 -147.4646" fill-rule="evenodd"></path><path fill="#434343" stroke="#434343" stroke-width="2.0" stroke-linecap="butt" d="m755.58167 381.15747l-3.3034668 -9.076172l-3.3034668 9.076172z" fill-rule="evenodd"></path><path fill="#c9daf8" d="m443.33072 111.661415l100.88187 -76.91338l100.8819 76.91338l-100.8819 76.91338z" fill-rule="nonzero"></path><path stroke="#434343" stroke-width="1.0" stroke-linejoin="round" stroke-linecap="butt" d="m443.33072 111.661415l100.88187 -76.91338l100.8819 76.91338l-100.8819 76.91338z" fill-rule="nonzero"></path><path fill="#434343" d="m529.19244 88.083916l2.359375 0l0 5.84375q0 1.53125 0.46875 2.140625q0.46875 0.609375 1.34375 0.609375q0.875 0 1.359375 -0.609375q0.484375 -0.609375 0.484375 -2.140625l0 -5.84375l2.265625 0l0 5.609375q0 2.625 -1.046875 3.828125q-1.046875 1.1875 -3.0625 1.1875q-2.03125 0 -3.109375 -1.1875q-1.0625 -1.203125 -1.0625 -3.828125l0 -5.609375zm10.858765 8.046875q0.546875 0.421875 1.03125 0.640625q0.5 0.203125 1.015625 0.203125q0.53125 0 0.765625 -0.171875q0.25 -0.1875 0.25 -0.5q0 -0.203125 -0.140625 -0.34375q-0.140625 -0.15625 -0.375 -0.28125q-0.21875 -0.125 -0.515625 -0.234375q-0.28125 -0.109375 -0.59375 -0.234375q-0.359375 -0.140625 -0.734375 -0.328125q-0.359375 -0.203125 -0.671875 -0.484375q-0.296875 -0.28125 -0.5 -0.65625q-0.1875 -0.375 -0.1875 -0.859375q0 -0.546875 0.21875 -1.015625q0.21875 -0.46875 0.609375 -0.78125q0.40625 -0.328125 0.96875 -0.5q0.5625 -0.1875 1.25 -0.1875q0.90625 0 1.59375 0.3125q0.6875 0.3125 1.203125 0.6875l-1.0625 1.40625q-0.421875 -0.3125 -0.84375 -0.484375q-0.421875 -0.1875 -0.828125 -0.1875q-0.90625 0 -0.90625 0.625q0 0.203125 0.125 0.34375q0.140625 0.125 0.34375 0.234375q0.21875 0.109375 0.5 0.21875q0.28125 0.109375 0.59375 0.21875q0.375 0.140625 0.75 0.328125q0.375 0.1875 0.6875 0.453125q0.3125 0.265625 0.5 0.671875q0.203125 0.390625 0.203125 0.921875q0 0.546875 -0.21875 1.015625q-0.203125 0.46875 -0.625 0.8125q-0.40625 0.34375 -1.015625 0.546875q-0.609375 0.1875 -1.40625 0.1875q-0.78125 0 -1.609375 -0.296875q-0.828125 -0.3125 -1.421875 -0.796875l1.046875 -1.484375zm6.2755127 -1.578125q0 -0.953125 0.3125 -1.734375q0.328125 -0.78125 0.84375 -1.3125q0.515625 -0.53125 1.1875 -0.8125q0.671875 -0.296875 1.390625 -0.296875q0.859375 0 1.484375 0.296875q0.640625 0.28125 1.0625 0.796875q0.421875 0.5 0.625 1.203125q0.21875 0.6875 0.21875 1.515625q0 0.3125 -0.046875 0.578125q-0.03125 0.265625 -0.0625 0.40625l-4.75 0q0.171875 0.90625 0.71875 1.328125q0.546875 0.40625 1.34375 0.40625q0.859375 0 1.71875 -0.53125l0.78125 1.421875q-0.609375 0.421875 -1.359375 0.65625q-0.734375 0.234375 -1.453125 0.234375q-0.84375 0 -1.59375 -0.28125q-0.734375 -0.28125 -1.28125 -0.8125q-0.53125 -0.53125 -0.84375 -1.296875q-0.296875 -0.765625 -0.296875 -1.765625zm5.125 -0.8125q0 -0.6875 -0.3125 -1.125q-0.296875 -0.4375 -1.015625 -0.4375q-0.5625 0 -1.0 0.390625q-0.421875 0.375 -0.546875 1.171875l2.875 0zm3.631775 -3.15625l1.90625 0l0.171875 1.390625l0.0625 0q0.421875 -0.8125 1.03125 -1.1875q0.609375 -0.390625 1.21875 -0.390625q0.34375 0 0.546875 0.046875q0.21875 0.03125 0.40625 0.109375l-0.390625 2.03125q-0.21875 -0.0625 -0.421875 -0.09375q-0.1875 -0.03125 -0.4375 -0.03125q-0.453125 0 -0.9375 0.328125q-0.484375 0.3125 -0.8125 1.125l0 4.609375l-2.34375 0l0 -7.9375z" fill-rule="nonzero"></path><path fill="#434343" d="m503.8194 109.583916l1.90625 0l0.171875 1.390625l0.0625 0q0.421875 -0.8125 1.03125 -1.1875q0.609375 -0.390625 1.21875 -0.390625q0.34375 0 0.546875 0.046875q0.21875 0.03125 0.40625 0.109375l-0.390625 2.03125q-0.21875 -0.0625 -0.421875 -0.09375q-0.1875 -0.03125 -0.4375 -0.03125q-0.453125 0 -0.9375 0.328125q-0.484375 0.3125 -0.8125 1.125l0 4.609375l-2.34375 0l0 -7.9375zm5.8992615 3.96875q0 -0.953125 0.3125 -1.734375q0.328125 -0.78125 0.84375 -1.3125q0.515625 -0.53125 1.1875305 -0.8125q0.671875 -0.296875 1.390625 -0.296875q0.859375 0 1.484375 0.296875q0.640625 0.28125 1.0625 0.796875q0.421875 0.5 0.625 1.203125q0.21875 0.6875 0.21875 1.515625q0 0.3125 -0.046875 0.578125q-0.03125 0.265625 -0.0625 0.40625l-4.7500305 0q0.17190552 0.90625 0.7187805 1.328125q0.546875 0.40625 1.34375 0.40625q0.859375 0 1.71875 -0.53125l0.78125 1.421875q-0.609375 0.421875 -1.359375 0.65625q-0.734375 0.234375 -1.453125 0.234375q-0.84375 0 -1.59375 -0.28125q-0.7344055 -0.28125 -1.2812805 -0.8125q-0.53125 -0.53125 -0.84375 -1.296875q-0.296875 -0.765625 -0.296875 -1.765625zm5.1250305 -0.8125q0 -0.6875 -0.3125 -1.125q-0.296875 -0.4375 -1.015625 -0.4375q-0.5625 0 -1.0 0.390625q-0.421875 0.375 -0.5469055 1.171875l2.8750305 0zm3.9754639 2.390625q0.546875 0.421875 1.03125 0.640625q0.5 0.203125 1.015625 0.203125q0.53125 0 0.765625 -0.171875q0.25 -0.1875 0.25 -0.5q0 -0.203125 -0.140625 -0.34375q-0.140625 -0.15625 -0.375 -0.28125q-0.21875 -0.125 -0.515625 -0.234375q-0.28125 -0.109375 -0.59375 -0.234375q-0.359375 -0.140625 -0.734375 -0.328125q-0.359375 -0.203125 -0.671875 -0.484375q-0.296875 -0.28125 -0.5 -0.65625q-0.1875 -0.375 -0.1875 -0.859375q0 -0.546875 0.21875 -1.015625q0.21875 -0.46875 0.609375 -0.78125q0.40625 -0.328125 0.96875 -0.5q0.5625 -0.1875 1.25 -0.1875q0.90625 0 1.59375 0.3125q0.6875 0.3125 1.203125 0.6875l-1.0625 1.40625q-0.421875 -0.3125 -0.84375 -0.484375q-0.421875 -0.1875 -0.828125 -0.1875q-0.90625 0 -0.90625 0.625q0 0.203125 0.125 0.34375q0.140625 0.125 0.34375 0.234375q0.21875 0.109375 0.5 0.21875q0.28125 0.109375 0.59375 0.21875q0.375 0.140625 0.75 0.328125q0.375 0.1875 0.6875 0.453125q0.3125 0.265625 0.5 0.671875q0.203125 0.390625 0.203125 0.921875q0 0.546875 -0.21875 1.015625q-0.203125 0.46875 -0.625 0.8125q-0.40625 0.34375 -1.015625 0.546875q-0.609375 0.1875 -1.40625 0.1875q-0.78125 0 -1.609375 -0.296875q-0.828125 -0.3125 -1.421875 -0.796875l1.046875 -1.484375zm7.0567627 -3.703125l-1.09375 0l0 -1.75l1.21875 -0.09375l0.28125 -2.109375l1.953125 0l0 2.109375l1.890625 0l0 1.84375l-1.890625 0l0 3.1875q0 0.671875 0.265625 0.96875q0.28125 0.296875 0.75 0.296875q0.1875 0 0.390625 -0.046875q0.203125 -0.0625 0.359375 -0.125l0.375 1.71875q-0.328125 0.09375 -0.765625 0.1875q-0.421875 0.09375 -1.0 0.09375q-0.734375 0 -1.265625 -0.21875q-0.515625 -0.21875 -0.84375 -0.625q-0.328125 -0.40625 -0.484375 -0.96875q-0.140625 -0.5625 -0.140625 -1.25l0 -3.21875zm5.5186768 3.890625q0 -1.25 1.046875 -1.953125q1.0625 -0.703125 3.421875 -0.953125q-0.03125 -0.515625 -0.328125 -0.828125q-0.28125 -0.3125 -0.921875 -0.3125q-0.515625 0 -1.03125 0.1875q-0.5 0.1875 -1.078125 0.53125l-0.828125 -1.5625q0.765625 -0.453125 1.59375 -0.734375q0.84375 -0.296875 1.796875 -0.296875q1.53125 0 2.328125 0.875q0.8125 0.859375 0.8125 2.703125l0 4.546875l-1.921875 0l-0.171875 -0.8125l-0.046875 0q-0.515625 0.4375 -1.078125 0.71875q-0.5625 0.28125 -1.234375 0.28125q-0.546875 0 -0.984375 -0.1875q-0.421875 -0.171875 -0.734375 -0.5q-0.296875 -0.328125 -0.46875 -0.765625q-0.171875 -0.4375 -0.171875 -0.9375zm2.234375 -0.1875q0 0.390625 0.25 0.578125q0.25 0.1875 0.671875 0.1875q0.40625 0 0.6875 -0.171875q0.296875 -0.1875 0.625 -0.5l0 -1.40625q-1.265625 0.1875 -1.75 0.53125q-0.484375 0.328125 -0.484375 0.78125zm6.6065063 -5.546875l1.90625 0l0.171875 1.390625l0.0625 0q0.421875 -0.8125 1.03125 -1.1875q0.609375 -0.390625 1.21875 -0.390625q0.34375 0 0.546875 0.046875q0.21875 0.03125 0.40625 0.109375l-0.390625 2.03125q-0.21875 -0.0625 -0.421875 -0.09375q-0.1875 -0.03125 -0.4375 -0.03125q-0.453125 0 -0.9375 0.328125q-0.484375 0.3125 -0.8125 1.125l0 4.609375l-2.34375 0l0 -7.9375zm6.680481 1.84375l-1.09375 0l0 -1.75l1.21875 -0.09375l0.28125 -2.109375l1.953125 0l0 2.109375l1.890625 0l0 1.84375l-1.890625 0l0 3.1875q0 0.671875 0.265625 0.96875q0.28125 0.296875 0.75 0.296875q0.1875 0 0.390625 -0.046875q0.203125 -0.0625 0.359375 -0.125l0.375 1.71875q-0.328125 0.09375 -0.765625 0.1875q-0.421875 0.09375 -1.0 0.09375q-0.734375 0 -1.265625 -0.21875q-0.515625 -0.21875 -0.84375 -0.625q-0.328125 -0.40625 -0.484375 -0.96875q-0.140625 -0.5625 -0.140625 -1.25l0 -3.21875zm6.1593018 3.703125q0.546875 0.421875 1.03125 0.640625q0.5 0.203125 1.015625 0.203125q0.53125 0 0.765625 -0.171875q0.25 -0.1875 0.25 -0.5q0 -0.203125 -0.140625 -0.34375q-0.140625 -0.15625 -0.375 -0.28125q-0.21875 -0.125 -0.515625 -0.234375q-0.28125 -0.109375 -0.59375 -0.234375q-0.359375 -0.140625 -0.734375 -0.328125q-0.359375 -0.203125 -0.671875 -0.484375q-0.296875 -0.28125 -0.5 -0.65625q-0.1875 -0.375 -0.1875 -0.859375q0 -0.546875 0.21875 -1.015625q0.21875 -0.46875 0.609375 -0.78125q0.40625 -0.328125 0.96875 -0.5q0.5625 -0.1875 1.25 -0.1875q0.90625 0 1.59375 0.3125q0.6875 0.3125 1.203125 0.6875l-1.0625 1.40625q-0.421875 -0.3125 -0.84375 -0.484375q-0.421875 -0.1875 -0.828125 -0.1875q-0.90625 0 -0.90625 0.625q0 0.203125 0.125 0.34375q0.140625 0.125 0.34375 0.234375q0.21875 0.109375 0.5 0.21875q0.28125 0.109375 0.59375 0.21875q0.375 0.140625 0.75 0.328125q0.375 0.1875 0.6875 0.453125q0.3125 0.265625 0.5 0.671875q0.203125 0.390625 0.203125 0.921875q0 0.546875 -0.21875 1.015625q-0.203125 0.46875 -0.625 0.8125q-0.40625 0.34375 -1.015625 0.546875q-0.609375 0.1875 -1.40625 0.1875q-0.78125 0 -1.609375 -0.296875q-0.828125 -0.3125 -1.421875 -0.796875l1.046875 -1.484375zm10.384766 -3.703125l-1.09375 0l0 -1.75l1.21875 -0.09375l0.28125 -2.109375l1.953125 0l0 2.109375l1.890625 0l0 1.84375l-1.890625 0l0 3.1875q0 0.671875 0.265625 0.96875q0.28125 0.296875 0.75 0.296875q0.1875 0 0.390625 -0.046875q0.203125 -0.0625 0.359375 -0.125l0.375 1.71875q-0.328125 0.09375 -0.765625 0.1875q-0.421875 0.09375 -1.0 0.09375q-0.734375 0 -1.265625 -0.21875q-0.515625 -0.21875 -0.84375 -0.625q-0.328125 -0.40625 -0.484375 -0.96875q-0.140625 -0.5625 -0.140625 -1.25l0 -3.21875zm5.8154907 -5.125l2.34375 0l0 2.75l-0.109375 1.421875q0.453125 -0.390625 1.03125 -0.734375q0.59375 -0.34375 1.421875 -0.34375q1.296875 0 1.875 0.84375q0.578125 0.84375 0.578125 2.359375l0 4.921875l-2.34375 0l0 -4.625q0 -0.859375 -0.234375 -1.171875q-0.234375 -0.328125 -0.75 -0.328125q-0.4375 0 -0.765625 0.203125q-0.3125 0.1875 -0.703125 0.5625l0 5.359375l-2.34375 0l0 -11.21875zm8.667297 7.25q0 -0.953125 0.3125 -1.734375q0.328125 -0.78125 0.84375 -1.3125q0.515625 -0.53125 1.1875 -0.8125q0.671875 -0.296875 1.390625 -0.296875q0.859375 0 1.484375 0.296875q0.640625 0.28125 1.0625 0.796875q0.421875 0.5 0.625 1.203125q0.21875 0.6875 0.21875 1.515625q0 0.3125 -0.046875 0.578125q-0.03125 0.265625 -0.0625 0.40625l-4.75 0q0.171875 0.90625 0.71875 1.328125q0.546875 0.40625 1.34375 0.40625q0.859375 0 1.71875 -0.53125l0.78125 1.421875q-0.609375 0.421875 -1.359375 0.65625q-0.734375 0.234375 -1.453125 0.234375q-0.84375 0 -1.59375 -0.28125q-0.734375 -0.28125 -1.28125 -0.8125q-0.53125 -0.53125 -0.84375 -1.296875q-0.296875 -0.765625 -0.296875 -1.765625zm5.125 -0.8125q0 -0.6875 -0.3125 -1.125q-0.296875 -0.4375 -1.015625 -0.4375q-0.5625 0 -1.0 0.390625q-0.421875 0.375 -0.546875 1.171875l2.875 0z" fill-rule="nonzero"></path><path fill="#434343" d="m536.1012 132.20892l-0.234375 -0.96875q-0.21875 -0.78125 -0.4375 -1.65625q-0.203125 -0.890625 -0.40625 -1.7031326l-0.0625 0q-0.203125 0.8281326 -0.40625 1.7031326q-0.1875 0.875 -0.40625 1.65625l-0.265625 0.96875l2.21875 0zm0.484375 1.828125l-3.1875 0l-0.640625 2.484375l-2.390625 0l3.265625 -10.437508l2.828125 0l3.265625 10.437508l-2.5 0l-0.640625 -2.484375zm6.433655 3.109375l0 2.3125l-2.34375 0l0 -10.875l1.90625 0l0.171875 0.78125l0.0625 0q0.453125 -0.40625 1.03125 -0.6875q0.59375 -0.28125 1.21875 -0.28125q0.71875 0 1.296875 0.296875q0.578125 0.28125 0.96875 0.8125q0.40625 0.515625 0.625 1.265625q0.21875 0.734375 0.21875 1.65625q0 1.015625 -0.28125 1.8125q-0.28125 0.796875 -0.75 1.34375q-0.46875 0.546875 -1.078125 0.84375q-0.59375 0.28125 -1.234375 0.28125q-0.515625 0 -1.0 -0.203125q-0.46875 -0.21875 -0.890625 -0.625l0.078125 1.265625zm0 -2.859375q0.328125 0.28125 0.640625 0.390625q0.328125 0.109375 0.625 0.109375q0.609375 0 1.03125 -0.546875q0.4375 -0.546875 0.4375 -1.78125q0 -2.140625 -1.375 -2.140625q-0.6875 0 -1.359375 0.71875l0 3.25zm9.16803 2.859375l0 2.3125l-2.34375 0l0 -10.875l1.90625 0l0.171875 0.78125l0.0625 0q0.453125 -0.40625 1.03125 -0.6875q0.59375 -0.28125 1.21875 -0.28125q0.71875 0 1.296875 0.296875q0.578125 0.28125 0.96875 0.8125q0.40625 0.515625 0.625 1.265625q0.21875 0.734375 0.21875 1.65625q0 1.015625 -0.28125 1.8125q-0.28125 0.796875 -0.75 1.34375q-0.46875 0.546875 -1.078125 0.84375q-0.59375 0.28125 -1.234375 0.28125q-0.515625 0 -1.0 -0.203125q-0.46875 -0.21875 -0.890625 -0.625l0.078125 1.265625zm0 -2.859375q0.328125 0.28125 0.640625 0.390625q0.328125 0.109375 0.625 0.109375q0.609375 0 1.03125 -0.546875q0.4375 -0.546875 0.4375 -1.78125q0 -2.140625 -1.375 -2.140625q-0.6875 0 -1.359375 0.71875l0 3.25z" fill-rule="nonzero"></path><path fill="#000000" fill-opacity="0.0" d="m544.2126 188.5748l0 115.24411l100.8819 0" fill-rule="nonzero"></path><path stroke="#434343" stroke-width="4.0" stroke-linejoin="round" stroke-linecap="butt" d="m544.2126 188.5748l0 115.24411l76.8819 0" fill-rule="evenodd"></path><path fill="#434343" stroke="#434343" stroke-width="4.0" stroke-linecap="butt" d="m621.0945 310.42584l18.152405 -6.6069336l-18.152405 -6.6069336z" fill-rule="evenodd"></path><path fill="#c9daf8" d="m810.0963 87.814545l0 0c-1.4741211 -11.493202 3.3658447 -22.870773 12.4661255 -29.304798c9.100281 -6.434021 20.864868 -6.7961006 30.301697 -0.9325943l0 0c3.3427734 -6.682625 9.461121 -11.296516 16.504211 -12.446064c7.043152 -1.1495438 14.183899 1.3002739 19.262268 6.6084366l0 0c2.8476562 -6.058899 8.439026 -10.1297035 14.790039 -10.767883c6.351013 -0.6381798 12.562866 2.2465858 16.431213 7.6306305l0 0c5.1447144 -6.4224167 13.330017 -9.126518 21.0141 -6.94223c7.684143 2.184288 13.486877 8.864651 14.897461 17.15046l0 0c6.3031006 1.8239937 11.553467 6.460823 14.394531 12.712486c2.8410645 6.251663 2.9941406 13.504883 0.41973877 19.885666l0 0c6.206726 8.570076 7.6586304 19.989601 3.8139038 29.99701c-3.8447266 10.007408 -12.408447 17.099205 -22.495361 18.628853c-0.07110596 9.392319 -4.9264526 18.01059 -12.694519 22.532959c-7.7680664 4.5223694 -17.2359 4.2426605 -24.75415 -0.731308c-3.2023926 11.248917 -12.216064 19.525757 -23.146729 21.254639c-10.930664 1.7288666 -21.818787 -3.400177 -27.960388 -13.171188c-7.5282593 4.816162 -16.561584 6.2035522 -25.062195 3.8491974c-8.50061 -2.35437 -15.752441 -8.2521515 -20.11969 -16.362946l0 0c-7.692932 0.95506287 -15.130981 -3.2734375 -18.62262 -10.586914c-3.4915771 -7.3134766 -2.293579 -16.155075 2.9995728 -22.136726l0 0c-6.8623047 -4.284973 -10.363892 -12.787781 -8.678772 -21.07454c1.6851196 -8.286758 8.175049 -14.479668 16.085571 -15.349358z" fill-rule="nonzero"></path><path fill="#000000" fill-opacity="0.0" d="m802.5375 124.68141l0 0c3.2383423 2.022087 6.979431 2.939354 10.720886 2.6286469m4.9004517 30.095718c1.6090088 -0.19975281 3.1860962 -0.6227417 4.690613 -1.2580719m40.489014 13.771301c-1.1315918 -1.8003998 -2.0791016 -3.7242737 -2.826233 -5.738861m53.935303 -2.3449402l0 0c0.5838623 -2.0508423 0.9621582 -4.161606 1.12854 -6.2970734m36.318726 -15.503769c0.075683594 -9.999573 -5.277771 -19.155281 -13.760925 -23.534477m32.4422 -25.09034c-1.3737793 3.405037 -3.4710693 6.425606 -6.1273804 8.82486m-8.685608 -41.423904l0 0c0.23406982 1.3750343 0.34240723 2.7707329 0.32348633 4.1677513m-36.234375 -14.375565l0 0c-1.2833862 1.6020737 -2.3406982 3.3923721 -3.139038 5.3151474m-28.08252 -2.1785927l0 0c-0.68395996 1.4551506 -1.1946411 2.9949493 -1.5203247 4.583927m-34.246704 1.2538185l0 0c1.9968262 1.240715 3.8441162 2.734047 5.501404 4.447193m-48.268677 25.790363l0 0c0.20318604 1.5840607 0.52423096 3.1485977 0.96014404 4.678955" fill-rule="nonzero"></path><path stroke="#434343" stroke-width="1.0" stroke-linejoin="round" stroke-linecap="butt" d="m810.0963 87.814545l0 0c-1.4741211 -11.493202 3.3658447 -22.870773 12.4661255 -29.304798c9.100281 -6.434021 20.864868 -6.7961006 30.301697 -0.9325943l0 0c3.3427734 -6.682625 9.461121 -11.296516 16.504211 -12.446064c7.043152 -1.1495438 14.183899 1.3002739 19.262268 6.6084366l0 0c2.8476562 -6.058899 8.439026 -10.1297035 14.790039 -10.767883c6.351013 -0.6381798 12.562866 2.2465858 16.431213 7.6306305l0 0c5.1447144 -6.4224167 13.330017 -9.126518 21.0141 -6.94223c7.684143 2.184288 13.486877 8.864651 14.897461 17.15046l0 0c6.3031006 1.8239937 11.553467 6.460823 14.394531 12.712486c2.8410645 6.251663 2.9941406 13.504883 0.41973877 19.885666l0 0c6.206726 8.570076 7.6586304 19.989601 3.8139038 29.99701c-3.8447266 10.007408 -12.408447 17.099205 -22.495361 18.628853c-0.07110596 9.392319 -4.9264526 18.01059 -12.694519 22.532959c-7.7680664 4.5223694 -17.2359 4.2426605 -24.75415 -0.731308c-3.2023926 11.248917 -12.216064 19.525757 -23.146729 21.254639c-10.930664 1.7288666 -21.818787 -3.400177 -27.960388 -13.171188c-7.5282593 4.816162 -16.561584 6.2035522 -25.062195 3.8491974c-8.50061 -2.35437 -15.752441 -8.2521515 -20.11969 -16.362946l0 0c-7.692932 0.95506287 -15.130981 -3.2734375 -18.62262 -10.586914c-3.4915771 -7.3134766 -2.293579 -16.155075 2.9995728 -22.136726l0 0c-6.8623047 -4.284973 -10.363892 -12.787781 -8.678772 -21.07454c1.6851196 -8.286758 8.175049 -14.479668 16.085571 -15.349358z" fill-rule="nonzero"></path><path stroke="#434343" stroke-width="1.0" stroke-linejoin="round" stroke-linecap="butt" d="m802.5375 124.68141l0 0c3.2383423 2.022087 6.979431 2.939354 10.720886 2.6286469m4.9004517 30.095718c1.6090088 -0.19975281 3.1860962 -0.6227417 4.690613 -1.2580719m40.489014 13.771301c-1.1315918 -1.8003998 -2.0791016 -3.7242737 -2.826233 -5.738861m53.935303 -2.3449402l0 0c0.5838623 -2.0508423 0.9621582 -4.161606 1.12854 -6.2970734m36.318726 -15.503769c0.075683594 -9.999573 -5.277771 -19.155281 -13.760925 -23.534477m32.4422 -25.09034c-1.3737793 3.405037 -3.4710693 6.425606 -6.1273804 8.82486m-8.685608 -41.423904l0 0c0.23406982 1.3750343 0.34240723 2.7707329 0.32348633 4.1677513m-36.234375 -14.375565l0 0c-1.2833862 1.6020737 -2.3406982 3.3923721 -3.139038 5.3151474m-28.08252 -2.1785927l0 0c-0.68395996 1.4551506 -1.1946411 2.9949493 -1.5203247 4.583927m-34.246704 1.2538185l0 0c1.9968262 1.240715 3.8441162 2.734047 5.501404 4.447193m-48.268677 25.790363l0 0c0.20318604 1.5840607 0.52423096 3.1485977 0.96014404 4.678955" fill-rule="nonzero"></path><path fill="#434343" d="m855.8005 87.1538q0 -1.53125 0.46875 -2.734375q0.484375 -1.203125 1.28125 -2.03125q0.8125 -0.84375 1.890625 -1.28125q1.078125 -0.4375 2.265625 -0.4375q1.15625 0 2.09375 0.484375q0.953125 0.484375 1.578125 1.125l-1.546875 1.734375q-0.46875 -0.4375 -0.953125 -0.6875q-0.484375 -0.25 -1.125 -0.25q-0.65625 0 -1.21875 0.28125q-0.5625 0.265625 -0.984375 0.78125q-0.40625 0.515625 -0.640625 1.265625q-0.234375 0.734375 -0.234375 1.65625q0 1.921875 0.8125 2.984375q0.8125 1.046875 2.1875 1.046875q0.75 0 1.3125 -0.296875q0.578125 -0.3125 1.03125 -0.796875l1.546875 1.6875q-0.78125 0.90625 -1.78125 1.375q-1.0 0.453125 -2.15625 0.453125q-1.1875 0 -2.265625 -0.40625q-1.0625 -0.421875 -1.859375 -1.21875q-0.796875 -0.796875 -1.25 -1.984375q-0.453125 -1.1875 -0.453125 -2.75zm11.217285 -3.296875l2.28125 0l0.1875 1.65625l0.078125 0q0.515625 -0.96875 1.234375 -1.421875q0.71875 -0.46875 1.4375 -0.46875q0.40625 0 0.65625 0.046875q0.265625 0.046875 0.46875 0.140625l-0.453125 2.421875q-0.265625 -0.078125 -0.5 -0.109375q-0.21875 -0.046875 -0.53125 -0.046875q-0.53125 0 -1.109375 0.390625q-0.578125 0.375 -0.953125 1.34375l0 5.46875l-2.796875 0l0 -9.421875zm7.081482 6.796875q0 -1.484375 1.25 -2.3125q1.265625 -0.84375 4.046875 -1.125q-0.03125 -0.625 -0.375 -0.984375q-0.34375 -0.375 -1.09375 -0.375q-0.609375 0 -1.21875 0.234375q-0.609375 0.21875 -1.296875 0.609375l-0.984375 -1.84375q0.90625 -0.546875 1.90625 -0.890625q1.0 -0.34375 2.125 -0.34375q1.8125 0 2.765625 1.046875q0.96875 1.03125 0.96875 3.21875l0 5.390625l-2.28125 0l-0.203125 -0.96875l-0.0625 0q-0.609375 0.53125 -1.28125 0.875q-0.671875 0.328125 -1.46875 0.328125q-0.640625 0 -1.15625 -0.21875q-0.515625 -0.21875 -0.875 -0.609375q-0.359375 -0.390625 -0.5625 -0.90625q-0.203125 -0.515625 -0.203125 -1.125zm2.65625 -0.203125q0 0.453125 0.296875 0.671875q0.296875 0.21875 0.796875 0.21875q0.484375 0 0.828125 -0.203125q0.34375 -0.21875 0.71875 -0.59375l0 -1.65625q-1.5 0.203125 -2.078125 0.609375q-0.5625 0.40625 -0.5625 0.953125zm8.071777 0q0.640625 0.484375 1.234375 0.734375q0.59375 0.25 1.1875 0.25q0.640625 0 0.921875 -0.203125q0.28125 -0.21875 0.28125 -0.59375q0 -0.234375 -0.171875 -0.40625q-0.15625 -0.1875 -0.4375 -0.328125q-0.265625 -0.15625 -0.609375 -0.28125q-0.34375 -0.125 -0.703125 -0.28125q-0.4375 -0.171875 -0.875 -0.390625q-0.4375 -0.234375 -0.796875 -0.5625q-0.359375 -0.328125 -0.59375 -0.78125q-0.21875 -0.453125 -0.21875 -1.03125q0 -0.65625 0.25 -1.203125q0.265625 -0.546875 0.734375 -0.921875q0.484375 -0.390625 1.140625 -0.609375q0.671875 -0.21875 1.484375 -0.21875q1.078125 0 1.890625 0.375q0.828125 0.375 1.4375 0.828125l-1.25 1.671875q-0.515625 -0.375 -1.015625 -0.578125q-0.5 -0.21875 -0.984375 -0.21875q-1.0625 0 -1.0625 0.734375q0 0.234375 0.140625 0.40625q0.15625 0.15625 0.40625 0.296875q0.265625 0.125 0.59375 0.25q0.34375 0.109375 0.703125 0.25q0.453125 0.171875 0.890625 0.390625q0.453125 0.21875 0.8125 0.546875q0.375 0.3125 0.609375 0.78125q0.234375 0.46875 0.234375 1.109375q0 0.640625 -0.25 1.203125q-0.25 0.546875 -0.75 0.953125q-0.484375 0.40625 -1.21875 0.65625q-0.71875 0.234375 -1.65625 0.234375q-0.9375 0 -1.921875 -0.359375q-0.96875 -0.375 -1.6875 -0.953125l1.25 -1.75zm7.8428345 -10.484375l2.796875 0l0 3.265625l-0.140625 1.6875q0.53125 -0.46875 1.234375 -0.875q0.703125 -0.421875 1.671875 -0.421875q1.546875 0 2.234375 1.015625q0.703125 1.0 0.703125 2.78125l0 5.859375l-2.796875 0l0 -5.484375q0 -1.03125 -0.28125 -1.40625q-0.265625 -0.390625 -0.875 -0.390625q-0.53125 0 -0.921875 0.25q-0.375 0.234375 -0.828125 0.671875l0 6.359375l-2.796875 0l0 -13.3125z" fill-rule="nonzero"></path><path fill="#434343" d="m840.4979 105.856926l2.28125 0l0.1875 1.65625l0.078125 0q0.515625 -0.96875 1.234375 -1.421875q0.71875 -0.46875 1.4375 -0.46875q0.40625 0 0.65625 0.046875q0.265625 0.046875 0.46875 0.140625l-0.453125 2.421875q-0.265625 -0.078125 -0.5 -0.109375q-0.21875 -0.046875 -0.53125 -0.046875q-0.53125 0 -1.109375 0.390625q-0.578125 0.375 -0.953125 1.34375l0 5.46875l-2.796875 0l0 -9.421875zm6.878296 4.703125q0 -1.140625 0.375 -2.046875q0.375 -0.921875 0.984375 -1.5625q0.625 -0.640625 1.421875 -0.984375q0.8125 -0.34375 1.65625 -0.34375q1.015625 0 1.765625 0.34375q0.75 0.34375 1.25 0.953125q0.5 0.609375 0.75 1.4375q0.25 0.828125 0.25 1.796875q0 0.375 -0.046875 0.6875q-0.03125 0.3125 -0.0625 0.484375l-5.65625 0q0.203125 1.078125 0.859375 1.5625q0.65625 0.484375 1.59375 0.484375q1.015625 0 2.03125 -0.625l0.9375 1.6875q-0.71875 0.5 -1.609375 0.796875q-0.875 0.28125 -1.734375 0.28125q-1.0 0 -1.875 -0.328125q-0.875 -0.34375 -1.53125 -0.96875q-0.640625 -0.640625 -1.0 -1.546875q-0.359375 -0.921875 -0.359375 -2.109375zm6.078125 -0.96875q0 -0.8125 -0.359375 -1.328125q-0.359375 -0.515625 -1.21875 -0.515625q-0.671875 0 -1.171875 0.453125q-0.5 0.453125 -0.65625 1.390625l3.40625 0zm6.9295654 6.421875l0 2.765625l-2.796875 0l0 -12.921875l2.28125 0l0.1875 0.921875l0.078125 0q0.546875 -0.484375 1.234375 -0.8125q0.703125 -0.34375 1.4375 -0.34375q0.859375 0 1.546875 0.34375q0.6875 0.34375 1.15625 0.96875q0.484375 0.625 0.734375 1.515625q0.25 0.875 0.25 1.96875q0 1.21875 -0.328125 2.15625q-0.328125 0.9375 -0.890625 1.59375q-0.5625 0.65625 -1.28125 1.0q-0.703125 0.34375 -1.46875 0.34375q-0.609375 0 -1.1875 -0.25q-0.5625 -0.265625 -1.046875 -0.75l0.09375 1.5zm0 -3.390625q0.375 0.34375 0.75 0.484375q0.390625 0.125 0.75 0.125q0.71875 0 1.234375 -0.65625q0.515625 -0.65625 0.515625 -2.125q0 -2.546875 -1.640625 -2.546875q-0.8125 0 -1.609375 0.859375l0 3.859375zm7.3463135 -2.0625q0 -1.171875 0.375 -2.09375q0.375 -0.921875 1.015625 -1.546875q0.640625 -0.625 1.46875 -0.953125q0.84375 -0.34375 1.734375 -0.34375q0.890625 0 1.71875 0.34375q0.828125 0.328125 1.453125 0.953125q0.640625 0.625 1.015625 1.546875q0.390625 0.921875 0.390625 2.09375q0 1.1875 -0.390625 2.109375q-0.375 0.921875 -1.015625 1.546875q-0.625 0.625 -1.453125 0.96875q-0.828125 0.328125 -1.71875 0.328125q-0.890625 0 -1.734375 -0.328125q-0.828125 -0.34375 -1.46875 -0.96875q-0.640625 -0.625 -1.015625 -1.546875q-0.375 -0.921875 -0.375 -2.109375zm2.859375 0q0 1.234375 0.421875 1.96875q0.4375 0.71875 1.3125 0.71875q0.859375 0 1.296875 -0.71875q0.4375 -0.734375 0.4375 -1.96875q0 -1.234375 -0.4375 -1.953125q-0.4375 -0.71875 -1.296875 -0.71875q-0.875 0 -1.3125 0.71875q-0.421875 0.71875 -0.421875 1.953125zm8.041687 -4.703125l2.28125 0l0.1875 1.65625l0.078125 0q0.515625 -0.96875 1.234375 -1.421875q0.71875 -0.46875 1.4375 -0.46875q0.40625 0 0.65625 0.046875q0.265625 0.046875 0.46875 0.140625l-0.453125 2.421875q-0.265625 -0.078125 -0.5 -0.109375q-0.21875 -0.046875 -0.53125 -0.046875q-0.53125 0 -1.109375 0.390625q-0.578125 0.375 -0.953125 1.34375l0 5.46875l-2.796875 0l0 -9.421875zm7.800232 2.1875l-1.28125 0l0 -2.078125l1.4375 -0.109375l0.328125 -2.515625l2.3125 0l0 2.515625l2.265625 0l0 2.1875l-2.265625 0l0 3.78125q0 0.796875 0.328125 1.15625q0.34375 0.34375 0.890625 0.34375q0.234375 0 0.46875 -0.0625q0.234375 -0.0625 0.421875 -0.125l0.4375 2.03125q-0.375 0.109375 -0.890625 0.21875q-0.515625 0.125 -1.203125 0.125q-0.875 0 -1.5 -0.265625q-0.609375 -0.265625 -1.0 -0.734375q-0.390625 -0.484375 -0.578125 -1.15625q-0.171875 -0.6875 -0.171875 -1.5l0 -3.8125zm8.16095 -3.578125q-0.703125 0 -1.171875 -0.40625q-0.453125 -0.40625 -0.453125 -1.0625q0 -0.640625 0.453125 -1.03125q0.46875 -0.40625 1.171875 -0.40625q0.71875 0 1.15625 0.40625q0.453125 0.390625 0.453125 1.03125q0 0.65625 -0.453125 1.0625q-0.4375 0.40625 -1.15625 0.40625zm-1.390625 1.390625l2.796875 0l0 9.421875l-2.796875 0l0 -9.421875zm5.149109 0l2.28125 0l0.1875 1.1875l0.078125 0q0.609375 -0.5625 1.328125 -0.984375q0.71875 -0.4375 1.6875 -0.4375q1.546875 0 2.234375 1.015625q0.703125 1.0 0.703125 2.78125l0 5.859375l-2.796875 0l0 -5.484375q0 -1.03125 -0.28125 -1.40625q-0.265625 -0.390625 -0.875 -0.390625q-0.53125 0 -0.921875 0.25q-0.375 0.234375 -0.828125 0.671875l0 6.359375l-2.796875 0l0 -9.421875zm12.374512 10.59375q0 0.53125 0.5625 0.8125q0.578125 0.28125 1.53125 0.28125q0.953125 0 1.5625 -0.34375q0.609375 -0.328125 0.609375 -0.8125q0 -0.4375 -0.375 -0.59375q-0.375 -0.15625 -1.078125 -0.15625l-0.96875 0q-0.484375 0 -0.796875 -0.03125q-0.296875 -0.03125 -0.53125 -0.078125q-0.515625 0.453125 -0.515625 0.921875zm-2.296875 0.4375q0 -1.140625 1.359375 -1.890625l0 -0.078125q-0.390625 -0.25 -0.640625 -0.625q-0.234375 -0.390625 -0.234375 -0.96875q0 -0.515625 0.296875 -0.984375q0.3125 -0.46875 0.765625 -0.78125l0 -0.078125q-0.5 -0.34375 -0.890625 -0.984375q-0.390625 -0.640625 -0.390625 -1.46875q0 -0.859375 0.328125 -1.484375q0.328125 -0.640625 0.859375 -1.0625q0.546875 -0.4375 1.25 -0.640625q0.703125 -0.21875 1.46875 -0.21875q0.828125 0 1.453125 0.234375l3.4375 0l0 2.03125l-1.5 0q0.140625 0.203125 0.21875 0.53125q0.09375 0.328125 0.09375 0.703125q0 0.8125 -0.296875 1.421875q-0.28125 0.59375 -0.78125 0.984375q-0.5 0.390625 -1.171875 0.578125q-0.671875 0.1875 -1.453125 0.1875q-0.5625 0 -1.140625 -0.1875q-0.1875 0.15625 -0.265625 0.3125q-0.078125 0.140625 -0.078125 0.390625q0 0.359375 0.3125 0.53125q0.3125 0.171875 1.109375 0.171875l1.515625 0q1.75 0 2.671875 0.5625q0.921875 0.5625 0.921875 1.828125q0 0.75 -0.375 1.359375q-0.359375 0.625 -1.046875 1.0625q-0.6875 0.453125 -1.65625 0.703125q-0.96875 0.265625 -2.1875 0.265625q-0.828125 0 -1.546875 -0.15625q-0.703125 -0.140625 -1.25 -0.421875q-0.546875 -0.28125 -0.859375 -0.75q-0.296875 -0.453125 -0.296875 -1.078125zm4.171875 -6.28125q0.546875 0 0.90625 -0.390625q0.375 -0.390625 0.375 -1.1875q0 -0.734375 -0.375 -1.125q-0.359375 -0.390625 -0.90625 -0.390625q-0.5625 0 -0.9375 0.375q-0.359375 0.375 -0.359375 1.140625q0 0.796875 0.359375 1.1875q0.375 0.390625 0.9375 0.390625z" fill-rule="nonzero"></path><path fill="#434343" d="m850.8449 134.45067q0.640625 0.484375 1.234375 0.734375q0.59375 0.25 1.1875 0.25q0.640625 0 0.921875 -0.203125q0.28125 -0.21875 0.28125 -0.59375q0 -0.234375 -0.171875 -0.40625q-0.15625 -0.1875 -0.4375 -0.328125q-0.265625 -0.15625 -0.609375 -0.28125q-0.34375 -0.125 -0.703125 -0.28125q-0.4375 -0.171875 -0.875 -0.390625q-0.4375 -0.234375 -0.796875 -0.5625q-0.359375 -0.328125 -0.59375 -0.78125q-0.21875 -0.453125 -0.21875 -1.03125q0 -0.65625 0.25 -1.203125q0.265625 -0.546875 0.734375 -0.921875q0.484375 -0.390625 1.140625 -0.6093674q0.671875 -0.21875 1.484375 -0.21875q1.078125 0 1.890625 0.375q0.828125 0.37499237 1.4375 0.8281174l-1.25 1.671875q-0.515625 -0.375 -1.015625 -0.578125q-0.5 -0.21875 -0.984375 -0.21875q-1.0625 0 -1.0625 0.734375q0 0.234375 0.140625 0.40625q0.15625 0.15625 0.40625 0.296875q0.265625 0.125 0.59375 0.25q0.34375 0.109375 0.703125 0.25q0.453125 0.171875 0.890625 0.390625q0.453125 0.21875 0.8125 0.546875q0.375 0.3125 0.609375 0.78125q0.234375 0.46875 0.234375 1.109375q0 0.640625 -0.25 1.203125q-0.25 0.546875 -0.75 0.953125q-0.484375 0.40625 -1.21875 0.65625q-0.71875 0.234375 -1.65625 0.234375q-0.9375 0 -1.921875 -0.359375q-0.96875 -0.375 -1.6875 -0.953125l1.25 -1.75zm7.2959595 -1.890625q0 -1.140625 0.375 -2.046875q0.375 -0.921875 0.984375 -1.5625q0.625 -0.640625 1.421875 -0.9843674q0.8125 -0.34375 1.65625 -0.34375q1.015625 0 1.765625 0.34375q0.75 0.34374237 1.25 0.9531174q0.5 0.609375 0.75 1.4375q0.25 0.828125 0.25 1.796875q0 0.375 -0.046875 0.6875q-0.03125 0.3125 -0.0625 0.484375l-5.65625 0q0.203125 1.078125 0.859375 1.5625q0.65625 0.484375 1.59375 0.484375q1.015625 0 2.03125 -0.625l0.9375 1.6875q-0.71875 0.5 -1.609375 0.796875q-0.875 0.28125 -1.734375 0.28125q-1.0 0 -1.875 -0.328125q-0.875 -0.34375 -1.53125 -0.96875q-0.640625 -0.640625 -1.0 -1.546875q-0.359375 -0.921875 -0.359375 -2.109375zm6.078125 -0.96875q0 -0.8125 -0.359375 -1.328125q-0.359375 -0.515625 -1.21875 -0.515625q-0.671875 0 -1.171875 0.453125q-0.5 0.453125 -0.65625 1.390625l3.40625 0zm4.1326904 -3.7343674l2.28125 0l0.1875 1.6562424l0.078125 0q0.515625 -0.96875 1.234375 -1.421875q0.71875 -0.46874237 1.4375 -0.46874237q0.40625 0 0.65625 0.046875q0.265625 0.046875 0.46875 0.140625l-0.453125 2.4218674q-0.265625 -0.078125 -0.5 -0.109375q-0.21875 -0.046875 -0.53125 -0.046875q-0.53125 0 -1.109375 0.390625q-0.578125 0.375 -0.953125 1.34375l0 5.46875l-2.796875 0l0 -9.421867zm6.425232 0l2.8125 0l1.203125 4.4374924q0.203125 0.703125 0.375 1.4375q0.1875 0.734375 0.375 1.46875l0.078125 0q0.171875 -0.734375 0.34375 -1.46875q0.1875 -0.734375 0.375 -1.4375l1.234375 -4.4374924l2.671875 0l-3.078125 9.421867l-3.21875 0l-3.171875 -9.421867zm12.147827 -1.390625q-0.703125 0 -1.171875 -0.40625q-0.453125 -0.40625 -0.453125 -1.0625q0 -0.640625 0.453125 -1.03125q0.46875 -0.40625 1.171875 -0.40625q0.71875 0 1.15625 0.40625q0.453125 0.390625 0.453125 1.03125q0 0.65625 -0.453125 1.0625q-0.4375 0.40625 -1.15625 0.40625zm-1.390625 1.390625l2.796875 0l0 9.421867l-2.796875 0l0 -9.421867zm4.602234 4.7031174q0 -1.171875 0.390625 -2.09375q0.40625 -0.921875 1.078125 -1.546875q0.671875 -0.625 1.5625 -0.9531174q0.890625 -0.34375 1.875 -0.34375q0.859375 0 1.5625 0.296875q0.703125 0.29686737 1.1875 0.7968674l-1.28125 1.71875q-0.65625 -0.546875 -1.3125 -0.546875q-1.015625 0 -1.609375 0.71875q-0.59375 0.71875 -0.59375 1.953125q0 1.234375 0.59375 1.96875q0.609375 0.71875 1.515625 0.71875q0.515625 0 0.9375 -0.203125q0.421875 -0.21875 0.765625 -0.484375l1.109375 1.765625q-0.671875 0.609375 -1.515625 0.90625q-0.828125 0.28125 -1.609375 0.28125q-1.0 0 -1.84375 -0.328125q-0.84375 -0.34375 -1.46875 -0.96875q-0.625 -0.625 -0.984375 -1.546875q-0.359375 -0.921875 -0.359375 -2.109375zm8.712463 0q0 -1.140625 0.375 -2.046875q0.375 -0.921875 0.984375 -1.5625q0.625 -0.640625 1.421875 -0.9843674q0.8125 -0.34375 1.65625 -0.34375q1.015625 0 1.765625 0.34375q0.75 0.34374237 1.25 0.9531174q0.5 0.609375 0.75 1.4375q0.25 0.828125 0.25 1.796875q0 0.375 -0.046875 0.6875q-0.03125 0.3125 -0.0625 0.484375l-5.65625 0q0.203125 1.078125 0.859375 1.5625q0.65625 0.484375 1.59375 0.484375q1.015625 0 2.03125 -0.625l0.9375 1.6875q-0.71875 0.5 -1.609375 0.796875q-0.875 0.28125 -1.734375 0.28125q-1.0 0 -1.875 -0.328125q-0.875 -0.34375 -1.53125 -0.96875q-0.640625 -0.640625 -1.0 -1.546875q-0.359375 -0.921875 -0.359375 -2.109375zm6.078125 -0.96875q0 -0.8125 -0.359375 -1.328125q-0.359375 -0.515625 -1.21875 -0.515625q-0.671875 0 -1.171875 0.453125q-0.5 0.453125 -0.65625 1.390625l3.40625 0z" fill-rule="nonzero"></path><path fill="#000000" fill-opacity="0.0" d="m859.45667 303.8084l25.543335 0l0 -121.07088" fill-rule="nonzero"></path><path stroke="#434343" stroke-width="2.0" stroke-linejoin="round" stroke-linecap="butt" stroke-dasharray="2.0,6.0" d="m859.45667 303.8084l25.543335 0l0 -109.07088" fill-rule="evenodd"></path><path fill="#434343" stroke="#434343" stroke-width="2.0" stroke-linecap="butt" d="m888.30347 194.73753l-3.3034668 -9.076202l-3.3034668 9.076202z" fill-rule="evenodd"></path><path fill="#000000" fill-opacity="0.0" d="m201.71916 296.1026l96.28346 0" fill-rule="nonzero"></path><path stroke="#434343" stroke-width="4.0" stroke-linejoin="round" stroke-linecap="butt" d="m201.71916 296.1026l72.28346 0" fill-rule="evenodd"></path><path fill="#434343" stroke="#434343" stroke-width="4.0" stroke-linecap="butt" d="m274.00262 302.7095l18.152405 -6.606903l-18.152405 -6.6069336z" fill-rule="evenodd"></path><path fill="#000000" fill-opacity="0.0" d="m122.25722 211.59973l0 -194.39369l42.803146 0l0 194.39369z" fill-rule="nonzero"></path><path fill="#434343" d="m138.18817 147.94258l0 -7.75l2.359375 0l0 4.96875l2.484375 0l0 -4.21875l2.34375 0l0 4.21875l2.84375 0l0 -5.15625l2.359375 0l0 7.9375l-12.390625 0zm7.484375 -11.911133l-4.515625 2.71875l0 -3.0l1.515625 -0.84375q0.40625 -0.1875 0.8125 -0.375q0.40625 -0.203125 0.8125 -0.421875l0 -0.078125q-0.40625 -0.140625 -0.8125 -0.3125q-0.40625 -0.171875 -0.8125 -0.328125l-1.515625 -0.640625l0 -2.890625l4.84375 2.734375l4.578125 -2.90625l0 3.0l-1.5625 0.90625q-0.390625 0.234375 -0.8125 0.453125q-0.421875 0.21875 -0.8125 0.453125l0 0.078125q0.390625 0.15625 0.8125 0.359375q0.40625 0.1875 0.8125 0.359375l1.5625 0.734375l0 2.890625l-4.90625 -2.890625zm-2.328125 -8.042427l0 1.2812424l-2.078125 0l-0.109375 -1.4374924l-2.515625 -0.328125l0 -2.3125l2.515625 0l0 -2.265625l2.1875 0l0 2.265625l3.78125 0q0.796875 0 1.15625 -0.328125q0.34375 -0.34375 0.34375 -0.890625q0 -0.234375 -0.0625 -0.46875q-0.0625 -0.234375 -0.125 -0.421875l2.03125 -0.4375q0.109375 0.375 0.21875 0.890625q0.125 0.515625 0.125 1.203125q0 0.875 -0.265625 1.5q-0.265625 0.609375 -0.734375 1.0q-0.484375 0.390625 -1.15625 0.578125q-0.6875 0.171875 -1.5 0.171875l-3.8125 0zm2.515625 -6.223465q-1.140625 0 -2.046875 -0.375q-0.921875 -0.375 -1.5625 -0.984375q-0.640625 -0.625 -0.984375 -1.421875q-0.34375 -0.8125 -0.34375 -1.65625q0 -1.015625 0.34375 -1.765625q0.34375 -0.75 0.953125 -1.25q0.609375 -0.5 1.4375 -0.75q0.828125 -0.25 1.796875 -0.25q0.375 0 0.6875 0.046875q0.3125 0.03125 0.484375 0.0625l0 5.65625q1.078125 -0.203125 1.5625 -0.859375q0.484375 -0.65625 0.484375 -1.59375q0 -1.015625 -0.625 -2.03125l1.6875 -0.9375q0.5 0.71875 0.796875 1.609375q0.28125 0.875 0.28125 1.734375q0 1.0 -0.328125 1.875q-0.34375 0.875 -0.96875 1.53125q-0.640625 0.640625 -1.546875 1.0q-0.921875 0.359375 -2.109375 0.359375zm-0.96875 -6.078125q-0.8125 0 -1.328125 0.359375q-0.515625 0.359375 -0.515625 1.21875q0 0.671875 0.453125 1.171875q0.453125 0.5 1.390625 0.65625l0 -3.40625zm-3.734375 -4.1326904l0 -2.28125l1.65625 -0.1875l0 -0.078125q-0.96875 -0.515625 -1.421875 -1.234375q-0.46875 -0.71875 -0.46875 -1.4375q0 -0.40625 0.046875 -0.65625q0.046875 -0.265625 0.140625 -0.46875l2.421875 0.453125q-0.078125 0.265625 -0.109375 0.5q-0.046875 0.21875 -0.046875 0.53125q0 0.53125 0.390625 1.109375q0.375 0.578125 1.34375 0.953125l5.46875 0l0 2.796875l-9.421875 0zm0 -7.425186l0 -2.28125l1.1875 -0.1875l0 -0.078125q-0.5625 -0.609375 -0.984375 -1.328125q-0.4375 -0.71875 -0.4375 -1.6875q0 -1.546875 1.015625 -2.234375q1.0 -0.703125 2.78125 -0.703125l5.859375 0l0 2.796875l-5.484375 0q-1.03125 0 -1.40625 0.28125q-0.390625 0.265625 -0.390625 0.875q0 0.53125 0.25 0.921875q0.234375 0.375 0.671875 0.828125l6.359375 0l0 2.796875l-9.421875 0zm6.796875 -10.327621q-1.484375 0 -2.3125 -1.25q-0.84375 -1.265625 -1.125 -4.046875q-0.625 0.03125 -0.984375 0.375q-0.375 0.34375 -0.375 1.09375q0 0.609375 0.234375 1.21875q0.21875 0.609375 0.609375 1.296875l-1.84375 0.984375q-0.546875 -0.90625 -0.890625 -1.90625q-0.34375 -1.0 -0.34375 -2.125q0 -1.8125 1.046875 -2.765625q1.03125 -0.96875 3.21875 -0.96875l5.390625 0l0 2.28125l-0.96875 0.203125l0 0.0625q0.53125 0.609375 0.875 1.28125q0.328125 0.671875 0.328125 1.46875q0 0.640625 -0.21875 1.15625q-0.21875 0.515625 -0.609375 0.875q-0.390625 0.359375 -0.90625 0.5625q-0.515625 0.203125 -1.125 0.203125zm-0.203125 -2.65625q0.453125 0 0.671875 -0.296875q0.21875 -0.296875 0.21875 -0.796875q0 -0.484375 -0.203125 -0.828125q-0.21875 -0.34375 -0.59375 -0.71875l-1.65625 0q0.203125 1.5 0.609375 2.078125q0.40625 0.5625 0.953125 0.5625zm-10.484375 -7.649933l0 -2.796875l10.5 0q0.4375 0 0.609375 -0.15625q0.171875 -0.15625 0.171875 -0.328125q0 -0.09375 0 -0.15625q0 -0.078125 -0.046875 -0.1875l2.078125 -0.34375q0.09375 0.21875 0.15625 0.578125q0.078125 0.34375 0.078125 0.828125q0 0.71875 -0.234375 1.21875q-0.234375 0.484375 -0.640625 0.78125q-0.40625 0.296875 -0.984375 0.4375q-0.578125 0.125 -1.296875 0.125l-10.390625 0z" fill-rule="nonzero"></path></g></svg>

