<?xml version="1.0" standalone="yes"?>

<svg version="1.1" viewBox="0.0 0.0 829.5301837270341 587.0682414698163" fill="none" stroke="none" stroke-linecap="square" stroke-miterlimit="10" xmlns="http://www.w3.org/2000/svg" xmlns:xlink="http://www.w3.org/1999/xlink"><clipPath id="p.0"><path d="m0 0l829.5302 0l0 587.06824l-829.5302 0l0 -587.06824z" clip-rule="nonzero"></path></clipPath><g clip-path="url(#p.0)"><path fill="#000000" fill-opacity="0.0" d="m0 0l829.5302 0l0 587.06824l-829.5302 0z" fill-rule="nonzero"></path><path fill="#cfe2f3" d="m103.95326 17.111954l642.9664 0l0 184.27464l-642.9664 0z" fill-rule="nonzero"></path><path fill="#000000" fill-opacity="0.0" d="m112.685936 201.79811l0 -184.6962l46.698128 0l0 184.6962z" fill-rule="nonzero"></path><path fill="#434343" d="m126.89562 143.68483l0 -4.984375l9.718758 -2.5q1.734375 -0.484375 3.359375 -0.84375q1.609375 -0.375 3.328125 -0.84375l0 -0.140625q-1.71875 -0.4375 -3.328125 -0.8125q-1.625 -0.390625 -3.359375 -0.84375l-9.718758 -2.46875l0 -4.796875l20.859383 6.265625l0 5.671875l-20.859383 6.296875zm2.6562576 -22.432663q0 1.1875 -0.6875 1.953125q-0.6875 0.765625 -1.7812576 0.765625q-1.09375 0 -1.765625 -0.765625q-0.671875 -0.765625 -0.671875 -1.953125q0 -1.203125 0.671875 -1.953125q0.671875 -0.765625 1.765625 -0.765625q1.0937576 0 1.7812576 0.765625q0.6875 0.75 0.6875 1.953125zm2.328125 2.34375l0 -4.703125l15.875 0l0 4.703125l-15.875 0zm7.9375 -7.910141q-1.921875 0 -3.46875 -0.640625q-1.546875 -0.640625 -2.625 -1.671875q-1.078125 -1.046875 -1.640625 -2.390625q-0.578125 -1.34375 -0.578125 -2.78125q0 -1.703125 0.578125 -2.953125q0.5625 -1.265625 1.59375 -2.109375q1.015625 -0.859375 2.421875 -1.265625q1.390625 -0.421875 3.015625 -0.421875q0.640625 0 1.171875 0.0625q0.53125 0.0625 0.8125 0.125l0 9.5q1.828125 -0.3125 2.640625 -1.40625q0.8125 -1.109375 0.8125 -2.71875q0 -1.6875 -1.046875 -3.421875l2.84375 -1.5625q0.828125 1.21875 1.3125 2.703125q0.484375 1.484375 0.484375 2.921875q0 1.703125 -0.5625 3.171875q-0.5625 1.46875 -1.625 2.5625q-1.078125 1.078125 -2.609375 1.6875q-1.546875 0.609375 -3.53125 0.609375zm-1.625 -10.234375q-1.375 0 -2.234375 0.609375q-0.875 0.609375 -0.875 2.046875q0 1.125 0.75 1.96875q0.75 0.84375 2.359375 1.109375l0 -5.734375zm-6.3125 -5.9510345l0 -4.671875l7.359375 -1.53125q1.1875 -0.203125 2.34375 -0.359375q1.140625 -0.15625 2.359375 -0.359375l0 -0.125q-1.21875 -0.21875 -2.390625 -0.421875q-1.1875 -0.21875 -2.3125 -0.5l-7.359375 -1.765625l0 -4.0625l7.359375 -1.796875q1.1875 -0.28125 2.34375 -0.5q1.140625 -0.234375 2.359375 -0.484375l0 -0.125q-1.21875 -0.234375 -2.359375 -0.375q-1.15625 -0.140625 -2.34375 -0.359375l-7.359375 -1.515625l0 -4.34375l15.875 3.8125l0 5.5l-6.34375 1.4375q-1.109375 0.25 -2.234375 0.453125q-1.125 0.1875 -2.390625 0.40625l0 0.140625q1.265625 0.21875 2.390625 0.390625q1.125 0.171875 2.234375 0.40625l6.34375 1.40625l0 5.375l-15.875 3.96875z" fill-rule="nonzero"></path><path fill="#d0e0e3" d="m103.95326 201.40166l642.9664 0l0 184.27464l-642.9664 0z" fill-rule="nonzero"></path><path fill="#000000" fill-opacity="0.0" d="m112.685936 384.7429l0 -182.40782l46.698128 0l0 182.40782z" fill-rule="nonzero"></path><path fill="#434343" d="m126.89562 370.8779l0 -4.984375l9.718758 -2.5q1.734375 -0.484375 3.359375 -0.84375q1.609375 -0.375 3.328125 -0.84375l0 -0.140625q-1.71875 -0.4375 -3.328125 -0.8125q-1.625 -0.390625 -3.359375 -0.84375l-9.718758 -2.46875l0 -4.796875l20.859383 6.265625l0 5.671875l-20.859383 6.296875zm2.6562576 -22.432678q0 1.1875 -0.6875 1.953125q-0.6875 0.765625 -1.7812576 0.765625q-1.09375 0 -1.765625 -0.765625q-0.671875 -0.765625 -0.671875 -1.953125q0 -1.203125 0.671875 -1.953125q0.671875 -0.765625 1.765625 -0.765625q1.0937576 0 1.7812576 0.765625q0.6875 0.75 0.6875 1.953125zm2.328125 2.34375l0 -4.703125l15.875 0l0 4.703125l-15.875 0zm7.9375 -7.9101257q-1.921875 0 -3.46875 -0.640625q-1.546875 -0.640625 -2.625 -1.671875q-1.078125 -1.046875 -1.640625 -2.390625q-0.578125 -1.34375 -0.578125 -2.78125q0 -1.703125 0.578125 -2.953125q0.5625 -1.265625 1.59375 -2.109375q1.015625 -0.859375 2.421875 -1.265625q1.390625 -0.421875 3.015625 -0.421875q0.640625 0 1.171875 0.0625q0.53125 0.0625 0.8125 0.125l0 9.5q1.828125 -0.3125 2.640625 -1.40625q0.8125 -1.109375 0.8125 -2.71875q0 -1.6875 -1.046875 -3.421875l2.84375 -1.5625q0.828125 1.21875 1.3125 2.703125q0.484375 1.484375 0.484375 2.921875q0 1.703125 -0.5625 3.171875q-0.5625 1.46875 -1.625 2.5625q-1.078125 1.078125 -2.609375 1.6875q-1.546875 0.609375 -3.53125 0.609375zm-1.625 -10.234375q-1.375 0 -2.234375 0.609375q-0.875 0.609375 -0.875 2.046875q0 1.125 0.75 1.96875q0.75 0.84375 2.359375 1.109375l0 -5.734375zm-6.3125 -5.95105l0 -4.671875l7.359375 -1.53125q1.1875 -0.203125 2.34375 -0.359375q1.140625 -0.15625 2.359375 -0.359375l0 -0.125q-1.21875 -0.21875 -2.390625 -0.421875q-1.1875 -0.21875 -2.3125 -0.5l-7.359375 -1.765625l0 -4.0625l7.359375 -1.796875q1.1875 -0.28125 2.34375 -0.5q1.140625 -0.234375 2.359375 -0.484375l0 -0.125q-1.21875 -0.234375 -2.359375 -0.375q-1.15625 -0.140625 -2.34375 -0.359375l-7.359375 -1.515625l0 -4.34375l15.875 3.8125l0 5.5l-6.34375 1.4375q-1.109375 0.25 -2.234375 0.453125q-1.125 0.1875 -2.390625 0.40625l0 0.140625q1.265625 0.21875 2.390625 0.390625q1.125 0.171875 2.234375 0.40625l6.34375 1.40625l0 5.375l-15.875 3.96875zm-4.9843826 -26.535156l0 -4.984375l9.375008 -3.484375l3.640625 -1.25l0 -0.125l-3.640625 -1.25l-9.375008 -3.390625l0 -4.96875l20.859383 0l0 4.390625l-7.640625 0q-0.78125 0 -1.703125 -0.0625q-0.921875 -0.0625 -1.859375 -0.15625q-0.953125 -0.109375 -1.859375 -0.203125q-0.921875 -0.09375 -1.6875 -0.1875l0 0.125l4.828125 1.734375l8.09375 3.1875l0 1.890625l-8.09375 3.203125l-4.828125 1.65625l0 0.140625q0.765625 -0.09375 1.6875 -0.1875q0.90625 -0.109375 1.859375 -0.1875q0.9375 -0.078125 1.859375 -0.140625q0.921875 -0.0625 1.703125 -0.0625l7.640625 0l0 4.3125l-20.859383 0zm12.921883 -23.071564q-1.984375 0 -3.53125 -0.640625q-1.5625 -0.640625 -2.609375 -1.703125q-1.0625 -1.078125 -1.609375 -2.484375q-0.5625 -1.40625 -0.5625 -2.90625q0 -1.515625 0.5625 -2.90625q0.546875 -1.390625 1.609375 -2.453125q1.046875 -1.078125 2.609375 -1.71875q1.546875 -0.640625 3.53125 -0.640625q1.984375 0 3.546875 0.640625q1.546875 0.640625 2.609375 1.71875q1.046875 1.0625 1.609375 2.453125q0.5625 1.390625 0.5625 2.90625q0 1.5 -0.5625 2.90625q-0.5625 1.40625 -1.609375 2.484375q-1.0625 1.0625 -2.609375 1.703125q-1.5625 0.640625 -3.546875 0.640625zm0 -4.828125q2.078125 0 3.296875 -0.71875q1.21875 -0.71875 1.21875 -2.1875q0 -1.453125 -1.21875 -2.1875q-1.21875 -0.734375 -3.296875 -0.734375q-2.078125 0 -3.296875 0.734375q-1.21875 0.734375 -1.21875 2.1875q0 1.46875 1.21875 2.1875q1.21875 0.71875 3.296875 0.71875zm0 -13.025665q-1.953125 0 -3.484375 -0.5625q-1.53125 -0.5625 -2.609375 -1.46875q-1.078125 -0.90625 -1.640625 -2.1093597q-0.578125 -1.203125 -0.578125 -2.453125q0 -1.34375 0.453125 -2.203125q0.4375 -0.859375 1.203125 -1.703125l-2.4375 0.203125l-5.4062576 0l0 -4.703125l22.437508 0l0 3.828125l-1.5625 0.328125l0 0.125q0.828125 0.828125 1.390625 1.953125q0.5625 1.125 0.5625 2.265625q0 1.484375 -0.578125 2.6875q-0.578125 1.1874847 -1.640625 2.0468597q-1.078125 0.84375 -2.609375 1.3125q-1.546875 0.453125 -3.5 0.453125zm-0.0625 -4.8281097q2.375 0 3.46875 -0.75q1.078125 -0.75 1.078125 -2.125q0 -0.78125 -0.3125 -1.390625q-0.328125 -0.625 -1.125 -1.203125l-6.5 0q-0.578125 0.640625 -0.796875 1.3125q-0.234375 0.671875 -0.234375 1.3125q0 1.109375 1.078125 1.984375q1.078125 0.859375 3.34375 0.859375zm0.0625 -13.414169q-1.921875 0 -3.46875 -0.640625q-1.546875 -0.640625 -2.625 -1.671875q-1.078125 -1.046875 -1.640625 -2.390625q-0.578125 -1.34375 -0.578125 -2.78125q0 -1.703125 0.578125 -2.953125q0.5625 -1.265625 1.59375 -2.109375q1.015625 -0.859375 2.421875 -1.265625q1.390625 -0.421875 3.015625 -0.421875q0.640625 0 1.171875 0.0625q0.53125 0.0625 0.8125 0.125l0 9.5q1.828125 -0.3125 2.640625 -1.40625q0.8125 -1.109375 0.8125 -2.71875q0 -1.6875 -1.046875 -3.421875l2.84375 -1.5625q0.828125 1.21875 1.3125 2.703125q0.484375 1.484375 0.484375 2.921875q0 1.703125 -0.5625 3.171875q-0.5625 1.46875 -1.625 2.5625q-1.078125 1.078125 -2.609375 1.6875q-1.546875 0.609375 -3.53125 0.609375zm-1.625 -10.234375q-1.375 0 -2.234375 0.609375q-0.875 0.609375 -0.875 2.046875q0 1.125 0.75 1.96875q0.75 0.84375 2.359375 1.109375l0 -5.734375zm-12.875008 -7.2635345l0 -4.703125l17.703133 0q0.734375 0 1.03125 -0.265625q0.28125 -0.28125 0.28125 -0.5625q0 -0.171875 0 -0.28125q0 -0.109375 -0.0625 -0.296875l3.484375 -0.578125q0.15625 0.375 0.265625 0.96875q0.125 0.59375 0.125 1.390625q0 1.21875 -0.390625 2.0625q-0.390625 0.828125 -1.078125 1.328125q-0.6875 0.484375 -1.65625 0.71875q-0.984375 0.21875 -2.1875 0.21875l-17.515633 0z" fill-rule="nonzero"></path><path fill="#fff2cc" d="m103.95326 385.69135l642.9664 0l0 184.27466l-642.9664 0z" fill-rule="nonzero"></path><path fill="#fff2cc" d="m112.685936 569.0326l0 -182.4078l46.698128 0l0 182.4078z" fill-rule="nonzero"></path><path fill="#434343" d="m126.89562 518.46405l0 -4.984375l9.375008 -3.4844055l3.640625 -1.25l0 -0.125l-3.640625 -1.25l-9.375008 -3.390625l0 -4.96875l20.859383 0l0 4.390625l-7.640625 0q-0.78125 0 -1.703125 -0.0625q-0.921875 -0.0625 -1.859375 -0.15625q-0.953125 -0.109375 -1.859375 -0.203125q-0.921875 -0.09375 -1.6875 -0.1875l0 0.125l4.828125 1.734375l8.09375 3.1875l0 1.890625l-8.09375 3.2031555l-4.828125 1.65625l0 0.140625q0.765625 -0.09375 1.6875 -0.1875q0.90625 -0.109375 1.859375 -0.1875q0.9375 -0.078125 1.859375 -0.140625q0.921875 -0.0625 1.703125 -0.0625l7.640625 0l0 4.3125l-20.859383 0zm12.921883 -23.071564q-1.984375 0 -3.53125 -0.640625q-1.5625 -0.640625 -2.609375 -1.703125q-1.0625 -1.078125 -1.609375 -2.484375q-0.5625 -1.40625 -0.5625 -2.90625q0 -1.515625 0.5625 -2.90625q0.546875 -1.390625 1.609375 -2.453125q1.046875 -1.078125 2.609375 -1.71875q1.546875 -0.640625 3.53125 -0.640625q1.984375 0 3.546875 0.640625q1.546875 0.640625 2.609375 1.71875q1.046875 1.0625 1.609375 2.453125q0.5625 1.390625 0.5625 2.90625q0 1.5 -0.5625 2.90625q-0.5625 1.40625 -1.609375 2.484375q-1.0625 1.0625 -2.609375 1.703125q-1.5625 0.640625 -3.546875 0.640625zm0 -4.828125q2.078125 0 3.296875 -0.71875q1.21875 -0.71875 1.21875 -2.1875q0 -1.453125 -1.21875 -2.1875q-1.21875 -0.734375 -3.296875 -0.734375q-2.078125 0 -3.296875 0.734375q-1.21875 0.734375 -1.21875 2.1875q0 1.46875 1.21875 2.1875q1.21875 0.71875 3.296875 0.71875zm0 -13.025665q-1.953125 0 -3.484375 -0.5625q-1.53125 -0.5625 -2.609375 -1.46875q-1.078125 -0.90625 -1.640625 -2.109375q-0.578125 -1.203125 -0.578125 -2.453125q0 -1.34375 0.453125 -2.203125q0.4375 -0.859375 1.203125 -1.703125l-2.4375 0.203125l-5.4062576 0l0 -4.703125l22.437508 0l0 3.828125l-1.5625 0.328125l0 0.125q0.828125 0.828125 1.390625 1.953125q0.5625 1.125 0.5625 2.265625q0 1.484375 -0.578125 2.6875q-0.578125 1.1875 -1.640625 2.046875q-1.078125 0.84375 -2.609375 1.3125q-1.546875 0.453125 -3.5 0.453125zm-0.0625 -4.828125q2.375 0 3.46875 -0.75q1.078125 -0.75 1.078125 -2.125q0 -0.78125 -0.3125 -1.390625q-0.328125 -0.625 -1.125 -1.203125l-6.5 0q-0.578125 0.640625 -0.796875 1.3125q-0.234375 0.671875 -0.234375 1.3125q0 1.109375 1.078125 1.984375q1.078125 0.859375 3.34375 0.859375zm0.0625 -13.414185q-1.921875 0 -3.46875 -0.640625q-1.546875 -0.640625 -2.625 -1.671875q-1.078125 -1.046875 -1.640625 -2.390625q-0.578125 -1.34375 -0.578125 -2.78125q0 -1.703125 0.578125 -2.953125q0.5625 -1.265625 1.59375 -2.109375q1.015625 -0.859375 2.421875 -1.265625q1.390625 -0.421875 3.015625 -0.421875q0.640625 0 1.171875 0.0625q0.53125 0.0625 0.8125 0.125l0 9.5q1.828125 -0.3125 2.640625 -1.40625q0.8125 -1.109375 0.8125 -2.71875q0 -1.6875 -1.046875 -3.421875l2.84375 -1.5625q0.828125 1.21875 1.3125 2.703125q0.484375 1.484375 0.484375 2.921875q0 1.703125 -0.5625 3.171875q-0.5625 1.46875 -1.625 2.5625q-1.078125 1.078125 -2.609375 1.6875q-1.546875 0.609375 -3.53125 0.609375zm-1.625 -10.234375q-1.375 0 -2.234375 0.609375q-0.875 0.609375 -0.875 2.046875q0 1.125 0.75 1.96875q0.75 0.84375 2.359375 1.109375l0 -5.734375zm-12.875008 -7.2635193l0 -4.703125l17.703133 0q0.734375 0 1.03125 -0.265625q0.28125 -0.28125 0.28125 -0.5625q0 -0.171875 0 -0.28125q0 -0.109375 -0.0625 -0.296875l3.484375 -0.578125q0.15625 0.375 0.265625 0.96875q0.125 0.59375 0.125 1.390625q0 1.21875 -0.390625 2.0625q-0.390625 0.828125 -1.078125 1.328125q-0.6875 0.484375 -1.65625 0.71875q-0.984375 0.21875 -2.1875 0.21875l-17.515633 0z" fill-rule="nonzero"></path><path fill="#d9ead3" d="m291.1726 293.55063l0 0c0 -18.690704 63.44867 -33.84253 141.71655 -33.84253l0 0c78.26788 0 141.71655 15.151825 141.71655 33.84253l0 0c0 18.690704 -63.44867 33.8425 -141.71655 33.8425l0 0c-78.26788 0 -141.71655 -15.151794 -141.71655 -33.8425z" fill-rule="nonzero"></path><path stroke="#434343" stroke-width="2.0" stroke-linejoin="round" stroke-linecap="butt" d="m291.1726 293.55063l0 0c0 -18.690704 63.44867 -33.84253 141.71655 -33.84253l0 0c78.26788 0 141.71655 15.151825 141.71655 33.84253l0 0c0 18.690704 -63.44867 33.8425 -141.71655 33.8425l0 0c-78.26788 0 -141.71655 -15.151794 -141.71655 -33.8425z" fill-rule="nonzero"></path><path fill="#434343" d="m381.99805 286.3406l1.890625 0l0.65625 8.734375q0.109375 1.296875 0.203125 2.59375q0.109375 1.296875 0.171875 2.59375l0.09375 0q0.609375 -1.265625 1.234375 -2.578125q0.640625 -1.328125 1.265625 -2.609375l4.34375 -8.734375l2.015625 0l-8.234375 15.75l-2.21875 0l-1.421875 -15.75zm13.013336 4.09375l1.84375 0l-2.359375 11.65625l-1.8125 0l2.328125 -11.65625zm1.546875 -2.4375q-0.46875 0 -0.828125 -0.265625q-0.34375 -0.28125 -0.34375 -0.8125q0 -0.59375 0.421875 -0.984375q0.421875 -0.40625 0.96875 -0.40625q0.484375 0 0.828125 0.296875q0.359375 0.28125 0.359375 0.8125q0 0.59375 -0.421875 0.984375q-0.421875 0.375 -0.984375 0.375zm1.9536133 9.515625q0 -1.65625 0.546875 -3.015625q0.546875 -1.359375 1.421875 -2.328125q0.890625 -0.96875 2.0 -1.5q1.109375 -0.53125 2.265625 -0.53125q0.984375 0 1.671875 0.328125q0.6875 0.328125 1.109375 0.890625q0.4375 0.5625 0.625 1.34375q0.203125 0.78125 0.203125 1.65625q0 0.703125 -0.15625 1.328125q-0.140625 0.625 -0.265625 0.953125l-7.578125 0q-0.171875 1.140625 0.015625 1.9375q0.203125 0.796875 0.640625 1.328125q0.453125 0.53125 1.09375 0.78125q0.65625 0.234375 1.421875 0.234375q0.6875 0 1.375 -0.296875q0.6875 -0.3125 1.234375 -0.71875l0.71875 1.234375q-0.6875 0.5 -1.65625 0.875q-0.953125 0.359375 -2.109375 0.359375q-2.078125 0 -3.328125 -1.25q-1.25 -1.265625 -1.25 -3.609375zm8.15625 -2.125q0.046875 -0.28125 0.078125 -0.5625q0.046875 -0.296875 0.046875 -0.625q0 -0.515625 -0.125 -0.984375q-0.125 -0.46875 -0.390625 -0.828125q-0.25 -0.359375 -0.6875 -0.5625q-0.4375 -0.21875 -1.0625 -0.21875q-0.640625 0 -1.25 0.265625q-0.609375 0.265625 -1.140625 0.765625q-0.53125 0.5 -0.953125 1.203125q-0.421875 0.6875 -0.640625 1.546875l6.125 0zm4.184601 -4.953125l1.8125 0l0.390625 6.859375q0.015625 0.84375 0.03125 1.640625q0.015625 0.796875 0.03125 1.625l0.109375 0q0.359375 -0.828125 0.671875 -1.625q0.328125 -0.796875 0.71875 -1.640625l3.0625 -6.859375l1.796875 0l0.421875 6.859375q0.046875 0.84375 0.046875 1.640625q0.015625 0.796875 0.0625 1.625l0.09375 0q0.34375 -0.828125 0.65625 -1.625q0.3125 -0.796875 0.6875 -1.640625l3.0625 -6.859375l1.71875 0l-5.296875 11.65625l-2.28125 0l-0.34375 -6.390625q-0.015625 -0.828125 -0.03125 -1.6875q-0.015625 -0.875 -0.03125 -1.734375l-0.109375 0q-0.359375 0.859375 -0.703125 1.734375q-0.34375 0.859375 -0.703125 1.6875l-2.828125 6.390625l-2.21875 0l-0.828125 -11.65625zm19.264832 -4.09375l2.234375 0l1.359375 8.5l0.53125 3.265625l0.09375 0l1.6875 -3.265625l4.671875 -8.5l2.234375 0l-3.140625 15.75l-1.796875 0l1.828125 -8.875q0.203125 -1.078125 0.515625 -2.34375q0.3125 -1.265625 0.609375 -2.296875l-0.09375 0l-1.90625 3.5l-4.625 8.359375l-1.0625 0l-1.46875 -8.359375l-0.515625 -3.5l-0.09375 0q-0.15625 1.078125 -0.328125 2.328125q-0.15625 1.234375 -0.34375 2.3125l-1.78125 8.875l-1.75 0l3.140625 -15.75zm18.029327 16.03125q-1.90625 0 -3.03125 -1.234375q-1.125 -1.25 -1.125 -3.4375q0 -1.65625 0.515625 -3.046875q0.53125 -1.390625 1.421875 -2.390625q0.890625 -1.0 2.015625 -1.5625q1.140625 -0.5625 2.328125 -0.5625q1.90625 0 3.046875 1.25q1.140625 1.25 1.140625 3.4375q0 1.65625 -0.546875 3.046875q-0.546875 1.390625 -1.421875 2.390625q-0.875 0.984375 -2.015625 1.546875q-1.140625 0.5625 -2.328125 0.5625zm1.9375 -10.71875q-0.796875 0 -1.5625 0.46875q-0.765625 0.46875 -1.375 1.28125q-0.59375 0.796875 -0.953125 1.875q-0.359375 1.078125 -0.359375 2.296875q0 1.59375 0.640625 2.4375q0.640625 0.828125 1.859375 0.828125q0.8125 0 1.5625 -0.46875q0.765625 -0.46875 1.359375 -1.25q0.609375 -0.796875 0.96875 -1.875q0.359375 -1.078125 0.359375 -2.3125q0 -1.578125 -0.640625 -2.421875q-0.640625 -0.859375 -1.859375 -0.859375zm15.797455 -2.09375l0.90625 -4.5625l1.84375 0l-3.453125 17.09375l-1.515625 0l0.203125 -1.734375l-0.09375 0q-0.84375 0.921875 -1.90625 1.46875q-1.046875 0.546875 -2.15625 0.546875q-1.53125 0 -2.453125 -1.078125q-0.90625 -1.078125 -0.90625 -3.140625q0 -1.671875 0.515625 -3.140625q0.53125 -1.46875 1.421875 -2.546875q0.890625 -1.078125 2.015625 -1.703125q1.140625 -0.625 2.359375 -0.625q0.9375 0 1.625 0.46875q0.703125 0.46875 1.140625 1.234375l0.0625 0l0.390625 -2.28125zm-5.5 11.28125q0.90625 0 1.84375 -0.53125q0.9375 -0.546875 1.828125 -1.703125l1.0625 -5.203125q-0.515625 -0.90625 -1.125 -1.3125q-0.59375 -0.421875 -1.265625 -0.421875q-0.859375 0 -1.671875 0.515625q-0.8125 0.515625 -1.4375 1.390625q-0.625 0.859375 -1.0 1.984375q-0.375 1.109375 -0.375 2.3125q0 1.5 0.578125 2.234375q0.578125 0.734375 1.5625 0.734375zm8.761841 -3.328125q0 -1.65625 0.546875 -3.015625q0.546875 -1.359375 1.421875 -2.328125q0.890625 -0.96875 2.0 -1.5q1.109375 -0.53125 2.265625 -0.53125q0.984375 0 1.671875 0.328125q0.6875 0.328125 1.109375 0.890625q0.4375 0.5625 0.625 1.34375q0.203125 0.78125 0.203125 1.65625q0 0.703125 -0.15625 1.328125q-0.140625 0.625 -0.265625 0.953125l-7.578125 0q-0.171875 1.140625 0.015625 1.9375q0.203125 0.796875 0.640625 1.328125q0.453125 0.53125 1.09375 0.78125q0.65625 0.234375 1.421875 0.234375q0.6875 0 1.375 -0.296875q0.6875 -0.3125 1.234375 -0.71875l0.71875 1.234375q-0.6875 0.5 -1.65625 0.875q-0.953125 0.359375 -2.109375 0.359375q-2.078125 0 -3.328125 -1.25q-1.25 -1.265625 -1.25 -3.609375zm8.15625 -2.125q0.046875 -0.28125 0.078125 -0.5625q0.046875 -0.296875 0.046875 -0.625q0 -0.515625 -0.125 -0.984375q-0.125 -0.46875 -0.390625 -0.828125q-0.25 -0.359375 -0.6875 -0.5625q-0.4375 -0.21875 -1.0625 -0.21875q-0.640625 0 -1.25 0.265625q-0.609375 0.265625 -1.140625 0.765625q-0.53125 0.5 -0.953125 1.203125q-0.421875 0.6875 -0.640625 1.546875l6.125 0zm6.653351 -10.390625l1.84375 0l-3.0 14.953125q-0.046875 0.203125 -0.046875 0.296875q0 0.09375 0 0.15625q0 0.4375 0.40625 0.4375q0.078125 0 0.140625 0q0.078125 -0.015625 0.25 -0.0625l0.015625 1.40625q-0.234375 0.09375 -0.5 0.140625q-0.265625 0.046875 -0.65625 0.046875q-0.765625 0 -1.15625 -0.390625q-0.390625 -0.390625 -0.390625 -1.109375q0 -0.390625 0.140625 -1.015625l2.953125 -14.859375z" fill-rule="nonzero"></path><path fill="#c9daf8" d="m291.1726 148.46022l0 0c0 -18.69072 63.44867 -33.84253 141.71655 -33.84253l0 0c78.26788 0 141.71655 15.15181 141.71655 33.84253l0 0c0 18.690704 -63.44867 33.842514 -141.71655 33.842514l0 0c-78.26788 0 -141.71655 -15.15181 -141.71655 -33.842514z" fill-rule="nonzero"></path><path stroke="#434343" stroke-width="2.0" stroke-linejoin="round" stroke-linecap="butt" d="m291.1726 148.46022l0 0c0 -18.69072 63.44867 -33.84253 141.71655 -33.84253l0 0c78.26788 0 141.71655 15.15181 141.71655 33.84253l0 0c0 18.690704 -63.44867 33.842514 -141.71655 33.842514l0 0c-78.26788 0 -141.71655 -15.15181 -141.71655 -33.842514z" fill-rule="nonzero"></path><path fill="#434343" d="m362.7141 141.25021l1.890625 0l0.65625 8.734375q0.109375 1.296875 0.203125 2.59375q0.109375 1.296875 0.171875 2.59375l0.09375 0q0.609375 -1.265625 1.234375 -2.578125q0.640625 -1.328125 1.265625 -2.609375l4.34375 -8.734375l2.015625 0l-8.234375 15.75l-2.21875 0l-1.421875 -15.75zm13.013336 4.09375l1.84375 0l-2.359375 11.65625l-1.8125 0l2.328125 -11.65625zm1.546875 -2.4375q-0.46875 0 -0.828125 -0.265625q-0.34375 -0.28125 -0.34375 -0.8125q0 -0.59375 0.421875 -0.984375q0.421875 -0.40625 0.96875 -0.40625q0.484375 0 0.828125 0.296875q0.359375 0.28125 0.359375 0.8125q0 0.59375 -0.421875 0.984375q-0.421875 0.375 -0.984375 0.375zm1.9536133 9.515625q0 -1.65625 0.546875 -3.015625q0.546875 -1.359375 1.421875 -2.328125q0.890625 -0.96875 2.0 -1.5q1.109375 -0.53125 2.265625 -0.53125q0.984375 0 1.671875 0.328125q0.6875 0.328125 1.109375 0.890625q0.4375 0.5625 0.625 1.34375q0.203125 0.78125 0.203125 1.65625q0 0.703125 -0.15625 1.328125q-0.140625 0.625 -0.265625 0.953125l-7.578125 0q-0.171875 1.140625 0.015625 1.9375q0.203125 0.796875 0.640625 1.328125q0.453125 0.53125 1.09375 0.78125q0.65625 0.234375 1.421875 0.234375q0.6875 0 1.375 -0.296875q0.6875 -0.3125 1.234375 -0.71875l0.71875 1.234375q-0.6875 0.5 -1.65625 0.875q-0.953125 0.359375 -2.109375 0.359375q-2.078125 0 -3.328125 -1.25q-1.25 -1.265625 -1.25 -3.609375zm8.15625 -2.125q0.046875 -0.28125 0.078125 -0.5625q0.046875 -0.296875 0.046875 -0.625q0 -0.515625 -0.125 -0.984375q-0.125 -0.46875 -0.390625 -0.828125q-0.25 -0.359375 -0.6875 -0.5625q-0.4375 -0.21875 -1.0625 -0.21875q-0.640625 0 -1.25 0.265625q-0.609375 0.265625 -1.140625 0.765625q-0.53125 0.5 -0.953125 1.203125q-0.421875 0.6875 -0.640625 1.546875l6.125 0zm4.1845703 -4.953125l1.8125 0l0.390625 6.859375q0.015625 0.84375 0.03125 1.640625q0.015625 0.796875 0.03125 1.625l0.109375 0q0.359375 -0.828125 0.671875 -1.625q0.328125 -0.796875 0.71875 -1.640625l3.0625 -6.859375l1.796875 0l0.421875 6.859375q0.046875 0.84375 0.046875 1.640625q0.015625 0.796875 0.0625 1.625l0.09375 0q0.34375 -0.828125 0.65625 -1.625q0.3125 -0.796875 0.6875 -1.640625l3.0625 -6.859375l1.71875 0l-5.296875 11.65625l-2.28125 0l-0.34375 -6.390625q-0.015625 -0.828125 -0.03125 -1.6875q-0.015625 -0.875 -0.03125 -1.734375l-0.109375 0q-0.359375 0.859375 -0.703125 1.734375q-0.34375 0.859375 -0.703125 1.6875l-2.828125 6.390625l-2.21875 0l-0.828125 -11.65625zm16.655457 5.578125q0 -1.84375 0.578125 -3.625q0.59375 -1.796875 1.65625 -3.1875q1.078125 -1.40625 2.578125 -2.265625q1.5 -0.875 3.3125 -0.875q1.375 0 2.328125 0.65625q0.96875 0.65625 1.546875 1.671875l-1.296875 0.984375q-0.484375 -0.765625 -1.125 -1.234375q-0.640625 -0.46875 -1.546875 -0.46875q-1.421875 0 -2.546875 0.75q-1.125 0.734375 -1.921875 1.921875q-0.78125 1.171875 -1.21875 2.625q-0.4375 1.4375 -0.4375 2.890625q0 1.078125 0.234375 1.984375q0.234375 0.890625 0.703125 1.546875q0.484375 0.640625 1.25 1.015625q0.765625 0.375 1.828125 0.375q0.953125 0 1.75 -0.390625q0.8125 -0.390625 1.578125 -1.03125l0.84375 1.203125q-0.859375 0.765625 -1.96875 1.296875q-1.09375 0.515625 -2.546875 0.515625q-1.34375 0 -2.390625 -0.453125q-1.03125 -0.46875 -1.75 -1.3125q-0.703125 -0.84375 -1.078125 -2.0q-0.359375 -1.171875 -0.359375 -2.59375zm16.918732 6.359375q-1.90625 0 -3.03125 -1.234375q-1.125 -1.25 -1.125 -3.4375q0 -1.65625 0.515625 -3.046875q0.53125 -1.390625 1.421875 -2.390625q0.890625 -1.0 2.015625 -1.5625q1.140625 -0.5625 2.328125 -0.5625q1.90625 0 3.046875 1.25q1.140625 1.25 1.140625 3.4375q0 1.65625 -0.546875 3.046875q-0.546875 1.390625 -1.421875 2.390625q-0.875 0.984375 -2.015625 1.546875q-1.140625 0.5625 -2.328125 0.5625zm1.9375 -10.71875q-0.796875 0 -1.5625 0.46875q-0.765625 0.46875 -1.375 1.28125q-0.59375 0.796875 -0.953125 1.875q-0.359375 1.078125 -0.359375 2.296875q0 1.59375 0.640625 2.4375q0.640625 0.828125 1.859375 0.828125q0.8125 0 1.5625 -0.46875q0.765625 -0.46875 1.359375 -1.25q0.609375 -0.796875 0.96875 -1.875q0.359375 -1.078125 0.359375 -2.3125q0 -1.578125 -0.640625 -2.421875q-0.640625 -0.859375 -1.859375 -0.859375zm8.37558 -1.21875l1.515625 0l-0.171875 1.75l0.09375 0q1.015625 -0.875 2.0 -1.453125q0.984375 -0.59375 2.078125 -0.59375q1.5 0 2.125 0.765625q0.640625 0.765625 0.640625 2.140625q0 0.40625 -0.046875 0.765625q-0.03125 0.359375 -0.140625 0.84375l-1.5 7.4375l-1.8125 0l1.4375 -7.203125q0.09375 -0.484375 0.140625 -0.765625q0.046875 -0.28125 0.046875 -0.59375q0 -0.890625 -0.40625 -1.34375q-0.40625 -0.46875 -1.3125 -0.46875q-0.703125 0 -1.5625 0.515625q-0.84375 0.5 -1.953125 1.609375l-1.65625 8.25l-1.8125 0l2.296875 -11.65625zm12.693726 1.484375l-1.703125 0l0.265625 -1.375l1.828125 -0.109375l0.859375 -3.21875l1.5625 0l-0.65625 3.21875l2.953125 0l-0.28125 1.484375l-3.0 0l-1.375 6.671875q-0.0625 0.421875 -0.0625 0.859375q0 0.71875 0.3125 1.078125q0.328125 0.359375 1.171875 0.359375q0.34375 0 0.640625 -0.109375q0.3125 -0.125 0.578125 -0.25l0.40625 1.328125q-0.40625 0.1875 -0.953125 0.34375q-0.546875 0.171875 -1.25 0.171875q-0.765625 0 -1.296875 -0.203125q-0.53125 -0.203125 -0.875 -0.546875q-0.328125 -0.34375 -0.46875 -0.8125q-0.140625 -0.46875 -0.140625 -1.015625q0 -0.359375 0.03125 -0.65625q0.046875 -0.3125 0.09375 -0.640625l1.359375 -6.578125zm7.7062073 -1.484375l1.515625 0l-0.265625 2.21875l0.09375 0q0.703125 -1.078125 1.625 -1.796875q0.921875 -0.71875 2.0 -0.71875q0.59375 0 1.109375 0.21875l-0.65625 1.625q-0.375 -0.1875 -1.0 -0.1875q-0.875 0 -1.78125 0.75q-0.90625 0.734375 -1.65625 2.171875l-1.46875 7.375l-1.8125 0l2.296875 -11.65625zm10.254852 11.9375q-1.90625 0 -3.03125 -1.234375q-1.125 -1.25 -1.125 -3.4375q0 -1.65625 0.515625 -3.046875q0.53125 -1.390625 1.421875 -2.390625q0.890625 -1.0 2.015625 -1.5625q1.140625 -0.5625 2.328125 -0.5625q1.90625 0 3.046875 1.25q1.140625 1.25 1.140625 3.4375q0 1.65625 -0.546875 3.046875q-0.546875 1.390625 -1.421875 2.390625q-0.875 0.984375 -2.015625 1.546875q-1.140625 0.5625 -2.328125 0.5625zm1.9375 -10.71875q-0.796875 0 -1.5625 0.46875q-0.765625 0.46875 -1.375 1.28125q-0.59375 0.796875 -0.953125 1.875q-0.359375 1.078125 -0.359375 2.296875q0 1.59375 0.640625 2.4375q0.640625 0.828125 1.859375 0.828125q0.8125 0 1.5625 -0.46875q0.765625 -0.46875 1.359375 -1.25q0.609375 -0.796875 0.96875 -1.875q0.359375 -1.078125 0.359375 -2.3125q0 -1.578125 -0.640625 -2.421875q-0.640625 -0.859375 -1.859375 -0.859375zm9.484985 -6.65625l1.84375 0l-3.0 14.953125q-0.046875 0.203125 -0.046875 0.296875q0 0.09375 0 0.15625q0 0.4375 0.40625 0.4375q0.078125 0 0.140625 0q0.078125 -0.015625 0.25 -0.0625l0.015625 1.40625q-0.234375 0.09375 -0.5 0.140625q-0.265625 0.046875 -0.65625 0.046875q-0.765625 0 -1.15625 -0.390625q-0.390625 -0.390625 -0.390625 -1.109375q0 -0.390625 0.140625 -1.015625l2.953125 -14.859375zm5.9519653 0l1.84375 0l-3.0 14.953125q-0.046875 0.203125 -0.046875 0.296875q0 0.09375 0 0.15625q0 0.4375 0.40625 0.4375q0.078125 0 0.140625 0q0.078125 -0.015625 0.25 -0.0625l0.015625 1.40625q-0.234375 0.09375 -0.5 0.140625q-0.265625 0.046875 -0.65625 0.046875q-0.765625 0 -1.15625 -0.390625q-0.390625 -0.390625 -0.390625 -1.109375q0 -0.390625 0.140625 -1.015625l2.953125 -14.859375zm2.6863708 12.515625q0 -1.65625 0.546875 -3.015625q0.546875 -1.359375 1.421875 -2.328125q0.890625 -0.96875 2.0 -1.5q1.109375 -0.53125 2.265625 -0.53125q0.984375 0 1.671875 0.328125q0.6875 0.328125 1.109375 0.890625q0.4375 0.5625 0.625 1.34375q0.203125 0.78125 0.203125 1.65625q0 0.703125 -0.15625 1.328125q-0.140625 0.625 -0.265625 0.953125l-7.578125 0q-0.171875 1.140625 0.015625 1.9375q0.203125 0.796875 0.640625 1.328125q0.453125 0.53125 1.09375 0.78125q0.65625 0.234375 1.421875 0.234375q0.6875 0 1.375 -0.296875q0.6875 -0.3125 1.234375 -0.71875l0.71875 1.234375q-0.6875 0.5 -1.65625 0.875q-0.953125 0.359375 -2.109375 0.359375q-2.078125 0 -3.328125 -1.25q-1.25 -1.265625 -1.25 -3.609375zm8.15625 -2.125q0.046875 -0.28125 0.078125 -0.5625q0.046875 -0.296875 0.046875 -0.625q0 -0.515625 -0.125 -0.984375q-0.125 -0.46875 -0.390625 -0.828125q-0.25 -0.359375 -0.6875 -0.5625q-0.4375 -0.21875 -1.0625 -0.21875q-0.640625 0 -1.25 0.265625q-0.609375 0.265625 -1.140625 0.765625q-0.53125 0.5 -0.953125 1.203125q-0.421875 0.6875 -0.640625 1.546875l6.125 0zm5.5439453 -4.953125l1.515625 0l-0.265625 2.21875l0.09375 0q0.703125 -1.078125 1.625 -1.796875q0.921875 -0.71875 2.0 -0.71875q0.59375 0 1.109375 0.21875l-0.65625 1.625q-0.375 -0.1875 -1.0 -0.1875q-0.875 0 -1.78125 0.75q-0.90625 0.734375 -1.65625 2.171875l-1.46875 7.375l-1.8125 0l2.296875 -11.65625z" fill-rule="nonzero"></path><path fill="#c9daf8" d="m291.1726 60.12397l0 0c0 -18.690708 63.44867 -33.84252 141.71655 -33.84252l0 0c78.26788 0 141.71655 15.151812 141.71655 33.84252l0 0c0 18.690704 -63.44867 33.84252 -141.71655 33.84252l0 0c-78.26788 0 -141.71655 -15.151817 -141.71655 -33.84252z" fill-rule="nonzero"></path><path stroke="#434343" stroke-width="2.0" stroke-linejoin="round" stroke-linecap="butt" d="m291.1726 60.12397l0 0c0 -18.690708 63.44867 -33.84252 141.71655 -33.84252l0 0c78.26788 0 141.71655 15.151812 141.71655 33.84252l0 0c0 18.690704 -63.44867 33.84252 -141.71655 33.84252l0 0c-78.26788 0 -141.71655 -15.151817 -141.71655 -33.84252z" fill-rule="nonzero"></path><path fill="#434343" d="m411.80597 52.91397l1.890625 0l0.65625 8.734375q0.109375 1.296875 0.203125 2.59375q0.109375 1.296875 0.171875 2.59375l0.09375 0q0.609375 -1.265625 1.234375 -2.578125q0.640625 -1.328125 1.265625 -2.609375l4.34375 -8.734375l2.015625 0l-8.234375 15.75l-2.21875 0l-1.421875 -15.75zm13.013336 4.09375l1.84375 0l-2.359375 11.65625l-1.8125 0l2.328125 -11.65625zm1.546875 -2.4375q-0.46875 0 -0.828125 -0.265625q-0.34375 -0.28125 -0.34375 -0.8125q0 -0.59375 0.421875 -0.984375q0.421875 -0.40625 0.96875 -0.40625q0.484375 0 0.828125 0.296875q0.359375 0.28125 0.359375 0.8125q0 0.59375 -0.421875 0.984375q-0.421875 0.375 -0.984375 0.375zm1.9536133 9.515625q0 -1.65625 0.546875 -3.015625q0.546875 -1.359375 1.421875 -2.328125q0.890625 -0.96875 2.0 -1.5q1.109375 -0.53125 2.265625 -0.53125q0.984375 0 1.671875 0.328125q0.6875 0.328125 1.109375 0.890625q0.4375 0.5625 0.625 1.34375q0.203125 0.78125 0.203125 1.65625q0 0.703125 -0.15625 1.328125q-0.140625 0.625 -0.265625 0.953125l-7.578125 0q-0.171875 1.140625 0.015625 1.9375q0.203125 0.796875 0.640625 1.328125q0.453125 0.53125 1.09375 0.78125q0.65625 0.234375 1.421875 0.234375q0.6875 0 1.375 -0.296875q0.6875 -0.3125 1.234375 -0.71875l0.71875 1.234375q-0.6875 0.5 -1.65625 0.875q-0.953125 0.359375 -2.109375 0.359375q-2.078125 0 -3.328125 -1.25q-1.25 -1.265625 -1.25 -3.609375zm8.15625 -2.125q0.046875 -0.28125 0.078125 -0.5625q0.046875 -0.296875 0.046875 -0.625q0 -0.515625 -0.125 -0.984375q-0.125 -0.46875 -0.390625 -0.828125q-0.25 -0.359375 -0.6875 -0.5625q-0.4375 -0.21875 -1.0625 -0.21875q-0.640625 0 -1.25 0.265625q-0.609375 0.265625 -1.140625 0.765625q-0.53125 0.5 -0.953125 1.203125q-0.421875 0.6875 -0.640625 1.546875l6.125 0zm4.1845703 -4.953125l1.8125 0l0.390625 6.859375q0.015625 0.84375 0.03125 1.640625q0.015625 0.796875 0.03125 1.625l0.109375 0q0.359375 -0.828125 0.671875 -1.625q0.328125 -0.796875 0.71875 -1.640625l3.0625 -6.859375l1.796875 0l0.421875 6.859375q0.046875 0.84375 0.046875 1.640625q0.015625 0.796875 0.0625 1.625l0.09375 0q0.34375 -0.828125 0.65625 -1.625q0.3125 -0.796875 0.6875 -1.640625l3.0625 -6.859375l1.71875 0l-5.296875 11.65625l-2.28125 0l-0.34375 -6.390625q-0.015625 -0.828125 -0.03125 -1.6875q-0.015625 -0.875 -0.03125 -1.734375l-0.109375 0q-0.359375 0.859375 -0.703125 1.734375q-0.34375 0.859375 -0.703125 1.6875l-2.828125 6.390625l-2.21875 0l-0.828125 -11.65625z" fill-rule="nonzero"></path><path fill="#fce5cd" d="m178.16696 477.82867l0 0c0 -18.691467 54.89131 -33.843903 122.60318 -33.843903l0 0c67.71185 0 122.60318 15.152435 122.60318 33.843903l0 0c0 18.691467 -54.891327 33.843903 -122.60318 33.843903l0 0c-67.71187 0 -122.60318 -15.152435 -122.60318 -33.843903z" fill-rule="nonzero"></path><path stroke="#434343" stroke-width="2.0" stroke-linejoin="round" stroke-linecap="butt" d="m178.16696 477.82867l0 0c0 -18.691467 54.89131 -33.843903 122.60318 -33.843903l0 0c67.71185 0 122.60318 15.152435 122.60318 33.843903l0 0c0 18.691467 -54.891327 33.843903 -122.60318 33.843903l0 0c-67.71187 0 -122.60318 -15.152435 -122.60318 -33.843903z" fill-rule="nonzero"></path><path fill="#434343" d="m274.9466 470.61868l2.234375 0l1.359375 8.5l0.53125 3.265625l0.09375 0l1.6875 -3.265625l4.671875 -8.5l2.234375 0l-3.140625 15.75l-1.796875 0l1.828125 -8.875q0.203125 -1.078125 0.515625 -2.34375q0.3125 -1.265625 0.609375 -2.296875l-0.09375 0l-1.90625 3.5l-4.625 8.359375l-1.0625 0l-1.46875 -8.359375l-0.515625 -3.5l-0.09375 0q-0.15625 1.078125 -0.328125 2.328125q-0.15625 1.234375 -0.34375 2.3125l-1.78125 8.875l-1.75 0l3.140625 -15.75zm18.029327 16.03125q-1.90625 0 -3.03125 -1.234375q-1.125 -1.25 -1.125 -3.4375q0 -1.65625 0.515625 -3.046875q0.53125 -1.390625 1.421875 -2.390625q0.890625 -1.0 2.015625 -1.5625q1.140625 -0.5625 2.328125 -0.5625q1.90625 0 3.046875 1.25q1.140625 1.25 1.140625 3.4375q0 1.65625 -0.546875 3.046875q-0.546875 1.390625 -1.421875 2.390625q-0.875 0.984375 -2.015625 1.546875q-1.140625 0.5625 -2.328125 0.5625zm1.9375 -10.71875q-0.796875 0 -1.5625 0.46875q-0.765625 0.46875 -1.375 1.28125q-0.59375 0.796875 -0.953125 1.875q-0.359375 1.078125 -0.359375 2.296875q0 1.59375 0.640625 2.4375q0.640625 0.828125 1.859375 0.828125q0.8125 0 1.5625 -0.46875q0.765625 -0.46875 1.359375 -1.25q0.609375 -0.796875 0.96875 -1.875q0.359375 -1.078125 0.359375 -2.3125q0 -1.578125 -0.640625 -2.421875q-0.640625 -0.859375 -1.859375 -0.859375zm15.797455 -2.09375l0.90625 -4.5625l1.84375 0l-3.453125 17.09375l-1.515625 0l0.203125 -1.734375l-0.09375 0q-0.84375 0.921875 -1.90625 1.46875q-1.046875 0.546875 -2.15625 0.546875q-1.53125 0 -2.453125 -1.078125q-0.90625 -1.078125 -0.90625 -3.140625q0 -1.671875 0.515625 -3.140625q0.53125 -1.46875 1.421875 -2.546875q0.890625 -1.078125 2.015625 -1.703125q1.140625 -0.625 2.359375 -0.625q0.9375 0 1.625 0.46875q0.703125 0.46875 1.140625 1.234375l0.0625 0l0.390625 -2.28125zm-5.5 11.28125q0.90625 0 1.84375 -0.53125q0.9375 -0.546875 1.828125 -1.703125l1.0625 -5.203125q-0.515625 -0.90625 -1.125 -1.3125q-0.59375 -0.421875 -1.265625 -0.421875q-0.859375 0 -1.671875 0.515625q-0.8125 0.515625 -1.4375 1.390625q-0.625 0.859375 -1.0 1.984375q-0.375 1.109375 -0.375 2.3125q0 1.5 0.578125 2.234375q0.578125 0.734375 1.5625 0.734375zm8.761841 -3.328125q0 -1.65625 0.546875 -3.015625q0.546875 -1.359375 1.421875 -2.328125q0.890625 -0.96875 2.0 -1.5q1.109375 -0.53125 2.265625 -0.53125q0.984375 0 1.671875 0.328125q0.6875 0.328125 1.109375 0.890625q0.4375 0.5625 0.625 1.34375q0.203125 0.78125 0.203125 1.65625q0 0.703125 -0.15625 1.328125q-0.140625 0.625 -0.265625 0.953125l-7.578125 0q-0.171875 1.140625 0.015625 1.9375q0.203125 0.796875 0.640625 1.328125q0.453125 0.53125 1.09375 0.78125q0.65625 0.234375 1.421875 0.234375q0.6875 0 1.375 -0.296875q0.6875 -0.3125 1.234375 -0.71875l0.71875 1.234375q-0.6875 0.5 -1.65625 0.875q-0.953125 0.359375 -2.109375 0.359375q-2.078125 0 -3.328125 -1.25q-1.25 -1.265625 -1.25 -3.609375zm8.15625 -2.125q0.046875 -0.28125 0.078125 -0.5625q0.046875 -0.296875 0.046875 -0.625q0 -0.515625 -0.125 -0.984375q-0.125 -0.46875 -0.390625 -0.828125q-0.25 -0.359375 -0.6875 -0.5625q-0.4375 -0.21875 -1.0625 -0.21875q-0.640625 0 -1.25 0.265625q-0.609375 0.265625 -1.140625 0.765625q-0.53125 0.5 -0.953125 1.203125q-0.421875 0.6875 -0.640625 1.546875l6.125 0zm6.653351 -10.390625l1.84375 0l-3.0 14.953125q-0.046875 0.203125 -0.046875 0.296875q0 0.09375 0 0.15625q0 0.4375 0.40625 0.4375q0.078125 0 0.140625 0q0.078125 -0.015625 0.25 -0.0625l0.015625 1.40625q-0.234375 0.09375 -0.5 0.140625q-0.265625 0.046875 -0.65625 0.046875q-0.765625 0 -1.15625 -0.390625q-0.390625 -0.390625 -0.390625 -1.109375q0 -0.390625 0.140625 -1.015625l2.953125 -14.859375z" fill-rule="nonzero"></path><path fill="#fce5cd" d="m442.39838 477.82867l0 0c0 -18.691467 54.891296 -33.843903 122.60315 -33.843903l0 0c67.711914 0 122.60321 15.152435 122.60321 33.843903l0 0c0 18.691467 -54.891296 33.843903 -122.60321 33.843903l0 0c-67.71185 0 -122.60315 -15.152435 -122.60315 -33.843903z" fill-rule="nonzero"></path><path stroke="#434343" stroke-width="2.0" stroke-linejoin="round" stroke-linecap="butt" d="m442.39838 477.82867l0 0c0 -18.691467 54.891296 -33.843903 122.60315 -33.843903l0 0c67.711914 0 122.60321 15.152435 122.60321 33.843903l0 0c0 18.691467 -54.891296 33.843903 -122.60321 33.843903l0 0c-67.71185 0 -122.60315 -15.152435 -122.60315 -33.843903z" fill-rule="nonzero"></path><path fill="#434343" d="m531.4979 482.83743q0.703125 1.0625 1.71875 1.65625q1.015625 0.578125 2.34375 0.578125q0.71875 0 1.34375 -0.21875q0.625 -0.21875 1.0625 -0.59375q0.4375 -0.390625 0.703125 -0.9375q0.265625 -0.546875 0.265625 -1.21875q0 -0.875 -0.546875 -1.453125q-0.53125 -0.59375 -1.421875 -1.140625l-1.828125 -1.109375q-1.0 -0.625 -1.71875 -1.484375q-0.703125 -0.859375 -0.703125 -2.203125q0 -0.890625 0.375 -1.6875q0.375 -0.796875 1.015625 -1.390625q0.65625 -0.609375 1.546875 -0.953125q0.90625 -0.34375 1.96875 -0.34375q1.40625 0 2.5625 0.625q1.15625 0.625 1.890625 1.578125l-1.21875 1.109375q-0.625 -0.71875 -1.453125 -1.203125q-0.828125 -0.5 -1.9375 -0.5q-0.671875 0 -1.203125 0.21875q-0.515625 0.21875 -0.890625 0.578125q-0.375 0.359375 -0.5625 0.8125q-0.1875 0.453125 -0.1875 0.9375q0 0.90625 0.578125 1.46875q0.59375 0.5625 1.453125 1.09375l1.828125 1.078125q1.15625 0.671875 1.765625 1.53125q0.609375 0.84375 0.609375 2.171875q0 1.046875 -0.40625 1.9375q-0.40625 0.890625 -1.125 1.53125q-0.71875 0.625 -1.734375 0.984375q-1.0 0.359375 -2.203125 0.359375q-1.640625 0 -2.96875 -0.671875q-1.328125 -0.6875 -2.296875 -2.109375l1.375 -1.03125zm11.378296 -1.046875q0 -1.65625 0.546875 -3.015625q0.546875 -1.359375 1.421875 -2.328125q0.890625 -0.96875 2.0 -1.5q1.109375 -0.53125 2.265625 -0.53125q0.984375 0 1.671875 0.328125q0.6875 0.328125 1.109375 0.890625q0.4375 0.5625 0.625 1.34375q0.203125 0.78125 0.203125 1.65625q0 0.703125 -0.15625 1.328125q-0.140625 0.625 -0.265625 0.953125l-7.578125 0q-0.171875 1.140625 0.015625 1.9375q0.203125 0.796875 0.640625 1.328125q0.453125 0.53125 1.09375 0.78125q0.65625 0.234375 1.421875 0.234375q0.6875 0 1.375 -0.296875q0.6875 -0.3125 1.234375 -0.71875l0.71875 1.234375q-0.6875 0.5 -1.65625 0.875q-0.953125 0.359375 -2.109375 0.359375q-2.078125 0 -3.328125 -1.25q-1.25 -1.265625 -1.25 -3.609375zm8.15625 -2.125q0.046875 -0.28125 0.078125 -0.5625q0.046875 -0.296875 0.046875 -0.625q0 -0.515625 -0.125 -0.984375q-0.125 -0.46875 -0.390625 -0.828125q-0.25 -0.359375 -0.6875 -0.5625q-0.4375 -0.21875 -1.0625 -0.21875q-0.640625 0 -1.25 0.265625q-0.609375 0.265625 -1.140625 0.765625q-0.53125 0.5 -0.953125 1.203125q-0.421875 0.6875 -0.640625 1.546875l6.125 0zm5.5440063 -4.953125l1.515625 0l-0.265625 2.21875l0.09375 0q0.703125 -1.078125 1.625 -1.796875q0.921875 -0.71875 2.0 -0.71875q0.59375 0 1.109375 0.21875l-0.65625 1.625q-0.375 -0.1875 -1.0 -0.1875q-0.875 0 -1.78125 0.75q-0.90625 0.734375 -1.65625 2.171875l-1.46875 7.375l-1.8125 0l2.296875 -11.65625zm6.582947 0l1.8125 0l0.875 6.734375q0.09375 0.84375 0.15625 1.75q0.078125 0.890625 0.171875 1.734375l0.09375 0q0.40625 -0.859375 0.84375 -1.734375q0.4375 -0.890625 0.890625 -1.75l3.4375 -6.734375l1.84375 0l-6.21875 11.65625l-2.203125 0l-1.703125 -11.65625zm12.408203 0l1.84375 0l-2.359375 11.65625l-1.8125 0l2.328125 -11.65625zm1.546875 -2.4375q-0.46875 0 -0.828125 -0.265625q-0.34375 -0.28125 -0.34375 -0.8125q0 -0.59375 0.421875 -0.984375q0.421875 -0.40625 0.96875 -0.40625q0.484375 0 0.828125 0.296875q0.359375 0.28125 0.359375 0.8125q0 0.59375 -0.421875 0.984375q-0.421875 0.375 -0.984375 0.375zm1.9536133 9.703125q0 -1.640625 0.53125 -3.015625q0.546875 -1.375 1.4375 -2.375q0.90625 -1.015625 2.078125 -1.59375q1.1875 -0.578125 2.453125 -0.578125q1.0625 0 1.78125 0.40625q0.71875 0.40625 1.25 1.015625l-1.078125 1.140625q-0.46875 -0.546875 -0.921875 -0.796875q-0.453125 -0.25 -1.15625 -0.25q-0.859375 0 -1.671875 0.484375q-0.8125 0.46875 -1.453125 1.28125q-0.640625 0.796875 -1.015625 1.875q-0.359375 1.078125 -0.359375 2.28125q0 1.59375 0.671875 2.4375q0.6875 0.828125 2.078125 0.828125q0.765625 0 1.40625 -0.3125q0.640625 -0.3125 1.1875 -0.71875l0.8125 1.203125q-0.625 0.484375 -1.53125 0.921875q-0.90625 0.4375 -2.203125 0.4375q-1.921875 0 -3.109375 -1.203125q-1.1875 -1.21875 -1.1875 -3.46875zm10.440002 -0.1875q0 -1.65625 0.546875 -3.015625q0.546875 -1.359375 1.421875 -2.328125q0.890625 -0.96875 2.0 -1.5q1.109375 -0.53125 2.265625 -0.53125q0.984375 0 1.671875 0.328125q0.6875 0.328125 1.109375 0.890625q0.4375 0.5625 0.625 1.34375q0.203125 0.78125 0.203125 1.65625q0 0.703125 -0.15625 1.328125q-0.140625 0.625 -0.265625 0.953125l-7.578125 0q-0.171875 1.140625 0.015625 1.9375q0.203125 0.796875 0.640625 1.328125q0.453125 0.53125 1.09375 0.78125q0.65625 0.234375 1.421875 0.234375q0.6875 0 1.375 -0.296875q0.6875 -0.3125 1.234375 -0.71875l0.71875 1.234375q-0.6875 0.5 -1.65625 0.875q-0.953125 0.359375 -2.109375 0.359375q-2.078125 0 -3.328125 -1.25q-1.25 -1.265625 -1.25 -3.609375zm8.15625 -2.125q0.046875 -0.28125 0.078125 -0.5625q0.046875 -0.296875 0.046875 -0.625q0 -0.515625 -0.125 -0.984375q-0.125 -0.46875 -0.390625 -0.828125q-0.25 -0.359375 -0.6875 -0.5625q-0.4375 -0.21875 -1.0625 -0.21875q-0.640625 0 -1.25 0.265625q-0.609375 0.265625 -1.140625 0.765625q-0.53125 0.5 -0.953125 1.203125q-0.421875 0.6875 -0.640625 1.546875l6.125 0z" fill-rule="nonzero"></path><path fill="#000000" fill-opacity="0.0" d="m432.88916 114.61769l0 -20.661415" fill-rule="nonzero"></path><path stroke="#000000" stroke-width="1.0" stroke-linejoin="round" stroke-linecap="butt" d="m432.88916 114.61769l0 -14.661415" fill-rule="evenodd"></path><path fill="#000000" stroke="#000000" stroke-width="1.0" stroke-linecap="butt" d="m434.5409 99.956276l-1.6517334 -4.538101l-1.6517334 4.538101z" fill-rule="evenodd"></path><path fill="#000000" fill-opacity="0.0" d="m432.88916 259.7081l0 -77.41733" fill-rule="nonzero"></path><path stroke="#000000" stroke-width="1.0" stroke-linejoin="round" stroke-linecap="butt" d="m432.88916 259.7081l0 -71.41731" fill-rule="evenodd"></path><path fill="#000000" stroke="#000000" stroke-width="1.0" stroke-linecap="butt" d="m434.5409 188.29079l-1.6517334 -4.538101l-1.6517334 4.538101z" fill-rule="evenodd"></path><path fill="#000000" fill-opacity="0.0" d="m300.77014 443.98477c0 -29.147858 33.031494 -43.720917 66.06299 -58.295715c33.031494 -14.574799 66.06299 -29.151367 66.06299 -58.302704" fill-rule="nonzero"></path><path stroke="#000000" stroke-width="1.0" stroke-linejoin="round" stroke-linecap="butt" d="m300.77014 443.98477c0 -29.147858 33.031494 -43.720917 66.06299 -58.295715c16.515747 -7.2874146 33.031494 -14.575256 45.418304 -23.68515c6.1934204 -4.554962 11.354584 -9.56543 14.967407 -15.259125c1.806427 -2.8468323 3.225708 -5.864502 4.193451 -9.081421c0.24191284 -0.80422974 0.45562744 -1.6209106 0.6400757 -2.4505005c0.092285156 -0.4147644 0.17715454 -0.8327942 0.2546692 -1.2540894l0.103271484 -0.59213257" fill-rule="evenodd"></path><path fill="#000000" stroke="#000000" stroke-width="1.0" stroke-linecap="butt" d="m434.05664 333.50037l-1.2789001 -4.6569214l-2.013733 4.3894653z" fill-rule="evenodd"></path><path fill="#000000" fill-opacity="0.0" d="m565.0015 443.98477c0 -29.147858 -33.031494 -43.720917 -66.06296 -58.295715c-33.031494 -14.574799 -66.06302 -29.151367 -66.06302 -58.302704" fill-rule="nonzero"></path><path stroke="#000000" stroke-width="1.0" stroke-linejoin="round" stroke-linecap="butt" d="m564.5156 438.00452l-0.103149414 -0.5913391c-0.07751465 -0.42126465 -0.16241455 -0.8392029 -0.25463867 -1.2539368c-0.18450928 -0.8294678 -0.39819336 -1.6460876 -0.6401367 -2.4501648c-0.9677124 -3.2164917 -2.387024 -6.233734 -4.1934204 -9.08017c-3.612854 -5.692871 -8.773987 -10.702606 -14.967407 -15.256897c-12.38678 -9.108612 -28.902588 -16.395538 -45.418304 -23.682953c-16.515747 -7.2874146 -33.031494 -14.575256 -45.418304 -23.68515c-6.1934204 -4.554962 -11.354584 -9.56543 -14.967407 -15.259125c-1.8063965 -2.8468323 -3.225708 -5.864502 -4.193451 -9.081421c-0.24191284 -0.80422974 -0.45562744 -1.6209106 -0.6400757 -2.4505005c-0.092285156 -0.4147644 -0.17718506 -0.8327942 -0.2546692 -1.2540894l-0.103271484 -0.59213257" fill-rule="evenodd"></path><path fill="#000000" stroke="#000000" stroke-width="1.0" stroke-linecap="butt" d="m562.8693 438.13828l2.013855 4.3894043l1.2787476 -4.656952z" fill-rule="evenodd"></path><path fill="#000000" stroke="#000000" stroke-width="1.0" stroke-linecap="butt" d="m435.0077 333.2329l-2.0137634 -4.3894653l-1.2788696 4.6569214z" fill-rule="evenodd"></path><path fill="#000000" fill-opacity="0.0" d="m105.12089 202.9552l641.73224 0" fill-rule="nonzero"></path><path stroke="#434343" stroke-width="4.0" stroke-linejoin="round" stroke-linecap="butt" stroke-dasharray="16.0,12.0" d="m105.12089 202.9552l641.73224 0" fill-rule="nonzero"></path><path fill="#000000" fill-opacity="0.0" d="m580.9444 169.5915l165.92126 0l0 33.354324l-165.92126 0z" fill-rule="nonzero"></path><path fill="#000000" d="m616.8278 181.69116l3.8125 0q0.84375 0 1.578125 0.171875q0.75 0.171875 1.296875 0.5625q0.5625 0.390625 0.875 1.046875q0.328125 0.640625 0.328125 1.578125q0 0.921875 -0.328125 1.59375q-0.328125 0.671875 -0.890625 1.109375q-0.5625 0.421875 -1.296875 0.640625q-0.734375 0.203125 -1.5625 0.203125l-1.46875 0l0 3.53125l-2.34375 0l0 -10.4375zm3.65625 5.03125q1.921875 0 1.921875 -1.671875q0 -0.8125 -0.484375 -1.140625q-0.484375 -0.34375 -1.4375 -0.34375l-1.3125 0l0 3.15625l1.3125 0zm5.852234 -5.8125l2.34375 0l0 8.84375q0 0.375 0.125 0.515625q0.140625 0.140625 0.296875 0.140625q0.078125 0 0.125 0q0.0625 0 0.15625 -0.03125l0.296875 1.75q-0.203125 0.078125 -0.5 0.125q-0.296875 0.0625 -0.6875 0.0625q-0.609375 0 -1.03125 -0.1875q-0.40625 -0.1875 -0.65625 -0.53125q-0.25 -0.34375 -0.359375 -0.828125q-0.109375 -0.5 -0.109375 -1.109375l0 -8.75zm4.279114 9.015625q0 -1.25 1.046875 -1.953125q1.0625 -0.703125 3.421875 -0.953125q-0.03125 -0.515625 -0.328125 -0.828125q-0.28125 -0.3125 -0.921875 -0.3125q-0.515625 0 -1.03125 0.1875q-0.5 0.1875 -1.078125 0.53125l-0.828125 -1.5625q0.765625 -0.453125 1.59375 -0.734375q0.84375 -0.296875 1.796875 -0.296875q1.53125 0 2.328125 0.875q0.8125 0.859375 0.8125 2.703125l0 4.546875l-1.921875 0l-0.171875 -0.8125l-0.046875 0q-0.515625 0.4375 -1.078125 0.71875q-0.5625 0.28125 -1.234375 0.28125q-0.546875 0 -0.984375 -0.1875q-0.421875 -0.171875 -0.734375 -0.5q-0.296875 -0.328125 -0.46875 -0.765625q-0.171875 -0.4375 -0.171875 -0.9375zm2.234375 -0.1875q0 0.390625 0.25 0.578125q0.25 0.1875 0.671875 0.1875q0.40625 0 0.6875 -0.171875q0.296875 -0.1875 0.625 -0.5l0 -1.40625q-1.265625 0.1875 -1.75 0.53125q-0.484375 0.328125 -0.484375 0.78125zm6.9190674 -3.703125l-1.09375 0l0 -1.75l1.21875 -0.09375l0.28125 -2.109375l1.953125 0l0 2.109375l1.890625 0l0 1.84375l-1.890625 0l0 3.1875q0 0.671875 0.265625 0.96875q0.28125 0.296875 0.75 0.296875q0.1875 0 0.390625 -0.046875q0.203125 -0.0625 0.359375 -0.125l0.375 1.71875q-0.328125 0.09375 -0.765625 0.1875q-0.421875 0.09375 -1.0 0.09375q-0.734375 0 -1.265625 -0.21875q-0.515625 -0.21875 -0.84375 -0.625q-0.328125 -0.40625 -0.484375 -0.96875q-0.140625 -0.5625 -0.140625 -1.25l0 -3.21875zm10.284241 -3.296875q-0.4375 -0.15625 -0.8125 -0.15625q-0.4375 0 -0.671875 0.265625q-0.234375 0.25 -0.234375 0.859375l0 0.484375l1.421875 0l0 1.84375l-1.421875 0l0 6.09375l-2.359375 0l0 -6.09375l-1.046875 0l0 -1.75l1.046875 -0.078125l0 -0.4375q0 -0.609375 0.15625 -1.171875q0.15625 -0.5625 0.5 -0.96875q0.359375 -0.421875 0.90625 -0.65625q0.5625 -0.25 1.375 -0.25q0.484375 0 0.890625 0.09375q0.421875 0.09375 0.6875 0.1875l-0.4375 1.734375zm0.51849365 5.421875q0 -0.984375 0.3125 -1.765625q0.328125 -0.78125 0.859375 -1.296875q0.53125 -0.53125 1.234375 -0.8125q0.71875 -0.28125 1.46875 -0.28125q0.75 0 1.4375 0.28125q0.703125 0.28125 1.234375 0.8125q0.53125 0.515625 0.84375 1.296875q0.328125 0.78125 0.328125 1.765625q0 1.0 -0.328125 1.78125q-0.3125 0.765625 -0.84375 1.296875q-0.53125 0.515625 -1.234375 0.796875q-0.6875 0.28125 -1.4375 0.28125q-0.75 0 -1.46875 -0.28125q-0.703125 -0.28125 -1.234375 -0.796875q-0.53125 -0.53125 -0.859375 -1.296875q-0.3125 -0.78125 -0.3125 -1.78125zm2.40625 0q0 1.046875 0.359375 1.65625q0.375 0.59375 1.109375 0.59375q0.71875 0 1.078125 -0.59375q0.375 -0.609375 0.375 -1.65625q0 -1.046875 -0.375 -1.640625q-0.359375 -0.609375 -1.078125 -0.609375q-0.734375 0 -1.109375 0.609375q-0.359375 0.59375 -0.359375 1.640625zm6.942505 -3.96875l1.90625 0l0.171875 1.390625l0.0625 0q0.421875 -0.8125 1.03125 -1.1875q0.609375 -0.390625 1.21875 -0.390625q0.34375 0 0.546875 0.046875q0.21875 0.03125 0.40625 0.109375l-0.390625 2.03125q-0.21875 -0.0625 -0.421875 -0.09375q-0.1875 -0.03125 -0.4375 -0.03125q-0.453125 0 -0.9375 0.328125q-0.484375 0.3125 -0.8125 1.125l0 4.609375l-2.34375 0l0 -7.9375zm6.368042 0l1.90625 0l0.171875 1.03125l0.0625 0q0.5 -0.5 1.046875 -0.859375q0.5625 -0.359375 1.34375 -0.359375q0.859375 0 1.375 0.34375q0.515625 0.34375 0.828125 0.984375q0.515625 -0.546875 1.09375 -0.9375q0.59375 -0.390625 1.390625 -0.390625q1.28125 0 1.875 0.859375q0.609375 0.84375 0.609375 2.34375l0 4.921875l-2.34375 0l0 -4.625q0 -0.859375 -0.234375 -1.171875q-0.234375 -0.328125 -0.75 -0.328125q-0.59375 0 -1.359375 0.765625l0 5.359375l-2.34375 0l0 -4.625q0 -0.859375 -0.234375 -1.171875q-0.234375 -0.328125 -0.75 -0.328125q-0.609375 0 -1.34375 0.765625l0 5.359375l-2.34375 0l0 -7.9375zm17.899414 5.015625q0.5625 0.46875 1.234375 0.78125q0.6875 0.296875 1.34375 0.296875q0.734375 0 1.09375 -0.265625q0.359375 -0.28125 0.359375 -0.734375q0 -0.25 -0.109375 -0.421875q-0.09375 -0.171875 -0.296875 -0.3125q-0.203125 -0.140625 -0.484375 -0.25q-0.28125 -0.125 -0.609375 -0.265625l-1.359375 -0.578125q-0.40625 -0.15625 -0.78125 -0.40625q-0.375 -0.265625 -0.671875 -0.609375q-0.296875 -0.34375 -0.484375 -0.796875q-0.171875 -0.453125 -0.171875 -1.03125q0 -0.640625 0.265625 -1.203125q0.28125 -0.578125 0.78125 -1.0q0.5 -0.421875 1.171875 -0.65625q0.6875 -0.25 1.5 -0.25q0.90625 0 1.796875 0.359375q0.890625 0.34375 1.5625 1.015625l-1.203125 1.484375q-0.5 -0.390625 -1.015625 -0.609375q-0.515625 -0.21875 -1.140625 -0.21875q-0.609375 0 -0.96875 0.25q-0.359375 0.25 -0.359375 0.703125q0 0.234375 0.109375 0.40625q0.125 0.15625 0.34375 0.296875q0.21875 0.140625 0.5 0.265625q0.296875 0.109375 0.625 0.25l1.34375 0.546875q0.96875 0.390625 1.515625 1.0625q0.5625 0.671875 0.5625 1.765625q0 0.65625 -0.265625 1.25q-0.265625 0.578125 -0.78125 1.015625q-0.5 0.4375 -1.234375 0.703125q-0.734375 0.265625 -1.65625 0.265625q-1.03125 0 -2.046875 -0.375q-1.015625 -0.375 -1.8125 -1.125l1.34375 -1.609375zm10.380371 3.546875l0 2.3125l-2.34375 0l0 -10.875l1.90625 0l0.171875 0.78125l0.0625 0q0.453125 -0.40625 1.03125 -0.6875q0.59375 -0.28125 1.21875 -0.28125q0.71875 0 1.296875 0.296875q0.578125 0.28125 0.96875 0.8125q0.40625 0.515625 0.625 1.265625q0.21875 0.734375 0.21875 1.65625q0 1.015625 -0.28125 1.8125q-0.28125 0.796875 -0.75 1.34375q-0.46875 0.546875 -1.078125 0.84375q-0.59375 0.28125 -1.234375 0.28125q-0.515625 0 -1.0 -0.203125q-0.46875 -0.21875 -0.890625 -0.625l0.078125 1.265625zm0 -2.859375q0.328125 0.28125 0.640625 0.390625q0.328125 0.109375 0.625 0.109375q0.609375 0 1.03125 -0.546875q0.4375 -0.546875 0.4375 -1.78125q0 -2.140625 -1.375 -2.140625q-0.6875 0 -1.359375 0.71875l0 3.25zm6.35553 -1.734375q0 -0.953125 0.3125 -1.734375q0.328125 -0.78125 0.84375 -1.3125q0.515625 -0.53125 1.1875 -0.8125q0.671875 -0.296875 1.390625 -0.296875q0.859375 0 1.484375 0.296875q0.640625 0.28125 1.0625 0.796875q0.421875 0.5 0.625 1.203125q0.21875 0.6875 0.21875 1.515625q0 0.3125 -0.046875 0.578125q-0.03125 0.265625 -0.0625 0.40625l-4.75 0q0.171875 0.90625 0.71875 1.328125q0.546875 0.40625 1.34375 0.40625q0.859375 0 1.71875 -0.53125l0.78125 1.421875q-0.609375 0.421875 -1.359375 0.65625q-0.734375 0.234375 -1.453125 0.234375q-0.84375 0 -1.59375 -0.28125q-0.734375 -0.28125 -1.28125 -0.8125q-0.53125 -0.53125 -0.84375 -1.296875q-0.296875 -0.765625 -0.296875 -1.765625zm5.125 -0.8125q0 -0.6875 -0.3125 -1.125q-0.296875 -0.4375 -1.015625 -0.4375q-0.5625 0 -1.0 0.390625q-0.421875 0.375 -0.546875 1.171875l2.875 0zm3.1629639 0.8125q0 -0.984375 0.328125 -1.765625q0.34375 -0.78125 0.90625 -1.296875q0.578125 -0.53125 1.328125 -0.8125q0.75 -0.28125 1.5625 -0.28125q0.734375 0 1.328125 0.25q0.59375 0.25 1.0 0.65625l-1.078125 1.453125q-0.5625 -0.453125 -1.109375 -0.453125q-0.859375 0 -1.359375 0.609375q-0.5 0.59375 -0.5 1.640625q0 1.046875 0.5 1.65625q0.515625 0.59375 1.28125 0.59375q0.4375 0 0.78125 -0.171875q0.359375 -0.171875 0.640625 -0.390625l0.953125 1.484375q-0.578125 0.515625 -1.28125 0.75q-0.703125 0.234375 -1.359375 0.234375q-0.84375 0 -1.5625 -0.28125q-0.703125 -0.28125 -1.234375 -0.796875q-0.515625 -0.53125 -0.828125 -1.296875q-0.296875 -0.78125 -0.296875 -1.78125zm9.097046 -5.140625q-0.59375 0 -0.984375 -0.34375q-0.375 -0.34375 -0.375 -0.890625q0 -0.53125 0.375 -0.859375q0.390625 -0.34375 0.984375 -0.34375q0.609375 0 0.984375 0.34375q0.375 0.328125 0.375 0.859375q0 0.546875 -0.375 0.890625q-0.375 0.34375 -0.984375 0.34375zm-1.15625 1.171875l2.34375 0l0 7.9375l-2.34375 0l0 -7.9375zm8.884766 -1.453125q-0.4375 -0.15625 -0.8125 -0.15625q-0.4375 0 -0.671875 0.265625q-0.234375 0.25 -0.234375 0.859375l0 0.484375l1.421875 0l0 1.84375l-1.421875 0l0 6.09375l-2.359375 0l0 -6.09375l-1.046875 0l0 -1.75l1.046875 -0.078125l0 -0.4375q0 -0.609375 0.15625 -1.171875q0.15625 -0.5625 0.5 -0.96875q0.359375 -0.421875 0.90625 -0.65625q0.5625 -0.25 1.375 -0.25q0.484375 0 0.890625 0.09375q0.421875 0.09375 0.6875 0.1875l-0.4375 1.734375zm2.1434937 0.28125q-0.59375 0 -0.984375 -0.34375q-0.375 -0.34375 -0.375 -0.890625q0 -0.53125 0.375 -0.859375q0.390625 -0.34375 0.984375 -0.34375q0.609375 0 0.984375 0.34375q0.375 0.328125 0.375 0.859375q0 0.546875 -0.375 0.890625q-0.375 0.34375 -0.984375 0.34375zm-1.15625 1.171875l2.34375 0l0 7.9375l-2.34375 0l0 -7.9375zm3.9472656 3.96875q0 -0.984375 0.328125 -1.765625q0.34375 -0.78125 0.90625 -1.296875q0.578125 -0.53125 1.328125 -0.8125q0.75 -0.28125 1.5625 -0.28125q0.734375 0 1.328125 0.25q0.59375 0.25 1.0 0.65625l-1.078125 1.453125q-0.5625 -0.453125 -1.109375 -0.453125q-0.859375 0 -1.359375 0.609375q-0.5 0.59375 -0.5 1.640625q0 1.046875 0.5 1.65625q0.515625 0.59375 1.28125 0.59375q0.4375 0 0.78125 -0.171875q0.359375 -0.171875 0.640625 -0.390625l0.953125 1.484375q-0.578125 0.515625 -1.28125 0.75q-0.703125 0.234375 -1.359375 0.234375q-0.84375 0 -1.5625 -0.28125q-0.703125 -0.28125 -1.234375 -0.796875q-0.515625 -0.53125 -0.828125 -1.296875q-0.296875 -0.78125 -0.296875 -1.78125z" fill-rule="nonzero"></path><path fill="#000000" fill-opacity="0.0" d="m580.9444 202.9548l165.92126 0l0 33.354324l-165.92126 0z" fill-rule="nonzero"></path><path fill="#000000" d="m611.5638 215.05446l3.8125 0q0.84375 0 1.578125 0.171875q0.75 0.171875 1.296875 0.5625q0.5625 0.390625 0.875 1.046875q0.328125 0.640625 0.328125 1.578125q0 0.921875 -0.328125 1.59375q-0.328125 0.671875 -0.890625 1.109375q-0.5625 0.421875 -1.296875 0.640625q-0.734375 0.203125 -1.5625 0.203125l-1.46875 0l0 3.53125l-2.34375 0l0 -10.4375zm3.65625 5.03125q1.921875 0 1.921875 -1.671875q0 -0.8125 -0.484375 -1.140625q-0.484375 -0.34375 -1.4375 -0.34375l-1.3125 0l0 3.15625l1.3125 0zm5.852234 -5.8125l2.34375 0l0 8.84375q0 0.375 0.125 0.515625q0.140625 0.140625 0.296875 0.140625q0.078125 0 0.125 0q0.0625 0 0.15625 -0.03125l0.296875 1.75q-0.203125 0.078125 -0.5 0.125q-0.296875 0.0625 -0.6875 0.0625q-0.609375 0 -1.03125 -0.1875q-0.40625 -0.1875 -0.65625 -0.53125q-0.25 -0.34375 -0.359375 -0.828125q-0.109375 -0.5 -0.109375 -1.109375l0 -8.75zm4.279175 9.015625q0 -1.25 1.046875 -1.953125q1.0625 -0.703125 3.421875 -0.953125q-0.03125 -0.515625 -0.328125 -0.828125q-0.28125 -0.3125 -0.921875 -0.3125q-0.515625 0 -1.03125 0.1875q-0.5 0.1875 -1.078125 0.53125l-0.828125 -1.5625q0.765625 -0.453125 1.59375 -0.734375q0.84375 -0.296875 1.796875 -0.296875q1.53125 0 2.328125 0.875q0.8125 0.859375 0.8125 2.703125l0 4.546875l-1.921875 0l-0.171875 -0.8125l-0.046875 0q-0.515625 0.4375 -1.078125 0.71875q-0.5625 0.28125 -1.234375 0.28125q-0.546875 0 -0.984375 -0.1875q-0.421875 -0.171875 -0.734375 -0.5q-0.296875 -0.328125 -0.46875 -0.765625q-0.171875 -0.4375 -0.171875 -0.9375zm2.234375 -0.1875q0 0.390625 0.25 0.578125q0.25 0.1875 0.671875 0.1875q0.40625 0 0.6875 -0.171875q0.296875 -0.1875 0.625 -0.5l0 -1.40625q-1.265625 0.1875 -1.75 0.53125q-0.484375 0.328125 -0.484375 0.78125zm6.9190063 -3.703125l-1.09375 0l0 -1.75l1.21875 -0.09375l0.28125 -2.109375l1.953125 0l0 2.109375l1.890625 0l0 1.84375l-1.890625 0l0 3.1875q0 0.671875 0.265625 0.96875q0.28125 0.296875 0.75 0.296875q0.1875 0 0.390625 -0.046875q0.203125 -0.0625 0.359375 -0.125l0.375 1.71875q-0.328125 0.09375 -0.765625 0.1875q-0.421875 0.09375 -1.0 0.09375q-0.734375 0 -1.265625 -0.21875q-0.515625 -0.21875 -0.84375 -0.625q-0.328125 -0.40625 -0.484375 -0.96875q-0.140625 -0.5625 -0.140625 -1.25l0 -3.21875zm10.284241 -3.296875q-0.4375 -0.15625 -0.8125 -0.15625q-0.4375 0 -0.671875 0.265625q-0.234375 0.25 -0.234375 0.859375l0 0.484375l1.421875 0l0 1.84375l-1.421875 0l0 6.09375l-2.359375 0l0 -6.09375l-1.046875 0l0 -1.75l1.046875 -0.078125l0 -0.4375q0 -0.609375 0.15625 -1.171875q0.15625 -0.5625 0.5 -0.96875q0.359375 -0.421875 0.90625 -0.65625q0.5625 -0.25 1.375 -0.25q0.484375 0 0.890625 0.09375q0.421875 0.09375 0.6875 0.1875l-0.4375 1.734375zm0.51849365 5.421875q0 -0.984375 0.3125 -1.765625q0.328125 -0.78125 0.859375 -1.296875q0.53125 -0.53125 1.234375 -0.8125q0.71875 -0.28125 1.46875 -0.28125q0.75 0 1.4375 0.28125q0.703125 0.28125 1.234375 0.8125q0.53125 0.515625 0.84375 1.296875q0.328125 0.78125 0.328125 1.765625q0 1.0 -0.328125 1.78125q-0.3125 0.765625 -0.84375 1.296875q-0.53125 0.515625 -1.234375 0.796875q-0.6875 0.28125 -1.4375 0.28125q-0.75 0 -1.46875 -0.28125q-0.703125 -0.28125 -1.234375 -0.796875q-0.53125 -0.53125 -0.859375 -1.296875q-0.3125 -0.78125 -0.3125 -1.78125zm2.40625 0q0 1.046875 0.359375 1.65625q0.375 0.59375 1.109375 0.59375q0.71875 0 1.078125 -0.59375q0.375 -0.609375 0.375 -1.65625q0 -1.046875 -0.375 -1.640625q-0.359375 -0.609375 -1.078125 -0.609375q-0.734375 0 -1.109375 0.609375q-0.359375 0.59375 -0.359375 1.640625zm6.942566 -3.96875l1.90625 0l0.171875 1.390625l0.0625 0q0.421875 -0.8125 1.03125 -1.1875q0.609375 -0.390625 1.21875 -0.390625q0.34375 0 0.546875 0.046875q0.21875 0.03125 0.40625 0.109375l-0.390625 2.03125q-0.21875 -0.0625 -0.421875 -0.09375q-0.1875 -0.03125 -0.4375 -0.03125q-0.453125 0 -0.9375 0.328125q-0.484375 0.3125 -0.8125 1.125l0 4.609375l-2.34375 0l0 -7.9375zm6.367981 0l1.90625 0l0.171875 1.03125l0.0625 0q0.5 -0.5 1.046875 -0.859375q0.5625 -0.359375 1.34375 -0.359375q0.859375 0 1.375 0.34375q0.515625 0.34375 0.828125 0.984375q0.515625 -0.546875 1.09375 -0.9375q0.59375 -0.390625 1.390625 -0.390625q1.28125 0 1.875 0.859375q0.609375 0.84375 0.609375 2.34375l0 4.921875l-2.34375 0l0 -4.625q0 -0.859375 -0.234375 -1.171875q-0.234375 -0.328125 -0.75 -0.328125q-0.59375 0 -1.359375 0.765625l0 5.359375l-2.34375 0l0 -4.625q0 -0.859375 -0.234375 -1.171875q-0.234375 -0.328125 -0.75 -0.328125q-0.609375 0 -1.34375 0.765625l0 5.359375l-2.34375 0l0 -7.9375zm21.63379 3.625l-0.234375 -0.96875q-0.21875 -0.78125 -0.4375 -1.65625q-0.203125 -0.890625 -0.40625 -1.703125l-0.0625 0q-0.203125 0.828125 -0.40625 1.703125q-0.1875 0.875 -0.40625 1.65625l-0.265625 0.96875l2.21875 0zm0.484375 1.828125l-3.1875 0l-0.640625 2.484375l-2.390625 0l3.265625 -10.4375l2.828125 0l3.265625 10.4375l-2.5 0l-0.640625 -2.484375zm5.527405 3.46875q0 0.453125 0.46875 0.6875q0.484375 0.234375 1.28125 0.234375q0.8125 0 1.3125 -0.28125q0.515625 -0.28125 0.515625 -0.703125q0 -0.359375 -0.3125 -0.5q-0.3125 -0.125 -0.90625 -0.125l-0.8125 0q-0.421875 0 -0.671875 -0.03125q-0.25 -0.015625 -0.453125 -0.0625q-0.421875 0.390625 -0.421875 0.78125zm-1.9375 0.375q0 -0.953125 1.140625 -1.59375l0 -0.0625q-0.328125 -0.21875 -0.546875 -0.53125q-0.203125 -0.328125 -0.203125 -0.8125q0 -0.4375 0.25 -0.828125q0.265625 -0.390625 0.65625 -0.671875l0 -0.0625q-0.421875 -0.28125 -0.75 -0.8125q-0.328125 -0.546875 -0.328125 -1.25q0 -0.71875 0.265625 -1.25q0.28125 -0.546875 0.734375 -0.90625q0.453125 -0.359375 1.046875 -0.53125q0.59375 -0.171875 1.234375 -0.171875q0.703125 0 1.234375 0.1875l2.890625 0l0 1.71875l-1.265625 0q0.125 0.171875 0.1875 0.453125q0.078125 0.265625 0.078125 0.578125q0 0.6875 -0.25 1.203125q-0.234375 0.5 -0.65625 0.828125q-0.421875 0.328125 -1.0 0.484375q-0.5625 0.15625 -1.21875 0.15625q-0.46875 0 -0.953125 -0.15625q-0.171875 0.125 -0.234375 0.265625q-0.0625 0.125 -0.0625 0.328125q0 0.296875 0.265625 0.453125q0.265625 0.140625 0.9375 0.140625l1.28125 0q1.46875 0 2.234375 0.46875q0.78125 0.46875 0.78125 1.546875q0 0.625 -0.3125 1.140625q-0.296875 0.515625 -0.875 0.890625q-0.578125 0.375 -1.40625 0.59375q-0.8125 0.21875 -1.828125 0.21875q-0.703125 0 -1.3125 -0.125q-0.59375 -0.109375 -1.046875 -0.359375q-0.453125 -0.234375 -0.71875 -0.625q-0.25 -0.375 -0.25 -0.90625zm3.5 -5.296875q0.46875 0 0.78125 -0.328125q0.3125 -0.328125 0.3125 -1.0q0 -0.625 -0.3125 -0.953125q-0.3125 -0.328125 -0.78125 -0.328125q-0.46875 0 -0.78125 0.328125q-0.3125 0.3125 -0.3125 0.953125q0 0.671875 0.3125 1.0q0.3125 0.328125 0.78125 0.328125zm5.5440063 -4.0l1.90625 0l0.171875 1.015625l0.0625 0q0.515625 -0.484375 1.109375 -0.84375q0.609375 -0.359375 1.4375 -0.359375q1.296875 0 1.875 0.84375q0.578125 0.84375 0.578125 2.359375l0 4.921875l-2.34375 0l0 -4.625q0 -0.859375 -0.234375 -1.171875q-0.234375 -0.328125 -0.75 -0.328125q-0.4375 0 -0.765625 0.203125q-0.3125 0.1875 -0.703125 0.5625l0 5.359375l-2.34375 0l0 -7.9375zm8.683289 3.96875q0 -0.984375 0.3125 -1.765625q0.328125 -0.78125 0.859375 -1.296875q0.53125 -0.53125 1.234375 -0.8125q0.71875 -0.28125 1.46875 -0.28125q0.75 0 1.4375 0.28125q0.703125 0.28125 1.234375 0.8125q0.53125 0.515625 0.84375 1.296875q0.328125 0.78125 0.328125 1.765625q0 1.0 -0.328125 1.78125q-0.3125 0.765625 -0.84375 1.296875q-0.53125 0.515625 -1.234375 0.796875q-0.6875 0.28125 -1.4375 0.28125q-0.75 0 -1.46875 -0.28125q-0.703125 -0.28125 -1.234375 -0.796875q-0.53125 -0.53125 -0.859375 -1.296875q-0.3125 -0.78125 -0.3125 -1.78125zm2.40625 0q0 1.046875 0.359375 1.65625q0.375 0.59375 1.109375 0.59375q0.71875 0 1.078125 -0.59375q0.375 -0.609375 0.375 -1.65625q0 -1.046875 -0.375 -1.640625q-0.359375 -0.609375 -1.078125 -0.609375q-0.734375 0 -1.109375 0.609375q-0.359375 0.59375 -0.359375 1.640625zm7.286255 1.578125q0.546875 0.421875 1.03125 0.640625q0.5 0.203125 1.015625 0.203125q0.53125 0 0.765625 -0.171875q0.25 -0.1875 0.25 -0.5q0 -0.203125 -0.140625 -0.34375q-0.140625 -0.15625 -0.375 -0.28125q-0.21875 -0.125 -0.515625 -0.234375q-0.28125 -0.109375 -0.59375 -0.234375q-0.359375 -0.140625 -0.734375 -0.328125q-0.359375 -0.203125 -0.671875 -0.484375q-0.296875 -0.28125 -0.5 -0.65625q-0.1875 -0.375 -0.1875 -0.859375q0 -0.546875 0.21875 -1.015625q0.21875 -0.46875 0.609375 -0.78125q0.40625 -0.328125 0.96875 -0.5q0.5625 -0.1875 1.25 -0.1875q0.90625 0 1.59375 0.3125q0.6875 0.3125 1.203125 0.6875l-1.0625 1.40625q-0.421875 -0.3125 -0.84375 -0.484375q-0.421875 -0.1875 -0.828125 -0.1875q-0.90625 0 -0.90625 0.625q0 0.203125 0.125 0.34375q0.140625 0.125 0.34375 0.234375q0.21875 0.109375 0.5 0.21875q0.28125 0.109375 0.59375 0.21875q0.375 0.140625 0.75 0.328125q0.375 0.1875 0.6875 0.453125q0.3125 0.265625 0.5 0.671875q0.203125 0.390625 0.203125 0.921875q0 0.546875 -0.21875 1.015625q-0.203125 0.46875 -0.625 0.8125q-0.40625 0.34375 -1.015625 0.546875q-0.609375 0.1875 -1.40625 0.1875q-0.78125 0 -1.609375 -0.296875q-0.828125 -0.3125 -1.421875 -0.796875l1.046875 -1.484375zm7.0567627 -3.703125l-1.09375 0l0 -1.75l1.21875 -0.09375l0.28125 -2.109375l1.953125 0l0 2.109375l1.890625 0l0 1.84375l-1.890625 0l0 3.1875q0 0.671875 0.265625 0.96875q0.28125 0.296875 0.75 0.296875q0.1875 0 0.390625 -0.046875q0.203125 -0.0625 0.359375 -0.125l0.375 1.71875q-0.328125 0.09375 -0.765625 0.1875q-0.421875 0.09375 -1.0 0.09375q-0.734375 0 -1.265625 -0.21875q-0.515625 -0.21875 -0.84375 -0.625q-0.328125 -0.40625 -0.484375 -0.96875q-0.140625 -0.5625 -0.140625 -1.25l0 -3.21875zm6.9717407 -3.015625q-0.59375 0 -0.984375 -0.34375q-0.375 -0.34375 -0.375 -0.890625q0 -0.53125 0.375 -0.859375q0.390625 -0.34375 0.984375 -0.34375q0.609375 0 0.984375 0.34375q0.375 0.328125 0.375 0.859375q0 0.546875 -0.375 0.890625q-0.375 0.34375 -0.984375 0.34375zm-1.15625 1.171875l2.34375 0l0 7.9375l-2.34375 0l0 -7.9375zm3.9472656 3.96875q0 -0.984375 0.328125 -1.765625q0.34375 -0.78125 0.90625 -1.296875q0.578125 -0.53125 1.328125 -0.8125q0.75 -0.28125 1.5625 -0.28125q0.734375 0 1.328125 0.25q0.59375 0.25 1.0 0.65625l-1.078125 1.453125q-0.5625 -0.453125 -1.109375 -0.453125q-0.859375 0 -1.359375 0.609375q-0.5 0.59375 -0.5 1.640625q0 1.046875 0.5 1.65625q0.515625 0.59375 1.28125 0.59375q0.4375 0 0.78125 -0.171875q0.359375 -0.171875 0.640625 -0.390625l0.953125 1.484375q-0.578125 0.515625 -1.28125 0.75q-0.703125 0.234375 -1.359375 0.234375q-0.84375 0 -1.5625 -0.28125q-0.703125 -0.28125 -1.234375 -0.796875q-0.515625 -0.53125 -0.828125 -1.296875q-0.296875 -0.78125 -0.296875 -1.78125z" fill-rule="nonzero"></path></g></svg>

